<svg width="50" height="50" viewBox="0 0 50 50" fill="none" xmlns="http://www.w3.org/2000/svg">
<path d="M24.1072 37.4683C22.5862 37.3629 21.0977 36.9776 19.7166 36.3318C19.5926 36.2739 19.4584 36.241 19.3217 36.235C19.185 36.2289 19.0484 36.2499 18.9198 36.2967C18.7912 36.3434 18.673 36.4151 18.5721 36.5075C18.4712 36.6 18.3895 36.7114 18.3317 36.8355L17.0244 39.6386C14.2111 38.1014 11.8984 35.7885 10.3614 32.975L13.164 31.6683C13.2881 31.6105 13.3996 31.5289 13.4922 31.428C13.5847 31.3271 13.6564 31.209 13.7032 31.0803C13.75 30.9517 13.7709 30.8151 13.7648 30.6783C13.7587 30.5416 13.7257 30.4073 13.6676 30.2834C13.022 28.9018 12.6367 27.413 12.5312 25.8917C12.4924 25.3675 12.2572 24.8773 11.8728 24.5189C11.4883 24.1605 10.9828 23.9603 10.4572 23.9584H3.12492C2.84865 23.9584 2.5837 24.0681 2.38835 24.2635C2.193 24.4588 2.08325 24.7238 2.08325 25C2.08325 37.6365 12.3635 47.9167 24.9999 47.9167C25.2762 47.9167 25.5411 47.807 25.7365 47.6116C25.9318 47.4163 26.0416 47.1513 26.0416 46.875V39.5427C26.0395 39.017 25.8391 38.5113 25.4806 38.1268C25.122 37.7422 24.6316 37.5071 24.1072 37.4683ZM23.9583 45.8073C13.2973 45.2802 4.71971 36.7021 4.19263 26.0412L10.4536 26.0391C10.5546 27.4761 10.8635 28.8724 11.3734 30.2047L8.50721 31.5412C8.38304 31.5989 8.27147 31.6805 8.17889 31.7813C8.08631 31.8822 8.01455 32.0003 7.96771 32.129C7.92088 32.2577 7.89989 32.3943 7.90595 32.5311C7.91202 32.6678 7.94501 32.8021 8.00304 32.9261C9.87143 36.9184 13.0815 40.1285 17.0739 41.9969C17.1979 42.0548 17.3321 42.0877 17.4689 42.0937C17.6056 42.0997 17.7422 42.0787 17.8708 42.0318C17.9994 41.985 18.1175 41.9133 18.2184 41.8208C18.3193 41.7283 18.401 41.6168 18.4588 41.4927L19.7952 38.6266C21.1296 39.1374 22.5327 39.446 23.9583 39.5422V45.8073ZM22.9166 22.9167V21.875C22.9166 21.3006 22.4494 20.8334 21.8749 20.8334H18.7499C18.4736 20.8334 18.2087 20.7236 18.0133 20.5283C17.818 20.3329 17.7083 20.068 17.7083 19.7917C17.7083 19.5154 17.818 19.2505 18.0133 19.0551C18.2087 18.8598 18.4736 18.75 18.7499 18.75H21.8749C23.5984 18.75 24.9999 20.1516 24.9999 21.875V22.9167C24.9999 24.6401 23.5984 26.0417 21.8749 26.0417H20.8333C20.2588 26.0417 19.7916 26.5089 19.7916 27.0834V29.1667H23.9583C24.2345 29.1667 24.4995 29.2765 24.6948 29.4718C24.8902 29.6672 24.9999 29.9321 24.9999 30.2084C24.9999 30.4846 24.8902 30.7496 24.6948 30.9449C24.4995 31.1403 24.2345 31.25 23.9583 31.25H18.7499C18.4736 31.25 18.2087 31.1403 18.0133 30.9449C17.818 30.7496 17.7083 30.4846 17.7083 30.2084V27.0834C17.7083 25.3599 19.1098 23.9584 20.8333 23.9584H21.8749C22.4494 23.9584 22.9166 23.4912 22.9166 22.9167ZM32.2916 26.0417H28.1249C27.8486 26.0417 27.5837 25.932 27.3883 25.7366C27.193 25.5413 27.0833 25.2763 27.0833 25V19.7917C27.0833 19.5154 27.193 19.2505 27.3883 19.0551C27.5837 18.8598 27.8486 18.75 28.1249 18.75C28.4012 18.75 28.6661 18.8598 28.8615 19.0551C29.0568 19.2505 29.1666 19.5154 29.1666 19.7917V23.9584H32.2916V19.7917C32.2916 19.5154 32.4013 19.2505 32.5967 19.0551C32.792 18.8598 33.057 18.75 33.3333 18.75C33.6095 18.75 33.8745 18.8598 34.0698 19.0551C34.2652 19.2505 34.3749 19.5154 34.3749 19.7917V30.2084C34.3749 30.4846 34.2652 30.7496 34.0698 30.9449C33.8745 31.1403 33.6095 31.25 33.3333 31.25C33.057 31.25 32.792 31.1403 32.5967 30.9449C32.4013 30.7496 32.2916 30.4846 32.2916 30.2084V26.0417ZM47.9166 25C47.9166 35.3636 40.9322 44.4688 30.9322 47.1417C30.6652 47.2127 30.381 47.1749 30.1418 47.0367C29.9026 46.8984 29.728 46.671 29.6562 46.4042C29.5849 46.1373 29.6226 45.853 29.7609 45.6138C29.8992 45.3746 30.1268 45.2001 30.3937 45.1287C33.5863 44.2751 36.5284 42.6702 38.9744 40.448L36.7853 38.2589C36.6858 38.1628 36.6065 38.0479 36.5519 37.9208C36.4973 37.7937 36.4686 37.657 36.4674 37.5187C36.4662 37.3804 36.4925 37.2432 36.5449 37.1152C36.5973 36.9872 36.6746 36.8709 36.7724 36.7731C36.8702 36.6753 36.9865 36.5979 37.1145 36.5455C37.2426 36.4932 37.3797 36.4668 37.518 36.468C37.6564 36.4692 37.793 36.4979 37.9201 36.5525C38.0472 36.6071 38.1622 36.6865 38.2583 36.786L40.4489 38.9766C43.6716 35.4113 45.5636 30.8421 45.8046 26.0422H42.7083C42.432 26.0422 42.167 25.9325 41.9717 25.7371C41.7763 25.5418 41.6666 25.2768 41.6666 25.0006C41.6666 24.7243 41.7763 24.4593 41.9717 24.264C42.167 24.0686 42.432 23.9589 42.7083 23.9589H45.8067C45.5614 18.9985 43.5723 14.4891 40.4416 11.0318L38.2577 13.2157C38.0541 13.4193 37.7879 13.5209 37.5213 13.5209C37.2546 13.5209 36.9885 13.4193 36.7848 13.2157C36.5895 13.0203 36.4798 12.7554 36.4798 12.4792C36.4798 12.203 36.5895 11.9381 36.7848 11.7427L38.9687 9.5589C35.5114 6.42765 31.002 4.43858 26.0416 4.19327V7.29171C26.0416 7.56797 25.9318 7.83293 25.7365 8.02828C25.5411 8.22363 25.2762 8.33337 24.9999 8.33337C24.7236 8.33337 24.4587 8.22363 24.2633 8.02828C24.068 7.83293 23.9583 7.56797 23.9583 7.29171V4.19535C19.1584 4.43648 14.5892 6.32844 11.0239 9.55108L13.2145 11.7417C13.314 11.8378 13.3933 11.9527 13.4479 12.0798C13.5025 12.2069 13.5313 12.3436 13.5325 12.4819C13.5337 12.6202 13.5073 12.7574 13.4549 12.8854C13.4026 13.0134 13.3252 13.1297 13.2274 13.2275C13.1296 13.3253 13.0133 13.4027 12.8853 13.4551C12.7573 13.5074 12.6201 13.5338 12.4818 13.5326C12.3435 13.5314 12.2068 13.5027 12.0797 13.4481C11.9526 13.3935 11.8377 13.3141 11.7416 13.2146L9.55252 11.0256C7.3303 13.4714 5.72539 16.4133 4.87179 19.6058C4.80045 19.8727 4.62598 20.1004 4.38677 20.2387C4.14757 20.377 3.86322 20.4146 3.59627 20.3433C3.32933 20.2719 3.10166 20.0975 2.96335 19.8582C2.82505 19.619 2.78743 19.3347 2.85877 19.0677C5.53117 9.06775 14.6364 2.08337 24.9999 2.08337C37.6364 2.08337 47.9166 12.3636 47.9166 25Z" fill="#16192C"/>
<path d="M24.1072 37.4683C22.5862 37.3629 21.0977 36.9776 19.7166 36.3318C19.5926 36.2739 19.4584 36.241 19.3217 36.235C19.185 36.2289 19.0484 36.2499 18.9198 36.2967C18.7912 36.3434 18.673 36.4151 18.5721 36.5075C18.4712 36.6 18.3895 36.7114 18.3317 36.8355L17.0244 39.6386C14.2111 38.1014 11.8984 35.7885 10.3614 32.975L13.164 31.6683C13.2881 31.6105 13.3996 31.5289 13.4922 31.428C13.5847 31.3271 13.6564 31.209 13.7032 31.0803C13.75 30.9517 13.7709 30.8151 13.7648 30.6783C13.7587 30.5416 13.7257 30.4073 13.6676 30.2834C13.022 28.9018 12.6367 27.413 12.5312 25.8917C12.4924 25.3675 12.2572 24.8773 11.8728 24.5189C11.4883 24.1605 10.9828 23.9603 10.4572 23.9584H3.12492C2.84865 23.9584 2.5837 24.0681 2.38835 24.2635C2.193 24.4588 2.08325 24.7238 2.08325 25C2.08325 37.6365 12.3635 47.9167 24.9999 47.9167C25.2762 47.9167 25.5411 47.807 25.7365 47.6116C25.9318 47.4163 26.0416 47.1513 26.0416 46.875V39.5427C26.0395 39.017 25.8391 38.5113 25.4806 38.1268C25.122 37.7422 24.6316 37.5071 24.1072 37.4683ZM23.9583 45.8073C13.2973 45.2802 4.71971 36.7021 4.19263 26.0412L10.4536 26.0391C10.5546 27.4761 10.8635 28.8724 11.3734 30.2047L8.50721 31.5412C8.38304 31.5989 8.27147 31.6805 8.17889 31.7813C8.08631 31.8822 8.01455 32.0003 7.96771 32.129C7.92088 32.2577 7.89989 32.3943 7.90595 32.5311C7.91202 32.6678 7.94501 32.8021 8.00304 32.9261C9.87143 36.9184 13.0815 40.1285 17.0739 41.9969C17.1979 42.0548 17.3321 42.0877 17.4689 42.0937C17.6056 42.0997 17.7422 42.0787 17.8708 42.0318C17.9994 41.985 18.1175 41.9133 18.2184 41.8208C18.3193 41.7283 18.401 41.6168 18.4588 41.4927L19.7952 38.6266C21.1296 39.1374 22.5327 39.446 23.9583 39.5422V45.8073Z" fill="#A414D5"/>
</svg>
