<svg width="50" height="50" viewBox="0 0 50 50" fill="none" xmlns="http://www.w3.org/2000/svg">
<g clip-path="url(#clip0_121_2144)">
<path d="M9.37494 43.75C9.37351 43.2669 9.22254 42.796 8.94277 42.4021C8.663 42.0082 8.26816 41.7105 7.81244 41.55V39.0625C7.81244 38.8553 7.73013 38.6566 7.58362 38.5101C7.43711 38.3636 7.23839 38.2813 7.03119 38.2813H2.34369C1.79149 38.2802 1.25673 38.4746 0.834129 38.8301C0.411532 39.1855 0.12837 39.6791 0.034797 40.2233C-0.0587764 40.7675 0.0432769 41.3273 0.322882 41.8035C0.602486 42.2797 1.0416 42.6416 1.56244 42.825V44.675C1.0416 44.8585 0.602486 45.2203 0.322882 45.6965C0.0432769 46.1727 -0.0587764 46.7325 0.034797 47.2767C0.12837 47.8209 0.411532 48.3145 0.834129 48.6699C1.25673 49.0254 1.79149 49.2198 2.34369 49.2188H7.03119C7.23839 49.2188 7.43711 49.1364 7.58362 48.9899C7.73013 48.8434 7.81244 48.6447 7.81244 48.4375V45.95C8.26816 45.7895 8.663 45.4918 8.94277 45.0979C9.22254 44.704 9.37351 44.2332 9.37494 43.75ZM2.34369 39.8438H6.24994V41.4063H2.34369C2.13649 41.4063 1.93778 41.3239 1.79127 41.1774C1.64475 41.0309 1.56244 40.8322 1.56244 40.625C1.56244 40.4178 1.64475 40.2191 1.79127 40.0726C1.93778 39.9261 2.13649 39.8438 2.34369 39.8438ZM6.24994 47.6563H2.34369C2.13649 47.6563 1.93778 47.5739 1.79127 47.4274C1.64475 47.2809 1.56244 47.0822 1.56244 46.875C1.56244 46.6678 1.64475 46.4691 1.79127 46.3226C1.93778 46.1761 2.13649 46.0938 2.34369 46.0938H6.24994V47.6563ZM7.03119 44.5313H3.12494V42.9688H7.03119C7.23839 42.9688 7.43711 43.0511 7.58362 43.1976C7.73013 43.3441 7.81244 43.5428 7.81244 43.75C7.81244 43.9572 7.73013 44.1559 7.58362 44.3024C7.43711 44.4489 7.23839 44.5313 7.03119 44.5313Z" fill="#A414D5"/>
<path d="M49.1789 19.6523L48.8203 6.57969C48.806 6.0733 48.5947 5.59247 48.2315 5.23937C47.8682 4.88627 47.3816 4.68873 46.875 4.68873C46.3684 4.68873 45.8818 4.88627 45.5185 5.23937C45.1553 5.59247 44.944 6.0733 44.9297 6.57969L44.5453 20.4187L37.7641 29.6656L32.5391 25.1883C32.4703 25.1285 32.3915 25.0814 32.3063 25.0492L26.1211 22.7305L22.6562 20.6516V18.1523C23.2869 17.6459 23.814 17.0225 24.2086 16.3164C24.4682 16.3761 24.7337 16.4062 25 16.4062C25.7759 16.4535 26.5392 16.1929 27.1242 15.681C27.7093 15.1691 28.0689 14.4472 28.125 13.6719V7.03125C28.1229 5.37428 27.4638 3.78577 26.2921 2.61412C25.1205 1.44246 23.532 0.783317 21.875 0.78125H15.625C14.9213 0.782143 14.2384 1.02005 13.6865 1.45661C13.1345 1.89317 12.7457 2.50291 12.5828 3.1875C11.6832 3.35223 10.8697 3.82694 10.2836 4.52913C9.69761 5.23133 9.37611 6.11664 9.375 7.03125V13.6719C9.43114 14.4472 9.79074 15.1691 10.3758 15.681C10.9608 16.1929 11.7241 16.4535 12.5 16.4062C12.7663 16.4062 13.0318 16.3761 13.2914 16.3164C13.686 17.0225 14.2131 17.6459 14.8438 18.1523V20.6516L11.3789 22.7297L8.23672 23.9094C7.19627 24.3031 6.29987 25.0035 5.66611 25.9178C5.03236 26.8321 4.6911 27.9172 4.6875 29.0297V35.9375C4.6875 36.1447 4.76981 36.3434 4.91632 36.4899C5.06284 36.6364 5.26155 36.7188 5.46875 36.7188C5.67595 36.7188 5.87466 36.6364 6.02118 36.4899C6.16769 36.3434 6.25 36.1447 6.25 35.9375V29.0297C6.25255 28.2351 6.4963 27.46 6.94899 26.807C7.40168 26.154 8.04198 25.6538 8.78516 25.3727L10.9375 24.5648V47.6562H10.1562C9.94905 47.6562 9.75034 47.7386 9.60382 47.8851C9.45731 48.0316 9.375 48.2303 9.375 48.4375C9.375 48.6447 9.45731 48.8434 9.60382 48.9899C9.75034 49.1364 9.94905 49.2188 10.1562 49.2188H32.0312C32.2385 49.2188 32.4372 49.1364 32.5837 48.9899C32.7302 48.8434 32.8125 48.6447 32.8125 48.4375V37.8992L38.6781 40.3914C38.8529 40.4657 39.0488 40.4737 39.2291 40.4141C39.4094 40.3544 39.5618 40.2311 39.6578 40.0672L49.6109 23.0688C49.925 22.5312 50.053 21.9049 49.9748 21.2872C49.8967 20.6695 49.617 20.0948 49.1789 19.6523ZM46.875 6.25C46.9749 6.24957 47.071 6.28837 47.1426 6.35806C47.2142 6.42776 47.2556 6.52277 47.2578 6.62266L47.593 18.8477C47.1071 18.76 46.6063 18.8115 46.1484 18.9961L46.4922 6.62266C46.4944 6.52277 46.5358 6.42776 46.6074 6.35806C46.679 6.28837 46.7751 6.24957 46.875 6.25ZM17.8906 28.9062H19.6094L21.0516 42.6094L18.75 44.3359L16.4484 42.6094L17.8906 28.9062ZM19.8422 27.3438H17.6578L17.0328 26.1602L18.75 25.1297L20.4672 26.1609L19.8422 27.3438ZM20.0094 24.0633L21.9961 22.0773L24.5219 23.593L22.5352 25.5789L20.0094 24.0633ZM14.0625 13.2812V10.0797C15.0318 9.94238 15.9315 9.49798 16.6297 8.81172C18.7875 9.70528 21.1021 10.1587 23.4375 10.1453V13.2812C23.4375 14.5245 22.9436 15.7167 22.0646 16.5958C21.1855 17.4749 19.9932 17.9688 18.75 17.9688C17.5068 17.9688 16.3145 17.4749 15.4354 16.5958C14.5564 15.7167 14.0625 14.5245 14.0625 13.2812ZM25 14.8438C24.933 14.8399 24.8662 14.8326 24.8 14.8219C24.9308 14.3187 24.998 13.8011 25 13.2812V12.5C25.8469 12.5 26.5625 13.0367 26.5625 13.6719C26.5625 14.307 25.8469 14.8438 25 14.8438ZM13.2812 4.6875C13.4885 4.6875 13.6872 4.60519 13.8337 4.45868C13.9802 4.31216 14.0625 4.11345 14.0625 3.90625C14.0629 3.49198 14.2277 3.09479 14.5206 2.80185C14.8135 2.50892 15.2107 2.34416 15.625 2.34375H21.875C23.1178 2.3452 24.3092 2.83952 25.188 3.71829C26.0667 4.59705 26.5611 5.78849 26.5625 7.03125V11.318C26.0792 11.069 25.5436 10.9386 25 10.9375V9.375C25 9.1678 24.9177 8.96909 24.7712 8.82257C24.6247 8.67606 24.426 8.59375 24.2188 8.59375C19.1109 8.59375 16.857 7.17422 16.8398 7.1625C16.7512 7.10346 16.6515 7.06316 16.5467 7.04408C16.4419 7.02499 16.3344 7.02753 16.2306 7.05153C16.1269 7.07552 16.0291 7.12048 15.9434 7.18363C15.8577 7.24678 15.7857 7.32679 15.732 7.41875C15.0617 8.56719 13.2961 8.59375 13.2812 8.59375C13.074 8.59375 12.8753 8.67606 12.7288 8.82257C12.5823 8.96909 12.5 9.1678 12.5 9.375V10.9375C11.9564 10.9386 11.4208 11.069 10.9375 11.318V7.03125C10.9381 6.40984 11.1852 5.81406 11.6247 5.37465C12.0641 4.93525 12.6598 4.68812 13.2812 4.6875ZM12.5 14.8438C11.6531 14.8438 10.9375 14.307 10.9375 13.6719C10.9375 13.0367 11.6531 12.5 12.5 12.5V13.2812C12.502 13.8011 12.5692 14.3187 12.7 14.8219C12.6338 14.8326 12.567 14.8399 12.5 14.8438ZM18.75 19.5312C19.5537 19.5309 20.3496 19.3747 21.0938 19.0711V20.7703L18.75 23.1141L16.4062 20.7703V19.0703C17.1503 19.3742 17.9463 19.5307 18.75 19.5312ZM15.5039 22.0781L17.4906 24.0633L14.9648 25.5789L12.9781 23.593L15.5039 22.0781ZM12.5 25.3227L14.2914 27.1141C14.4147 27.2373 14.5756 27.3158 14.7486 27.337C14.9216 27.3582 15.0967 27.321 15.2461 27.2312L15.6914 26.9641L16.3859 28.2789L14.8484 42.8867C14.8341 43.021 14.8549 43.1567 14.9089 43.2806C14.9629 43.4044 15.0481 43.512 15.1562 43.593L18.2812 45.9367C18.4164 46.0384 18.5809 46.0934 18.75 46.0934C18.9191 46.0934 19.0836 46.0384 19.2188 45.9367L22.3438 43.593C22.4519 43.512 22.5371 43.4044 22.5911 43.2806C22.6451 43.1567 22.6659 43.021 22.6516 42.8867L21.1141 28.2789L21.8094 26.9641L22.2547 27.2312C22.404 27.3208 22.579 27.3579 22.7518 27.3367C22.9246 27.3155 23.0854 27.2371 23.2086 27.1141L25 25.3234V47.6562H12.5V25.3227ZM38.6562 38.6836L32.8125 36.2031V32.8125C32.8125 32.6053 32.7302 32.4066 32.5837 32.2601C32.4372 32.1136 32.2385 32.0312 32.0312 32.0312C31.824 32.0312 31.6253 32.1136 31.4788 32.2601C31.3323 32.4066 31.25 32.6053 31.25 32.8125V47.6562H26.5625V24.5648L31.6273 26.4648L36.8367 30.9297L36.0828 31.957C35.9603 32.1242 35.9091 32.3333 35.9407 32.5382C35.9723 32.7431 36.084 32.9271 36.2512 33.0496C36.4184 33.1722 36.6274 33.2233 36.8323 33.1917C37.0372 33.1601 37.2212 33.0485 37.3438 32.8813L44.1289 23.6289L46.4523 25.3711L38.6562 38.6836ZM48.2625 22.2789L47.2469 24.0133L45.0531 22.368L46.1414 20.8836C46.3342 20.6208 46.6205 20.4421 46.9412 20.3844C47.262 20.3266 47.5926 20.3943 47.8649 20.5734C48.1372 20.7525 48.3303 21.0294 48.4043 21.3468C48.4782 21.6642 48.4275 21.9979 48.2625 22.2789Z" fill="#16192C"/>
<path d="M12.5 25.3227L14.2914 27.1141C14.4147 27.2373 14.5756 27.3158 14.7486 27.337C14.9216 27.3582 15.0967 27.321 15.2461 27.2312L15.6914 26.9641L16.3859 28.2789L14.8484 42.8867C14.8341 43.021 14.8549 43.1567 14.9089 43.2806C14.9629 43.4044 15.0481 43.512 15.1562 43.593L18.2812 45.9367M19.2188 45.9367L22.3438 43.593C22.4519 43.512 22.5371 43.4044 22.5911 43.2806C22.6451 43.1567 22.6659 43.021 22.6516 42.8867L21.1141 28.2789L21.8094 26.9641L22.2547 27.2312C22.404 27.3208 22.579 27.3579 22.7518 27.3367C22.9246 27.3155 23.0854 27.2371 23.2086 27.1141L25 25.3234M17.8906 28.9062H19.6094L21.0516 42.6094L18.75 44.3359L16.4484 42.6094L17.8906 28.9062ZM19.8422 27.3438H17.6578L17.0328 26.1602L18.75 25.1297L20.4672 26.1609L19.8422 27.3438ZM20.0094 24.0633L21.9961 22.0773L24.5219 23.593L22.5352 25.5789L20.0094 24.0633ZM18.75 19.5312C19.5537 19.5309 20.3496 19.3747 21.0938 19.0711V20.7703L18.75 23.1141L16.4062 20.7703V19.0703C17.1503 19.3742 17.9463 19.5307 18.75 19.5312ZM15.5039 22.0781L17.4906 24.0633L14.9648 25.5789L12.9781 23.593L15.5039 22.0781Z" stroke="#A414D5"/>
</g>
<defs>
<clipPath id="clip0_121_2144">
<rect width="50" height="50" fill="white"/>
</clipPath>
</defs>
</svg>
