<svg width="50" height="50" viewBox="0 0 50 50" fill="none" xmlns="http://www.w3.org/2000/svg">
<path d="M25.8454 3.20703C20.9805 3.20703 17.0204 7.16172 17.0196 12.0219C17.0188 12.9523 17.2399 16.7828 20.8282 19.2586C21.1383 19.4727 21.5055 20.1141 21.5055 20.3992V21.5359C21.5055 23.8922 23.443 25.8164 25.8454 25.8164C28.2469 25.8164 30.1836 23.8922 30.1836 21.5352V20.3984C30.1836 20.1141 30.5532 19.4727 30.8626 19.2586C32.0344 18.4499 32.9929 17.3695 33.6562 16.1096C34.3195 14.8498 34.6677 13.448 34.6712 12.0242C34.6712 8.22187 31.6516 3.20781 25.8454 3.20703ZM25.8454 4.61406C26.8193 4.6119 27.7841 4.80196 28.6844 5.17334C29.5848 5.54472 30.403 6.09011 31.0922 6.77828C31.7813 7.46645 32.3279 8.28385 32.7007 9.18365C33.0734 10.0834 33.2648 11.0479 33.2641 12.0219C33.2614 13.2181 32.9689 14.396 32.4116 15.4545C31.8543 16.513 31.0489 17.4208 30.0641 18.1C29.3376 18.6016 28.7782 19.4242 28.7782 20.3984V20.6094H26.5469V14.75L28.3829 12.7055C28.5019 12.5659 28.5616 12.3853 28.5493 12.2022C28.537 12.0192 28.4537 11.8482 28.3171 11.7257C28.1804 11.6033 28.0014 11.5391 27.8181 11.5468C27.6348 11.5546 27.4618 11.6337 27.336 11.7672L25.9063 13.357L24.3274 11.775C24.2623 11.7097 24.1849 11.658 24.0997 11.6226C24.0146 11.5873 23.9233 11.569 23.8311 11.569C23.7389 11.5689 23.6476 11.587 23.5623 11.6222C23.4771 11.6574 23.3997 11.7091 23.3344 11.7742C23.2692 11.8394 23.2174 11.9167 23.182 12.0019C23.1467 12.087 23.1285 12.1783 23.1284 12.2705C23.1283 12.3627 23.1464 12.4541 23.1816 12.5393C23.2168 12.6245 23.2685 12.7019 23.3336 12.7672L25.1422 14.5797V20.6094H22.911V20.3984C22.911 19.4242 22.3532 18.6016 21.6266 18.1C20.6419 17.4208 19.8364 16.513 19.2791 15.4545C18.7218 14.396 18.4293 13.2181 18.4266 12.0219C18.4259 11.0479 18.6174 10.0834 18.9901 9.18365C19.3628 8.28385 19.9094 7.46645 20.5986 6.77828C21.2878 6.09011 22.106 5.54472 23.0063 5.17334C23.9067 4.80196 24.8714 4.6119 25.8454 4.61406ZM12.7829 7.075C12.6721 7.22451 12.6252 7.41181 12.6523 7.59587C12.6793 7.77994 12.7783 7.94577 12.9274 8.05703L14.4368 9.17891C14.5866 9.28561 14.7723 9.32934 14.954 9.30072C15.1358 9.27209 15.299 9.17339 15.4088 9.02578C15.5186 8.87817 15.5662 8.69342 15.5413 8.51114C15.5164 8.32887 15.4211 8.1636 15.2758 8.05078L13.7665 6.92969C13.6166 6.81882 13.4289 6.77179 13.2445 6.79888C13.06 6.82596 12.8938 6.92495 12.7821 7.07422L12.7829 7.075ZM37.9501 6.92969L36.4407 8.05078C36.2911 8.16215 36.1918 8.32839 36.1648 8.51292C36.1378 8.69745 36.1852 8.88517 36.2965 9.03477C36.4079 9.18436 36.5741 9.28359 36.7587 9.31063C36.9432 9.33766 37.1309 9.29028 37.2805 9.17891L38.7891 8.05703C38.9311 7.9431 39.0234 7.77853 39.0465 7.59794C39.0697 7.41736 39.0218 7.23485 38.9131 7.0888C38.8044 6.94275 38.6433 6.84456 38.4637 6.81489C38.2841 6.78521 38.1 6.82636 37.9501 6.92969ZM12.6266 10.7578C12.4401 10.7578 12.2613 10.8319 12.1294 10.9638C11.9976 11.0956 11.9235 11.2745 11.9235 11.4609C11.9235 11.6474 11.9976 11.8263 12.1294 11.9581C12.2613 12.09 12.4401 12.1641 12.6266 12.1641H14.479C14.6654 12.1641 14.8443 12.09 14.9761 11.9581C15.108 11.8263 15.1821 11.6474 15.1821 11.4609C15.1821 11.2745 15.108 11.0956 14.9761 10.9638C14.8443 10.8319 14.6654 10.7578 14.479 10.7578H12.6266ZM37.2376 10.7578C37.0511 10.7578 36.8722 10.8319 36.7404 10.9638C36.6085 11.0956 36.5344 11.2745 36.5344 11.4609C36.5344 11.6474 36.6085 11.8263 36.7404 11.9581C36.8722 12.09 37.0511 12.1641 37.2376 12.1641H39.0891C39.2756 12.1641 39.4544 12.09 39.5863 11.9581C39.7182 11.8263 39.7922 11.6474 39.7922 11.4609C39.7922 11.2745 39.7182 11.0956 39.5863 10.9638C39.4544 10.8319 39.2756 10.7578 39.0891 10.7578H37.2376ZM18.7594 20.7258L4.73599 24.7945C4.54771 24.8547 4.39068 24.9664 4.25006 25.3023C3.04302 28.1922 2.8649 30.7414 4.09771 33.4477C3.14146 35.6602 3.13677 38.0289 3.82115 40.3422C4.12584 41.375 4.90084 42.0375 5.75631 42.2273L25.8969 46.682C26.6719 46.8539 27.4696 46.8414 28.2391 46.6422L45.2008 42.2594C46.1133 42.0234 46.6454 40.8828 46.4001 39.8555C45.8704 37.6336 45.9149 35.9688 46.6993 33.7391C46.7243 33.6484 46.7821 33.4242 46.7102 33.1836C45.9774 30.7531 45.8336 29.0422 46.3836 26.9461C46.6547 25.9148 46.0594 25.318 45.2165 25.1117L32.5626 22.5727C32.3823 22.5422 32.1973 22.583 32.0467 22.6866C31.8961 22.7902 31.7918 22.9484 31.7558 23.1276C31.7199 23.3068 31.7551 23.493 31.8541 23.6466C31.953 23.8003 32.108 23.9094 32.286 23.9508L42.036 25.907L29.1258 29.243C27.7642 29.5962 26.3382 29.6214 24.9649 29.3164L7.50631 25.4531L19.1516 22.0758C19.3306 22.0237 19.4816 21.9027 19.5714 21.7394C19.6612 21.576 19.6825 21.3837 19.6305 21.2047C19.504 20.7711 19.0626 20.6391 18.7594 20.7258ZM22.954 22.0156H28.7352C28.5094 23.3797 27.3376 24.4117 25.8454 24.4117C24.3532 24.4117 23.1797 23.3805 22.954 22.0156ZM5.27974 26.5109L24.7251 30.8125C25.1758 30.9125 25.6297 30.9773 26.0844 31.0141C25.6696 32.9727 25.6079 34.1625 25.7079 35.1703C25.7829 35.918 25.9329 36.5219 26.0727 37.2602C25.584 37.2238 25.0984 37.1531 24.6196 37.0484L6.05474 32.943L5.27974 32.7586C4.27271 30.6008 4.3899 28.8539 5.27974 26.5109ZM45.1274 26.6672C44.6165 28.7367 44.7711 30.6891 45.3274 32.8547L39.9227 34.2508V31.6219L40.7329 31.3984C40.9127 31.3487 41.0654 31.2296 41.1575 31.0672C41.2495 30.9049 41.2732 30.7127 41.2235 30.5328C41.1738 30.353 41.0546 30.2002 40.8923 30.1082C40.73 30.0162 40.5377 29.9925 40.3579 30.0422L33.3633 31.9695C33.2742 31.9941 33.1908 32.0359 33.1179 32.0926C33.045 32.1494 32.9839 32.2199 32.9382 32.3003C32.846 32.4626 32.822 32.6548 32.8715 32.8348C32.9211 33.0147 33.04 33.1676 33.2023 33.2599C33.3646 33.3521 33.5568 33.3761 33.7368 33.3266L34.5446 33.1031V35.65L29.4696 36.9625C28.8211 37.1305 28.1649 37.232 27.5055 37.2727C27.3493 36.3688 27.1751 35.725 27.1055 35.0297C27.0172 34.1422 27.0688 33.0688 27.5227 31.0266C28.1583 30.9871 28.7887 30.8874 29.4055 30.7289L45.1274 26.6672ZM38.518 32.0094V39.0563L37.7774 38.4969C37.6324 38.3864 37.4502 38.3366 37.2692 38.3579C37.0882 38.3791 36.9225 38.4699 36.8071 38.6109L35.9508 39.6562V32.7156L38.518 32.0094ZM5.26802 34.3195L24.379 38.5469C24.9461 38.6719 25.5188 38.75 26.0922 38.7883C25.6704 40.7687 25.6071 41.9664 25.7079 42.9805C25.786 43.7617 25.9461 44.3891 26.0907 45.175L5.99693 40.7281C5.69927 40.6617 5.12584 40.1094 5.04615 39.8414C4.46802 37.8828 4.54381 36.0961 5.26802 34.3195ZM45.2376 34.4508C44.761 36.4055 44.6719 38.2555 45.1508 40.2633C45.2211 40.5625 45.1547 40.7117 44.9219 40.7719L27.9586 45.1531C27.818 45.1898 27.6758 45.2172 27.5329 45.2375C27.3696 44.2484 27.179 43.575 27.1055 42.8398C27.0165 41.9469 27.0696 40.8656 27.5313 38.7961C28.2798 38.7531 29.0224 38.6375 29.7485 38.4508L34.5446 37.2117V41.6266C34.5446 42.2867 35.3727 42.582 35.7907 42.0719L37.4665 40.0258L38.7938 41.0336C38.8983 41.1131 39.0229 41.1617 39.1535 41.1741C39.2842 41.1864 39.4157 41.1619 39.5332 41.1034C39.6506 41.0448 39.7494 40.9546 39.8182 40.8429C39.8871 40.7311 39.9233 40.6023 39.9227 40.4711V35.8242L45.2376 34.4508Z" fill="#16192C"/>
<path d="M25.8453 3.20703C20.9805 3.20703 17.0203 7.16172 17.0196 12.0219C17.0188 12.9523 17.2399 16.7828 20.8281 19.2586C21.1383 19.4727 21.5055 20.1141 21.5055 20.3992V21.5359C21.5055 23.8922 23.443 25.8164 25.8453 25.8164C28.2469 25.8164 30.1836 23.8922 30.1836 21.5352V20.3984C30.1836 20.1141 30.5532 19.4727 30.8625 19.2586C32.0344 18.4499 32.9929 17.3695 33.6562 16.1096C34.3194 14.8498 34.6677 13.448 34.6711 12.0242C34.6711 8.22187 31.6516 3.20781 25.8453 3.20703ZM25.8453 4.61406C26.8193 4.6119 27.784 4.80196 28.6844 5.17334C29.5847 5.54472 30.4029 6.09011 31.0921 6.77828C31.7813 7.46645 32.3279 8.28385 32.7006 9.18365C33.0733 10.0834 33.2648 11.0479 33.2641 12.0219C33.2614 13.2181 32.9689 14.396 32.4116 15.4545C31.8543 16.513 31.0488 17.4208 30.0641 18.1C29.3375 18.6016 28.7781 19.4242 28.7781 20.3984V20.6094H26.5469V14.75L28.3828 12.7055C28.5019 12.5659 28.5616 12.3853 28.5493 12.2022C28.537 12.0192 28.4536 11.8482 28.317 11.7257C28.1804 11.6033 28.0014 11.5391 27.8181 11.5468C27.6348 11.5546 27.4618 11.6337 27.336 11.7672L25.9063 13.357L24.3274 11.775C24.2622 11.7097 24.1849 11.658 24.0997 11.6226C24.0145 11.5873 23.9233 11.569 23.831 11.569C23.7388 11.5689 23.6475 11.587 23.5623 11.6222C23.4771 11.6574 23.3996 11.7091 23.3344 11.7742C23.2691 11.8394 23.2174 11.9167 23.182 12.0019C23.1467 12.087 23.1284 12.1783 23.1284 12.2705C23.1283 12.3627 23.1464 12.4541 23.1816 12.5393C23.2168 12.6245 23.2685 12.7019 23.3336 12.7672L25.1422 14.5797V20.6094H22.911V20.3984C22.911 19.4242 22.3531 18.6016 21.6266 18.1C20.6418 17.4208 19.8364 16.513 19.2791 15.4545C18.7218 14.396 18.4293 13.2181 18.4266 12.0219C18.4259 11.0479 18.6173 10.0834 18.99 9.18365C19.3628 8.28385 19.9094 7.46645 20.5985 6.77828C21.2877 6.09011 22.1059 5.54472 23.0063 5.17334C23.9066 4.80196 24.8714 4.6119 25.8453 4.61406ZM12.7828 7.075C12.6721 7.22451 12.6251 7.41181 12.6522 7.59587C12.6793 7.77994 12.7783 7.94577 12.9274 8.05703L14.4367 9.17891C14.5866 9.28561 14.7723 9.32934 14.954 9.30072C15.1357 9.27209 15.299 9.17339 15.4088 9.02578C15.5186 8.87817 15.5661 8.69341 15.5413 8.51114C15.5164 8.32887 15.4211 8.1636 15.2758 8.05078L13.7664 6.92969C13.6165 6.81882 13.4289 6.77179 13.2444 6.79888C13.06 6.82596 12.8937 6.92495 12.7821 7.07422L12.7828 7.075ZM37.95 6.92969L36.4407 8.05078C36.2911 8.16215 36.1918 8.32839 36.1648 8.51292C36.1378 8.69745 36.1851 8.88517 36.2965 9.03477C36.4079 9.18436 36.5741 9.28359 36.7587 9.31063C36.9432 9.33766 37.1309 9.29028 37.2805 9.17891L38.7891 8.05703C38.9311 7.9431 39.0234 7.77853 39.0465 7.59794C39.0696 7.41736 39.0218 7.23485 38.9131 7.0888C38.8044 6.94275 38.6433 6.84456 38.4637 6.81489C38.2841 6.78521 38.0999 6.82636 37.95 6.92969ZM12.6266 10.7578C12.4401 10.7578 12.2613 10.8319 12.1294 10.9638C11.9975 11.0956 11.9235 11.2745 11.9235 11.4609C11.9235 11.6474 11.9975 11.8263 12.1294 11.9581C12.2613 12.09 12.4401 12.1641 12.6266 12.1641H14.4789C14.6654 12.1641 14.8443 12.09 14.9761 11.9581C15.108 11.8263 15.1821 11.6474 15.1821 11.4609C15.1821 11.2745 15.108 11.0956 14.9761 10.9638C14.8443 10.8319 14.6654 10.7578 14.4789 10.7578H12.6266ZM37.2375 10.7578C37.051 10.7578 36.8722 10.8319 36.7403 10.9638C36.6085 11.0956 36.5344 11.2745 36.5344 11.4609C36.5344 11.6474 36.6085 11.8263 36.7403 11.9581C36.8722 12.09 37.051 12.1641 37.2375 12.1641H39.0891C39.2756 12.1641 39.4544 12.09 39.5863 11.9581C39.7181 11.8263 39.7922 11.6474 39.7922 11.4609C39.7922 11.2745 39.7181 11.0956 39.5863 10.9638C39.4544 10.8319 39.2756 10.7578 39.0891 10.7578H37.2375ZM22.9539 22.0156H28.7352C28.5094 23.3797 27.3375 24.4117 25.8453 24.4117C24.3531 24.4117 23.1797 23.3805 22.9539 22.0156Z" fill="#A414D5"/>
</svg>
