<svg width="51" height="49" viewBox="0 0 51 49" fill="none" xmlns="http://www.w3.org/2000/svg">
<path d="M41.47 5.23717C41.47 3.80586 40.3096 2.64538 38.8782 2.64538H36.2864C36.2864 1.21406 35.126 0.0535889 33.6946 0.0535889C32.2633 0.0535889 31.1029 1.21406 31.1029 2.64538H27.6471C27.6471 1.21406 26.4867 0.0535889 25.0553 0.0535889C23.624 0.0535889 22.4635 1.21406 22.4635 2.64538H19.0078C19.0078 1.21406 17.8473 0.0535889 16.416 0.0535889C14.9847 0.0535889 13.8242 1.21406 13.8242 2.64538H10.3685C10.3685 1.21406 9.20804 0.0535889 7.77672 0.0535889C6.3454 0.0535889 5.18493 1.21406 5.18493 2.64538H2.59314C1.16182 2.64538 0.00134277 3.80586 0.00134277 5.23717V41.5223C0.00134277 41.7514 0.0923638 41.9711 0.254382 42.1332C0.416401 42.2952 0.636145 42.3862 0.865274 42.3862H3.45707V44.978C3.45707 45.2071 3.54809 45.4269 3.71011 45.5889C3.87212 45.7509 4.09187 45.8419 4.321 45.8419H27.0709C27.0823 45.8419 27.0908 45.836 27.1012 45.836C31.6769 48.9918 37.6431 49.2917 42.5124 46.6101C47.3817 43.9289 50.3178 38.7263 50.0971 33.1724C49.8765 27.618 46.5368 22.6651 41.47 20.3783V5.23717ZM32.8307 2.64538C32.8307 2.41625 32.9217 2.19651 33.0838 2.03449C33.2458 1.87247 33.4655 1.78145 33.6946 1.78145C33.9238 1.78145 34.1435 1.87247 34.3055 2.03449C34.4676 2.19651 34.5586 2.41625 34.5586 2.64538V5.23717H32.8307V2.64538ZM24.1914 2.64538C24.1914 2.41625 24.2824 2.19651 24.4444 2.03449C24.6065 1.87247 24.8262 1.78145 25.0553 1.78145C25.2845 1.78145 25.5042 1.87247 25.6662 2.03449C25.8282 2.19651 25.9193 2.41625 25.9193 2.64538V5.23717H24.1914V2.64538ZM15.5521 2.64538C15.5521 2.41625 15.6431 2.19651 15.8051 2.03449C15.9672 1.87247 16.1869 1.78145 16.416 1.78145C16.6452 1.78145 16.8649 1.87247 17.0269 2.03449C17.1889 2.19651 17.28 2.41625 17.28 2.64538V5.23717H15.5521V2.64538ZM6.91279 2.64538C6.91279 2.41625 7.00381 2.19651 7.16583 2.03449C7.32785 1.87247 7.54759 1.78145 7.77672 1.78145C8.00585 1.78145 8.22559 1.87247 8.38761 2.03449C8.54963 2.19651 8.64065 2.41625 8.64065 2.64538V5.23717H6.91279V2.64538ZM1.7292 5.23717C1.7292 5.00805 1.82023 4.7883 1.98224 4.62628C2.14426 4.46426 2.36401 4.37324 2.59314 4.37324H5.18493V6.10111C5.18493 6.21456 5.20727 6.3269 5.25069 6.43172C5.29411 6.53653 5.35774 6.63177 5.43797 6.712C5.51819 6.79222 5.61343 6.85586 5.71825 6.89927C5.82306 6.94269 5.93541 6.96504 6.04886 6.96504H9.50458C9.73371 6.96504 9.95345 6.87402 10.1155 6.712C10.2775 6.54998 10.3685 6.33023 10.3685 6.10111V4.37324H13.8242V6.10111C13.8242 6.33023 13.9153 6.54998 14.0773 6.712C14.2393 6.87402 14.459 6.96504 14.6882 6.96504H18.1439C18.373 6.96504 18.5928 6.87402 18.7548 6.712C18.9168 6.54998 19.0078 6.33023 19.0078 6.10111V4.37324H22.4635V6.10111C22.4635 6.33023 22.5546 6.54998 22.7166 6.712C22.8786 6.87402 23.0983 6.96504 23.3275 6.96504H26.7832C27.0123 6.96504 27.2321 6.87402 27.3941 6.712C27.5561 6.54998 27.6471 6.33023 27.6471 6.10111V4.37324H31.1029V6.10111C31.1029 6.33023 31.1939 6.54998 31.3559 6.712C31.5179 6.87402 31.7377 6.96504 31.9668 6.96504H35.4225C35.6516 6.96504 35.8714 6.87402 36.0334 6.712C36.1954 6.54998 36.2864 6.33023 36.2864 6.10111V4.37324H38.8782C39.1074 4.37324 39.3271 4.46426 39.4891 4.62628C39.6511 4.7883 39.7422 5.00805 39.7422 5.23717V9.55683H1.7292V5.23717ZM5.18493 42.3862H23.5722C24.0132 42.9988 24.5007 43.5764 25.0305 44.1141H5.18493V42.3862ZM48.3815 33.7469C48.3815 40.9039 42.5794 46.7059 35.4225 46.7059C28.2656 46.7059 22.4635 40.9039 22.4635 33.7469C22.4635 26.59 28.2656 20.7879 35.4225 20.7879C42.5761 20.7959 48.3735 26.5933 48.3815 33.7469ZM35.4225 19.0601C30.2621 19.0567 25.4793 21.7632 22.8255 26.1888C20.1716 30.6138 20.0367 36.1083 22.4702 40.6583H1.7292V11.2847H39.7422V19.7106C38.3429 19.279 36.8868 19.0597 35.4225 19.0601Z" fill="#16192C"/>
<path d="M7.77673 14.7404C6.34541 14.7404 5.18494 15.9008 5.18494 17.3321C5.18494 18.7635 6.34541 19.9239 7.77673 19.9239C9.20805 19.9239 10.3685 18.7635 10.3685 17.3321C10.3685 15.9008 9.20805 14.7404 7.77673 14.7404ZM7.77673 18.1961C7.5476 18.1961 7.32786 18.1051 7.16584 17.943C7.00382 17.781 6.9128 17.5613 6.9128 17.3321C6.9128 17.103 7.00382 16.8833 7.16584 16.7213C7.32786 16.5592 7.5476 16.4682 7.77673 16.4682C8.00586 16.4682 8.2256 16.5592 8.38762 16.7213C8.54964 16.8833 8.64066 17.103 8.64066 17.3321C8.64066 17.5613 8.54964 17.781 8.38762 17.943C8.2256 18.1051 8.00586 18.1961 7.77673 18.1961ZM16.416 14.7404C14.9847 14.7404 13.8242 15.9008 13.8242 17.3321C13.8242 18.7635 14.9847 19.9239 16.416 19.9239C17.8474 19.9239 19.0078 18.7635 19.0078 17.3321C19.0078 15.9008 17.8474 14.7404 16.416 14.7404ZM16.416 18.1961C16.1869 18.1961 15.9672 18.1051 15.8051 17.943C15.6431 17.781 15.5521 17.5613 15.5521 17.3321C15.5521 17.103 15.6431 16.8833 15.8051 16.7213C15.9672 16.5592 16.1869 16.4682 16.416 16.4682C16.6452 16.4682 16.8649 16.5592 17.0269 16.7213C17.1889 16.8833 17.28 17.103 17.28 17.3321C17.28 17.5613 17.1889 17.781 17.0269 17.943C16.8649 18.1051 16.6452 18.1961 16.416 18.1961ZM25.0553 14.7404C23.624 14.7404 22.4636 15.9008 22.4636 17.3321C22.4636 18.7635 23.624 19.9239 25.0553 19.9239C26.4867 19.9239 27.6471 18.7635 27.6471 17.3321C27.6471 15.9008 26.4867 14.7404 25.0553 14.7404ZM25.0553 18.1961C24.8262 18.1961 24.6065 18.1051 24.4445 17.943C24.2824 17.781 24.1914 17.5613 24.1914 17.3321C24.1914 17.103 24.2824 16.8833 24.4445 16.7213C24.6065 16.5592 24.8262 16.4682 25.0553 16.4682C25.2845 16.4682 25.5042 16.5592 25.6662 16.7213C25.8283 16.8833 25.9193 17.103 25.9193 17.3321C25.9193 17.5613 25.8283 17.781 25.6662 17.943C25.5042 18.1051 25.2845 18.1961 25.0553 18.1961ZM7.77673 21.6518C6.34541 21.6518 5.18494 22.8123 5.18494 24.2436C5.18494 25.6749 6.34541 26.8354 7.77673 26.8354C9.20805 26.8354 10.3685 25.6749 10.3685 24.2436C10.3685 22.8123 9.20805 21.6518 7.77673 21.6518ZM7.77673 25.1075C7.5476 25.1075 7.32786 25.0165 7.16584 24.8545C7.00382 24.6925 6.9128 24.4727 6.9128 24.2436C6.9128 24.0145 7.00382 23.7947 7.16584 23.6327C7.32786 23.4707 7.5476 23.3797 7.77673 23.3797C8.00586 23.3797 8.2256 23.4707 8.38762 23.6327C8.54964 23.7947 8.64066 24.0145 8.64066 24.2436C8.64066 24.4727 8.54964 24.6925 8.38762 24.8545C8.2256 25.0165 8.00586 25.1075 7.77673 25.1075ZM16.416 21.6518C14.9847 21.6518 13.8242 22.8123 13.8242 24.2436C13.8242 25.6749 14.9847 26.8354 16.416 26.8354C17.8474 26.8354 19.0078 25.6749 19.0078 24.2436C19.0078 22.8123 17.8474 21.6518 16.416 21.6518ZM16.416 25.1075C16.1869 25.1075 15.9672 25.0165 15.8051 24.8545C15.6431 24.6925 15.5521 24.4727 15.5521 24.2436C15.5521 24.0145 15.6431 23.7947 15.8051 23.6327C15.9672 23.4707 16.1869 23.3797 16.416 23.3797C16.6452 23.3797 16.8649 23.4707 17.0269 23.6327C17.1889 23.7947 17.28 24.0145 17.28 24.2436C17.28 24.4727 17.1889 24.6925 17.0269 24.8545C16.8649 25.0165 16.6452 25.1075 16.416 25.1075ZM7.77673 28.5633C6.34541 28.5633 5.18494 29.7237 5.18494 31.155C5.18494 32.5864 6.34541 33.7468 7.77673 33.7468C9.20805 33.7468 10.3685 32.5864 10.3685 31.155C10.3685 29.7237 9.20805 28.5633 7.77673 28.5633ZM7.77673 32.019C7.5476 32.019 7.32786 31.928 7.16584 31.7659C7.00382 31.6039 6.9128 31.3842 6.9128 31.155C6.9128 30.9259 7.00382 30.7062 7.16584 30.5442C7.32786 30.3821 7.5476 30.2911 7.77673 30.2911C8.00586 30.2911 8.2256 30.3821 8.38762 30.5442C8.54964 30.7062 8.64066 30.9259 8.64066 31.155C8.64066 31.3842 8.54964 31.6039 8.38762 31.7659C8.2256 31.928 8.00586 32.019 7.77673 32.019ZM16.416 28.5633C14.9847 28.5633 13.8242 29.7237 13.8242 31.155C13.8242 32.5864 14.9847 33.7468 16.416 33.7468C17.8474 33.7468 19.0078 32.5864 19.0078 31.155C19.0078 29.7237 17.8474 28.5633 16.416 28.5633ZM16.416 32.019C16.1869 32.019 15.9672 31.928 15.8051 31.7659C15.6431 31.6039 15.5521 31.3842 15.5521 31.155C15.5521 30.9259 15.6431 30.7062 15.8051 30.5442C15.9672 30.3821 16.1869 30.2911 16.416 30.2911C16.6452 30.2911 16.8649 30.3821 17.0269 30.5442C17.1889 30.7062 17.28 30.9259 17.28 31.155C17.28 31.3842 17.1889 31.6039 17.0269 31.7659C16.8649 31.928 16.6452 32.019 16.416 32.019ZM24.1914 33.7468C24.1914 39.9496 29.2198 44.9779 35.4225 44.9779C41.6252 44.9779 46.6536 39.9496 46.6536 33.7468C46.6536 27.544 41.6252 22.5157 35.4225 22.5157C29.2227 22.523 24.1985 27.5471 24.1914 33.7468ZM44.9258 33.7468H43.1979C42.9688 33.7468 42.749 33.8379 42.587 33.9999C42.425 34.1619 42.334 34.3816 42.334 34.6108C42.334 34.8399 42.425 35.0596 42.587 35.2217C42.749 35.3837 42.9688 35.4747 43.1979 35.4747H44.7609C43.9817 39.6566 40.5218 42.8131 36.2864 43.2062V41.5222C36.2864 41.2931 36.1954 41.0733 36.0334 40.9113C35.8714 40.7493 35.6516 40.6583 35.4225 40.6583C35.1934 40.6583 34.9736 40.7493 34.8116 40.9113C34.6496 41.0733 34.5586 41.2931 34.5586 41.5222V43.2062C30.3233 42.8131 26.8633 39.6564 26.0842 35.4747H27.6471C27.8763 35.4747 28.096 35.3837 28.258 35.2217C28.42 35.0596 28.5111 34.8399 28.5111 34.6108C28.5111 34.3816 28.42 34.1619 28.258 33.9999C28.096 33.8379 27.8763 33.7468 27.6471 33.7468H25.9193C25.9256 28.8366 29.6691 24.738 34.5586 24.2879V25.9715C34.5586 26.2006 34.6496 26.4203 34.8116 26.5823C34.9736 26.7444 35.1934 26.8354 35.4225 26.8354C35.6516 26.8354 35.8714 26.7444 36.0334 26.5823C36.1954 26.4203 36.2864 26.2006 36.2864 25.9715V24.2879C41.176 24.738 44.9194 28.8366 44.9258 33.7468Z" fill="#A414D5"/>
<path d="M34.7776 34.9053L33.5829 33.113C33.4557 32.9224 33.258 32.7901 33.0333 32.7451C32.8086 32.7002 32.5753 32.7462 32.3845 32.8732C32.2901 32.9362 32.2091 33.0172 32.146 33.1115C32.0828 33.2058 32.0389 33.3116 32.0167 33.4229C31.9945 33.5342 31.9944 33.6488 32.0165 33.7601C32.0386 33.8714 32.0823 33.9773 32.1453 34.0717L33.8732 36.6635C33.9406 36.7641 34.0283 36.8494 34.1307 36.914C34.233 36.9786 34.3478 37.021 34.4676 37.0386C34.5875 37.0562 34.7099 37.0484 34.8266 37.0156C34.9433 36.9829 35.0518 36.9258 35.145 36.8483L40.3286 32.5286C40.4159 32.456 40.488 32.367 40.5408 32.2665C40.5936 32.1661 40.6261 32.0562 40.6364 31.9432C40.6468 31.8301 40.6347 31.7162 40.601 31.6078C40.5673 31.4994 40.5126 31.3988 40.4399 31.3116C40.2933 31.1353 40.0827 31.0246 39.8544 31.0036C39.6261 30.9827 39.3988 31.0533 39.2226 31.1999L34.7776 34.9053Z" fill="#16192C"/>
</svg>
