<svg width="97" height="96" viewBox="0 0 97 96" fill="none" xmlns="http://www.w3.org/2000/svg">
<path d="M12.6546 93.3715C8.7913 73.4706 1.97912 50.9211 2.48552 29.9133C2.66664 22.3996 14.1917 39.2938 15.4355 41.0192C16.2526 42.1525 16.208 42.6626 17.0736 40.3205C20.1791 31.917 21.7153 22.8815 24.0045 14.2361C25.3678 9.08782 26.2416 7.8888 29.4671 12.7136C34.2608 19.8844 36.2488 28.4925 40.5343 35.8816C42.3517 39.015 46.5801 23.6935 46.9939 22.6857C49.2409 17.2131 52.5246 8.74635 57.2464 4.8253C58.7122 3.60816 61.7815 27.0963 65.5335 24.8792C73.274 20.3054 80.7525 14.7912 87.4465 8.61025C87.9534 8.14212 95.8352 -1.20081 94.1933 4.39918C89.8514 19.2088 86.0083 33.073 83.4072 48.3333" stroke="#FDE9E7" stroke-width="4" stroke-linecap="round"/>
</svg>
