<svg width="18" height="18" viewBox="0 0 18 18" fill="none" xmlns="http://www.w3.org/2000/svg">
<g clip-path="url(#clip0_91_2144)">
<path d="M16.5 8.31435V9.00435C16.499 10.6217 15.9753 12.1954 15.007 13.4907C14.0386 14.7861 12.6774 15.7337 11.1265 16.1923C9.57554 16.6508 7.91791 16.5958 6.40082 16.0353C4.88373 15.4748 3.58846 14.4389 2.70819 13.0822C1.82792 11.7254 1.40981 10.1204 1.51623 8.50659C1.62264 6.89278 2.24787 5.3566 3.29868 4.12716C4.34948 2.89772 5.76956 2.04089 7.34711 1.68446C8.92466 1.32804 10.5752 1.49111 12.0525 2.14935M16.5 3.00006L8.99997 10.5076L6.74997 8.25756" stroke="#A414D5" stroke-width="1.5" stroke-linecap="round" stroke-linejoin="round"/>
</g>
<defs>
<clipPath id="clip0_91_2144">
<rect width="18" height="18" fill="white"/>
</clipPath>
</defs>
</svg>
