<svg width="19" height="19" viewBox="0 0 19 19" fill="none" xmlns="http://www.w3.org/2000/svg">
<path d="M11.2201 3.13279L12.5401 5.77279C12.7201 6.14029 13.2001 6.49279 13.6051 6.56029L15.9976 6.95779C17.5276 7.21279 17.8876 8.32279 16.7851 9.41779L14.9251 11.2778C14.6101 11.5928 14.4376 12.2003 14.5351 12.6353L15.0676 14.9378C15.4876 16.7603 14.5201 17.4653 12.9076 16.5128L10.6651 15.1853C10.2601 14.9453 9.5926 14.9453 9.1801 15.1853L6.9376 16.5128C5.3326 17.4653 4.3576 16.7528 4.7776 14.9378L5.3101 12.6353C5.4076 12.2003 5.2351 11.5928 4.9201 11.2778L3.0601 9.41779C1.9651 8.32279 2.3176 7.21279 3.8476 6.95779L6.2401 6.56029C6.6376 6.49279 7.1176 6.14029 7.2976 5.77279L8.6176 3.13279C9.3376 1.70029 10.5076 1.70029 11.2201 3.13279Z" fill="#FFB800"/>
</svg>
