<svg width="71" height="87" viewBox="0 0 71 87" fill="none" xmlns="http://www.w3.org/2000/svg">
<path d="M24.422 85C16.9097 71.4105 6.51167 56.5293 2.13291 41.2107C0.566782 35.7318 13.3312 45.5178 14.6865 46.503C15.5768 47.1501 15.6581 47.529 15.7967 45.6494C16.2938 38.9054 15.4317 32.037 15.2416 25.2912C15.1284 21.2741 15.533 20.2204 19.1272 23.0292C24.4691 27.2037 27.964 33.0145 32.9618 37.455C35.0812 39.338 34.877 27.3465 34.9687 26.529C35.4664 22.0894 36.0872 15.2618 38.8543 11.4204C39.7133 10.2279 47.4252 26.5833 49.828 24.1816C54.7853 19.2266 59.326 13.6464 63.1075 7.7499C63.3939 7.30334 67.3774 -1.13476 67.3774 3.26855C67.3774 14.9134 67.5491 25.7679 69 37.3695" stroke="#A414D5" stroke-width="4" stroke-linecap="round"/>
</svg>
