<svg width="82" height="101" viewBox="0 0 82 101" fill="none" xmlns="http://www.w3.org/2000/svg">
<path d="M53.6889 98.2841C62.3995 82.5196 74.4561 65.2567 79.5334 47.4864C81.3493 41.1306 66.5488 52.4828 64.9773 53.6257C63.945 54.3764 63.8507 54.8159 63.69 52.6355C63.1136 44.8121 64.1132 36.8444 64.3337 29.019C64.4649 24.3589 63.9958 23.1366 59.8282 26.3949C53.6342 31.2375 49.5818 37.9784 43.7868 43.1295C41.3293 45.3139 41.5661 31.4032 41.4598 30.4548C40.8827 25.3047 40.1629 17.3844 36.9544 12.9281C35.9584 11.5448 27.0163 30.5179 24.2302 27.7317C18.4822 21.9837 13.2172 15.5104 8.8324 8.67017C8.5004 8.15214 3.8814 -1.63647 3.8814 3.47158C3.8814 16.9802 3.6823 29.5719 2 43.0304" stroke="#A414D5" stroke-width="4" stroke-linecap="round"/>
</svg>
