<svg width="107" height="21" viewBox="0 0 107 21" fill="none" xmlns="http://www.w3.org/2000/svg">
<g clip-path="url(#clip0_3002_722)">
<path d="M20 0.5H0V20.5H20V0.5Z" fill="#219653"/>
<path d="M41.6667 0.5H21.6667V20.5H41.6667V0.5Z" fill="#219653"/>
<path d="M63.3333 0.5H43.3333V20.5H63.3333V0.5Z" fill="#219653"/>
<path d="M85 0.5H65V20.5H85V0.5Z" fill="#219653"/>
<path d="M106.667 0.5H86.6667V20.5H106.667V0.5Z" fill="#219653"/>
<path d="M9.99973 13.979L13.0414 13.2082L14.3122 17.1249L9.99973 13.979ZM16.9997 8.91655H11.6456L9.99973 3.87488L8.35389 8.91655H2.99973L7.33306 12.0415L5.68723 17.0832L10.0206 13.9582L12.6872 12.0415L16.9997 8.91655Z" fill="white"/>
<path d="M31.6664 13.979L34.7081 13.2082L35.9789 17.1249L31.6664 13.979ZM38.6664 8.91655H33.3122L31.6664 3.87488L30.0206 8.91655H24.6664L28.9997 12.0415L27.3539 17.0832L31.6872 13.9582L34.3539 12.0415L38.6664 8.91655Z" fill="white"/>
<path d="M53.3331 13.979L56.3747 13.2082L57.6456 17.1249L53.3331 13.979ZM60.3331 8.91655H54.9789L53.3331 3.87488L51.6872 8.91655H46.3331L50.6664 12.0415L49.0206 17.0832L53.3539 13.9582L56.0206 12.0415L60.3331 8.91655Z" fill="white"/>
<path d="M74.9997 13.979L78.0414 13.2082L79.3122 17.1249L74.9997 13.979ZM81.9997 8.91655H76.6456L74.9997 3.87488L73.3539 8.91655H67.9997L72.3331 12.0415L70.6872 17.0832L75.0206 13.9582L77.6872 12.0415L81.9997 8.91655Z" fill="white"/>
<path d="M96.6664 13.979L99.7081 13.2082L100.979 17.1249L96.6664 13.979ZM103.666 8.91655H98.3122L96.6664 3.87488L95.0206 8.91655H89.6664L93.9997 12.0415L92.3539 17.0832L96.6872 13.9582L99.3539 12.0415L103.666 8.91655Z" fill="white"/>
</g>
<defs>
<clipPath id="clip0_3002_722">
<rect width="106.667" height="20" fill="white" transform="translate(0 0.5)"/>
</clipPath>
</defs>
</svg>
