<svg width="240" height="40" viewBox="0 0 240 40" fill="none" xmlns="http://www.w3.org/2000/svg">
<g clip-path="url(#clip0_121_1164)">
<path d="M40 0H0V40H40V0Z" fill="#219653"/>
<path d="M19.9995 26.9578L26.0828 25.4162L28.6245 33.2495L19.9995 26.9578ZM33.9995 16.8328H23.2912L19.9995 6.74951L16.7078 16.8328H5.99951L14.6662 23.0828L11.3745 33.1662L20.0412 26.9162L25.3745 23.0828L33.9995 16.8328Z" fill="white"/>
<path d="M90 0H50V40H90V0Z" fill="#219653"/>
<path d="M69.9995 26.9578L76.0828 25.4162L78.6245 33.2495L69.9995 26.9578ZM83.9995 16.8328H73.2912L69.9995 6.74951L66.7078 16.8328H55.9995L64.6662 23.0828L61.3745 33.1662L70.0412 26.9162L75.3745 23.0828L83.9995 16.8328Z" fill="white"/>
<path d="M140 0H100V40H140V0Z" fill="#219653"/>
<path d="M120 26.9578L126.083 25.4162L128.625 33.2495L120 26.9578ZM134 16.8328H123.291L120 6.74951L116.708 16.8328H106L114.666 23.0828L111.375 33.1662L120.041 26.9162L125.375 23.0828L134 16.8328Z" fill="white"/>
<path d="M190 0H150V40H190V0Z" fill="#219653"/>
<path d="M170 26.9578L176.083 25.4162L178.625 33.2495L170 26.9578ZM184 16.8328H173.291L170 6.74951L166.708 16.8328H156L164.666 23.0828L161.375 33.1662L170.041 26.9162L175.375 23.0828L184 16.8328Z" fill="white"/>
<path d="M240 0H200V40H240V0Z" fill="#219653"/>
<path d="M220 26.9578L226.083 25.4162L228.625 33.2495L220 26.9578ZM234 16.8328H223.291L220 6.74951L216.708 16.8328H206L214.666 23.0828L211.375 33.1662L220.041 26.9162L225.375 23.0828L234 16.8328Z" fill="white"/>
</g>
<defs>
<clipPath id="clip0_121_1164">
<rect width="240" height="40" fill="white"/>
</clipPath>
</defs>
</svg>
