<svg width="100" height="26" viewBox="0 0 100 26" fill="none" xmlns="http://www.w3.org/2000/svg">
<path d="M13 19.3019L18.5095 17.9057L20.8114 25L13 19.3019ZM25.6793 10.1321H15.9812L13 1L10.0189 10.1321H0.320801L8.16986 15.7925L5.18872 24.9245L13.0378 19.2641L17.868 15.7925L25.6793 10.1321Z" fill="#219653"/>
<path d="M35.7809 6.625V18H33.4449V6.625H35.7809ZM39.2809 6.625V8.46094H29.9996V6.625H39.2809ZM42.1793 11.3906V18H39.9293V9.54688H42.0465L42.1793 11.3906ZM44.7262 9.49219L44.6871 11.5781C44.5778 11.5625 44.4449 11.5495 44.2887 11.5391C44.1377 11.5234 43.9996 11.5156 43.8746 11.5156C43.5569 11.5156 43.2809 11.5573 43.0465 11.6406C42.8173 11.7188 42.6246 11.8359 42.4684 11.9922C42.3173 12.1484 42.2028 12.3385 42.1246 12.5625C42.0517 12.7865 42.0101 13.0417 41.9996 13.3281L41.5465 13.1875C41.5465 12.6406 41.6012 12.138 41.7106 11.6797C41.8199 11.2161 41.9788 10.8125 42.1871 10.4688C42.4007 10.125 42.6611 9.85938 42.9684 9.67188C43.2757 9.48438 43.6272 9.39062 44.0231 9.39062C44.1481 9.39062 44.2757 9.40104 44.4059 9.42188C44.5361 9.4375 44.6429 9.46094 44.7262 9.49219ZM50.7887 15.9766V9.54688H53.0387V18H50.9215L50.7887 15.9766ZM51.0387 14.2422L51.7028 14.2266C51.7028 14.7891 51.6377 15.3125 51.5074 15.7969C51.3772 16.276 51.1819 16.6927 50.9215 17.0469C50.6611 17.3958 50.333 17.6693 49.9371 17.8672C49.5413 18.0599 49.0752 18.1562 48.5387 18.1562C48.1272 18.1562 47.747 18.099 47.3981 17.9844C47.0543 17.8646 46.7574 17.6797 46.5074 17.4297C46.2627 17.1745 46.0699 16.849 45.9293 16.4531C45.7939 16.0521 45.7262 15.5703 45.7262 15.0078V9.54688H47.9762V15.0234C47.9762 15.2734 48.0048 15.4844 48.0621 15.6562C48.1246 15.8281 48.2106 15.9688 48.3199 16.0781C48.4293 16.1875 48.5569 16.2656 48.7028 16.3125C48.8538 16.3594 49.0205 16.3828 49.2028 16.3828C49.6663 16.3828 50.0309 16.2891 50.2965 16.1016C50.5673 15.9141 50.7574 15.6589 50.8668 15.3359C50.9814 15.0078 51.0387 14.6432 51.0387 14.2422ZM59.3278 15.6641C59.3278 15.5026 59.2809 15.3568 59.1871 15.2266C59.0934 15.0964 58.9189 14.9766 58.6637 14.8672C58.4137 14.7526 58.0517 14.6484 57.5778 14.5547C57.1507 14.4609 56.7522 14.3438 56.3824 14.2031C56.0179 14.0573 55.7002 13.8828 55.4293 13.6797C55.1637 13.4766 54.9554 13.237 54.8043 12.9609C54.6533 12.6797 54.5778 12.3594 54.5778 12C54.5778 11.6458 54.6533 11.3125 54.8043 11C54.9606 10.6875 55.1819 10.4115 55.4684 10.1719C55.7601 9.92708 56.1142 9.73698 56.5309 9.60156C56.9528 9.46094 57.4267 9.39062 57.9528 9.39062C58.6871 9.39062 59.3173 9.50781 59.8434 9.74219C60.3746 9.97656 60.7809 10.2995 61.0621 10.7109C61.3486 11.1172 61.4918 11.5807 61.4918 12.1016H59.2418C59.2418 11.8828 59.1949 11.6875 59.1012 11.5156C59.0127 11.3385 58.872 11.2005 58.6793 11.1016C58.4918 10.9974 58.247 10.9453 57.9449 10.9453C57.6949 10.9453 57.4788 10.9896 57.2965 11.0781C57.1142 11.1615 56.9736 11.276 56.8746 11.4219C56.7809 11.5625 56.734 11.7188 56.734 11.8906C56.734 12.0208 56.7601 12.138 56.8121 12.2422C56.8694 12.3411 56.9606 12.4323 57.0856 12.5156C57.2106 12.599 57.372 12.6771 57.5699 12.75C57.7731 12.8177 58.0231 12.8802 58.3199 12.9375C58.9293 13.0625 59.4736 13.2266 59.9528 13.4297C60.4319 13.6276 60.8121 13.8984 61.0934 14.2422C61.3746 14.5807 61.5153 15.026 61.5153 15.5781C61.5153 15.9531 61.4319 16.2969 61.2653 16.6094C61.0986 16.9219 60.859 17.1953 60.5465 17.4297C60.234 17.6589 59.859 17.8385 59.4215 17.9688C58.9892 18.0938 58.5022 18.1562 57.9606 18.1562C57.1741 18.1562 56.5074 18.0156 55.9606 17.7344C55.4189 17.4531 55.0074 17.0964 54.7262 16.6641C54.4502 16.2266 54.3121 15.7786 54.3121 15.3203H56.4449C56.4554 15.6276 56.5335 15.875 56.6793 16.0625C56.8304 16.25 57.0205 16.3854 57.2496 16.4688C57.484 16.5521 57.7366 16.5938 58.0074 16.5938C58.2991 16.5938 58.5413 16.5547 58.734 16.4766C58.9267 16.3932 59.0726 16.2839 59.1715 16.1484C59.2757 16.0078 59.3278 15.8464 59.3278 15.6641ZM67.1168 9.54688V11.1406H62.1949V9.54688H67.1168ZM63.4137 7.46094H65.6637V15.4531C65.6637 15.6979 65.6949 15.8854 65.7574 16.0156C65.8252 16.1458 65.9241 16.237 66.0543 16.2891C66.1845 16.3359 66.3486 16.3594 66.5465 16.3594C66.6871 16.3594 66.8121 16.3542 66.9215 16.3438C67.0361 16.3281 67.1324 16.3125 67.2106 16.2969L67.2184 17.9531C67.0257 18.0156 66.8173 18.0651 66.5934 18.1016C66.3694 18.138 66.122 18.1562 65.8512 18.1562C65.3564 18.1562 64.9241 18.0755 64.5543 17.9141C64.1897 17.7474 63.9085 17.4818 63.7106 17.1172C63.5127 16.7526 63.4137 16.2734 63.4137 15.6797V7.46094ZM70.6481 11.1719V21.25H68.3981V9.54688H70.484L70.6481 11.1719ZM75.9996 13.6797V13.8438C75.9996 14.4583 75.9267 15.0286 75.7809 15.5547C75.6403 16.0807 75.4319 16.5391 75.1559 16.9297C74.8798 17.3151 74.5361 17.6172 74.1246 17.8359C73.7184 18.0495 73.2496 18.1562 72.7184 18.1562C72.2028 18.1562 71.7548 18.0521 71.3746 17.8438C70.9944 17.6354 70.6741 17.3438 70.4137 16.9688C70.1585 16.5885 69.9528 16.1484 69.7965 15.6484C69.6403 15.1484 69.5205 14.612 69.4371 14.0391V13.6094C69.5205 12.9948 69.6403 12.4323 69.7965 11.9219C69.9528 11.4062 70.1585 10.9609 70.4137 10.5859C70.6741 10.2057 70.9918 9.91146 71.3668 9.70312C71.747 9.49479 72.1923 9.39062 72.7028 9.39062C73.2392 9.39062 73.7106 9.49219 74.1168 9.69531C74.5283 9.89844 74.872 10.1901 75.1481 10.5703C75.4293 10.9505 75.6403 11.4036 75.7809 11.9297C75.9267 12.4557 75.9996 13.0391 75.9996 13.6797ZM73.7418 13.8438V13.6797C73.7418 13.3203 73.7106 12.9896 73.6481 12.6875C73.5908 12.3802 73.497 12.112 73.3668 11.8828C73.2418 11.6536 73.0752 11.4766 72.8668 11.3516C72.6637 11.2214 72.4163 11.1562 72.1246 11.1562C71.8173 11.1562 71.5543 11.2057 71.3356 11.3047C71.122 11.4036 70.9476 11.5469 70.8121 11.7344C70.6767 11.9219 70.5752 12.1458 70.5074 12.4062C70.4397 12.6667 70.3981 12.9609 70.3824 13.2891V14.375C70.4085 14.7604 70.4814 15.1068 70.6012 15.4141C70.721 15.7161 70.9059 15.9557 71.1559 16.1328C71.4059 16.3099 71.734 16.3984 72.1403 16.3984C72.4371 16.3984 72.6871 16.3333 72.8903 16.2031C73.0934 16.0677 73.2574 15.8828 73.3824 15.6484C73.5127 15.4141 73.6038 15.1432 73.6559 14.8359C73.7132 14.5286 73.7418 14.1979 73.7418 13.8438ZM79.7731 9.54688V18H77.5153V9.54688H79.7731ZM77.3746 7.34375C77.3746 7.01562 77.4892 6.74479 77.7184 6.53125C77.9476 6.31771 78.2548 6.21094 78.6403 6.21094C79.0205 6.21094 79.3252 6.31771 79.5543 6.53125C79.7887 6.74479 79.9059 7.01562 79.9059 7.34375C79.9059 7.67188 79.7887 7.94271 79.5543 8.15625C79.3252 8.36979 79.0205 8.47656 78.6403 8.47656C78.2548 8.47656 77.9476 8.36979 77.7184 8.15625C77.4892 7.94271 77.3746 7.67188 77.3746 7.34375ZM84.0074 6V18H81.7496V6H84.0074ZM85.5074 13.8594V13.6953C85.5074 13.0755 85.596 12.5052 85.7731 11.9844C85.9502 11.4583 86.208 11.0026 86.5465 10.6172C86.8851 10.2318 87.3017 9.93229 87.7965 9.71875C88.2913 9.5 88.859 9.39062 89.4996 9.39062C90.1403 9.39062 90.7106 9.5 91.2106 9.71875C91.7106 9.93229 92.1298 10.2318 92.4684 10.6172C92.8121 11.0026 93.0726 11.4583 93.2496 11.9844C93.4267 12.5052 93.5153 13.0755 93.5153 13.6953V13.8594C93.5153 14.474 93.4267 15.0443 93.2496 15.5703C93.0726 16.0911 92.8121 16.5469 92.4684 16.9375C92.1298 17.3229 91.7132 17.6224 91.2184 17.8359C90.7236 18.0495 90.1559 18.1562 89.5153 18.1562C88.8746 18.1562 88.3043 18.0495 87.8043 17.8359C87.3095 17.6224 86.8903 17.3229 86.5465 16.9375C86.208 16.5469 85.9502 16.0911 85.7731 15.5703C85.596 15.0443 85.5074 14.474 85.5074 13.8594ZM87.7574 13.6953V13.8594C87.7574 14.2135 87.7887 14.5443 87.8512 14.8516C87.9137 15.1589 88.0127 15.4297 88.1481 15.6641C88.2887 15.8932 88.471 16.0729 88.6949 16.2031C88.9189 16.3333 89.1923 16.3984 89.5153 16.3984C89.8278 16.3984 90.096 16.3333 90.3199 16.2031C90.5439 16.0729 90.7236 15.8932 90.859 15.6641C90.9944 15.4297 91.0934 15.1589 91.1559 14.8516C91.2236 14.5443 91.2574 14.2135 91.2574 13.8594V13.6953C91.2574 13.3516 91.2236 13.0286 91.1559 12.7266C91.0934 12.4193 90.9918 12.1484 90.8512 11.9141C90.7158 11.6745 90.5361 11.487 90.3121 11.3516C90.0882 11.2161 89.8173 11.1484 89.4996 11.1484C89.1819 11.1484 88.9111 11.2161 88.6871 11.3516C88.4684 11.487 88.2887 11.6745 88.1481 11.9141C88.0127 12.1484 87.9137 12.4193 87.8512 12.7266C87.7887 13.0286 87.7574 13.3516 87.7574 13.6953ZM99.0387 9.54688V11.1406H94.1168V9.54688H99.0387ZM95.3356 7.46094H97.5856V15.4531C97.5856 15.6979 97.6168 15.8854 97.6793 16.0156C97.747 16.1458 97.846 16.237 97.9762 16.2891C98.1064 16.3359 98.2705 16.3594 98.4684 16.3594C98.609 16.3594 98.734 16.3542 98.8434 16.3438C98.958 16.3281 99.0543 16.3125 99.1324 16.2969L99.1403 17.9531C98.9476 18.0156 98.7392 18.0651 98.5153 18.1016C98.2913 18.138 98.0439 18.1562 97.7731 18.1562C97.2783 18.1562 96.846 18.0755 96.4762 17.9141C96.1116 17.7474 95.8304 17.4818 95.6324 17.1172C95.4345 16.7526 95.3356 16.2734 95.3356 15.6797V7.46094Z" fill="black"/>
</svg>
