<svg width="50" height="51" viewBox="0 0 50 51" fill="none" xmlns="http://www.w3.org/2000/svg">
<g clip-path="url(#clip0_95_3354)">
<path d="M49.7952 21.5235L41.427 10.6311C41.2776 10.4368 41.0611 10.3054 40.8199 10.263C40.5788 10.2205 40.3305 10.27 40.1239 10.4017L34.7211 13.8447H27.6745C27.5833 13.8447 27.4925 13.8642 27.4048 13.8898L21.9411 15.4657L16.272 13.912L10.7635 10.4017C10.5602 10.272 10.3164 10.2219 10.0786 10.261C9.84086 10.3 9.62577 10.4255 9.47448 10.6134L0.218627 22.1014C-0.114074 22.5141 -0.0590955 23.117 0.342157 23.4628L5.19351 27.6462L9.54586 33.5231C8.27297 34.8819 8.29777 37.0251 9.62213 38.3525C10.2092 38.9402 10.9558 39.2724 11.7236 39.3496C11.6967 39.5253 11.6832 39.7028 11.6832 39.8806C11.6832 40.8078 12.0436 41.6796 12.6978 42.3352C13.3524 42.991 14.2225 43.3522 15.1479 43.3522C15.1606 43.3522 15.1727 43.3514 15.185 43.351C15.1845 43.3748 15.1834 43.3981 15.1834 43.4217C15.1834 44.349 15.5438 45.2209 16.198 45.8767C16.8526 46.5323 17.7228 46.8934 18.6481 46.8934C18.8293 46.8932 19.0101 46.879 19.1891 46.851C19.2659 47.6502 19.6182 48.3976 20.1853 48.9647C20.8605 49.6416 21.7478 49.9799 22.635 49.9799C23.5223 49.9799 24.4096 49.6416 25.0851 48.9647L25.615 48.4338L25.8374 48.6134C26.5072 49.2635 27.3769 49.5885 28.2466 49.5885C29.1339 49.5885 30.0212 49.2502 30.6963 48.5733C31.3856 47.8826 31.7232 46.9711 31.7091 46.064C32.6139 46.0777 33.524 45.7399 34.2134 45.0496C34.9018 44.3593 35.2394 43.4486 35.226 42.5419C36.1686 42.5568 37.0628 42.1941 37.7299 41.5256C38.4192 40.835 38.7568 39.9233 38.7427 39.0164C39.6483 39.0301 40.5576 38.6922 41.2469 38.0016C42.4234 36.8228 42.5748 35.0008 41.7024 33.6558L44.8803 26.9868L49.658 22.8673C50.0528 22.5268 50.1131 21.9366 49.7953 21.5234L49.7952 21.5235ZM10.4498 12.5304L14.4109 15.054L5.79417 25.5726L2.34119 22.5948L10.4498 12.5304ZM11.0087 34.8318L12.2041 33.634C12.4535 33.384 12.7827 33.23 13.1341 33.199C13.1425 33.1983 13.1513 33.1983 13.1597 33.1979C13.2024 33.1945 13.2451 33.1921 13.2882 33.1925C13.6979 33.1983 14.0786 33.3661 14.3609 33.6645C14.9148 34.2512 14.885 35.2098 14.2945 35.8015L13.1353 36.963C12.549 37.5505 11.595 37.5505 11.0087 36.963C10.4224 36.3753 10.4224 35.4193 11.0087 34.8319V34.8318ZM14.0843 40.9457C13.8002 40.6614 13.6437 40.283 13.6437 39.8806C13.6437 39.4781 13.8002 39.0997 14.0843 38.815L16.4024 36.4921C16.8464 36.0473 17.5444 35.9254 18.1121 36.1963C18.6972 36.4758 19.0264 37.1122 18.9406 37.7524C18.894 38.0958 18.7367 38.4145 18.4927 38.6601L16.2113 40.9458C15.9271 41.2306 15.5495 41.3872 15.1479 41.3872C14.7462 41.3872 14.3685 41.2306 14.0843 40.9457ZM17.5846 44.487C17.4444 44.3475 17.3333 44.1815 17.2577 43.9986C17.1821 43.8158 17.1434 43.6197 17.144 43.4217C17.1434 43.2238 17.1821 43.0276 17.2578 42.8447C17.3334 42.6618 17.4445 42.4958 17.5846 42.3562L19.9023 40.0334C20.3771 39.5579 21.1389 39.4555 21.7202 39.7945C22.2513 40.1041 22.5293 40.7119 22.4382 41.3172C22.3873 41.6519 22.2312 41.9617 21.9926 42.2014L19.7114 44.487C19.4273 44.7717 19.0497 44.9285 18.648 44.9285C18.2464 44.9285 17.8687 44.7717 17.5846 44.487ZM21.5715 47.5753C20.9852 46.9878 20.9852 46.0319 21.5715 45.4445L22.767 44.2466C22.8037 44.2098 22.8423 44.1749 22.8825 44.1419C23.0756 43.9846 23.3048 43.8779 23.5494 43.8315L23.5665 43.8292C23.6084 43.8216 23.6512 43.8155 23.6939 43.8116C23.7111 43.8101 23.7283 43.8101 23.7457 43.8089C23.7809 43.807 23.8156 43.8047 23.851 43.8051C24.0776 43.8076 24.3006 43.8617 24.5032 43.9632C24.7058 44.0648 24.8828 44.2112 25.0206 44.3914C25.4714 44.9819 25.4108 45.8591 24.8513 46.4203L23.6981 47.5757C23.1118 48.1631 22.1578 48.1628 21.5715 47.5753ZM39.8603 36.6122C39.274 37.2 38.3199 37.1996 37.7336 36.6122C37.7124 36.5911 37.6901 36.571 37.6669 36.5522L31.363 30.1693C30.982 29.7836 30.3613 29.7806 29.9763 30.1625C29.5916 30.5439 29.5885 31.1657 29.9692 31.5514L36.3414 38.0028L36.3436 38.0051C36.9299 38.5926 36.9299 39.5489 36.3436 40.1363C36.2043 40.2767 36.0386 40.388 35.8561 40.4638C35.6735 40.5396 35.4778 40.5783 35.2802 40.5778C35.0826 40.5784 34.8868 40.5397 34.7043 40.4639C34.5217 40.3881 34.356 40.2768 34.2167 40.1363L29.9539 35.8208C29.5732 35.4351 28.9526 35.432 28.5677 35.8134C28.1829 36.1953 28.1797 36.8172 28.5605 37.2029L32.7579 41.4524C32.7794 41.4791 32.8022 41.5046 32.8266 41.5291C33.4129 42.1166 33.4129 43.0729 32.8266 43.6604C32.24 44.2479 31.2857 44.2475 30.6993 43.66L28.3729 41.3043C27.9918 40.9186 27.3712 40.9152 26.9862 41.297C26.6015 41.6785 26.5984 42.3003 26.9791 42.686L29.2407 44.9755C29.2621 45.0023 29.285 45.0283 29.3098 45.0528C29.8961 45.6401 29.8961 46.5964 29.3098 47.1839C28.7235 47.7718 27.7694 47.7714 27.1831 47.1839C27.1157 47.1163 27.0363 47.0643 26.9607 47.0062C26.8967 46.9573 26.8799 46.9232 26.9119 46.8452C26.9443 46.7662 26.9928 46.6946 27.0252 46.6152C27.061 46.5265 27.09 46.4352 27.1182 46.3435C27.269 45.8548 27.3124 45.3392 27.2453 44.8321C27.1156 43.8655 26.585 42.9933 25.7809 42.4414C25.3446 42.1429 24.8456 41.9491 24.3226 41.8749C24.5751 40.7588 24.2719 39.5488 23.4831 38.7136C22.8338 38.0264 21.9568 37.6407 21.0134 37.6277C20.979 37.6273 20.9446 37.6273 20.9101 37.6277C20.9311 36.7258 20.6038 35.8294 19.9832 35.1724C19.3336 34.4852 18.4566 34.0995 17.5136 34.0865C17.2333 34.0826 16.9502 34.1126 16.6772 34.1756C16.5604 33.3619 16.1511 32.6088 15.5312 32.0703C14.9153 31.536 14.1405 31.2394 13.3154 31.2279C12.4468 31.2153 11.5935 31.5363 10.9484 32.12L7.15876 27.0033L16.2252 15.9357L19.1147 16.7278L15.3409 23.4001C14.8847 24.207 14.7695 25.1434 15.0163 26.0371C15.2631 26.931 15.8422 27.6749 16.6474 28.132C16.6977 28.1606 16.7485 28.1878 16.7999 28.2137C16.8039 28.2157 16.8076 28.2176 16.8118 28.2195C16.9465 28.2866 17.0853 28.345 17.2276 28.3942C17.8848 28.6223 18.5947 28.6472 19.2794 28.4577C20.1713 28.2103 20.9135 27.6298 21.3698 26.8232L23.8221 22.487L28.2008 22.7982L39.8607 34.4809C40.4466 35.0688 40.4466 36.0247 39.8603 36.6122ZM40.2665 32.1092L29.3283 21.1497C29.1614 20.9826 28.94 20.8814 28.7046 20.8646L23.3433 20.4835C22.9725 20.458 22.6041 20.6555 22.421 20.9793L19.6638 25.8548C19.5668 26.0273 19.4367 26.1788 19.281 26.3006C19.1252 26.4223 18.9469 26.5119 18.7564 26.5642C18.5661 26.6175 18.3671 26.6324 18.171 26.6082C17.9749 26.5839 17.7855 26.5209 17.6139 26.4228C17.4417 26.3257 17.2905 26.1953 17.169 26.0392C17.0475 25.8831 16.9581 25.7045 16.9059 25.5135C16.8526 25.3228 16.8377 25.1235 16.8619 24.9269C16.8861 24.7304 16.9491 24.5407 17.0471 24.3687L20.7277 17.86L22.2191 17.43C22.2291 17.427 22.2387 17.4231 22.2485 17.4201L27.8151 15.8094H34.5409L42.9375 26.5046L40.2665 32.1092ZM44.2218 24.9626L36.4569 15.0666L40.4198 12.5412L47.6755 21.9847L44.2218 24.9626Z" fill="black"/>
<path d="M30.2912 12C30.5421 12 30.7931 11.9041 30.9846 11.7122L37.6814 5.00202C38.0644 4.61827 38.0644 3.99635 37.6814 3.61259C37.2984 3.22883 36.6778 3.22893 36.2948 3.61259L29.598 10.3229C29.507 10.4141 29.4347 10.5224 29.3855 10.6416C29.3362 10.7608 29.3108 10.8885 29.3108 11.0175C29.3108 11.1465 29.3362 11.2743 29.3855 11.3935C29.4347 11.5127 29.507 11.621 29.598 11.7122C29.6889 11.8035 29.797 11.876 29.9159 11.9254C30.0349 11.9748 30.1624 12.0001 30.2912 12ZM19.0154 11.7122C19.1063 11.8036 19.2144 11.876 19.3334 11.9254C19.4524 11.9748 19.58 12.0001 19.7088 12C19.9595 12 20.2104 11.9041 20.4019 11.7122C20.493 11.621 20.5653 11.5127 20.6145 11.3935C20.6638 11.2743 20.6892 11.1465 20.6892 11.0175C20.6892 10.8885 20.6638 10.7607 20.6145 10.6415C20.5653 10.5223 20.493 10.414 20.4019 10.3228L13.7052 3.61259C13.3222 3.22893 12.7016 3.22893 12.3185 3.61259C11.9354 3.99625 11.9356 4.61827 12.3185 5.00202L19.0154 11.7122ZM25 12C25.5413 12 25.9804 11.56 25.9804 11.0177V5.46445C25.9804 4.92208 25.5413 4.48216 25 4.48216C24.4587 4.48216 24.0196 4.92208 24.0196 5.46455V11.0177C24.0196 11.56 24.4587 12 25 12ZM24.0951 1.90418C24.2508 2.28216 24.6388 2.5302 25.048 2.50887C25.4523 2.48774 25.8076 2.21416 25.9327 1.82844C26.0581 1.43969 25.9215 0.996739 25.5965 0.749088C25.2651 0.496054 24.8027 0.481964 24.456 0.711612C24.0693 0.967679 23.9194 1.47756 24.0951 1.90418Z" fill="#A414D5"/>
</g>
<defs>
<clipPath id="clip0_95_3354">
<rect width="50" height="50" fill="white" transform="translate(0 0.5)"/>
</clipPath>
</defs>
</svg>
