<svg width="64" height="79" viewBox="0 0 64 79" fill="none" xmlns="http://www.w3.org/2000/svg">
<path d="M21.839 77.1016C15.0447 64.8053 5.64051 51.3402 1.68027 37.4794C0.263826 32.5219 11.8082 41.3766 13.034 42.268C13.8392 42.8536 13.9128 43.1964 14.0381 41.4957C14.4877 35.3934 13.708 29.1786 13.536 23.0748C13.4337 19.4399 13.7996 18.4865 17.0503 21.028C21.8816 24.8052 25.0425 30.0631 29.5626 34.081C31.4795 35.7848 31.2947 24.9345 31.3777 24.1947C31.8278 20.1777 32.3892 13.9998 34.8919 10.5239C35.6688 9.44494 42.6436 24.244 44.8167 22.0707C49.3002 17.5873 53.4069 12.5381 56.827 7.20273C57.086 6.79867 60.6888 -0.836448 60.6888 3.14783C60.6888 13.6846 60.8441 23.5061 62.1563 34.0037" stroke="#A414D5" stroke-width="3.12" stroke-linecap="round"/>
</svg>
