<svg width="1170" height="198" viewBox="0 0 1170 198" fill="none" xmlns="http://www.w3.org/2000/svg">
<path d="M583.279 77.1016C576.485 64.8053 567.08 51.3402 563.12 37.4794C561.704 32.5219 573.248 41.3766 574.474 42.268C575.279 42.8536 575.353 43.1964 575.478 41.4957C575.928 35.3934 575.148 29.1786 574.976 23.0748C574.874 19.4399 575.24 18.4865 578.49 21.028C583.322 24.8052 586.482 30.0631 591.003 34.081C592.919 35.7848 592.735 24.9345 592.818 24.1947C593.268 20.1777 593.829 13.9998 596.332 10.5239C597.109 9.44494 604.084 24.244 606.257 22.0707C610.74 17.5873 614.847 12.5381 618.267 7.20273C618.526 6.79867 622.129 -0.836448 622.129 3.14783C622.129 13.6846 622.284 23.5061 623.596 34.0037" stroke="#A414D5" stroke-width="3.12" stroke-linecap="round"/>
<path d="M147.634 168V43.5949H224.587V55.8577H162.562V99.2218H219.256V111.307H162.562V155.737H224.587V168H147.634ZM237.665 168L261.791 134.411L237.665 100.821H257.126L273.254 123.881L289.382 100.821H308.709L284.583 134.411L308.709 168H289.382L273.254 144.807L257.126 168H237.665ZM320.077 197.324V100.821H336.072L338.072 110.152C339.494 108.197 341.182 106.419 343.137 104.82C345.092 103.132 347.402 101.799 350.068 100.821C352.823 99.7549 356.022 99.2218 359.665 99.2218C365.974 99.2218 371.528 100.777 376.326 103.887C381.125 106.997 384.901 111.218 387.656 116.55C390.5 121.792 391.921 127.791 391.921 134.544C391.921 141.297 390.5 147.34 387.656 152.672C384.813 157.914 380.992 162.046 376.193 165.068C371.395 168.089 365.93 169.599 359.798 169.599C354.822 169.599 350.512 168.711 346.869 166.934C343.315 165.068 340.382 162.535 338.072 159.336V197.324H320.077ZM355.533 153.871C359.087 153.871 362.197 153.071 364.863 151.472C367.618 149.872 369.751 147.606 371.261 144.674C372.772 141.742 373.527 138.365 373.527 134.544C373.527 130.723 372.772 127.346 371.261 124.414C369.751 121.393 367.618 119.082 364.863 117.483C362.197 115.794 359.087 114.95 355.533 114.95C352.067 114.95 348.957 115.794 346.203 117.483C343.537 119.082 341.404 121.348 339.805 124.281C338.294 127.213 337.539 130.59 337.539 134.411C337.539 138.232 338.294 141.653 339.805 144.674C341.404 147.606 343.537 149.872 346.203 151.472C348.957 153.071 352.067 153.871 355.533 153.871ZM439.676 169.599C432.923 169.599 426.925 168.178 421.682 165.334C416.528 162.402 412.485 158.359 409.552 153.205C406.709 147.962 405.287 141.919 405.287 135.077C405.287 128.057 406.709 121.881 409.552 116.55C412.485 111.129 416.528 106.908 421.682 103.887C426.836 100.777 432.834 99.2218 439.676 99.2218C446.341 99.2218 452.161 100.688 457.137 103.62C462.113 106.553 465.979 110.507 468.734 115.483C471.488 120.459 472.866 126.102 472.866 132.411C472.866 133.3 472.866 134.322 472.866 135.477C472.866 136.543 472.777 137.654 472.599 138.809H418.083V127.879H454.738C454.471 123.525 452.916 120.104 450.073 117.616C447.318 115.128 443.853 113.884 439.676 113.884C436.655 113.884 433.856 114.595 431.279 116.016C428.702 117.349 426.658 119.438 425.147 122.281C423.726 125.125 423.015 128.724 423.015 133.078V136.943C423.015 140.586 423.681 143.785 425.014 146.54C426.436 149.206 428.391 151.294 430.879 152.805C433.367 154.227 436.255 154.937 439.543 154.937C442.831 154.937 445.541 154.227 447.674 152.805C449.895 151.383 451.539 149.561 452.605 147.34H470.999C469.755 151.516 467.667 155.293 464.735 158.67C461.802 162.046 458.204 164.712 453.938 166.667C449.673 168.622 444.919 169.599 439.676 169.599ZM487.603 168V100.821H503.597L505.33 113.217C506.93 110.285 508.929 107.797 511.328 105.753C513.816 103.709 516.616 102.11 519.726 100.955C522.925 99.7994 526.435 99.2218 530.256 99.2218V118.282H524.124C521.458 118.282 518.97 118.593 516.66 119.215C514.438 119.837 512.484 120.859 510.795 122.281C509.107 123.614 507.818 125.48 506.93 127.879C506.041 130.279 505.597 133.3 505.597 136.943V168H487.603ZM572.4 168C567.69 168 563.558 167.289 560.004 165.867C556.538 164.357 553.828 161.913 551.873 158.536C549.918 155.071 548.94 150.361 548.94 144.407V115.883H537.477V100.821H548.94L550.94 82.5604H566.935V100.821H584.662V115.883H566.935V144.674C566.935 147.695 567.601 149.784 568.934 150.939C570.267 152.094 572.533 152.672 575.732 152.672H584.529V168H572.4ZM604.694 168V43.5949H648.413C657.181 43.5949 664.408 45.0167 670.095 47.8602C675.901 50.5853 680.226 54.3767 683.069 59.2344C685.913 63.9737 687.334 69.3053 687.334 75.2294C687.334 81.6273 685.913 86.959 683.069 91.2243C680.344 95.4896 676.73 98.7478 672.228 100.999C667.844 103.25 663.164 104.613 658.188 105.087L660.676 103.309C666.008 103.428 670.925 104.85 675.427 107.575C679.929 110.3 683.484 113.973 686.09 118.593C688.815 123.214 690.178 128.368 690.178 134.055C690.178 140.335 688.638 146.081 685.557 151.294C682.477 156.389 677.915 160.476 671.873 163.557C665.949 166.519 658.603 168 649.835 168H604.694ZM619.623 155.559H648.236C656.648 155.559 663.164 153.605 667.785 149.695C672.524 145.666 674.894 140.098 674.894 132.989C674.894 125.998 672.465 120.43 667.607 116.283C662.868 112.018 656.292 109.885 647.88 109.885H619.623V155.559ZM619.623 97.9777H647.347C655.404 97.9777 661.506 96.082 665.652 92.2906C669.918 88.4992 672.05 83.3453 672.05 76.8289C672.05 70.5494 669.918 65.5139 665.652 61.7225C661.506 57.9311 655.226 56.0354 646.814 56.0354H619.623V97.9777ZM732.644 169.599C727.223 169.599 722.558 168.489 718.648 166.267C714.827 163.957 711.895 160.625 709.851 156.27C707.807 151.827 706.785 146.362 706.785 139.876V100.821H724.78V138.009C724.78 143.43 725.89 147.518 728.112 150.272C730.422 153.027 733.932 154.404 738.642 154.404C741.663 154.404 744.329 153.738 746.639 152.405C748.95 150.983 750.771 148.984 752.104 146.407C753.526 143.741 754.237 140.498 754.237 136.677V100.821H772.098V168H756.37L754.903 157.07C752.948 160.891 750.06 163.957 746.239 166.267C742.418 168.489 737.887 169.599 732.644 169.599ZM819.578 169.599C813.446 169.599 807.937 168.089 803.05 165.068C798.251 162.046 794.474 157.87 791.72 152.538C788.965 147.207 787.588 141.208 787.588 134.544C787.588 127.702 788.965 121.659 791.72 116.416C794.563 111.085 798.429 106.908 803.316 103.887C808.292 100.777 813.846 99.2218 819.978 99.2218C824.776 99.2218 828.997 100.11 832.64 101.888C836.283 103.665 839.216 106.197 841.437 109.485V72.0304H859.432V168H843.437L841.437 158.803C840.104 160.669 838.416 162.446 836.372 164.135C834.417 165.823 832.063 167.156 829.308 168.133C826.553 169.111 823.31 169.599 819.578 169.599ZM823.843 153.871C827.397 153.871 830.508 153.071 833.173 151.472C835.928 149.784 838.061 147.473 839.571 144.541C841.082 141.608 841.837 138.232 841.837 134.411C841.837 130.59 841.082 127.213 839.571 124.281C838.061 121.348 835.928 119.082 833.173 117.483C830.508 115.794 827.397 114.95 823.843 114.95C820.466 114.95 817.401 115.794 814.646 117.483C811.891 119.082 809.714 121.348 808.115 124.281C806.604 127.213 805.849 130.545 805.849 134.277C805.849 138.187 806.604 141.608 808.115 144.541C809.714 147.473 811.847 149.784 814.513 151.472C817.267 153.071 820.377 153.871 823.843 153.871ZM906.92 169.599C900.788 169.599 895.279 168.089 890.392 165.068C885.593 162.046 881.817 157.87 879.062 152.538C876.307 147.207 874.93 141.208 874.93 134.544C874.93 127.702 876.307 121.659 879.062 116.416C881.906 111.085 885.771 106.908 890.658 103.887C895.634 100.777 901.188 99.2218 907.32 99.2218C912.118 99.2218 916.339 100.11 919.982 101.888C923.626 103.665 926.558 106.197 928.78 109.485V72.0304H946.774V168H930.779L928.78 158.803C927.447 160.669 925.758 162.446 923.714 164.135C921.76 165.823 919.405 167.156 916.65 168.133C913.895 169.111 910.652 169.599 906.92 169.599ZM911.185 153.871C914.74 153.871 917.85 153.071 920.516 151.472C923.27 149.784 925.403 147.473 926.913 144.541C928.424 141.608 929.179 138.232 929.179 134.411C929.179 130.59 928.424 127.213 926.913 124.281C925.403 121.348 923.27 119.082 920.516 117.483C917.85 115.794 914.74 114.95 911.185 114.95C907.808 114.95 904.743 115.794 901.988 117.483C899.233 119.082 897.056 121.348 895.457 124.281C893.946 127.213 893.191 130.545 893.191 134.277C893.191 138.187 893.946 141.608 895.457 144.541C897.056 147.473 899.189 149.784 901.855 151.472C904.609 153.071 907.72 153.871 911.185 153.871ZM972.935 197.324L989.197 160.536H985.198L958.273 100.821H977.867L997.061 144.141L1014.39 100.821H1033.45L991.996 197.324H972.935Z" fill="white" fill-opacity="0.1"/>
</svg>
