<svg width="126" height="31" viewBox="0 0 126 31" fill="none" xmlns="http://www.w3.org/2000/svg">
<path fill-rule="evenodd" clip-rule="evenodd" d="M17.6237 10.7425C16.6611 10.0993 15.5294 9.756 14.3716 9.756V3.90234C16.6871 3.90234 18.9506 4.58897 20.8759 5.87538C22.8011 7.1618 24.3017 8.99023 25.1878 11.1294C26.0739 13.2687 26.3057 15.6227 25.854 17.8936C25.4023 20.1646 24.2873 22.2507 22.6499 23.888C21.0127 25.5253 18.9266 26.6403 16.6556 27.092C14.3846 27.5438 12.0306 27.3119 9.89141 26.4258C7.75219 25.5397 5.92376 24.0392 4.63735 22.1139C3.35093 20.1886 2.66431 17.9251 2.66431 15.6097H8.51797C8.51797 16.7674 8.86128 17.8991 9.50448 18.8618C10.1477 19.8244 11.0619 20.5747 12.1315 21.0177C13.2011 21.4608 14.3781 21.5767 15.5136 21.3508C16.6491 21.125 17.6921 20.5675 18.5108 19.7488C19.3294 18.9302 19.8869 17.8871 20.1128 16.7517C20.3387 15.6162 20.2228 14.4392 19.7797 13.3696C19.3366 12.2999 18.5864 11.3857 17.6237 10.7425Z" fill="white"/>
<path fill-rule="evenodd" clip-rule="evenodd" d="M8.51796 3.90235C8.51796 4.67106 8.36656 5.43225 8.07238 6.14245C7.77821 6.85264 7.34703 7.49794 6.80347 8.04151C6.25991 8.58507 5.61461 9.01625 4.90441 9.31042C4.1942 9.60459 3.43302 9.75601 2.66431 9.75601L2.66431 15.6097C4.20173 15.6097 5.7241 15.3069 7.14451 14.7185C8.56491 14.1302 9.85552 13.2678 10.9426 12.1806C12.0297 11.0936 12.8921 9.80295 13.4805 8.38254C14.0688 6.96214 14.3716 5.43977 14.3716 3.90234L8.51796 3.90235Z" fill="white"/>
<path d="M76.1974 12.3623H73.3572V21.3841H76.1974V12.3623Z" fill="white"/>
<path d="M73.6732 10.6731C73.9699 10.9701 74.3411 11.1187 74.7865 11.1187C75.232 11.1187 75.5973 10.9701 75.8818 10.6731C76.1668 10.3638 76.3091 9.99247 76.3091 9.55933C76.3091 9.11382 76.1668 8.74253 75.8818 8.44553C75.5973 8.1485 75.232 8 74.7865 8C74.3411 8 73.9699 8.1485 73.6732 8.44553C73.3881 8.74253 73.2458 9.11382 73.2458 9.55933C73.2458 9.99247 73.3881 10.3638 73.6732 10.6731Z" fill="white"/>
<path d="M32.6094 21.3841V8.27832H35.5239V18.8224H41.3343V21.3841H32.6094Z" fill="white"/>
<path fill-rule="evenodd" clip-rule="evenodd" d="M46.5826 21.5884C45.6545 21.5884 44.8129 21.3843 44.058 20.9759C43.3155 20.5551 42.7276 19.9858 42.2945 19.268C41.8614 18.5502 41.6448 17.7458 41.6448 16.8548C41.6448 15.9637 41.8614 15.1655 42.2945 14.4601C42.7276 13.7547 43.3155 13.1978 44.058 12.7894C44.8005 12.3686 45.6421 12.1582 46.5826 12.1582C47.5232 12.1582 48.3647 12.3624 49.1073 12.7708C49.8498 13.1792 50.4377 13.7423 50.8708 14.4601C51.304 15.1655 51.5205 15.9637 51.5205 16.8548C51.5205 17.7458 51.304 18.5502 50.8708 19.268C50.4377 19.9858 49.8498 20.5551 49.1073 20.9759C48.3647 21.3843 47.5232 21.5884 46.5826 21.5884ZM46.5826 19.0082C46.991 19.0082 47.3499 18.9215 47.6593 18.7483C47.9687 18.5626 48.2039 18.3089 48.3647 17.9872C48.538 17.653 48.6246 17.2755 48.6246 16.8548C48.6246 16.434 48.538 16.0689 48.3647 15.7596C48.1914 15.4378 47.9502 15.1903 47.6407 15.017C47.3437 14.8313 46.991 14.7386 46.5826 14.7386C46.1866 14.7386 45.8339 14.8313 45.5245 15.017C45.2152 15.1903 44.9738 15.4378 44.8005 15.7596C44.6273 16.0813 44.5407 16.4526 44.5407 16.8733C44.5407 17.2817 44.6273 17.653 44.8005 17.9872C44.9738 18.3089 45.2152 18.5626 45.5245 18.7483C45.8339 18.9215 46.1866 19.0082 46.5826 19.0082Z" fill="white"/>
<path fill-rule="evenodd" clip-rule="evenodd" d="M53.7699 24.9113C54.5248 25.2578 55.3973 25.4311 56.3873 25.4311C57.3526 25.4311 58.2128 25.2393 58.9676 24.8556C59.7226 24.472 60.3166 23.9399 60.7497 23.2592C61.1828 22.5785 61.3997 21.7741 61.3997 20.8459V12.3624H58.6149V12.9686C58.4078 12.7943 58.1726 12.6479 57.9095 12.5295C57.4268 12.2944 56.8761 12.1768 56.2574 12.1768C55.4282 12.1768 54.6918 12.3748 54.0483 12.7708C53.4047 13.1544 52.8974 13.6866 52.5261 14.3673C52.1548 15.0356 51.9692 15.7905 51.9692 16.632C51.9692 17.4612 52.1548 18.2161 52.5261 18.8968C52.8974 19.5774 53.4047 20.1158 54.0483 20.5118C54.6918 20.9078 55.4282 21.1058 56.2574 21.1058C56.8638 21.1058 57.4145 20.9883 57.9095 20.7531C58.1493 20.6392 58.3659 20.505 58.5592 20.3504V20.9202C58.5592 21.5513 58.3551 22.0402 57.9466 22.3867C57.5506 22.7332 56.9999 22.9065 56.2945 22.9065C55.7252 22.9065 55.2364 22.8075 54.828 22.6094C54.432 22.4115 54.073 22.1206 53.7513 21.737L52.0064 23.4819C52.4395 24.1007 53.0273 24.5772 53.7699 24.9113ZM57.8167 18.3213C57.532 18.4946 57.1918 18.5812 56.7957 18.5812C56.3997 18.5812 56.0532 18.4946 55.7561 18.3213C55.4715 18.148 55.2487 17.9129 55.0879 17.6159C54.927 17.3065 54.8465 16.9785 54.8465 16.632C54.8465 16.2607 54.927 15.9266 55.0879 15.6296C55.2487 15.3326 55.4777 15.0974 55.7747 14.9242C56.0717 14.7509 56.412 14.6643 56.7957 14.6643C57.1918 14.6643 57.532 14.7509 57.8167 14.9242C58.1137 15.0974 58.3364 15.3326 58.485 15.6296C58.6459 15.9266 58.7263 16.2607 58.7263 16.632C58.7263 17.0033 58.6459 17.3374 58.485 17.6344C58.3364 17.9191 58.1137 18.148 57.8167 18.3213Z" fill="white"/>
<path fill-rule="evenodd" clip-rule="evenodd" d="M67.3769 21.5884C66.4485 21.5884 65.6067 21.3843 64.8522 20.9759C64.1094 20.5551 63.5216 19.9858 63.0885 19.268C62.6553 18.5502 62.4387 17.7458 62.4387 16.8548C62.4387 15.9637 62.6553 15.1655 63.0885 14.4601C63.5216 13.7547 64.1094 13.1978 64.8522 12.7894C65.5944 12.3686 66.4362 12.1582 67.3769 12.1582C68.317 12.1582 69.1587 12.3624 69.901 12.7708C70.6438 13.1792 71.2315 13.7423 71.6647 14.4601C72.0978 15.1655 72.3144 15.9637 72.3144 16.8548C72.3144 17.7458 72.0978 18.5502 71.6647 19.268C71.2315 19.9858 70.6438 20.5551 69.901 20.9759C69.1587 21.3843 68.317 21.5884 67.3769 21.5884ZM67.3769 19.0082C67.7849 19.0082 68.1437 18.9215 68.4534 18.7483C68.7624 18.5626 68.9977 18.3089 69.1587 17.9872C69.332 17.653 69.4186 17.2755 69.4186 16.8548C69.4186 16.434 69.332 16.0689 69.1587 15.7596C68.9855 15.4378 68.7443 15.1903 68.4346 15.017C68.1378 14.8313 67.7849 14.7386 67.3769 14.7386C66.9806 14.7386 66.6276 14.8313 66.3185 15.017C66.0089 15.1903 65.7677 15.4378 65.5944 15.7596C65.4212 16.0813 65.3345 16.4526 65.3345 16.8733C65.3345 17.2817 65.4212 17.653 65.5944 17.9872C65.7677 18.3089 66.0089 18.5626 66.3185 18.7483C66.6276 18.9215 66.9806 19.0082 67.3769 19.0082Z" fill="white"/>
<path fill-rule="evenodd" clip-rule="evenodd" d="M83.0236 21.5699C82.4178 21.5699 81.8605 21.4523 81.353 21.2172C81.0861 21.0935 80.8449 20.9457 80.6295 20.774V25.1898H77.8262V12.3624H80.6664V12.9851C80.8724 12.8166 81.1013 12.6709 81.353 12.5481C81.8605 12.3005 82.4178 12.1768 83.0236 12.1768C83.8777 12.1768 84.6328 12.381 85.2884 12.7894C85.9569 13.1978 86.4767 13.7547 86.8478 14.4601C87.2318 15.1655 87.4232 15.9699 87.4232 16.8733C87.4232 17.7768 87.2318 18.5812 86.8478 19.2866C86.4767 19.992 85.9569 20.5489 85.2884 20.9573C84.6328 21.3657 83.8777 21.5699 83.0236 21.5699ZM82.5044 19.0082C82.9124 19.0082 83.2654 18.9153 83.5622 18.7297C83.8718 18.5441 84.113 18.2903 84.2863 17.9686C84.4595 17.6468 84.5462 17.2817 84.5462 16.8733C84.5462 16.4526 84.4595 16.0813 84.2863 15.7595C84.113 15.4378 83.8718 15.1903 83.5622 15.017C83.2654 14.8313 82.9189 14.7386 82.5226 14.7386C82.1269 14.7386 81.7739 14.8313 81.4648 15.017C81.1674 15.1903 80.9327 15.4378 80.7594 15.7595C80.5862 16.0813 80.4995 16.4526 80.4995 16.8733C80.4995 17.2817 80.5797 17.6468 80.7407 17.9686C80.914 18.2903 81.1551 18.5441 81.4648 18.7297C81.7739 18.9153 82.1204 19.0082 82.5044 19.0082Z" fill="white"/>
<path d="M90.2031 21.4028C90.7229 21.539 91.2485 21.607 91.7806 21.607C92.9069 21.607 93.7978 21.3472 94.454 20.8274C95.1219 20.3076 95.4562 19.6084 95.4562 18.7297C95.4562 18.1604 95.3514 17.7025 95.1406 17.356C94.9305 16.9971 94.6583 16.7125 94.3241 16.5021C93.9898 16.2917 93.6368 16.1246 93.2657 16.0008C92.8946 15.8771 92.5416 15.7719 92.208 15.6853C91.8737 15.5986 91.6015 15.4997 91.3908 15.3883C91.1806 15.2769 91.0753 15.1284 91.0753 14.9427C91.0753 14.7695 91.1561 14.6395 91.3164 14.5529C91.4774 14.4539 91.7186 14.4044 92.0405 14.4044C92.3748 14.4044 92.7149 14.4725 93.0614 14.6086C93.4203 14.7447 93.7422 14.9799 94.0267 15.314L95.6417 13.6805C95.2337 13.1606 94.7016 12.7708 94.0454 12.5109C93.4021 12.2387 92.6967 12.1025 91.9293 12.1025C91.1994 12.1025 90.5619 12.2263 90.0175 12.4738C89.4725 12.7213 89.0517 13.0617 88.7549 13.4948C88.4581 13.9155 88.3094 14.4168 88.3094 14.9985C88.3094 15.543 88.4148 15.9947 88.6249 16.3536C88.8351 16.7001 89.1079 16.9724 89.4415 17.1703C89.7758 17.3684 90.1287 17.5231 90.4999 17.6344C90.871 17.7458 91.224 17.851 91.5582 17.9501C91.8919 18.0367 92.1646 18.1419 92.3748 18.2656C92.5978 18.377 92.709 18.5441 92.709 18.7668C92.709 18.9401 92.616 19.0762 92.4304 19.1752C92.2571 19.2742 92.0037 19.3237 91.6694 19.3237C91.1865 19.3237 90.741 19.2371 90.333 19.0638C89.9244 18.8782 89.5715 18.6245 89.2747 18.3027L87.6597 19.9363C87.9693 20.2704 88.3404 20.5675 88.7736 20.8274C89.2191 21.0749 89.6956 21.2667 90.2031 21.4028Z" fill="white"/>
<path d="M100.636 21.5883C99.8066 21.5883 99.0702 21.4213 98.4269 21.0871C97.7953 20.7406 97.3007 20.2703 96.9419 19.6763C96.5824 19.0699 96.4033 18.3769 96.4033 17.5972V12.3623H99.2435V17.5601C99.2435 17.8694 99.2927 18.1355 99.3922 18.3583C99.5034 18.5811 99.6644 18.7543 99.8745 18.8781C100.085 19.0018 100.339 19.0637 100.636 19.0637C101.056 19.0637 101.391 18.9337 101.638 18.6738C101.886 18.4016 102.009 18.0303 102.009 17.5601V12.3623H104.85V17.5786C104.85 18.3707 104.67 19.0699 104.311 19.6763C103.952 20.2703 103.458 20.7406 102.826 21.0871C102.195 21.4213 101.465 21.5883 100.636 21.5883Z" fill="white"/>
<path d="M109.102 12.3624H106.261V21.3843H109.102V16.1122C109.102 15.8029 109.164 15.543 109.287 15.3326C109.424 15.1222 109.603 14.9613 109.826 14.8499C110.049 14.7261 110.302 14.6643 110.587 14.6643C110.995 14.6643 111.335 14.7942 111.608 15.0541C111.893 15.3016 112.035 15.6544 112.035 16.1122V21.3843H114.875V16.1122C114.875 15.8029 114.937 15.543 115.061 15.3326C115.197 15.1222 115.376 14.9613 115.599 14.8499C115.822 14.7261 116.076 14.6643 116.36 14.6643C116.769 14.6643 117.109 14.7942 117.381 15.0541C117.666 15.3016 117.808 15.6544 117.808 16.1122V21.3843H120.649V15.7967C120.649 15.0418 120.488 14.3982 120.166 13.8661C119.856 13.3215 119.429 12.9069 118.885 12.6223C118.353 12.3253 117.74 12.1768 117.047 12.1768C116.341 12.1768 115.704 12.3315 115.135 12.6409C114.765 12.838 114.442 13.0924 114.165 13.404C113.907 13.078 113.593 12.8113 113.223 12.6037C112.728 12.3191 112.165 12.1768 111.534 12.1768C110.865 12.1768 110.265 12.3191 109.733 12.6037C109.501 12.7221 109.291 12.864 109.102 13.0292V12.3624Z" fill="white"/>
</svg>
