<svg width="131" height="31" viewBox="0 0 131 31" fill="none" xmlns="http://www.w3.org/2000/svg">
<path d="M12.1708 27.317C18.6368 27.317 23.8781 22.0756 23.8781 15.6097V7.41454C23.8781 6.48305 23.5081 5.58971 22.8494 4.93104C22.1908 4.27238 21.2974 3.90234 20.3659 3.90234H12.7562V9.03834C12.7562 10.2102 12.8276 11.4243 13.4422 12.4218C13.8822 13.1366 14.4709 13.7485 15.1682 14.2158C15.8655 14.6831 16.6551 14.995 17.4836 15.1302L17.7078 15.1665C17.8002 15.1981 17.8804 15.2578 17.9373 15.3373C17.9941 15.4168 18.0246 15.512 18.0246 15.6097C18.0246 15.7073 17.9941 15.8026 17.9373 15.882C17.8804 15.9615 17.8002 16.0212 17.7078 16.0528L17.4836 16.0891C16.2732 16.2868 15.1554 16.8597 14.2881 17.727C13.4209 18.5943 12.848 19.712 12.6502 20.9224L12.6139 21.1466C12.5823 21.2391 12.5226 21.3193 12.4432 21.3761C12.3637 21.4329 12.2685 21.4635 12.1708 21.4635C12.0731 21.4635 11.9779 21.4329 11.8984 21.3761C11.819 21.3193 11.7593 21.2391 11.7277 21.1466L11.6914 20.9224C11.5561 20.094 11.2442 19.3044 10.7769 18.6071C10.3096 17.9098 9.69773 17.3211 8.98291 16.8811C7.98544 16.2664 6.77139 16.195 5.59949 16.195H0.477539C0.783685 22.3888 5.90154 27.317 12.1708 27.317Z" fill="white"/>
<path d="M0.463379 15.0243H5.59938C6.77128 15.0243 7.98533 14.9529 8.98279 14.3382C9.76251 13.8578 10.4189 13.2015 10.8993 12.4218C11.5139 11.4243 11.5853 10.2102 11.5853 9.03834V3.90234H3.97557C3.04408 3.90234 2.15074 4.27238 1.49208 4.93104C0.833413 5.58971 0.463379 6.48305 0.463379 7.41454L0.463379 15.0243ZM27.6565 5.07308C27.6565 5.38357 27.5332 5.68135 27.3136 5.90091C27.0941 6.12046 26.7963 6.24381 26.4858 6.24381C26.1753 6.24381 25.8775 6.12046 25.658 5.90091C25.4384 5.68135 25.3151 5.38357 25.3151 5.07308C25.3151 4.76258 25.4384 4.4648 25.658 4.24524C25.8775 4.02569 26.1753 3.90234 26.4858 3.90234C26.7963 3.90234 27.0941 4.02569 27.3136 4.24524C27.5332 4.4648 27.6565 4.76258 27.6565 5.07308ZM124.392 10.9876C127.665 10.9876 129.244 13.2735 129.244 15.9211V20.8938H125.819V16.5111C125.819 15.3111 125.381 14.3207 124.125 14.3207C122.87 14.3207 122.451 15.3111 122.451 16.5111V20.8932H119.026V16.5111C119.026 15.3111 118.608 14.3207 117.352 14.3207C116.096 14.3207 115.658 15.3111 115.658 16.5111V20.8932H112.234V15.9205C112.234 13.2729 113.812 10.987 117.085 10.987C118.874 10.987 120.168 11.6918 120.758 12.8538C121.385 11.6918 122.756 10.9864 124.392 10.9864V10.9876ZM106.079 17.8458C107.183 17.8458 107.659 16.836 107.659 15.6354V11.3681H111.083V16.0545C111.083 18.8549 109.447 21.1794 106.079 21.1794C102.711 21.1794 101.075 18.8555 101.075 16.0545V11.3681H104.5V15.6354C104.5 16.8354 104.975 17.8458 106.079 17.8458ZM96.039 21.1982C93.8889 21.1982 92.4999 20.4553 91.6815 19.0077L94.1553 17.6169C94.4977 18.2262 95.0111 18.5312 95.8675 18.5312C96.5717 18.5312 96.8948 18.2836 96.8948 17.9786C96.8948 16.8167 91.8718 17.998 91.8718 14.3025C91.8718 12.5113 93.3937 11.0637 95.9816 11.0637C98.2458 11.0637 99.4827 12.1683 100.035 13.2354L97.5609 14.645C97.352 14.0737 96.7046 13.7306 96.0577 13.7306C95.5631 13.7306 95.2967 13.9402 95.2967 14.2259C95.2967 15.4071 100.32 14.3213 100.32 17.9025C100.32 19.9027 98.36 21.1982 96.039 21.1982ZM84.0729 25.2752H80.648V16.1119C80.648 13.1968 82.8361 11.0824 85.8805 11.0824C88.8489 11.0824 91.1131 13.3496 91.1131 16.1119C91.1131 19.1599 89.096 21.1794 86.0708 21.1794C85.3666 21.1794 84.663 20.9699 84.0729 20.6456V25.2752ZM85.8805 17.9599C86.9652 17.9599 87.6882 17.1217 87.6882 16.1306C87.6882 15.1215 86.9652 14.302 85.8805 14.302C84.7959 14.302 84.0729 15.1215 84.0729 16.1312C84.0729 17.1217 84.7959 17.9599 85.8805 17.9599ZM77.2171 10.3589C76.0944 10.3589 75.1625 9.42527 75.1625 8.30137C75.1625 7.17747 76.0944 6.24381 77.2171 6.24381C78.3399 6.24381 79.2724 7.17747 79.2724 8.30137C79.2724 9.42527 78.3399 10.3589 77.2171 10.3589ZM75.5049 11.3681H78.9299V20.8938H75.5049V11.3681ZM68.9336 21.1794C65.9652 21.1794 63.701 18.8936 63.701 16.1119C63.701 13.3496 65.9652 11.0637 68.9336 11.0637C71.902 11.0637 74.1662 13.3496 74.1662 16.1119C74.1662 18.8936 71.902 21.1794 68.9336 21.1794ZM68.9336 17.9599C70.0183 17.9599 70.7412 17.1217 70.7412 16.1306C70.7412 15.1215 70.0183 14.2832 68.9336 14.2832C67.8489 14.2832 67.126 15.1215 67.126 16.1306C67.126 17.1217 67.8489 17.9599 68.9336 17.9599ZM57.2339 25.5609C54.8749 25.5609 53.1621 24.5131 52.287 22.6458L55.1219 21.1221C55.4263 21.7701 55.997 22.4368 57.1765 22.4368C58.414 22.4368 59.2318 21.6553 59.3272 20.2838C58.8706 20.6842 58.1471 20.9886 57.063 20.9886C54.4177 20.9886 52.2864 18.9503 52.2864 16.0926C52.2864 13.3308 54.5512 11.0824 57.5196 11.0824C60.5641 11.0824 62.7522 13.1974 62.7522 16.1119V19.884C62.7522 23.3131 60.3732 25.5609 57.2339 25.5609ZM57.4622 17.7697C58.4895 17.7697 59.2698 17.0643 59.2698 16.0165C59.2698 14.988 58.4901 14.302 57.4622 14.302C56.4536 14.302 55.6546 14.988 55.6546 16.0171C55.6546 17.0649 56.4536 17.7691 57.4622 17.7691V17.7697ZM46.4772 21.1794C43.5088 21.1794 41.2441 18.8936 41.2441 16.1119C41.2441 13.3496 43.5088 11.0637 46.4772 11.0637C49.445 11.0637 51.7098 13.3496 51.7098 16.1119C51.7098 18.8936 49.4456 21.1794 46.4772 21.1794ZM46.4772 17.9599C47.5619 17.9599 48.2848 17.1217 48.2848 16.1306C48.2848 15.1215 47.5619 14.2832 46.4772 14.2832C45.3925 14.2832 44.6696 15.1215 44.6696 16.1306C44.6696 17.1217 45.3925 17.9599 46.4772 17.9599ZM35.0076 8.03503V17.6549H40.678V20.8938H34.5317C32.3629 20.8938 31.4878 19.7505 31.4878 17.9406V8.03503H35.0076Z" fill="white"/>
</svg>
