<svg width="113" height="30" viewBox="0 0 113 30" fill="none" xmlns="http://www.w3.org/2000/svg">
<path d="M35.4964 15.6566C35.5174 15.2521 35.5174 14.8468 35.4964 14.4423H12.4564C12.4515 14.5431 12.4473 14.6445 12.4449 14.7459H7.61816L7.61573 14.8977H5.0166V15.2013H7.61512L7.61877 15.353H12.4449C12.4473 15.455 12.4509 15.5558 12.457 15.6566H19.0717C19.0466 15.4552 19.034 15.2524 19.034 15.0495H28.7481C28.7481 15.2553 28.736 15.4581 28.7105 15.6566H35.4964ZM35.4484 13.8352H28.5958C28.5425 13.6286 28.4755 13.4258 28.3954 13.2281H19.3886C19.3091 13.4248 19.2417 13.627 19.1883 13.8352H12.5037C12.5147 13.7338 12.5268 13.6324 12.5402 13.5316H7.71348L7.73412 13.3835H5.0166V13.0799H7.78208L7.81001 12.9245H12.6367C12.6549 12.8231 12.6756 12.7217 12.6974 12.621H35.256C35.341 13.0186 35.4059 13.4236 35.4484 13.8352ZM35.1085 12.0138H27.6832C27.5081 11.7952 27.3145 11.5921 27.1046 11.4067H20.6788C20.4693 11.5925 20.275 11.7953 20.1002 12.0138H12.845C12.8723 11.9124 12.9014 11.811 12.9318 11.7103H8.10508L8.15851 11.5397H5.0166V11.2355H8.2599L8.30725 11.1025H13.1339C13.1704 11.0005 13.2092 10.8997 13.2493 10.799H34.7035C34.8601 11.1936 34.9955 11.5998 35.1085 12.0138ZM34.4424 10.1924H13.5104C13.5577 10.0904 13.6063 9.98965 13.6567 9.88886H8.8306L8.91621 9.72129H5.0166V9.41773H9.08074L9.15784 9.28173H13.9845C14.0434 9.17973 14.1041 9.07834 14.1661 8.97816H33.7867C34.0284 9.36794 34.2481 9.77351 34.4424 10.1924ZM12.5037 16.2637H35.4491C35.4059 16.6754 35.341 17.0809 35.256 17.478H28.0991C28.2114 17.2837 28.311 17.0809 28.396 16.8709H19.3874C19.4724 17.0809 19.5714 17.2837 19.6837 17.478H12.6968C12.6752 17.3771 12.655 17.2759 12.6361 17.1744H7.81001C7.80012 17.1211 7.79061 17.0676 7.78148 17.0142H5.0166V16.7106H7.73351C7.72654 16.6629 7.71986 16.6151 7.71348 16.5673H12.5402C12.5267 16.4663 12.5146 16.3651 12.5037 16.2637ZM12.8443 18.0851H35.1078C34.9955 18.4998 34.8601 18.9048 34.7035 19.2994H26.2449C26.5526 19.1286 26.8408 18.9251 27.1046 18.6923H20.6788C20.9426 18.9251 21.2308 19.1286 21.5385 19.2994H13.2493C13.2094 19.1987 13.171 19.0975 13.1339 18.9958H8.30725L8.25504 18.8495H5.0166V18.5459H8.15426C8.1377 18.4936 8.1215 18.4412 8.10568 18.3887H12.9318C12.9014 18.2879 12.8723 18.1871 12.8443 18.0851ZM13.5104 19.9065H34.4424C34.2483 20.324 34.0294 20.7295 33.7867 21.1208H14.1661C14.1038 21.0205 14.0431 20.9193 13.9839 20.8172H9.15784C9.12749 20.765 9.09774 20.7128 9.06859 20.66H5.0166V20.3564H8.90528L8.8306 20.2107H13.6573C13.6068 20.1102 13.5579 20.009 13.5104 19.9071V19.9065ZM15.2893 22.6386C15.3785 22.7418 15.4702 22.8426 15.5637 22.9422H32.3891C32.7474 22.5603 33.0795 22.1547 33.383 21.7279H14.5698C14.6427 21.8305 14.7167 21.9319 14.7932 22.0315H9.96654L10.0868 22.1863H5.0166V22.4899H10.3351C10.377 22.5403 10.4195 22.5894 10.4626 22.6386H15.2893ZM17.3031 24.46C17.4506 24.565 17.6006 24.6664 17.7524 24.7636H30.2004C30.7592 24.4047 31.2861 23.9985 31.7753 23.5493H16.1781C16.2904 23.6525 16.4052 23.7539 16.5217 23.8529H11.695C11.7606 23.9087 11.8268 23.9634 11.8936 24.0168H5.0166V24.3204H12.2852C12.3483 24.3677 12.4127 24.4145 12.477 24.46H17.3037H17.3031ZM21.5634 26.3324C22.3417 26.4981 23.1486 26.585 23.9761 26.585C25.8303 26.585 27.5818 26.1478 29.1337 25.3707H18.8185C19.0347 25.4788 19.2538 25.5802 19.4766 25.6743H14.65C14.7362 25.7107 14.823 25.7465 14.9098 25.7811H5.0166V26.0847H15.778C16.8447 26.4101 17.977 26.585 19.15 26.585C19.9775 26.585 20.785 26.4981 21.5634 26.3324ZM14.5698 8.37103H33.383C33.0795 7.94429 32.7475 7.53861 32.3891 7.15677H15.5637C15.4702 7.25634 15.3785 7.35712 15.2887 7.46034H10.4626L10.3557 7.58541H5.0166V7.88897H10.1056C10.0588 7.94786 10.0127 8.00736 9.96715 8.06747H14.7932C14.7167 8.16764 14.6427 8.26904 14.5698 8.37103ZM16.1775 6.54964H31.7747C31.2857 6.10051 30.759 5.69426 30.2004 5.33538H17.7524C17.6006 5.43313 17.4506 5.53452 17.3031 5.63894H12.477C12.4102 5.68691 12.3435 5.73487 12.2779 5.78405H5.0166V6.08761H11.8869C11.8225 6.13983 11.7588 6.19265 11.6957 6.24607H16.5217C16.4052 6.34504 16.2904 6.44643 16.1775 6.54964ZM18.8191 4.72825H29.1343C27.5332 3.9271 25.767 3.51128 23.9767 3.51398C23.1486 3.51398 22.3417 3.60141 21.5634 3.76716C20.77 3.5985 19.9611 3.51364 19.15 3.51398C17.8544 3.51398 16.6092 3.72769 15.4465 4.12112H5.0166V4.42468H19.4766C19.2543 4.51892 19.035 4.62016 18.8191 4.72825ZM72.5587 3.34277C72.9576 3.34277 73.2709 3.44234 73.4986 3.64148C73.736 3.83151 73.8544 4.09683 73.8544 4.43925C73.8544 4.78107 73.736 5.05124 73.4986 5.25038C73.2709 5.44041 72.9576 5.53573 72.5587 5.53573C72.1605 5.53573 71.8423 5.44041 71.6049 5.25038C71.3773 5.05124 71.2631 4.78107 71.2631 4.43925C71.2631 4.09744 71.3773 3.83212 71.6049 3.64148C71.8423 3.44234 72.1605 3.34277 72.5587 3.34277ZM73.6692 6.85928V13.0526C73.6692 13.4515 73.736 13.7223 73.8689 13.8644C74.011 14.007 74.2484 14.0781 74.5805 14.0781V14.3768C74.3149 14.3638 74.0491 14.3543 73.7833 14.3482C73.4181 14.3291 73.0525 14.3196 72.6868 14.3197C72.3171 14.3197 71.9419 14.3294 71.5624 14.3482C71.2776 14.3545 70.9928 14.364 70.7082 14.3768V14.0781C71.0403 14.0781 71.2728 14.007 71.4058 13.8644C71.5479 13.7223 71.6195 13.4515 71.6195 13.0526V8.56774C71.6195 8.14093 71.5527 7.82704 71.4198 7.62851C71.2965 7.41966 71.0591 7.31523 70.7082 7.31523V7.01592C71.0118 7.04445 71.3062 7.05842 71.591 7.05842C71.9892 7.05842 72.3596 7.04445 72.7014 7.01592C73.0523 6.97828 73.3753 6.92606 73.6692 6.85928Z" fill="white"/>
<path fill-rule="evenodd" clip-rule="evenodd" d="M77.6759 8.16615V6.85961C77.3821 6.92639 77.0591 6.97861 76.7082 7.01625C76.3566 7.04478 75.9863 7.05875 75.5971 7.05875C75.3124 7.05875 75.0185 7.04478 74.7144 7.01625V7.31556C75.0562 7.31556 75.2936 7.41999 75.4265 7.62884C75.5595 7.82798 75.6257 8.14126 75.6257 8.56808V15.6873C75.6257 16.0668 75.5595 16.323 75.4265 16.4559C75.3033 16.5889 75.0847 16.6551 74.7714 16.6551V16.9544L75.5261 16.9119C75.8725 16.9022 76.219 16.8974 76.5655 16.8973C77.0494 16.8973 77.5053 16.9022 77.9321 16.9113C78.3687 16.9307 78.7105 16.9447 78.9576 16.9538V16.6551C78.5587 16.6551 78.2454 16.5792 78.0178 16.4274C77.7901 16.2853 77.6759 15.9909 77.6759 15.5446V14.1179C77.801 14.2223 77.9479 14.3085 78.1173 14.3771C78.4209 14.5107 78.7578 14.5769 79.1282 14.5769C79.6315 14.5769 80.082 14.4864 80.4809 14.3061C80.8864 14.1277 81.2429 13.8543 81.5203 13.5089C81.8141 13.1483 82.0376 12.7069 82.1894 12.1848C82.3508 11.6626 82.4316 11.0555 82.4316 10.3621C82.4316 9.5747 82.3175 8.9196 82.0898 8.39747C81.8621 7.86562 81.5579 7.4722 81.1785 7.21599C80.7992 6.95021 80.3459 6.81065 79.8829 6.81711C79.3322 6.81711 78.8483 6.95918 78.4306 7.24392C78.1021 7.46553 77.8508 7.77273 77.6759 8.16676V8.16615ZM77.6759 8.6555V13.8167C77.7549 13.9102 77.8502 13.9879 77.9607 14.0499C78.141 14.1446 78.345 14.1919 78.5733 14.1919C79.0001 14.1919 79.337 14.0499 79.5842 13.7651C79.8306 13.4707 80.0061 13.0627 80.1105 12.5405C80.2247 12.0093 80.2817 11.3779 80.2817 10.6469C80.2817 9.83091 80.2295 9.18978 80.1251 8.72472C80.0207 8.25965 79.878 7.92755 79.6977 7.72841C79.5174 7.52867 79.2994 7.4291 79.0426 7.4291C78.7014 7.4291 78.3881 7.56267 78.1034 7.82798C77.889 8.03441 77.7464 8.31065 77.6759 8.6555Z" fill="white"/>
<path d="M85.7007 6.81703C86.0996 6.81703 86.4457 6.86925 86.7401 6.97367C87.0437 7.06838 87.2622 7.1637 87.3952 7.25842C87.7176 7.47698 87.9173 7.33431 87.9932 6.831H88.2919C88.2731 7.09692 88.2585 7.42477 88.2494 7.81333C88.2397 8.1934 88.2349 8.70096 88.2349 9.33723H87.9362C87.8875 8.98125 87.7966 8.63232 87.6654 8.29782C87.5445 7.97319 87.3439 7.68422 87.0819 7.45756C86.8348 7.23899 86.5124 7.1297 86.1136 7.1297C85.8385 7.1297 85.606 7.21106 85.416 7.37256C85.2259 7.52434 85.1312 7.74716 85.1312 8.04162C85.1312 8.32636 85.2168 8.57771 85.3874 8.79628C85.5586 9.00513 85.7766 9.20913 86.0425 9.40827C86.3175 9.5983 86.6023 9.8023 86.8967 10.0203C87.21 10.2576 87.4948 10.495 87.751 10.7324C87.9966 10.9471 88.2036 11.2024 88.363 11.4871C88.5154 11.7621 88.5913 12.0894 88.5913 12.4694C88.5913 12.8962 88.4674 13.2708 88.2209 13.5938C87.9738 13.9071 87.6466 14.1494 87.2386 14.32C86.8397 14.4912 86.3934 14.5768 85.9005 14.5768C85.6415 14.5797 85.3832 14.551 85.1312 14.4912C84.9338 14.442 84.7427 14.3703 84.5617 14.2775C84.4385 14.2204 84.3195 14.1682 84.2059 14.1208C84.1091 14.0675 84.0091 14.0201 83.9066 13.9788C83.8119 13.9502 83.7263 13.983 83.6504 14.0783C83.5842 14.173 83.532 14.306 83.4938 14.4766H83.1951C83.2139 14.173 83.2285 13.8027 83.2376 13.3662C83.2473 12.9296 83.2521 12.3504 83.2521 11.6298H83.5508C83.6079 12.1422 83.7123 12.5975 83.8641 12.9958C84.0159 13.3856 84.2199 13.694 84.4761 13.9217C84.742 14.1402 85.0741 14.2495 85.473 14.2495C85.6345 14.2495 85.7912 14.2161 85.9429 14.1494C86.0947 14.0826 86.218 13.9733 86.3133 13.8215C86.4177 13.6697 86.4699 13.4754 86.4699 13.2387C86.4699 12.8203 86.3321 12.4737 86.0565 12.1986C85.7912 11.9236 85.4494 11.6243 85.0316 11.3019C84.7281 11.0548 84.4385 10.8132 84.1634 10.5758C83.9084 10.3424 83.6878 10.074 83.5084 9.77862C83.335 9.47536 83.2464 9.13099 83.2521 8.78171C83.2521 8.3549 83.3657 7.99426 83.5933 7.6998C83.8258 7.40227 84.1365 7.17542 84.4907 7.04471C84.8757 6.89187 85.2865 6.81457 85.7007 6.81703ZM103.375 6.97367C103.128 6.86925 102.805 6.81703 102.407 6.81703C101.96 6.8125 101.52 6.92022 101.125 7.13031C100.736 7.32945 100.428 7.66641 100.2 8.14118V6.86014C99.9057 6.92632 99.5828 6.97853 99.2318 7.01617C98.89 7.04471 98.5197 7.05867 98.1214 7.05867C97.8366 7.05867 97.5422 7.04471 97.2386 7.01617V7.31549C97.5895 7.31549 97.8269 7.41991 97.9502 7.62877C98.0831 7.82791 98.1493 8.14118 98.1493 8.568V13.0529C98.1493 13.4518 98.0783 13.7225 97.9362 13.8646C97.8033 14.0073 97.5707 14.0783 97.2386 14.0783V14.377C97.5232 14.3643 97.808 14.3548 98.0928 14.3485C98.4627 14.3298 98.833 14.3202 99.2033 14.32C99.5354 14.32 99.8584 14.3297 100.171 14.3485C100.494 14.3582 100.731 14.3679 100.883 14.377V14.0783C100.637 14.0783 100.461 14.0073 100.356 13.8646C100.252 13.7225 100.2 13.4518 100.2 13.0529V9.09499C100.2 8.78171 100.262 8.50182 100.385 8.25472C100.518 7.99851 100.688 7.79937 100.897 7.6573C101.098 7.51755 101.336 7.44293 101.581 7.44359C101.799 7.44359 101.96 7.4958 102.065 7.60023C102.179 7.69494 102.255 7.83276 102.293 8.01308C102.331 8.18368 102.349 8.38768 102.349 8.62507V13.0529C102.349 13.4518 102.297 13.7225 102.193 13.8646C102.098 14.0073 101.923 14.0783 101.666 14.0783V14.377C101.837 14.3679 102.088 14.3582 102.421 14.3485C103.094 14.3101 103.769 14.3101 104.443 14.3485C104.794 14.3582 105.055 14.3679 105.225 14.377V14.0783C104.922 14.0783 104.708 14.0073 104.585 13.8646C104.462 13.7225 104.4 13.4518 104.4 13.0529V9.15813L104.399 9.11381L104.397 8.96992C104.419 8.73193 104.482 8.49967 104.585 8.28386C104.718 8.02704 104.888 7.82305 105.097 7.67127C105.306 7.51948 105.534 7.44359 105.781 7.44359C106.027 7.44359 106.208 7.4958 106.322 7.60023C106.445 7.69494 106.526 7.83276 106.564 8.01308C106.612 8.18368 106.635 8.38768 106.635 8.62507V13.0529C106.635 13.4518 106.583 13.7225 106.479 13.8646C106.384 14.0073 106.208 14.0783 105.952 14.0783V14.377C106.123 14.3679 106.374 14.3582 106.706 14.3485C107.043 14.3294 107.38 14.3199 107.717 14.32C108.069 14.32 108.424 14.3297 108.785 14.3485C109.146 14.3582 109.416 14.3679 109.597 14.377V14.0783C109.265 14.0783 109.027 14.0073 108.885 13.8646C108.752 13.7225 108.685 13.4518 108.685 13.0529V9.22309C108.685 8.74832 108.652 8.36886 108.586 8.08411C108.519 7.78966 108.41 7.55287 108.258 7.37256C108.106 7.20135 107.907 7.06899 107.66 6.97367C107.414 6.86925 107.091 6.81703 106.692 6.81703C106.208 6.81703 105.752 6.9166 105.326 7.11574C104.916 7.31124 104.585 7.68401 104.331 8.23408C104.322 8.18382 104.312 8.13381 104.3 8.08411C104.234 7.78966 104.125 7.55287 103.973 7.37256C103.821 7.20135 103.621 7.06899 103.375 6.97367ZM96.1215 12.8252V6.85953C95.827 6.92632 95.5047 6.97853 95.1531 7.01617C94.8119 7.04471 94.4416 7.05867 94.0427 7.05867C93.7579 7.05867 93.4641 7.04471 93.1599 7.01617V7.31549C93.5114 7.31549 93.7488 7.41991 93.8721 7.62877C94.005 7.82791 94.0712 8.14118 94.0712 8.568V12.2982C94.0712 12.6115 94.005 12.8962 93.8721 13.1524C93.7593 13.387 93.5876 13.5883 93.3736 13.7365C93.1745 13.879 92.9349 13.9539 92.69 13.9502C92.4532 13.9502 92.2729 13.9023 92.149 13.8075C92.0211 13.6956 91.9315 13.5463 91.8928 13.3807C91.8525 13.1744 91.8334 12.9644 91.8358 12.7542V6.85953C91.5419 6.92632 91.2189 6.97853 90.868 7.01617C90.5262 7.04471 90.1558 7.05867 89.7576 7.05867C89.4728 7.05867 89.1783 7.04471 88.8748 7.01617V7.31549C89.2257 7.31549 89.4631 7.41991 89.5863 7.62877C89.7193 7.82791 89.7855 8.14118 89.7855 8.568V12.1701C89.7855 12.6352 89.8189 13.0152 89.8857 13.3091C89.9518 13.6035 90.066 13.8409 90.2269 14.0212C90.3695 14.1827 90.5638 14.3157 90.8109 14.4201C91.0574 14.524 91.3804 14.5768 91.7793 14.5768C92.2729 14.5768 92.7185 14.4766 93.1174 14.2775C93.5254 14.0686 93.8435 13.7268 94.0712 13.2526V14.5337C94.3892 14.4554 94.7131 14.403 95.0396 14.377C95.3814 14.3485 95.7511 14.3345 96.15 14.3345C96.4445 14.3345 96.7383 14.3485 97.0328 14.377V14.0783C96.691 14.0783 96.4536 13.9788 96.3206 13.779C96.1877 13.5702 96.1215 13.2526 96.1215 12.8258V12.8252Z" fill="white"/>
<path fill-rule="evenodd" clip-rule="evenodd" d="M68.5806 7.20103C68.0585 6.94482 67.4507 6.81672 66.758 6.81672C66.0841 6.81672 65.4812 6.94482 64.95 7.20103C64.4278 7.45724 64.015 7.87009 63.7114 8.43958C63.4169 9.00907 63.2694 9.76373 63.2694 10.7036C63.2694 11.6434 63.4169 12.3975 63.7108 12.9676C64.0144 13.5273 64.4272 13.9353 64.9493 14.1915C65.4812 14.4478 66.0841 14.5765 66.758 14.5765C67.4507 14.5765 68.0585 14.4478 68.5806 14.1915C69.1021 13.9353 69.5107 13.5273 69.8046 12.9676C70.099 12.3981 70.246 11.6434 70.246 10.7036C70.246 9.76373 70.099 9.00968 69.8046 8.43958C69.5107 7.87009 69.1021 7.45724 68.5806 7.20103ZM65.8042 7.9557C66.0604 7.38621 66.3785 7.10146 66.758 7.10146C67.1472 7.10146 67.4653 7.38621 67.7118 7.9557C67.968 8.51547 68.0961 9.43163 68.0961 10.7036C68.0961 11.9755 67.968 12.8917 67.7118 13.4514C67.4653 14.0112 67.1472 14.2917 66.758 14.2917C66.3785 14.2917 66.0604 14.0112 65.8042 13.4514C65.548 12.8917 65.4199 11.9755 65.4199 10.7036C65.4199 9.43163 65.5474 8.51547 65.8042 7.9557ZM58.6267 17.0536C58.0378 17.0536 57.5114 17.0013 57.0463 16.8969C56.591 16.8022 56.2303 16.6504 55.9644 16.4416C55.7082 16.2418 55.5801 15.9953 55.5801 15.7009C55.5801 15.4064 55.7125 15.1411 55.9784 14.9037C56.2443 14.676 56.6383 14.4957 57.1605 14.3628L57.288 14.5904C57.125 14.7128 56.9893 14.8679 56.8897 15.0458C56.8138 15.217 56.7755 15.3924 56.7755 15.5728C56.7755 15.9716 56.9559 16.2752 57.3171 16.4835C57.6874 16.702 58.1853 16.8113 58.8119 16.8113C59.2387 16.8113 59.6187 16.7542 59.9508 16.6407C60.2927 16.5266 60.558 16.3554 60.748 16.1283C60.9477 15.9 61.0473 15.6201 61.0473 15.288C61.0473 15.0033 60.9429 14.761 60.734 14.5619C60.5252 14.3719 60.1075 14.2771 59.4809 14.2771H58.5981C58.2096 14.2771 57.8672 14.2346 57.5733 14.149C57.288 14.064 57.0651 13.9305 56.9036 13.7502C56.7428 13.5607 56.662 13.3233 56.662 13.0386C56.662 12.6397 56.8186 12.2888 57.1319 11.9846C57.3772 11.7466 57.716 11.5202 58.1483 11.3058C57.8641 11.2705 57.5849 11.2023 57.3165 11.1025C56.8897 10.941 56.5527 10.6939 56.3062 10.3618C56.0591 10.0297 55.9359 9.60284 55.9359 9.08071C55.9359 8.55858 56.0591 8.13116 56.3062 7.79906C56.5527 7.45724 56.8897 7.21014 57.3171 7.05836C57.7439 6.89747 58.2278 6.81672 58.7688 6.81672C59.3103 6.81672 59.7942 6.89747 60.221 7.05896C60.5027 7.15853 60.7444 7.3 60.9477 7.48213C61.0686 7.30789 61.2155 7.15246 61.3885 7.01586C61.7115 6.76936 62.0582 6.64551 62.4279 6.64551C62.7315 6.64551 62.9598 6.73111 63.1116 6.90232C63.2731 7.06321 63.3538 7.27692 63.3538 7.54285C63.3538 7.82759 63.2773 8.0407 63.1255 8.18337C62.9737 8.31694 62.8031 8.38312 62.6131 8.38312C62.446 8.3809 62.2849 8.32034 62.1578 8.21191C62.0242 8.09777 61.9489 7.92716 61.9301 7.69949C61.9137 7.49549 61.9708 7.24292 62.1013 6.94057C61.8244 7.05836 61.6107 7.19253 61.4602 7.34371C61.3466 7.45315 61.2475 7.57658 61.1651 7.71102C61.1882 7.73956 61.2106 7.76931 61.2319 7.79906C61.479 8.13116 61.6022 8.55797 61.6022 9.0801C61.6022 9.60224 61.479 10.0297 61.2319 10.3618C60.9854 10.6939 60.6484 10.941 60.221 11.1025C59.7942 11.2633 59.3103 11.3441 58.7688 11.3441C58.6878 11.3442 58.6068 11.3424 58.5259 11.3386C58.3978 11.4255 58.2745 11.5177 58.1568 11.6149C58.0836 11.6721 58.0249 11.7457 57.9854 11.8297C57.9458 11.9138 57.9265 12.0059 57.9291 12.0988C57.9291 12.4023 58.1191 12.5541 58.4986 12.5541H60.0504C60.5725 12.5541 61.0376 12.616 61.4456 12.7393C61.8633 12.8631 62.1905 13.0671 62.4279 13.3519C62.675 13.6269 62.7983 13.9875 62.7983 14.4338C62.7983 14.8988 62.6465 15.3305 62.3429 15.7294C62.0485 16.1283 61.5931 16.4458 60.9757 16.6832C60.3588 16.9303 59.5756 17.0536 58.6267 17.0536ZM58.7688 11.0879C59.0256 11.0879 59.2241 10.9458 59.3668 10.6611C59.5094 10.3666 59.5805 9.83963 59.5805 9.08071C59.5805 8.32119 59.5094 7.79906 59.3668 7.51431C59.2247 7.21985 59.0256 7.07293 58.7694 7.07293C58.5223 7.07293 58.3231 7.21985 58.1713 7.51431C58.0287 7.79906 57.9576 8.32119 57.9576 9.08071C57.9576 9.83963 58.0287 10.3666 58.1713 10.6611C58.3231 10.9458 58.5223 11.0879 58.7688 11.0879ZM53.7368 7.20103C53.2147 6.94482 52.6076 6.81672 51.9148 6.81672C51.2409 6.81672 50.638 6.94482 50.1068 7.20103C49.5847 7.45724 49.1718 7.87009 48.8683 8.43958C48.5738 9.00907 48.4263 9.76373 48.4263 10.7036C48.4263 11.6434 48.5738 12.3975 48.8677 12.9676C49.1712 13.5273 49.5841 13.9353 50.1062 14.1915C50.638 14.4478 51.2409 14.5765 51.9148 14.5765C52.6076 14.5765 53.2153 14.4478 53.7368 14.1915C54.259 13.9353 54.667 13.5273 54.9614 12.9676C55.2559 12.3981 55.4028 11.6434 55.4028 10.7036C55.4028 9.76373 55.2559 9.00968 54.9614 8.43958C54.6676 7.87009 54.259 7.45724 53.7368 7.20103ZM50.9604 7.9557C51.2173 7.38621 51.5348 7.10146 51.9148 7.10146C52.3034 7.10146 52.6215 7.38621 52.868 7.9557C53.1249 8.51547 53.253 9.43163 53.253 10.7036C53.253 11.9755 53.1249 12.8917 52.8686 13.4514C52.6215 14.0112 52.304 14.2917 51.9148 14.2917C51.5348 14.2917 51.2166 14.0112 50.9604 13.4514C50.7042 12.8917 50.5761 11.9755 50.5761 10.7036C50.5761 9.43163 50.7042 8.51547 50.9604 7.9557Z" fill="white"/>
<path d="M44.5917 4.29639V4.58174C44.2693 4.59085 44.0222 4.62849 43.8516 4.69527C43.7735 4.72171 43.7029 4.76658 43.6459 4.82608C43.5888 4.88558 43.5469 4.95796 43.5237 5.03709C43.4673 5.19798 43.4388 5.45479 43.4388 5.80571V13.0385C43.4388 13.3323 43.4576 13.5509 43.4958 13.6936C43.5432 13.8356 43.6288 13.9303 43.752 13.9783C43.885 14.0257 44.0799 14.0493 44.3355 14.0493H45.0337C45.3555 14.0493 45.6596 13.9735 45.9444 13.8217C46.2297 13.6699 46.4853 13.4562 46.713 13.1805C46.9531 12.8744 47.1454 12.5336 47.2831 12.1697C47.4349 11.7811 47.5484 11.3488 47.6243 10.874H47.9522C47.9236 11.197 47.9097 11.6147 47.9097 12.1272C47.9097 12.3457 47.9139 12.6633 47.9236 13.081C47.9333 13.4987 47.9613 13.931 48.0086 14.3766C47.4633 14.3565 46.9175 14.347 46.3718 14.3481C45.7647 14.3389 45.2231 14.3341 44.7483 14.3341H43.8376C43.4673 14.3341 43.0684 14.3389 42.6416 14.3481C42.2142 14.3481 41.7825 14.3529 41.346 14.3626C40.9088 14.3626 40.496 14.3675 40.1074 14.3766V14.0918C40.411 14.073 40.6387 14.0348 40.7904 13.9783C40.9422 13.9212 41.0418 13.8071 41.0898 13.6365C41.1462 13.4653 41.1748 13.2091 41.1748 12.8673V5.80571C41.1748 5.45419 41.1462 5.19858 41.0898 5.03709C41.0711 4.95811 41.0325 4.88523 40.9776 4.8254C40.9228 4.76556 40.8535 4.72077 40.7765 4.69527C40.6247 4.62849 40.4013 4.59085 40.1074 4.58113V4.29639C40.8569 4.32416 41.6068 4.33833 42.3568 4.33889C42.7745 4.33889 43.1825 4.33464 43.5808 4.32492C43.9894 4.31521 44.3264 4.3061 44.5917 4.29639Z" fill="white"/>
<path fill-rule="evenodd" clip-rule="evenodd" d="M108.15 26.1429C108.13 26.0409 108.144 25.908 108.192 25.7441L110.197 18.4785C109.876 18.6102 109.544 18.7128 109.204 18.7851C108.856 18.8537 108.458 18.8908 108.007 18.898L107.935 19.113C108.27 19.113 108.478 19.1676 108.56 19.2769C108.642 19.3862 108.652 19.5562 108.591 19.7881L108.116 21.5785C108.086 21.4922 108.035 21.4148 107.966 21.3539C107.85 21.2446 107.69 21.19 107.486 21.19C107.076 21.19 106.698 21.2822 106.35 21.4662C106 21.6574 105.685 21.9066 105.418 22.2033C105.138 22.5039 104.901 22.8413 104.712 23.2062C104.526 23.5614 104.379 23.9352 104.272 24.3215C104.175 24.6543 104.123 24.9986 104.118 25.3452C104.118 25.6724 104.17 25.942 104.272 26.1533C104.375 26.3579 104.514 26.5115 104.692 26.6135C104.869 26.7094 105.067 26.7567 105.285 26.7567C105.619 26.7567 105.92 26.6584 106.186 26.4605C106.452 26.2559 106.701 25.942 106.933 25.5188C107.03 25.3464 107.128 25.1527 107.225 24.9378L107.158 25.1916C107.096 25.3915 107.055 25.5971 107.035 25.8054C107.022 25.9827 107.035 26.1332 107.076 26.2559C107.158 26.5898 107.41 26.7574 107.833 26.7574C107.99 26.7574 108.15 26.7264 108.314 26.6651C108.478 26.6038 108.631 26.4981 108.775 26.3475C108.925 26.1976 109.044 25.9833 109.133 25.7028L109.379 24.956H109.184L109.02 25.4162C108.898 25.7647 108.782 25.9997 108.673 26.1223C108.57 26.2389 108.464 26.2965 108.355 26.2965C108.239 26.2965 108.171 26.2455 108.15 26.1429ZM107.605 23.508C107.527 23.7575 107.444 23.9949 107.353 24.2189C107.182 24.6561 107.001 25.0313 106.81 25.3452C106.626 25.6518 106.445 25.8904 106.268 26.0616C106.09 26.2249 105.933 26.3069 105.797 26.3069C105.667 26.3069 105.572 26.2455 105.511 26.1229C105.456 25.993 105.429 25.7987 105.429 25.5395C105.429 25.1709 105.469 24.7957 105.551 24.4138C105.633 24.0253 105.746 23.6531 105.889 23.2985C106.021 22.9658 106.185 22.6469 106.38 22.3465C106.565 22.06 106.759 21.8347 106.963 21.6708C107.175 21.5069 107.383 21.4255 107.588 21.4255C107.724 21.4255 107.833 21.4735 107.915 21.5688C107.972 21.6307 108.016 21.7206 108.047 21.8396L107.605 23.508Z" fill="white"/>
<path d="M101.341 26.613H100.083L101.31 22.2028C101.372 21.9982 101.392 21.8549 101.372 21.7729C101.351 21.691 101.29 21.6503 101.187 21.6503C101.058 21.6503 100.939 21.7152 100.829 21.8446C100.72 21.9739 100.608 22.2028 100.492 22.5306L100.317 23.0109H100.123L100.389 22.2434C100.485 21.9702 100.604 21.7596 100.747 21.609C100.891 21.4524 101.048 21.3431 101.218 21.2818C101.389 21.2204 101.563 21.1895 101.74 21.1895C101.959 21.1895 102.119 21.2338 102.221 21.323C102.33 21.4117 102.399 21.5276 102.426 21.6709C102.461 21.8253 102.467 21.9847 102.446 22.1415C102.433 22.3054 102.405 22.4657 102.364 22.6223L102.2 23.264L102.241 23.1548C102.433 22.6703 102.617 22.2847 102.794 21.9982C102.979 21.7049 103.173 21.4967 103.377 21.374C103.578 21.2522 103.808 21.1883 104.043 21.1895C104.288 21.1895 104.476 21.2611 104.606 21.4044C104.742 21.5477 104.81 21.725 104.81 21.9368C104.81 22.1068 104.769 22.2677 104.688 22.4177C104.608 22.5584 104.496 22.6778 104.36 22.7656C104.23 22.8475 104.08 22.8882 103.91 22.8882C103.739 22.8882 103.603 22.8439 103.5 22.7553C103.405 22.6666 103.357 22.5367 103.357 22.3667C103.357 22.2161 103.391 22.0801 103.459 21.9569C103.525 21.8369 103.616 21.7323 103.725 21.6503C103.835 21.5616 103.954 21.5003 104.084 21.4657C104.069 21.4516 104.052 21.4412 104.033 21.4354C104.009 21.4281 103.985 21.4246 103.961 21.425C103.811 21.425 103.657 21.4797 103.5 21.589C103.343 21.691 103.179 21.8585 103.009 22.0905C102.838 22.3224 102.665 22.629 102.487 23.0109C102.287 23.4624 102.11 23.9236 101.955 24.3927C101.878 24.6198 101.8 24.8638 101.722 25.1255L101.341 26.613Z" fill="white"/>
<path fill-rule="evenodd" clip-rule="evenodd" d="M97.5173 25.0325L97.4742 25.1916C97.4095 25.4226 97.365 25.6589 97.3412 25.8977C97.3206 26.1162 97.3546 26.3002 97.4432 26.4501C97.5798 26.6547 97.8117 26.7574 98.139 26.7574C98.2962 26.7574 98.4529 26.7264 98.6101 26.6651C98.7734 26.6038 98.927 26.4981 99.0703 26.3475C99.2136 26.1909 99.3332 25.9723 99.4285 25.6931L99.6847 24.9463H99.4898L99.3362 25.4065C99.2136 25.7611 99.0946 25.9966 98.9786 26.1126C98.8627 26.2279 98.7497 26.2862 98.6405 26.2862C98.5518 26.2862 98.4941 26.2589 98.4668 26.2043C98.4454 26.1348 98.4384 26.0616 98.4462 25.9893C98.4595 25.9026 98.48 25.8171 98.5075 25.7337L99.828 21.19C99.6225 21.2391 99.4137 21.2734 99.2033 21.2926C98.992 21.3132 98.7637 21.3266 98.5178 21.3332L98.3697 21.8809C98.3635 21.7418 98.323 21.6065 98.2519 21.4869C98.1986 21.3936 98.1208 21.3166 98.027 21.2643C97.9331 21.212 97.8268 21.1863 97.7194 21.19C97.4195 21.19 97.1196 21.2822 96.8191 21.4662C96.4998 21.6669 96.2134 21.9155 95.9697 22.2033C95.6942 22.5171 95.454 22.8601 95.2533 23.2263C95.052 23.5935 94.8908 23.9812 94.7724 24.3829C94.6608 24.7442 94.6023 25.1199 94.5988 25.4982C94.5988 25.8807 94.6874 26.1873 94.8647 26.4192C95.042 26.6444 95.3146 26.7567 95.6831 26.7567C95.9424 26.7567 96.1913 26.6821 96.4305 26.5321C96.6758 26.3815 96.9077 26.1326 97.1263 25.7853C97.2617 25.5759 97.3916 25.3251 97.5173 25.0325ZM96.6351 26.0713C96.4779 26.2146 96.3382 26.2862 96.2156 26.2862C96.113 26.2862 96.0346 26.2352 95.98 26.1326C95.932 26.0233 95.9084 25.843 95.9084 25.5904C95.9084 25.2286 95.949 24.857 96.031 24.4751C96.113 24.0927 96.2223 23.7247 96.3589 23.3702C96.5021 23.015 96.6588 22.6981 96.8294 22.4182C97 22.1389 97.1706 21.9167 97.3412 21.7528C97.5185 21.5888 97.6854 21.5075 97.8427 21.5075C98.006 21.5075 98.122 21.5895 98.1906 21.7528C98.2586 21.9009 98.2762 22.0994 98.2434 22.3478L97.941 23.4661L97.9756 23.2882C97.8664 23.7247 97.7364 24.1273 97.5865 24.4958C97.4559 24.8253 97.2985 25.1434 97.1159 25.4472C96.952 25.7131 96.7917 25.9213 96.6351 26.0713ZM93.223 25.7441C93.1751 25.908 93.1617 26.0409 93.1823 26.1429C93.2024 26.2455 93.271 26.2965 93.387 26.2965C93.4962 26.2965 93.6019 26.2389 93.7039 26.1229C93.8132 25.9997 93.9291 25.7647 94.0518 25.4162L94.2157 24.956H94.41L94.1647 25.7028C94.076 25.9827 93.9564 26.1976 93.8065 26.3475C93.679 26.487 93.5214 26.5956 93.3457 26.6651C93.1923 26.7246 93.0294 26.7559 92.8648 26.7574C92.4423 26.7574 92.1897 26.5898 92.1077 26.2559C92.0645 26.1099 92.0507 25.9568 92.067 25.8054C92.0804 25.6281 92.1211 25.4229 92.1897 25.1916L92.2571 24.9378C92.1593 25.1527 92.0616 25.3464 91.9644 25.5188C91.7325 25.942 91.4836 26.2559 91.2177 26.4599C90.9584 26.6557 90.6416 26.7603 90.3167 26.7574C90.0987 26.7574 89.9008 26.7088 89.7235 26.6141C89.5407 26.5059 89.3945 26.3454 89.304 26.1533C89.2014 25.942 89.1504 25.6724 89.1504 25.3452C89.1504 25.0313 89.2014 24.6895 89.304 24.3215C89.406 23.9463 89.5529 23.5748 89.7436 23.2062C89.9323 22.8414 90.1699 22.504 90.4497 22.2033C90.7295 21.8961 91.0398 21.6508 91.381 21.4662C91.7309 21.2815 92.1213 21.1866 92.5169 21.19C92.7215 21.19 92.8818 21.2446 92.9978 21.3539C93.0646 21.4128 93.115 21.4875 93.1477 21.5785L93.6219 19.7881C93.6838 19.5562 93.6735 19.3856 93.5916 19.2763C93.5096 19.167 93.3013 19.1124 92.9674 19.1124L93.0391 18.898C93.4407 18.8957 93.8413 18.858 94.2363 18.7851C94.5757 18.7128 94.9079 18.6102 95.229 18.4785L93.223 25.7441ZM92.384 24.2189C92.475 23.9943 92.5594 23.7575 92.6359 23.508L93.0785 21.8396C93.0572 21.74 93.012 21.6471 92.9468 21.5688C92.9066 21.5218 92.8563 21.4845 92.7996 21.4596C92.7429 21.4348 92.6814 21.4232 92.6195 21.4255C92.4149 21.4255 92.2067 21.5075 91.9954 21.6708C91.7902 21.8347 91.5959 22.06 91.4119 22.3465C91.217 22.6466 91.0525 22.9653 90.9208 23.2979C90.7754 23.6591 90.6624 24.0326 90.5832 24.4138C90.5025 24.7836 90.4612 25.1609 90.46 25.5394C90.46 25.7987 90.4873 25.993 90.5419 26.1223C90.6033 26.2455 90.6992 26.3069 90.8285 26.3069C90.9651 26.3069 91.1217 26.2249 91.299 26.061C91.4769 25.891 91.6572 25.6518 91.8418 25.3446C92.0544 24.9856 92.2358 24.609 92.384 24.2189Z" fill="white"/>
<path d="M83.5151 26.613H84.7737L84.8921 26.1503L84.886 26.1837C85.016 25.7059 85.1623 25.2457 85.3262 24.8019C85.4854 24.3783 85.6629 23.9619 85.8581 23.5536C86.0426 23.1711 86.2266 22.8372 86.4111 22.5506C86.5951 22.2641 86.7724 22.0425 86.943 21.8852C87.1136 21.7213 87.2702 21.6399 87.4135 21.6399C87.5295 21.6399 87.6011 21.6806 87.6284 21.7626C87.6568 21.8556 87.6603 21.9544 87.6388 22.0492C87.6183 22.16 87.591 22.2695 87.5568 22.377L86.6261 25.1911C86.5301 25.4776 86.4755 25.7229 86.4621 25.9275C86.4482 26.1321 86.4858 26.2997 86.5745 26.429C86.6431 26.5316 86.7384 26.6099 86.861 26.6646C86.991 26.7253 87.1446 26.7568 87.3218 26.7568C87.4852 26.7568 87.6491 26.7259 87.813 26.6646C87.9836 26.6099 88.1403 26.5073 88.2835 26.3574C88.4335 26.2074 88.5568 25.9888 88.6521 25.7023L88.9077 24.9555H88.7134L88.5495 25.4157C88.4201 25.7709 88.2975 26.0058 88.1815 26.1218C88.0723 26.2384 87.9666 26.296 87.864 26.296C87.7547 26.296 87.6867 26.2517 87.6594 26.1625C87.6321 26.0678 87.6491 25.9275 87.7104 25.7435L88.7134 22.7346C88.802 22.4687 88.8463 22.2198 88.8463 21.9878C88.853 21.7492 88.7887 21.558 88.6521 21.4147C88.5221 21.2647 88.2902 21.1901 87.9563 21.1901C87.7037 21.1901 87.4615 21.2447 87.2296 21.3534C86.9976 21.4627 86.7724 21.6533 86.5544 21.9265C86.3359 22.1924 86.1106 22.5543 85.8787 23.0108C85.7248 23.3188 85.5836 23.633 85.4555 23.9525L85.7967 22.6223C85.838 22.4584 85.8684 22.2944 85.889 22.1311C85.9097 21.9611 85.9024 21.8069 85.8684 21.6703C85.8358 21.5293 85.7521 21.4053 85.6334 21.3224C85.5175 21.2338 85.3468 21.1895 85.1216 21.1895C84.8484 21.1895 84.5995 21.2647 84.3742 21.4147C84.1496 21.5647 83.965 21.8409 83.8217 22.2434L83.5558 23.0108H83.7501L83.9243 22.53C84.047 22.1961 84.1593 21.9672 84.2619 21.8445C84.3712 21.7152 84.4902 21.6503 84.6201 21.6503C84.7154 21.6503 84.7737 21.6776 84.7944 21.7322C84.8211 21.7869 84.8284 21.8549 84.8144 21.9368C84.7991 22.0266 84.7786 22.1154 84.7531 22.2028L83.5151 26.613Z" fill="white"/>
<path fill-rule="evenodd" clip-rule="evenodd" d="M80.9067 25.1911L80.9498 25.032C80.8405 25.2933 80.7097 25.5451 80.5589 25.7848C80.3403 26.1321 80.1084 26.3816 79.8625 26.5316C79.6239 26.6816 79.3749 26.7562 79.1157 26.7562C78.7472 26.7562 78.4746 26.6439 78.2973 26.4187C78.1194 26.1867 78.0308 25.8801 78.0308 25.4977C78.0308 25.1431 78.089 24.7715 78.205 24.3824C78.3234 23.9807 78.4846 23.593 78.6859 23.2258C78.8864 22.8595 79.1266 22.5164 79.4023 22.2028C79.646 21.915 79.9324 21.6664 80.2516 21.4657C80.5516 21.2817 80.8521 21.1895 81.152 21.1895C81.3839 21.1895 81.5612 21.2884 81.6845 21.4869C81.75 21.5883 81.7895 21.7195 81.8023 21.8804L81.9504 21.3327C82.1957 21.3261 82.4246 21.3127 82.6359 21.2921C82.8544 21.2714 83.0621 21.2374 83.26 21.1895L81.9401 25.7338C81.9123 25.8171 81.8918 25.9026 81.8788 25.9894C81.871 26.0617 81.878 26.1349 81.8994 26.2044C81.9267 26.259 81.9844 26.2863 82.073 26.2863C82.1823 26.2863 82.2946 26.2286 82.4106 26.1127C82.5266 25.9967 82.6462 25.7605 82.7688 25.4066L82.9224 24.9458H83.1167L82.8611 25.6925C82.7658 25.9724 82.6462 26.1904 82.5029 26.3482C82.3754 26.4873 82.2181 26.5957 82.0427 26.6652C81.8928 26.7252 81.733 26.7565 81.5716 26.7575C81.2443 26.7575 81.0124 26.6548 80.8758 26.4502C80.7871 26.3003 80.7531 26.1163 80.7738 25.8978C80.7976 25.659 80.8421 25.4221 80.9067 25.1911ZM79.6476 26.2857C79.7708 26.2857 79.9104 26.2141 80.0677 26.0708C80.2243 25.9208 80.3846 25.7126 80.5485 25.4467C80.7119 25.1807 80.8691 24.8638 81.0191 24.4953C81.169 24.1268 81.2989 23.7242 81.4082 23.2871L81.3736 23.4656L81.676 22.3479C81.7082 22.0989 81.6905 21.9004 81.6232 21.7529C81.5546 21.5889 81.4386 21.507 81.2747 21.507C81.118 21.507 80.9511 21.5889 80.7738 21.7523C80.6032 21.9162 80.4326 22.1378 80.262 22.4177C80.0914 22.697 79.9341 23.0145 79.7908 23.3691C79.6534 23.7284 79.544 24.0978 79.4636 24.474C79.3834 24.8406 79.3423 25.2147 79.3409 25.5899C79.3409 25.8425 79.3646 26.0234 79.4126 26.1321C79.4672 26.2347 79.5456 26.2857 79.6476 26.2857Z" fill="white"/>
<path d="M78.7404 21.5372L78.7714 21.3326H77.5523L78.0343 19.6545C77.8326 19.7041 77.6274 19.7384 77.4205 19.7571C77.2092 19.7771 76.9804 19.7911 76.7351 19.7977L76.2949 21.3326H75.3636L75.3126 21.5372H76.2366L75.1893 25.1909C75.1007 25.4908 75.0703 25.7604 75.0976 25.999C75.1316 26.2309 75.227 26.4155 75.3842 26.5515C75.5475 26.6881 75.7831 26.7567 76.0903 26.7567C76.4382 26.7567 76.7381 26.6644 76.9907 26.4798C77.2432 26.2959 77.4412 25.9923 77.5845 25.5691L77.7891 24.9553H77.5942L77.4412 25.3748C77.3179 25.7161 77.1819 25.9547 77.0314 26.0913C76.8881 26.2279 76.7448 26.2959 76.6015 26.2959C76.5452 26.2977 76.4892 26.2867 76.4378 26.2635C76.3865 26.2404 76.3411 26.2057 76.3052 26.1623C76.2366 26.0743 76.2299 25.9346 76.2846 25.7434L77.4934 21.5372H78.7404ZM75.3514 19.2963C75.2834 19.4735 75.1911 19.7334 75.0752 20.074C74.9659 20.4079 74.8572 20.845 74.7479 21.3836H74.5433C74.5634 21.2882 74.5773 21.1893 74.584 21.0873C74.5971 20.9958 74.604 20.9035 74.6047 20.811C74.6047 20.5445 74.55 20.3132 74.4407 20.1153C74.3358 19.9077 74.1673 19.739 73.9599 19.6338C73.7486 19.5112 73.4754 19.4499 73.1415 19.4499C72.7796 19.4499 72.4724 19.5452 72.2205 19.7364C71.9679 19.9204 71.8416 20.2173 71.8416 20.6265C71.8416 20.879 71.8993 21.1183 72.0152 21.3429C72.1385 21.5615 72.2921 21.7764 72.4761 21.9877C72.6673 22.1923 72.8683 22.4005 73.0795 22.6118C73.2914 22.8164 73.4894 23.0283 73.6733 23.2462C73.8573 23.4648 74.0078 23.6967 74.1238 23.942C74.2464 24.1812 74.3078 24.4435 74.3078 24.7301C74.3078 25.0919 74.2191 25.4022 74.0418 25.6614C73.8689 25.9161 73.6416 26.1292 73.3764 26.2855C73.0984 26.4445 72.7985 26.5617 72.4864 26.6334C72.1859 26.7137 71.8764 26.7551 71.5654 26.7567C71.2581 26.7567 71.0025 26.7324 70.7979 26.685C70.6231 26.6521 70.4541 26.5934 70.2965 26.5108C70.1625 26.4373 70.0293 26.3625 69.897 26.2862C69.8367 26.2356 69.7672 26.1972 69.6924 26.1732C69.6447 26.1493 69.5926 26.1352 69.5394 26.1319C69.4501 26.1319 69.3754 26.1763 69.3141 26.2655C69.2336 26.3988 69.1651 26.539 69.1095 26.6844H68.9043C69.0733 26.2683 69.2137 25.8411 69.3244 25.4058C69.4058 25.0919 69.4981 24.6997 69.6007 24.2286H69.8053C69.7767 24.3641 69.7528 24.5006 69.7336 24.6378C69.713 24.7744 69.7063 24.911 69.713 25.0476C69.7336 25.5248 69.88 25.8933 70.1532 26.1526C70.4331 26.4118 70.8423 26.5411 71.3808 26.5411C71.838 26.5411 72.1828 26.4458 72.4147 26.2552C72.6467 26.0573 72.7626 25.7707 72.7626 25.3955C72.7626 25.1089 72.708 24.8491 72.5987 24.6178C72.4955 24.3771 72.3577 24.153 72.1895 23.9523C72.0161 23.7447 71.8352 23.5435 71.6473 23.3489C71.459 23.1542 71.278 22.9527 71.1045 22.7448C70.937 22.5381 70.7961 22.3113 70.685 22.0696C70.5733 21.8112 70.5176 21.5321 70.5217 21.2506C70.5217 20.91 70.5933 20.6131 70.7366 20.3606C70.881 20.1142 71.0761 19.9014 71.3091 19.7364C71.5481 19.5658 71.8147 19.4377 72.0972 19.3576C72.372 19.2708 72.6584 19.226 72.9466 19.2246C73.3151 19.2246 73.6187 19.2689 73.8573 19.3582C74.0965 19.4462 74.3011 19.5525 74.4717 19.6751L74.666 19.7977C74.7273 19.8251 74.7753 19.8384 74.8093 19.8384C74.9046 19.8384 75.0175 19.6581 75.1468 19.2963H75.3514Z" fill="white"/>
<path fill-rule="evenodd" clip-rule="evenodd" d="M65.4734 26.1429C65.4527 26.0409 65.4667 25.908 65.5147 25.7441L67.52 18.4785C67.199 18.6102 66.8667 18.7128 66.5273 18.7851C66.1795 18.8537 65.7806 18.8908 65.3301 18.898L65.2584 19.113C65.5924 19.113 65.8012 19.1676 65.8826 19.2769C65.9645 19.3862 65.9749 19.5562 65.9135 19.7881L65.4388 21.5785C65.4089 21.4921 65.3575 21.4148 65.2894 21.3539C65.1734 21.2446 65.0132 21.19 64.8086 21.19C64.3987 21.19 64.0205 21.2822 63.6726 21.4662C63.3227 21.6574 63.0078 21.9066 62.7413 22.2033C62.4613 22.5039 62.2237 22.8413 62.0352 23.2062C61.8493 23.5614 61.7018 23.9352 61.595 24.3215C61.4979 24.6543 61.4462 24.9986 61.4414 25.3452C61.4414 25.6724 61.493 25.942 61.595 26.1533C61.6976 26.3579 61.8373 26.5115 62.0145 26.6135C62.1918 26.7094 62.3897 26.7567 62.6083 26.7567C62.9422 26.7567 63.2428 26.6584 63.5087 26.4605C63.7746 26.2559 64.0235 25.942 64.2555 25.5188C64.3526 25.3464 64.4504 25.1527 64.5481 24.9378L64.4813 25.1916C64.4192 25.3914 64.3779 25.5971 64.3581 25.8054C64.3418 25.9568 64.3556 26.1099 64.3987 26.2559C64.4807 26.5898 64.7327 26.7574 65.1564 26.7574C65.3131 26.7574 65.4734 26.7264 65.6373 26.6651C65.8012 26.6038 65.9542 26.4981 66.0975 26.3475C66.2481 26.1976 66.3671 25.9833 66.4557 25.7028L66.7016 24.956H66.5073L66.3434 25.4162C66.2207 25.7647 66.1048 25.9997 65.9955 26.1223C65.8929 26.2389 65.7873 26.2965 65.678 26.2965C65.5626 26.2965 65.494 26.2455 65.4734 26.1429ZM64.9269 23.508C64.8505 23.7575 64.7667 23.9949 64.675 24.2189C64.505 24.6561 64.3241 25.0313 64.1328 25.3452C63.9489 25.6518 63.7679 25.8904 63.5907 26.0616C63.4134 26.2249 63.2567 26.3069 63.1195 26.3069C62.9902 26.3069 62.8949 26.2455 62.8336 26.1229C62.7789 25.993 62.7516 25.7987 62.7516 25.5395C62.7516 25.1709 62.7923 24.7957 62.8742 24.4138C62.9562 24.0253 63.0685 23.6531 63.2118 23.2985C63.3438 22.9657 63.5086 22.6468 63.7036 22.3465C63.8875 22.06 64.0818 21.8347 64.2864 21.6708C64.4977 21.5069 64.706 21.4255 64.9106 21.4255C65.0472 21.4255 65.1564 21.4735 65.2384 21.5688C65.2955 21.6307 65.3392 21.7206 65.3695 21.8396L64.9269 23.508Z" fill="white"/>
<path d="M57.0647 26.613H55.8062L57.0447 22.2028C57.072 22.1074 57.0921 22.0188 57.1054 21.9368C57.1206 21.8682 57.1136 21.7966 57.0854 21.7322C57.0647 21.6776 57.0065 21.6503 56.9111 21.6503C56.7818 21.6503 56.6622 21.7152 56.5529 21.8445C56.4509 21.9672 56.338 22.1961 56.2154 22.5306L56.0417 23.0108H55.8474L56.1134 22.2434C56.2566 21.8409 56.4412 21.5647 56.6659 21.4147C56.8905 21.2647 57.1394 21.1901 57.4126 21.1901C57.6379 21.1901 57.8085 21.2338 57.9244 21.3224C58.0433 21.4052 58.1273 21.5292 58.16 21.6703C58.194 21.8069 58.2007 21.9605 58.1806 22.1311C58.1598 22.2965 58.129 22.4606 58.0884 22.6223L57.7471 23.9531C57.8916 23.5955 58.0325 23.2822 58.1703 23.0108C58.4022 22.5543 58.6269 22.1924 58.8455 21.9265C59.064 21.6533 59.2887 21.4627 59.5206 21.3534C59.7531 21.2441 59.9948 21.1895 60.2473 21.1895C60.5812 21.1895 60.8138 21.2647 60.9431 21.4147C61.0797 21.558 61.1447 21.7486 61.1374 21.9878C61.1374 22.2198 61.0937 22.4687 61.0044 22.7346L60.002 25.7435C59.9401 25.9275 59.9231 26.0678 59.9504 26.1625C59.9778 26.2517 60.0464 26.296 60.1556 26.296C60.2576 26.296 60.3633 26.2384 60.4726 26.1224C60.5885 26.0058 60.7112 25.7703 60.8411 25.4157L61.005 24.9555H61.1993L60.9431 25.7023C60.8478 25.9888 60.7245 26.2074 60.5752 26.358C60.4466 26.4984 60.2845 26.6038 60.104 26.6646C59.9472 26.7247 59.7808 26.756 59.6129 26.7568C59.4356 26.7568 59.282 26.7259 59.1527 26.6646C59.0294 26.6099 58.9341 26.531 58.8661 26.429C58.7775 26.2997 58.7398 26.1321 58.7532 25.9275C58.7671 25.7229 58.8218 25.4776 58.9171 25.1911L59.8484 22.377C59.8824 22.2677 59.9098 22.1584 59.9304 22.0492C59.9519 21.9544 59.9483 21.8556 59.9201 21.7626C59.8928 21.6806 59.8211 21.6399 59.7052 21.6399C59.5619 21.6399 59.4046 21.7219 59.2346 21.8852C59.064 22.0425 58.8861 22.2641 58.7022 22.5506C58.498 22.8735 58.3135 23.2085 58.1497 23.5536C57.9657 23.9361 57.7878 24.3514 57.6172 24.8019C57.4533 25.2451 57.3076 25.7059 57.1777 26.1837L57.1837 26.1503L57.0647 26.613Z" fill="white"/>
<path fill-rule="evenodd" clip-rule="evenodd" d="M53.241 25.0318L53.1985 25.1909C53.134 25.422 53.0893 25.6583 53.0649 25.897C53.0443 26.1156 53.0783 26.2995 53.1669 26.4495C53.3035 26.6541 53.5354 26.7567 53.8633 26.7567C54.0383 26.7554 54.2111 26.7184 54.3713 26.648C54.5314 26.5775 54.6755 26.475 54.7946 26.3469C54.9379 26.1902 55.0569 25.9717 55.1528 25.6924L55.4078 24.9456H55.2136L55.0606 25.4058C54.9373 25.7604 54.8177 25.9959 54.7024 26.1119C54.5864 26.2273 54.4735 26.2855 54.3648 26.2855C54.2755 26.2855 54.2179 26.2582 54.1905 26.2036C54.1692 26.1341 54.1622 26.061 54.1699 25.9887C54.1839 25.9 54.2039 25.815 54.2318 25.7331L55.5517 21.1893C55.3464 21.2384 55.1378 21.2727 54.9276 21.2919C54.7157 21.3125 54.4874 21.3259 54.2415 21.3326L54.0934 21.8802C54.0871 21.7412 54.0466 21.6059 53.9756 21.4862C53.9223 21.393 53.8447 21.3161 53.751 21.2638C53.6572 21.2115 53.551 21.1857 53.4438 21.1893C53.1432 21.1893 52.8427 21.2816 52.5428 21.4655C52.2429 21.6501 51.9599 21.8954 51.6934 22.2026C51.4178 22.5163 51.1775 22.8593 50.977 23.2256C50.7757 23.5928 50.6145 23.9806 50.4961 24.3822C50.3845 24.7436 50.326 25.1193 50.3225 25.4975C50.3225 25.88 50.4111 26.1866 50.5884 26.4185C50.7657 26.6438 51.0389 26.7561 51.4068 26.7561C51.6661 26.7561 51.9156 26.6814 52.1536 26.5314C52.3995 26.3809 52.632 26.1319 52.85 25.7847C52.9854 25.5752 53.1153 25.3245 53.241 25.0318ZM52.3588 26.0706C52.2022 26.2139 52.0619 26.2855 51.9393 26.2855C51.8367 26.2855 51.7584 26.2345 51.7037 26.1319C51.6564 26.0227 51.6321 25.8423 51.6321 25.5898C51.6321 25.2279 51.6734 24.8564 51.7553 24.4745C51.8367 24.092 51.946 23.7241 52.0826 23.3695C52.2259 23.0143 52.3825 22.6974 52.5531 22.4175C52.7237 22.1382 52.8943 21.916 53.0649 21.7521C53.2422 21.5882 53.4092 21.5068 53.5664 21.5068C53.7303 21.5068 53.8457 21.5888 53.9143 21.7521C53.9823 21.9002 53.9993 22.0988 53.9671 22.3471L53.6648 23.4654L53.6994 23.2875C53.5901 23.7241 53.4608 24.1266 53.3108 24.4951C53.1602 24.863 53.0036 25.1806 52.8397 25.4465C52.6757 25.7124 52.5155 25.9207 52.3588 26.0706Z" fill="white"/>
<path d="M47.5855 26.613H46.3269L47.5545 22.2028C47.6158 21.9982 47.6365 21.8549 47.6158 21.7729C47.5958 21.691 47.5345 21.6503 47.4319 21.6503C47.3026 21.6503 47.183 21.7152 47.0737 21.8446C46.9644 21.9739 46.8521 22.2028 46.7361 22.5306L46.5619 23.0109H46.3676L46.6335 22.2434C46.7294 21.9702 46.8484 21.7596 46.9917 21.609C47.135 21.4524 47.2922 21.3431 47.4628 21.2818C47.6328 21.2204 47.8071 21.1895 47.985 21.1895C48.2029 21.1895 48.3632 21.2338 48.4652 21.323C48.5737 21.4101 48.6467 21.5338 48.6704 21.6709C48.7044 21.8142 48.7111 21.9708 48.6905 22.1415C48.6771 22.3054 48.6498 22.4657 48.6085 22.6223L48.4446 23.264L48.461 23.2197L48.4859 23.1548C48.6771 22.6703 48.8611 22.2847 49.0384 21.9982C49.2229 21.7049 49.4172 21.4967 49.6218 21.374C49.8223 21.2522 50.0526 21.1883 50.2872 21.1895C50.5325 21.1895 50.7201 21.2611 50.85 21.4044C50.986 21.5477 51.0546 21.725 51.0546 21.9368C51.0546 22.1068 51.0133 22.2677 50.9314 22.4177C50.852 22.5584 50.7397 22.6777 50.6041 22.7656C50.4689 22.8489 50.3125 22.8915 50.1537 22.8882C49.9837 22.8882 49.847 22.8439 49.7444 22.7553C49.6491 22.6666 49.6012 22.5367 49.6012 22.3667C49.6012 22.2161 49.6352 22.0801 49.7038 21.9569C49.7718 21.8342 49.8604 21.7322 49.9697 21.6503C50.079 21.5616 50.198 21.5003 50.3279 21.4657C50.3135 21.4517 50.296 21.4413 50.2769 21.4354C50.2633 21.4308 50.2493 21.4277 50.235 21.4262C50.2249 21.4253 50.2148 21.4249 50.2047 21.425C50.0553 21.425 49.9011 21.4797 49.7444 21.589C49.5878 21.691 49.4239 21.8585 49.2533 22.0905C49.0833 22.3224 48.909 22.629 48.7311 23.0109C48.5311 23.4624 48.3536 23.9236 48.1993 24.3927C48.1222 24.6192 48.0445 24.8638 47.9668 25.1255L47.5855 26.613Z" fill="white"/>
<path fill-rule="evenodd" clip-rule="evenodd" d="M45.6715 19.747C45.3303 19.5011 44.7845 19.3785 44.0341 19.3785C43.8021 19.3785 43.5702 19.3821 43.3377 19.3888C43.113 19.3955 42.8538 19.3991 42.5606 19.3991H42.0487C41.8642 19.3918 41.6905 19.3888 41.5266 19.3888C41.3902 19.3828 41.2538 19.3759 41.1174 19.3682L41.0664 19.5728C41.3323 19.5728 41.5133 19.6068 41.6086 19.6754C41.7112 19.7361 41.7585 19.832 41.7519 19.9619C41.7381 20.1276 41.7107 20.2919 41.6699 20.4531L40.319 25.5287C40.2583 25.774 40.1897 25.9586 40.1144 26.0812C40.0464 26.1985 39.9371 26.2862 39.8078 26.3271C39.6779 26.3678 39.497 26.3951 39.265 26.4085L39.2244 26.6131C39.3397 26.607 39.48 26.6033 39.6433 26.6033C39.8072 26.5961 39.9815 26.593 40.1654 26.593C40.6804 26.5774 41.1958 26.5808 41.7106 26.6033C41.9905 26.6094 42.2467 26.6137 42.4786 26.6137C42.9218 26.6137 43.3413 26.5687 43.7372 26.4801C44.102 26.3973 44.451 26.2559 44.7705 26.0612C45.0563 25.8909 45.2982 25.6559 45.4766 25.3751C45.6539 25.1019 45.7425 24.782 45.7425 24.4134C45.7425 23.9969 45.5725 23.6387 45.2313 23.3388C44.8974 23.0383 44.368 22.861 43.6449 22.8063C44.096 22.7416 44.5344 22.607 44.9441 22.4075C45.3266 22.2095 45.6266 21.9673 45.8451 21.6807C46.0651 21.4087 46.1844 21.0689 46.1827 20.719C46.1827 20.3098 46.0133 19.9856 45.6715 19.747ZM42.4051 22.9399L41.7209 25.5287C41.6802 25.6987 41.6529 25.8493 41.6395 25.9786C41.6322 26.1085 41.6662 26.2075 41.7415 26.2761C41.8168 26.3441 41.9565 26.3781 42.1611 26.3781C42.6456 26.3781 43.0414 26.2858 43.348 26.1019C43.6484 25.9252 43.8878 25.6611 44.0341 25.3448C44.184 25.0169 44.2587 24.6484 44.2587 24.2398C44.2587 23.9866 44.2144 23.765 44.1257 23.5744C44.0477 23.3807 43.9073 23.2186 43.7269 23.1136C43.5429 22.9976 43.297 22.9399 42.9898 22.9399H42.4051ZM42.4513 22.7657H42.9188C43.3073 22.7657 43.6382 22.6667 43.9108 22.4688C44.1907 22.2642 44.4026 21.9983 44.5459 21.671C44.6951 21.3468 44.7717 20.994 44.7705 20.6371C44.7705 20.2959 44.7025 20.0336 44.5659 19.849C44.4366 19.6651 44.2077 19.5728 43.8798 19.5728C43.6419 19.5728 43.4712 19.6207 43.3686 19.7161C43.2666 19.8047 43.178 19.999 43.1027 20.2989L42.4513 22.7657Z" fill="white"/>
</svg>
