<svg width="131" height="31" viewBox="0 0 131 31" fill="none" xmlns="http://www.w3.org/2000/svg">
<g clip-path="url(#clip0_270_1693)">
<path d="M70.9705 21.6237H73.7V11.328H70.9705V21.6237ZM70.9705 9.72243H73.7V7.27393H70.9705V9.72243Z" fill="white"/>
<path d="M75.459 24.9958H78.1886V20.46H78.2284C78.8102 21.3431 79.7538 21.9252 81.1985 21.9252C83.8479 21.9252 85.6543 19.8178 85.6543 16.4863C85.6543 13.2751 83.9082 11.0474 81.1786 11.0474C79.7737 11.0474 78.8102 11.7097 78.1482 12.6128H78.0879V11.3283H75.459V24.9958ZM80.6166 19.6573C78.9911 19.6573 78.1283 18.433 78.1283 16.5665C78.1283 14.7201 78.8102 13.2551 80.5165 13.2551C82.2024 13.2551 82.8843 14.6198 82.8843 16.5665C82.8843 18.5133 82.0016 19.6573 80.6166 19.6573Z" fill="white"/>
<path d="M91.0986 21.9252C93.6678 21.9252 95.4338 20.6808 95.4338 18.6136C95.4338 16.2053 93.5273 15.7236 91.8011 15.3624C90.3359 15.0613 88.9714 14.981 88.9714 14.098C88.9714 13.3554 89.6738 12.954 90.7374 12.954C91.9017 12.954 92.6042 13.3554 92.7242 14.4592H95.1927C94.9925 12.3921 93.4869 11.0474 90.7778 11.0474C88.4293 11.0474 86.5831 12.1111 86.5831 14.3388C86.5831 16.5866 88.3895 17.0883 90.2358 17.4496C91.6407 17.7306 92.9449 17.8309 92.9449 18.8143C92.9449 19.5369 92.2629 19.9985 91.0588 19.9985C89.8342 19.9985 88.9913 19.4766 88.811 18.2926H86.2822C86.4426 20.4801 88.1086 21.9252 91.0986 21.9252Z" fill="white"/>
<path d="M105.797 21.6239V11.3281H103.067V17.2688C103.067 18.6335 102.284 19.5968 101 19.5968C99.8358 19.5968 99.2944 18.9345 99.2944 17.7304V11.3281H96.5847V18.1919C96.5847 20.4398 97.869 21.9049 100.157 21.9049C101.602 21.9049 102.405 21.363 103.107 20.4197H103.168V21.6239H105.797Z" fill="white"/>
<path d="M107.562 21.6241H110.292V15.6434C110.292 14.2786 111.035 13.3956 112.139 13.3956C113.142 13.3956 113.724 13.9976 113.724 15.1617V21.6241H116.453V15.6434C116.453 14.2786 117.156 13.3956 118.3 13.3956C119.304 13.3956 119.885 13.9976 119.885 15.1617V21.6241H122.615V14.7C122.615 12.4522 121.39 11.0474 119.223 11.0474C117.919 11.0474 116.834 11.7297 116.132 12.8536H116.092C115.591 11.7699 114.547 11.0474 113.242 11.0474C111.817 11.0474 110.814 11.7699 110.252 12.7131H110.192V11.3283H107.562V21.6241Z" fill="white"/>
<path d="M-0.169678 21.6237H2.5598V7.27393H-0.169678V21.6237Z" fill="white"/>
<path d="M9.23369 21.9252C12.4247 21.9252 14.6123 19.5569 14.6123 16.4863C14.6123 13.4156 12.4247 11.0474 9.23369 11.0474C6.04256 11.0474 3.85498 13.4156 3.85498 16.4863C3.85498 19.5569 6.04256 21.9252 9.23369 21.9252ZM9.23369 19.8379C7.54783 19.8379 6.62459 18.4932 6.62459 16.4863C6.62459 14.4793 7.54783 13.1146 9.23369 13.1146C10.8995 13.1146 11.8427 14.4793 11.8427 16.4863C11.8427 18.4932 10.8995 19.8379 9.23369 19.8379Z" fill="white"/>
<path d="M20.4169 25.1363C21.9422 25.1363 23.2668 24.7751 24.1297 23.9722C24.8924 23.2698 25.354 22.2864 25.354 20.8414V11.3283H22.7249V12.4121H22.6848C22.0626 11.5491 21.1193 11.0474 19.8348 11.0474C17.2258 11.0474 15.3794 13.0142 15.3794 16.0848C15.3794 19.1957 17.6272 21.0019 19.9152 21.0019C21.2196 21.0019 22.0024 20.4801 22.6044 19.7978H22.6647V20.9217C22.6647 22.3265 21.9221 23.0691 20.3767 23.0691C19.1123 23.0691 18.5303 22.5674 18.3096 21.9252H15.6001C15.8811 23.9321 17.6071 25.1363 20.4169 25.1363ZM20.3767 18.8143C18.9718 18.8143 18.0487 17.7908 18.0487 16.0447C18.0487 14.3187 18.9718 13.235 20.3566 13.235C22.0024 13.235 22.8052 14.5195 22.8052 16.0247C22.8052 17.55 22.1027 18.8143 20.3767 18.8143Z" fill="white"/>
<path d="M31.9886 21.9252C35.1796 21.9252 37.3673 19.5569 37.3673 16.4863C37.3673 13.4156 35.1796 11.0474 31.9886 11.0474C28.7975 11.0474 26.6099 13.4156 26.6099 16.4863C26.6099 19.5569 28.7975 21.9252 31.9886 21.9252ZM31.9886 19.8379C30.3027 19.8379 29.3795 18.4932 29.3795 16.4863C29.3795 14.4793 30.3027 13.1146 31.9886 13.1146C33.6543 13.1146 34.5977 14.4793 34.5977 16.4863C34.5977 18.4932 33.6543 19.8379 31.9886 19.8379Z" fill="white"/>
<path d="M123.606 9.63799C123.606 9.17615 123.981 8.80176 124.443 8.80176H126.115C126.577 8.80176 126.952 9.17615 126.952 9.63799C126.952 10.0998 126.577 10.4742 126.115 10.4742H124.443C123.981 10.4742 123.606 10.0998 123.606 9.63799Z" fill="white"/>
<path fill-rule="evenodd" clip-rule="evenodd" d="M53.9202 4.3418C60.3857 4.3418 65.6277 9.58334 65.6277 16.0491C65.6277 22.5149 60.3857 27.7564 53.9202 27.7564C47.4544 27.7564 42.2129 22.5149 42.2129 16.0491C42.2129 9.58334 47.4544 4.3418 53.9202 4.3418ZM53.497 5.21785C52.1614 5.40581 50.8897 6.47901 49.9024 8.27393C49.6161 8.79458 49.3577 9.36977 49.1326 9.99084C50.4749 9.65351 51.9495 9.45463 53.497 9.42387V5.21785ZM48.1431 10.272C48.4231 9.39326 48.7656 8.58476 49.1609 7.86608C49.6503 6.97629 50.2311 6.20791 50.8854 5.61776C47.3271 6.6512 44.5223 9.45602 43.4888 13.0144C44.079 12.36 44.8473 11.7792 45.7371 11.2899C46.4559 10.8946 47.2643 10.552 48.1431 10.272ZM47.8619 11.2615C47.5246 12.6038 47.3257 14.0784 47.2949 15.626H43.0889C43.2769 14.2903 44.3501 13.0186 46.145 12.0314C46.6657 11.745 47.2408 11.4867 47.8619 11.2615ZM48.1414 15.626C48.1764 13.9371 48.4195 12.3516 48.8218 10.9507C50.2227 10.5484 51.8082 10.3053 53.497 10.2703V12.0984C52.867 13.7113 51.582 14.9962 49.969 15.626H48.1414ZM47.2949 16.4723H43.0889C43.2769 17.8079 44.3501 19.0796 46.145 20.0668C46.6657 20.3532 47.2408 20.6116 47.8619 20.8368C47.5246 19.4944 47.3257 18.0198 47.2949 16.4723ZM48.8218 21.1475C48.4195 19.7466 48.1764 18.1611 48.1414 16.4723H49.969C51.582 17.1021 52.867 18.3869 53.497 19.9999V21.8279C51.8082 21.793 50.2227 21.5498 48.8218 21.1475ZM48.1431 21.8262C47.2643 21.5462 46.4559 21.2037 45.7371 20.8084C44.8473 20.319 44.079 19.7382 43.4888 19.0838C44.5223 22.6422 47.3271 25.447 50.8854 26.4805C50.2311 25.8903 49.6503 25.1219 49.1609 24.2321C48.7656 23.5135 48.4231 22.705 48.1431 21.8262ZM53.497 26.8804C52.1614 26.6924 50.8897 25.6192 49.9024 23.8243C49.6161 23.3037 49.3577 22.7284 49.1326 22.1074C50.4749 22.4447 51.9495 22.6436 53.497 22.6743V26.8804ZM56.9549 26.4805C57.6093 25.8903 58.19 25.1219 58.6794 24.2321C59.0745 23.5135 59.4176 22.705 59.6974 21.8262C60.576 21.5462 61.3844 21.2037 62.1032 20.8084C62.993 20.319 63.7616 19.7382 64.3516 19.0838C63.3178 22.6422 60.5134 25.447 56.9549 26.4805ZM58.7081 22.1074C58.4827 22.7284 58.224 23.3037 57.9378 23.8243C56.9507 25.6192 55.6789 26.6924 54.3433 26.8804V22.6743C55.8908 22.6436 57.3654 22.4447 58.7081 22.1074ZM59.9783 20.8368C60.5994 20.6116 61.1748 20.3532 61.6952 20.0668C63.4905 19.0797 64.5635 17.8079 64.7514 16.4723H60.5456C60.5145 18.0198 60.3155 19.4944 59.9783 20.8368ZM59.6991 16.4723C59.664 18.1611 59.4211 19.7466 59.0183 21.1475C57.6177 21.5498 56.0321 21.793 54.3433 21.8279V20.0012C54.9732 18.3877 56.2585 17.1022 57.8718 16.4723H59.6991ZM60.5456 15.626H64.7514C64.5635 14.2903 63.4905 13.0186 61.6952 12.0314C61.1748 11.745 60.5994 11.4867 59.9783 11.2615C60.3155 12.6038 60.5145 14.0784 60.5456 15.626ZM59.0183 10.9507C59.4211 12.3516 59.664 13.9371 59.6991 15.626H57.8719C56.2585 14.996 54.9732 13.7105 54.3433 12.097V10.2703C56.0321 10.3053 57.6177 10.5484 59.0183 10.9507ZM59.6974 10.272C60.576 10.552 61.3844 10.8946 62.1032 11.2899C62.993 11.7792 63.7616 12.36 64.3516 13.0144C63.3178 9.45602 60.5134 6.6512 56.9549 5.61776C57.6093 6.20791 58.19 6.97629 58.6794 7.86608C59.0745 8.58476 59.4176 9.39326 59.6974 10.272ZM54.3433 5.21785C55.6789 5.40581 56.9507 6.47901 57.9378 8.27393C58.224 8.79458 58.4827 9.36977 58.7081 9.99084C57.3654 9.65351 55.8908 9.45463 54.3433 9.42387V5.21785Z" fill="white"/>
</g>
<defs>
<clipPath id="clip0_270_1693">
<rect width="131" height="31" fill="white"/>
</clipPath>
</defs>
</svg>
