<svg width="108" height="31" viewBox="0 0 108 31" fill="none" xmlns="http://www.w3.org/2000/svg">
<path fill-rule="evenodd" clip-rule="evenodd" d="M9.95139 20.2926C9.17514 20.2926 8.43069 19.9842 7.88181 19.4353C7.33292 18.8865 7.02456 18.142 7.02456 17.3658V3.90234H1.1709V17.3658C1.1709 22.2149 5.10222 26.1462 9.95139 26.1462H16.3904V20.2926H9.95139ZM27.5124 9.756C26.8205 9.756 26.1355 9.89227 25.4963 10.157C24.8571 10.4218 24.2763 10.8098 23.7871 11.299C23.2979 11.7883 22.9099 12.369 22.6451 13.0082C22.3803 13.6474 22.2441 14.3325 22.2441 15.0243C22.2441 15.7161 22.3803 16.4012 22.6451 17.0404C22.9099 17.6796 23.2979 18.2603 23.7871 18.7495C24.2763 19.2387 24.8571 19.6268 25.4963 19.8916C26.1355 20.1563 26.8205 20.2926 27.5124 20.2926C28.9096 20.2926 30.2496 19.7375 31.2376 18.7495C32.2256 17.7615 32.7807 16.4215 32.7807 15.0243C32.7807 13.6271 32.2256 12.287 31.2376 11.299C30.2496 10.3111 28.9096 9.756 27.5124 9.756ZM16.3904 15.0243C16.3904 8.88205 21.3701 3.90234 27.5124 3.90234C33.6546 3.90234 38.6343 8.88205 38.6343 15.0243C38.6343 21.1665 33.6546 26.1462 27.5124 26.1462C21.3701 26.1462 16.3904 21.1665 16.3904 15.0243ZM90.7319 9.756C89.3346 9.756 87.9946 10.3111 87.0066 11.299C86.0186 12.287 85.4636 13.6271 85.4636 15.0243C85.4636 16.4215 86.0186 17.7615 87.0066 18.7495C87.9946 19.7375 89.3346 20.2926 90.7319 20.2926C92.1291 20.2926 93.4691 19.7375 94.4571 18.7495C95.4451 17.7615 96.0002 16.4215 96.0002 15.0243C96.0002 13.6271 95.4451 12.287 94.4571 11.299C93.4691 10.3111 92.1291 9.756 90.7319 9.756ZM79.6099 15.0243C79.6099 8.88205 84.5896 3.90234 90.7319 3.90234C96.8741 3.90234 101.854 8.88205 101.854 15.0243C101.854 21.1665 96.8741 26.1462 90.7319 26.1462C84.5896 26.1462 79.6099 21.1665 79.6099 15.0243ZM50.927 3.90234C44.7848 3.90234 39.805 8.88205 39.805 15.0243C39.805 21.1665 44.7848 26.1462 50.927 26.1462H67.3172C68.4698 26.1462 69.5814 25.9706 70.6269 25.6452L73.7563 27.317L77.1327 20.9927C77.9903 19.3827 78.439 17.5866 78.4392 15.7624V15.0243C78.4392 8.88205 73.4595 3.90234 67.3172 3.90234H50.927ZM72.5855 15.0243C72.5855 13.6271 72.0305 12.287 71.0425 11.299C70.0545 10.3111 68.7145 9.756 67.3172 9.756H50.927C50.2352 9.756 49.5501 9.89227 48.9109 10.157C48.2717 10.4218 47.691 10.8098 47.2018 11.299C46.7125 11.7883 46.3245 12.369 46.0597 13.0082C45.795 13.6474 45.6587 14.3325 45.6587 15.0243C45.6587 15.7161 45.795 16.4012 46.0597 17.0404C46.3245 17.6796 46.7125 18.2603 47.2018 18.7495C47.691 19.2387 48.2717 19.6268 48.9109 19.8916C49.5501 20.1563 50.2352 20.2926 50.927 20.2926H67.3172C68.7074 20.2926 70.0413 19.7432 71.0281 18.7641C72.0149 17.7849 72.5747 16.4554 72.5855 15.0653V15.0243Z" fill="white"/>
<path d="M104.195 5.36576C104.195 5.75388 104.041 6.12611 103.766 6.40055C103.492 6.67499 103.12 6.82917 102.731 6.82917C102.343 6.82917 101.971 6.67499 101.697 6.40055C101.422 6.12611 101.268 5.75388 101.268 5.36576C101.268 4.97764 101.422 4.60541 101.697 4.33097C101.971 4.05652 102.343 3.90234 102.731 3.90234C103.12 3.90234 103.492 4.05652 103.766 4.33097C104.041 4.60541 104.195 4.97764 104.195 5.36576Z" fill="white"/>
</svg>
