<svg width="104" height="31" viewBox="0 0 104 31" fill="none" xmlns="http://www.w3.org/2000/svg">
<path fill-rule="evenodd" clip-rule="evenodd" d="M6.34987 5.80518V27.7564H0.487549V5.80518H6.34987Z" fill="white"/>
<path fill-rule="evenodd" clip-rule="evenodd" d="M9.28101 5.80518H21.7385C25.7856 5.80518 29.0664 9.08114 29.0664 13.1222C29.0664 17.1634 25.7856 20.4393 21.7385 20.4393H15.1433V27.7564H9.28101V5.80518ZM15.1433 14.5857H21.7385C22.5479 14.5857 23.2041 13.9305 23.2041 13.1222C23.2041 12.314 22.5479 11.6588 21.7385 11.6588H15.1433V14.5857Z" fill="white"/>
<path fill-rule="evenodd" clip-rule="evenodd" d="M51.0503 5.80518V17.1466C51.0503 19.7734 53.1828 21.9027 55.8134 21.9027C58.4441 21.9027 60.5767 19.7734 60.5767 17.1466V5.80518H66.4391V17.1466C66.4391 23.0063 61.6818 27.7564 55.8134 27.7564C49.9451 27.7564 45.188 23.0063 45.188 17.1466V5.80518H51.0503Z" fill="white"/>
<path fill-rule="evenodd" clip-rule="evenodd" d="M31.2649 16.0491C31.2649 10.3915 35.858 5.80518 41.524 5.80518H42.9896V11.6588H41.524C39.0957 11.6588 37.1272 13.6244 37.1272 16.0491V16.7808C37.1272 22.8424 32.206 27.7564 26.1353 27.7564H25.4026V21.9027H26.1353C28.9683 21.9027 31.2649 19.6096 31.2649 16.7808V16.0491Z" fill="white"/>
<path d="M99.4145 6.53692C99.4145 7.74925 98.4305 8.73204 97.2159 8.73204C96.0018 8.73204 95.0178 7.74925 95.0178 6.53692C95.0178 5.32459 96.0018 4.3418 97.2159 4.3418C98.4305 4.3418 99.4145 5.32459 99.4145 6.53692Z" fill="white"/>
<path d="M72.7332 27.7567L75.5307 16.06L77.6105 23.0968C78.8503 27.2938 84.8041 27.2938 86.0444 23.0968L88.1237 16.06L90.9211 27.7567H96.9481L92.5496 9.36424C91.5036 4.99036 85.3309 4.82841 84.056 9.14146L81.8275 16.6835L79.5984 9.14147C78.3241 4.82843 72.1508 4.99033 71.1047 9.36423L66.7063 27.7567H72.7332Z" fill="white"/>
</svg>
