<svg width="117" height="32" viewBox="0 0 117 32" fill="none" xmlns="http://www.w3.org/2000/svg">
<path fill-rule="evenodd" clip-rule="evenodd" d="M37.7427 5.98043C37.7427 5.16713 38.4092 4.50781 39.2314 4.50781H41.825C42.4101 4.50781 42.9773 4.70842 43.4298 5.07548L44.2187 5.71544L44.2385 5.73325C44.2567 5.72717 44.2749 5.72123 44.2931 5.71544C45.7165 5.26449 47.4435 5.17872 49.2061 5.17872C50.9687 5.17872 52.6956 5.26449 54.119 5.71544C54.1372 5.72123 54.1554 5.72717 54.1736 5.73325L54.1934 5.71544L54.9823 5.07548C55.4348 4.70842 56.002 4.50781 56.5872 4.50781H59.1807C60.0029 4.50781 60.6694 5.16713 60.6694 5.98043V6.89078C60.6694 7.59512 60.3695 8.26688 59.8431 8.74126L59.2067 9.31491C58.896 9.59496 58.523 9.79877 58.118 9.90989L57.9674 9.95119C58.5571 11.3431 58.883 12.831 58.883 14.0347C58.883 18.8764 55.8543 20.9675 53.1858 22.81C51.0843 24.261 49.2061 25.5578 49.2061 27.9224C49.2061 25.5578 47.3279 24.261 45.2263 22.81C42.5578 20.9675 39.5292 18.8764 39.5292 14.0347C39.5292 12.831 39.855 11.3431 40.4447 9.95119L40.2942 9.90989C39.8891 9.79877 39.5162 9.59496 39.2054 9.31491L38.569 8.74126C38.0426 8.26688 37.7427 7.59512 37.7427 6.89078V5.98043ZM51.1415 17.993C51.1415 18.2243 51.0395 18.4461 50.858 18.6098C50.6766 18.7733 50.4304 18.8652 50.1737 18.8652C49.9522 18.8652 49.7384 18.7967 49.5673 18.6727C49.8585 19.4436 50.6036 20.1741 51.7369 18.9994C52.7374 17.9078 51.6925 15.6057 50.6744 14.2395C50.3351 13.7842 49.778 13.565 49.2061 13.565C48.6342 13.565 48.0771 13.7842 47.7377 14.2395C46.7197 15.6057 45.6747 17.9078 46.6752 18.9994C47.8085 20.1741 48.5536 19.4436 48.8448 18.6727C48.6737 18.7967 48.46 18.8652 48.2384 18.8652C47.9817 18.8652 47.7356 18.7733 47.5541 18.6098C47.3726 18.4461 47.2707 18.2243 47.2707 17.993H51.1415ZM45.5003 11.1781H42.8044L44.929 12.8609C45.3966 13.2311 46.0799 13.1128 46.3692 12.6114C46.7345 11.9784 46.2493 11.1781 45.5003 11.1781ZM52.9118 11.1781H55.6077L53.4831 12.8609C53.0156 13.2311 52.3322 13.1128 52.0429 12.6114C51.6776 11.9784 52.1628 11.1781 52.9118 11.1781Z" fill="white"/>
<path d="M63.8809 21.0937H66.2691V12.0849H63.8809V21.0937ZM63.8809 10.68H66.2691V8.5376H63.8809V10.68Z" fill="white"/>
<path d="M67.8076 24.0437H70.1959V20.075H70.231C70.7403 20.8476 71.5657 21.3569 72.83 21.3569C75.1481 21.3569 76.7286 19.513 76.7286 16.5979C76.7286 13.7881 75.2008 11.8389 72.8125 11.8389C71.5832 11.8389 70.7403 12.4184 70.1608 13.2086H70.1081V12.0847H67.8076V24.0437ZM72.3208 19.3725C70.8983 19.3725 70.1432 18.3013 70.1432 16.6681C70.1432 15.0525 70.7403 13.7706 72.233 13.7706C73.7081 13.7706 74.3052 14.9647 74.3052 16.6681C74.3052 18.3715 73.5325 19.3725 72.3208 19.3725Z" fill="white"/>
<path d="M81.4929 21.3569C83.7408 21.3569 85.2861 20.2681 85.2861 18.4593C85.2861 16.352 83.6178 15.9306 82.1076 15.6145C80.8256 15.3511 79.6315 15.2808 79.6315 14.5081C79.6315 13.8584 80.2461 13.5072 81.1769 13.5072C82.1954 13.5072 82.81 13.8584 82.9154 14.8242H85.0754C84.8998 13.0155 83.5827 11.8389 81.212 11.8389C79.1573 11.8389 77.5417 12.7696 77.5417 14.7189C77.5417 16.6857 79.1222 17.1247 80.7378 17.4408C81.9671 17.6867 83.1086 17.7745 83.1086 18.635C83.1086 19.2672 82.5115 19.6711 81.4578 19.6711C80.3866 19.6711 79.649 19.2145 79.491 18.1784H77.2783C77.4188 20.0925 78.8764 21.3569 81.4929 21.3569Z" fill="white"/>
<path d="M94.3544 21.0932V12.0845H91.9661V17.2825C91.9661 18.4767 91.2813 19.3196 90.1574 19.3196C89.1388 19.3196 88.6647 18.7401 88.6647 17.6864V12.0845H86.2939V18.0903C86.2939 20.0571 87.4178 21.3391 89.4198 21.3391C90.6842 21.3391 91.3866 20.865 92.0013 20.0396H92.0539V21.0932H94.3544Z" fill="white"/>
<path d="M95.8989 21.0935H98.2872V15.8603C98.2872 14.6662 98.937 13.8935 99.9028 13.8935C100.781 13.8935 101.29 14.4203 101.29 15.4389V21.0935H103.678V15.8603C103.678 14.6662 104.293 13.8935 105.294 13.8935C106.172 13.8935 106.681 14.4203 106.681 15.4389V21.0935H109.07V15.035C109.07 13.0681 107.998 11.8389 106.102 11.8389C104.96 11.8389 104.012 12.4359 103.397 13.4194H103.362C102.923 12.4711 102.01 11.8389 100.869 11.8389C99.6219 11.8389 98.7438 12.4711 98.2521 13.2964H98.1994V12.0847H95.8989V21.0935Z" fill="white"/>
<path d="M3.58447 21.0937H5.97276V8.5376H3.58447V21.0937Z" fill="white"/>
<path d="M11.8126 21.3569C14.6048 21.3569 16.5189 19.2847 16.5189 16.5979C16.5189 13.9111 14.6048 11.8389 11.8126 11.8389C9.02035 11.8389 7.1062 13.9111 7.1062 16.5979C7.1062 19.2847 9.02035 21.3569 11.8126 21.3569ZM11.8126 19.5306C10.3374 19.5306 9.52964 18.354 9.52964 16.5979C9.52964 14.8418 10.3374 13.6476 11.8126 13.6476C13.2701 13.6476 14.0955 14.8418 14.0955 16.5979C14.0955 18.354 13.2701 19.5306 11.8126 19.5306Z" fill="white"/>
<path d="M21.5977 24.1667C22.9324 24.1667 24.0914 23.8506 24.8465 23.1481C25.5138 22.5335 25.9177 21.673 25.9177 20.4086V12.0847H23.6173V13.033H23.5821C23.0377 12.2779 22.2124 11.8389 21.0885 11.8389C18.8055 11.8389 17.1899 13.5598 17.1899 16.2467C17.1899 18.9686 19.1568 20.5491 21.1587 20.5491C22.3002 20.5491 22.9851 20.0925 23.5119 19.4954H23.5646V20.4789C23.5646 21.7081 22.9148 22.3579 21.5626 22.3579C20.4563 22.3579 19.947 21.9189 19.7538 21.3569H17.3831C17.629 23.113 19.1392 24.1667 21.5977 24.1667ZM21.5626 18.635C20.3334 18.635 19.5255 17.7393 19.5255 16.2115C19.5255 14.7013 20.3334 13.753 21.5451 13.753C22.9851 13.753 23.6875 14.8769 23.6875 16.194C23.6875 17.5286 23.0729 18.635 21.5626 18.635Z" fill="white"/>
<path d="M31.7229 21.3569C34.5151 21.3569 36.4293 19.2847 36.4293 16.5979C36.4293 13.9111 34.5151 11.8389 31.7229 11.8389C28.9307 11.8389 27.0166 13.9111 27.0166 16.5979C27.0166 19.2847 28.9307 21.3569 31.7229 21.3569ZM31.7229 19.5306C30.2478 19.5306 29.44 18.354 29.44 16.5979C29.44 14.8418 30.2478 13.6476 31.7229 13.6476C33.1805 13.6476 34.0059 14.8418 34.0059 16.5979C34.0059 18.354 33.1805 19.5306 31.7229 19.5306Z" fill="white"/>
<path d="M108.962 10.1179C108.962 9.71382 109.289 9.38623 109.694 9.38623H111.157C111.561 9.38623 111.889 9.71382 111.889 10.1179C111.889 10.522 111.561 10.8496 111.157 10.8496H109.694C109.289 10.8496 108.962 10.522 108.962 10.1179Z" fill="white"/>
</svg>
