<svg width="12" height="109" viewBox="0 0 12 109" fill="none" xmlns="http://www.w3.org/2000/svg">
<path d="M6.125 108.333C9.07052 108.333 11.4583 105.946 11.4583 103C11.4583 100.054 9.07052 97.6667 6.125 97.6667C3.17948 97.6667 0.791667 100.054 0.791667 103C0.791666 105.946 3.17948 108.333 6.125 108.333ZM6.125 11.3333C9.07052 11.3333 11.4583 8.94552 11.4583 6C11.4583 3.05448 9.07052 0.666664 6.12501 0.666664C3.17949 0.666664 0.791672 3.05448 0.791672 6C0.791671 8.94552 3.17949 11.3333 6.125 11.3333ZM7.125 103L7.125 101.99L5.125 101.99L5.125 103L7.125 103ZM7.125 99.9688L7.125 97.9479L5.125 97.9479L5.125 99.9687L7.125 99.9688ZM7.125 95.9271L7.125 93.9063L5.125 93.9062L5.125 95.9271L7.125 95.9271ZM7.125 91.8854L7.125 89.8646L5.125 89.8646L5.125 91.8854L7.125 91.8854ZM7.125 87.8438L7.125 85.8229L5.125 85.8229L5.125 87.8438L7.125 87.8438ZM7.125 83.8021L7.125 81.7813L5.125 81.7812L5.125 83.8021L7.125 83.8021ZM7.125 79.7604L7.125 77.7396L5.125 77.7396L5.125 79.7604L7.125 79.7604ZM7.125 75.7187L7.125 73.6979L5.125 73.6979L5.125 75.7187L7.125 75.7187ZM7.125 71.6771L7.125 69.6562L5.125 69.6562L5.125 71.6771L7.125 71.6771ZM7.125 67.6354L7.125 65.6146L5.125 65.6146L5.125 67.6354L7.125 67.6354ZM7.125 63.5938L7.125 61.5729L5.125 61.5729L5.125 63.5937L7.125 63.5938ZM7.125 59.5521L7.125 57.5313L5.125 57.5312L5.125 59.5521L7.125 59.5521ZM7.125 55.5104L7.125 53.4896L5.125 53.4896L5.125 55.5104L7.125 55.5104ZM7.125 51.4688L7.125 49.4479L5.125 49.4479L5.125 51.4688L7.125 51.4688ZM7.125 47.4271L7.125 45.4063L5.125 45.4063L5.125 47.4271L7.125 47.4271ZM7.125 43.3854L7.125 41.3646L5.125 41.3646L5.125 43.3854L7.125 43.3854ZM7.125 39.3438L7.125 37.3229L5.125 37.3229L5.125 39.3438L7.125 39.3438ZM7.125 35.3021L7.125 33.2813L5.125 33.2812L5.125 35.3021L7.125 35.3021ZM7.125 31.2604L7.125 29.2396L5.125 29.2396L5.125 31.2604L7.125 31.2604ZM7.125 27.2188L7.125 25.1979L5.125 25.1979L5.125 27.2187L7.125 27.2188ZM7.125 23.1771L7.125 21.1562L5.125 21.1562L5.125 23.1771L7.125 23.1771ZM7.125 19.1354L7.125 17.1146L5.125 17.1146L5.125 19.1354L7.125 19.1354ZM7.125 15.0937L7.125 13.0729L5.125 13.0729L5.125 15.0937L7.125 15.0937ZM7.125 11.0521L7.125 9.03123L5.125 9.03123L5.125 11.0521L7.125 11.0521ZM7.125 7.01038L7.12501 6L5.12501 6L5.125 7.01038L7.125 7.01038Z" fill="#CFD7E6"/>
</svg>
