<svg width="19" height="19" viewBox="0 0 19 19" fill="none" xmlns="http://www.w3.org/2000/svg">
<path d="M13.6666 1.44434H5.66663C3.45749 1.44434 1.66663 3.2352 1.66663 5.44434V13.4443C1.66663 15.6535 3.45749 17.4443 5.66663 17.4443H13.6666C15.8757 17.4443 17.6666 15.6535 17.6666 13.4443V5.44434C17.6666 3.2352 15.8757 1.44434 13.6666 1.44434Z" stroke="white" stroke-width="1.5" stroke-linecap="round" stroke-linejoin="round"/>
<path d="M13.1315 9.21764C13.2317 9.8938 13.1163 10.5844 12.8014 11.1912C12.4866 11.798 11.9884 12.29 11.3778 12.5973C10.7672 12.9047 10.0752 13.0117 9.40031 12.903C8.72537 12.7944 8.10191 12.4758 7.61853 11.9924C7.13516 11.509 6.81651 10.8855 6.7079 10.2107C6.59931 9.53573 6.70628 8.84381 7.01361 8.23314C7.32095 7.62255 7.813 7.1244 8.41979 6.80956C9.02656 6.49472 9.71711 6.37922 10.3933 6.47949C11.0831 6.58177 11.7216 6.90318 12.2147 7.39623C12.7077 7.8893 13.0292 8.52783 13.1315 9.21764Z" stroke="white" stroke-width="1.5" stroke-linecap="round" stroke-linejoin="round"/>
<path d="M14.1666 4.94434H14.1746" stroke="white" stroke-width="1.56863" stroke-linecap="round" stroke-linejoin="round"/>
</svg>
