<svg width="18" height="19" viewBox="0 0 18 19" fill="none" xmlns="http://www.w3.org/2000/svg">
<g clip-path="url(#clip0_22_1163)">
<path d="M17.4956 18.0557L17.5 18.0549V11.6368C17.5 8.49702 16.8241 6.07837 13.1534 6.07837C11.3889 6.07837 10.2047 7.04671 9.72125 7.96473H9.67021V6.3715H6.1899V18.0549H9.81385V12.2697C9.81385 10.7465 10.1026 9.27358 11.989 9.27358C13.8476 9.27358 13.8753 11.0119 13.8753 12.3674V18.0557H17.4956ZM0.28875 6.37223H3.91708V18.0557H0.28875V6.37223ZM2.10146 0.555664C0.941354 0.555664 0 1.49702 0 2.65712C0 3.81723 0.941354 4.77827 2.10146 4.77827C3.26156 4.77827 4.20292 3.81723 4.20292 2.65712C4.20253 2.0999 3.981 1.56561 3.58699 1.17159C3.19297 0.777577 2.65868 0.55605 2.10146 0.555664Z" fill="white"/>
</g>
<defs>
<clipPath id="clip0_22_1163">
<rect width="17.5" height="17.5" fill="white" transform="translate(0 0.555664)"/>
</clipPath>
</defs>
</svg>
