<svg width="19" height="20" viewBox="0 0 19 20" fill="none" xmlns="http://www.w3.org/2000/svg">
<g clip-path="url(#clip0_22_1152)">
<path d="M8.14894 12.837C7.66594 15.3698 7.07584 17.7985 5.32784 19.0671C4.78842 15.2383 6.12027 12.3629 6.73839 9.31041C5.68399 7.5351 6.86525 3.96291 9.08942 4.84338C11.8261 5.92582 6.7197 11.4426 10.1478 12.1315C13.7272 12.8506 15.188 5.92115 12.9689 3.66786C9.76181 0.413723 3.63375 3.59347 4.38736 8.25241C4.57064 9.39127 5.74759 9.73699 4.85778 11.3085C2.80503 10.8536 2.19266 9.23494 2.27136 7.0769C2.39822 3.54424 5.44536 1.07102 8.50184 0.728895C12.3669 0.296208 15.9945 2.14771 16.4954 5.78386C17.0596 9.88757 14.7507 14.332 10.6178 14.0125C9.49731 13.9255 9.02725 13.3703 8.14894 12.837Z" fill="white"/>
</g>
<defs>
<clipPath id="clip0_22_1152">
<rect width="18.4" height="18.4" fill="white" transform="translate(0.222168 0.666992)"/>
</clipPath>
</defs>
</svg>
