<svg width="19" height="20" viewBox="0 0 19 20" fill="none" xmlns="http://www.w3.org/2000/svg">
<g clip-path="url(#clip0_22_1159)">
<path d="M17.706 5.28066C16.6559 5.28066 15.687 4.93279 14.909 4.34593C14.0166 3.67318 13.3755 2.68634 13.1491 1.54891C13.0923 1.26292 13.0625 0.97223 13.06 0.680664H10.0603V8.87729L10.0567 13.367C10.0567 14.5673 9.27504 15.585 8.19152 15.943C7.86697 16.0503 7.52514 16.0956 7.18384 16.0766C6.73246 16.0519 6.30948 15.9156 5.94184 15.6957C5.15948 15.2278 4.62904 14.379 4.61466 13.4079C4.59202 11.8903 5.81893 10.653 7.33549 10.653C7.63485 10.653 7.92235 10.7018 8.19152 10.7906V7.7449C7.90762 7.70285 7.61868 7.68093 7.32651 7.68093C5.66656 7.68093 4.11406 8.37093 3.00431 9.61401C2.16552 10.5534 1.6624 11.7519 1.58477 13.0087C1.48307 14.6596 2.08718 16.229 3.25874 17.3869C3.43088 17.5569 3.61165 17.7147 3.80068 17.8602C4.80513 18.6332 6.03312 19.0523 7.32651 19.0523C7.61868 19.0523 7.90762 19.0307 8.19152 18.9887C9.39974 18.8097 10.5145 18.2566 11.3943 17.3869C12.4753 16.3185 13.0726 14.9001 13.079 13.3903L13.0636 6.68582C13.5805 7.08453 14.1468 7.41478 14.7483 7.66835C15.6895 8.06546 16.6875 8.26671 17.7146 8.26635V5.27994C17.7153 5.28066 17.7067 5.28066 17.706 5.28066Z" fill="white"/>
</g>
<defs>
<clipPath id="clip0_22_1159">
<rect width="18.4" height="18.4" fill="white" transform="translate(0.444458 0.666992)"/>
</clipPath>
</defs>
</svg>
