<svg width="192" height="60" viewBox="0 0 192 60" fill="none" xmlns="http://www.w3.org/2000/svg">
<rect width="192" height="60" rx="30" fill="white"/>
<path d="M72.1951 42.6171C70.7018 44.0647 69.0713 43.8361 67.5018 43.1504C65.8408 42.4495 64.317 42.419 62.5646 43.1504C60.3703 44.0952 59.2122 43.8209 57.9018 42.6171C50.4656 34.9523 51.5627 23.2799 60.0046 22.8533C62.0618 22.9599 63.4941 23.9809 64.698 24.0723C66.4961 23.7066 68.218 22.6552 70.138 22.7923C72.4389 22.9752 74.1761 23.8895 75.3189 25.5352C70.5646 28.3847 71.6922 34.6475 76.0503 36.3999C75.1818 38.6856 74.0541 40.9561 72.1799 42.6323L72.1951 42.6171ZM64.5456 22.7618C64.317 19.3637 67.0751 16.5599 70.2446 16.2856C70.6865 20.2171 66.6789 23.1428 64.5456 22.7618Z" fill="black"/>
<path d="M89.5102 37L94.6702 23H96.4502L101.59 37H99.8102L95.5502 25.1L91.2702 37H89.5102ZM91.8702 33.4L92.3502 32.04H98.6902L99.1702 33.4H91.8702ZM103.591 41.4V26.92H105.111L105.251 28.56C105.465 28.24 105.738 27.94 106.071 27.66C106.405 27.3667 106.805 27.1333 107.271 26.96C107.738 26.7733 108.278 26.68 108.891 26.68C109.865 26.68 110.711 26.9133 111.431 27.38C112.165 27.8467 112.731 28.48 113.131 29.28C113.545 30.0667 113.751 30.9667 113.751 31.98C113.751 32.9933 113.545 33.9 113.131 34.7C112.731 35.4867 112.165 36.1067 111.431 36.56C110.698 37.0133 109.845 37.24 108.871 37.24C108.058 37.24 107.338 37.0733 106.711 36.74C106.085 36.4067 105.605 35.94 105.271 35.34V41.4H103.591ZM108.671 35.78C109.325 35.78 109.905 35.62 110.411 35.3C110.931 34.98 111.331 34.54 111.611 33.98C111.905 33.4067 112.051 32.7333 112.051 31.96C112.051 31.2 111.905 30.5333 111.611 29.96C111.331 29.3867 110.931 28.94 110.411 28.62C109.905 28.3 109.325 28.14 108.671 28.14C108.005 28.14 107.418 28.3 106.911 28.62C106.405 28.94 106.011 29.3867 105.731 29.96C105.451 30.5333 105.311 31.2 105.311 31.96C105.311 32.7333 105.451 33.4067 105.731 33.98C106.011 34.54 106.405 34.98 106.911 35.3C107.418 35.62 108.005 35.78 108.671 35.78ZM116.13 41.4V26.92H117.65L117.79 28.56C118.004 28.24 118.277 27.94 118.61 27.66C118.944 27.3667 119.344 27.1333 119.81 26.96C120.277 26.7733 120.817 26.68 121.43 26.68C122.404 26.68 123.25 26.9133 123.97 27.38C124.704 27.8467 125.27 28.48 125.67 29.28C126.084 30.0667 126.29 30.9667 126.29 31.98C126.29 32.9933 126.084 33.9 125.67 34.7C125.27 35.4867 124.704 36.1067 123.97 36.56C123.237 37.0133 122.384 37.24 121.41 37.24C120.597 37.24 119.877 37.0733 119.25 36.74C118.624 36.4067 118.144 35.94 117.81 35.34V41.4H116.13ZM121.21 35.78C121.864 35.78 122.444 35.62 122.95 35.3C123.47 34.98 123.87 34.54 124.15 33.98C124.444 33.4067 124.59 32.7333 124.59 31.96C124.59 31.2 124.444 30.5333 124.15 29.96C123.87 29.3867 123.47 28.94 122.95 28.62C122.444 28.3 121.864 28.14 121.21 28.14C120.544 28.14 119.957 28.3 119.45 28.62C118.944 28.94 118.55 29.3867 118.27 29.96C117.99 30.5333 117.85 31.2 117.85 31.96C117.85 32.7333 117.99 33.4067 118.27 33.98C118.55 34.54 118.944 34.98 119.45 35.3C119.957 35.62 120.544 35.78 121.21 35.78ZM128.67 37V22.6H130.35V37H128.67ZM137.543 37.24C136.609 37.24 135.776 37.02 135.043 36.58C134.309 36.14 133.736 35.5267 133.323 34.74C132.909 33.94 132.703 33.0133 132.703 31.96C132.703 30.8933 132.903 29.9667 133.303 29.18C133.716 28.3933 134.289 27.78 135.023 27.34C135.769 26.9 136.623 26.68 137.583 26.68C138.569 26.68 139.409 26.9 140.103 27.34C140.796 27.78 141.323 28.36 141.683 29.08C142.056 29.7867 142.243 30.5667 142.243 31.42C142.243 31.5533 142.243 31.6933 142.243 31.84C142.243 31.9867 142.236 32.1533 142.223 32.34H133.963V31.04H140.583C140.543 30.12 140.236 29.4 139.663 28.88C139.103 28.36 138.396 28.1 137.543 28.1C136.983 28.1 136.456 28.2333 135.963 28.5C135.469 28.7533 135.076 29.1333 134.783 29.64C134.489 30.1333 134.343 30.7533 134.343 31.5V32.06C134.343 32.8867 134.489 33.58 134.783 34.14C135.089 34.7 135.483 35.12 135.963 35.4C136.456 35.68 136.983 35.82 137.543 35.82C138.249 35.82 138.829 35.6667 139.283 35.36C139.749 35.04 140.089 34.6067 140.303 34.06H141.963C141.789 34.6733 141.503 35.22 141.103 35.7C140.703 36.1667 140.203 36.54 139.603 36.82C139.016 37.1 138.329 37.24 137.543 37.24Z" fill="#020617" fill-opacity="0.8"/>
</svg>
