<svg width="192" height="60" viewBox="0 0 192 60" fill="none" xmlns="http://www.w3.org/2000/svg">
<rect width="192" height="60" rx="30" fill="white"/>
<g clip-path="url(#clip0_334_233)">
<path d="M62.5 30C62.5 37.9862 56.6488 44.6056 49 45.8056V34.625H52.7281L53.4375 30H49V26.9987C49 25.7331 49.62 24.5 51.6075 24.5H53.625V20.5625C53.625 20.5625 51.7938 20.25 50.0431 20.25C46.3888 20.25 44 22.465 44 26.475V30H39.9375V34.625H44V45.8056C36.3513 44.6056 30.5 37.9862 30.5 30C30.5 21.1637 37.6637 14 46.5 14C55.3363 14 62.5 21.1637 62.5 30Z" fill="#1877F2"/>
<path d="M52.7281 34.625L53.4375 30H49V26.9987C49 25.7334 49.6199 24.5 51.6074 24.5H53.625V20.5625C53.625 20.5625 51.794 20.25 50.0434 20.25C46.3887 20.25 44 22.465 44 26.475V30H39.9375V34.625H44V45.8056C44.8146 45.9334 45.6495 46 46.5 46C47.3505 46 48.1854 45.9334 49 45.8056V34.625H52.7281Z" fill="white"/>
</g>
<path d="M72.4805 37V23H81.0005V24.38H74.1605V29.3H79.9805V30.66H74.1605V37H72.4805ZM85.68 37.24C84.8667 37.24 84.1867 37.1 83.64 36.82C83.0933 36.5267 82.6867 36.1467 82.42 35.68C82.1533 35.2 82.02 34.68 82.02 34.12C82.02 33.44 82.1933 32.8667 82.54 32.4C82.9 31.92 83.4 31.56 84.04 31.32C84.6933 31.0667 85.46 30.94 86.34 30.94H89C89 30.3133 88.9 29.7933 88.7 29.38C88.5133 28.9533 88.2333 28.6333 87.86 28.42C87.5 28.2067 87.0467 28.1 86.5 28.1C85.86 28.1 85.3067 28.26 84.84 28.58C84.3733 28.9 84.0867 29.3733 83.98 30H82.26C82.34 29.28 82.58 28.68 82.98 28.2C83.3933 27.7067 83.9133 27.3333 84.54 27.08C85.1667 26.8133 85.82 26.68 86.5 26.68C87.4333 26.68 88.2067 26.8533 88.82 27.2C89.4467 27.5333 89.9133 28.0067 90.22 28.62C90.5267 29.22 90.68 29.9333 90.68 30.76V37H89.18L89.08 35.22C88.9467 35.5 88.7733 35.7667 88.56 36.02C88.36 36.26 88.12 36.4733 87.84 36.66C87.5733 36.8333 87.26 36.9733 86.9 37.08C86.54 37.1867 86.1333 37.24 85.68 37.24ZM85.94 35.82C86.4067 35.82 86.8267 35.7267 87.2 35.54C87.5867 35.34 87.9133 35.0733 88.18 34.74C88.4467 34.3933 88.6467 34.0133 88.78 33.6C88.9267 33.1867 89 32.7533 89 32.3V32.24H86.48C85.8267 32.24 85.3 32.32 84.9 32.48C84.5 32.6267 84.2133 32.84 84.04 33.12C83.8667 33.3867 83.78 33.6933 83.78 34.04C83.78 34.4 83.86 34.7133 84.02 34.98C84.1933 35.2467 84.44 35.4533 84.76 35.6C85.0933 35.7467 85.4867 35.82 85.94 35.82ZM97.8189 37.24C96.8722 37.24 96.0189 37.02 95.2589 36.58C94.5122 36.14 93.9256 35.5267 93.4989 34.74C93.0722 33.94 92.8589 33.02 92.8589 31.98C92.8589 30.9133 93.0722 29.9867 93.4989 29.2C93.9256 28.4133 94.5122 27.8 95.2589 27.36C96.0189 26.9067 96.8722 26.68 97.8189 26.68C99.0189 26.68 100.019 26.9933 100.819 27.62C101.619 28.2333 102.126 29.06 102.339 30.1H100.619C100.486 29.4733 100.159 28.9867 99.6389 28.64C99.1189 28.2933 98.5056 28.12 97.7989 28.12C97.2256 28.12 96.6922 28.2667 96.1989 28.56C95.7189 28.84 95.3256 29.2667 95.0189 29.84C94.7256 30.4133 94.5789 31.12 94.5789 31.96C94.5789 32.5867 94.6656 33.1467 94.8389 33.64C95.0122 34.12 95.2456 34.52 95.5389 34.84C95.8322 35.16 96.1722 35.4067 96.5589 35.58C96.9589 35.74 97.3722 35.82 97.7989 35.82C98.2789 35.82 98.7122 35.7467 99.0989 35.6C99.4856 35.44 99.8122 35.2067 100.079 34.9C100.346 34.5933 100.526 34.2333 100.619 33.82H102.339C102.126 34.8333 101.612 35.66 100.799 36.3C99.9989 36.9267 99.0056 37.24 97.8189 37.24ZM109.144 37.24C108.211 37.24 107.378 37.02 106.644 36.58C105.911 36.14 105.338 35.5267 104.924 34.74C104.511 33.94 104.304 33.0133 104.304 31.96C104.304 30.8933 104.504 29.9667 104.904 29.18C105.318 28.3933 105.891 27.78 106.624 27.34C107.371 26.9 108.224 26.68 109.184 26.68C110.171 26.68 111.011 26.9 111.704 27.34C112.398 27.78 112.924 28.36 113.284 29.08C113.658 29.7867 113.844 30.5667 113.844 31.42C113.844 31.5533 113.844 31.6933 113.844 31.84C113.844 31.9867 113.838 32.1533 113.824 32.34H105.564V31.04H112.184C112.144 30.12 111.838 29.4 111.264 28.88C110.704 28.36 109.998 28.1 109.144 28.1C108.584 28.1 108.058 28.2333 107.564 28.5C107.071 28.7533 106.678 29.1333 106.384 29.64C106.091 30.1333 105.944 30.7533 105.944 31.5V32.06C105.944 32.8867 106.091 33.58 106.384 34.14C106.691 34.7 107.084 35.12 107.564 35.4C108.058 35.68 108.584 35.82 109.144 35.82C109.851 35.82 110.431 35.6667 110.884 35.36C111.351 35.04 111.691 34.6067 111.904 34.06H113.564C113.391 34.6733 113.104 35.22 112.704 35.7C112.304 36.1667 111.804 36.54 111.204 36.82C110.618 37.1 109.931 37.24 109.144 37.24ZM121.371 37.24C120.798 37.24 120.278 37.16 119.811 37C119.358 36.8267 118.958 36.6 118.611 36.32C118.265 36.04 117.978 35.7133 117.751 35.34L117.611 37H116.091V22.6H117.771V28.58C118.091 28.06 118.551 27.6133 119.151 27.24C119.751 26.8667 120.491 26.68 121.371 26.68C122.358 26.68 123.211 26.9133 123.931 27.38C124.665 27.8333 125.231 28.46 125.631 29.26C126.045 30.0467 126.251 30.9467 126.251 31.96C126.251 32.9733 126.045 33.88 125.631 34.68C125.231 35.48 124.665 36.1067 123.931 36.56C123.198 37.0133 122.345 37.24 121.371 37.24ZM121.171 35.78C121.838 35.78 122.425 35.62 122.931 35.3C123.438 34.98 123.831 34.54 124.111 33.98C124.405 33.4067 124.551 32.7333 124.551 31.96C124.551 31.2 124.405 30.5333 124.111 29.96C123.831 29.3867 123.438 28.94 122.931 28.62C122.425 28.3 121.838 28.14 121.171 28.14C120.505 28.14 119.918 28.3 119.411 28.62C118.905 28.94 118.511 29.3867 118.231 29.96C117.951 30.5333 117.811 31.2 117.811 31.96C117.811 32.7333 117.951 33.4067 118.231 33.98C118.511 34.54 118.905 34.98 119.411 35.3C119.918 35.62 120.505 35.78 121.171 35.78ZM133.13 37.24C132.197 37.24 131.357 37.0267 130.61 36.6C129.864 36.16 129.277 35.5467 128.85 34.76C128.424 33.96 128.21 33.0333 128.21 31.98C128.21 30.9 128.424 29.9667 128.85 29.18C129.29 28.38 129.884 27.7667 130.63 27.34C131.39 26.9 132.237 26.68 133.17 26.68C134.13 26.68 134.977 26.9 135.71 27.34C136.457 27.7667 137.044 28.38 137.47 29.18C137.91 29.9667 138.13 30.8933 138.13 31.96C138.13 33.0267 137.91 33.96 137.47 34.76C137.03 35.5467 136.437 36.16 135.69 36.6C134.944 37.0267 134.09 37.24 133.13 37.24ZM133.15 35.8C133.724 35.8 134.257 35.66 134.75 35.38C135.244 35.0867 135.644 34.6533 135.95 34.08C136.257 33.5067 136.41 32.8 136.41 31.96C136.41 31.1067 136.257 30.4 135.95 29.84C135.657 29.2667 135.264 28.84 134.77 28.56C134.29 28.2667 133.757 28.12 133.17 28.12C132.61 28.12 132.077 28.2667 131.57 28.56C131.077 28.84 130.677 29.2667 130.37 29.84C130.077 30.4 129.93 31.1067 129.93 31.96C129.93 32.8 130.077 33.5067 130.37 34.08C130.677 34.6533 131.07 35.0867 131.55 35.38C132.044 35.66 132.577 35.8 133.15 35.8ZM144.986 37.24C144.053 37.24 143.213 37.0267 142.466 36.6C141.719 36.16 141.133 35.5467 140.706 34.76C140.279 33.96 140.066 33.0333 140.066 31.98C140.066 30.9 140.279 29.9667 140.706 29.18C141.146 28.38 141.739 27.7667 142.486 27.34C143.246 26.9 144.093 26.68 145.026 26.68C145.986 26.68 146.833 26.9 147.566 27.34C148.313 27.7667 148.899 28.38 149.326 29.18C149.766 29.9667 149.986 30.8933 149.986 31.96C149.986 33.0267 149.766 33.96 149.326 34.76C148.886 35.5467 148.293 36.16 147.546 36.6C146.799 37.0267 145.946 37.24 144.986 37.24ZM145.006 35.8C145.579 35.8 146.113 35.66 146.606 35.38C147.099 35.0867 147.499 34.6533 147.806 34.08C148.113 33.5067 148.266 32.8 148.266 31.96C148.266 31.1067 148.113 30.4 147.806 29.84C147.513 29.2667 147.119 28.84 146.626 28.56C146.146 28.2667 145.613 28.12 145.026 28.12C144.466 28.12 143.933 28.2667 143.426 28.56C142.933 28.84 142.533 29.2667 142.226 29.84C141.933 30.4 141.786 31.1067 141.786 31.96C141.786 32.8 141.933 33.5067 142.226 34.08C142.533 34.6533 142.926 35.0867 143.406 35.38C143.899 35.66 144.433 35.8 145.006 35.8ZM158.541 37L153.741 31.48L158.121 26.92H160.181L155.161 32.08L155.181 30.88L160.681 37H158.541ZM152.341 37V22.6H154.021V37H152.341Z" fill="#020617" fill-opacity="0.8"/>
<defs>
<clipPath id="clip0_334_233">
<rect width="32" height="32" fill="white" transform="translate(30.5 14)"/>
</clipPath>
</defs>
</svg>
