<svg width="192" height="60" viewBox="0 0 192 60" fill="none" xmlns="http://www.w3.org/2000/svg">
<rect width="192" height="60" rx="30" fill="white"/>
<path d="M72.0743 27.389H71.0003V27.3337H59.0003V32.667H66.5357C65.4363 35.7717 62.4823 38.0003 59.0003 38.0003C54.5823 38.0003 51.0003 34.4183 51.0003 30.0003C51.0003 25.5823 54.5823 22.0003 59.0003 22.0003C61.0397 22.0003 62.895 22.7697 64.3077 24.0263L68.079 20.255C65.6977 18.0357 62.5123 16.667 59.0003 16.667C51.637 16.667 45.667 22.637 45.667 30.0003C45.667 37.3637 51.637 43.3337 59.0003 43.3337C66.3637 43.3337 72.3337 37.3637 72.3337 30.0003C72.3337 29.1063 72.2417 28.2337 72.0743 27.389Z" fill="#FFC107"/>
<path d="M47.204 23.7938L51.5847 27.0065C52.77 24.0718 55.6407 21.9998 59 21.9998C61.0393 21.9998 62.8947 22.7692 64.3073 24.0258L68.0787 20.2545C65.6973 18.0352 62.512 16.6665 59 16.6665C53.8787 16.6665 49.4373 19.5578 47.204 23.7938Z" fill="#FF3D00"/>
<path d="M59 43.3333C62.444 43.3333 65.5733 42.0153 67.9393 39.872L63.8127 36.38C62.4293 37.4327 60.7384 38.0018 59 38C55.532 38 52.5873 35.7886 51.478 32.7026L47.13 36.0526C49.3367 40.3706 53.818 43.3333 59 43.3333Z" fill="#4CAF50"/>
<path d="M72.074 27.3888H71V27.3335H59V32.6668H66.5353C66.0095 34.1444 65.0622 35.4356 63.8107 36.3808L63.8127 36.3795L67.9393 39.8715C67.6473 40.1368 72.3333 36.6668 72.3333 30.0002C72.3333 29.1062 72.2413 28.2335 72.074 27.3888Z" fill="#1976D2"/>
<path d="M90.8149 37.24C89.5083 37.24 88.3616 36.94 87.3749 36.34C86.3883 35.7267 85.6216 34.88 85.0749 33.8C84.5283 32.72 84.2549 31.46 84.2549 30.02C84.2549 28.5933 84.5283 27.3333 85.0749 26.24C85.6349 25.1467 86.4216 24.2933 87.4349 23.68C88.4616 23.0667 89.6683 22.76 91.0549 22.76C92.6283 22.76 93.9416 23.14 94.9949 23.9C96.0483 24.6467 96.7216 25.6933 97.0149 27.04H95.0749C94.8883 26.2 94.4483 25.5333 93.7549 25.04C93.0616 24.5467 92.1616 24.3 91.0549 24.3C90.0283 24.3 89.1283 24.5333 88.3549 25C87.5949 25.4533 87.0083 26.1067 86.5949 26.96C86.1816 27.8133 85.9749 28.8333 85.9749 30.02C85.9749 31.2067 86.1816 32.2333 86.5949 33.1C87.0083 33.9533 87.5816 34.6067 88.3149 35.06C89.0616 35.5133 89.9149 35.74 90.8749 35.74C92.3683 35.74 93.4949 35.3 94.2549 34.42C95.0149 33.54 95.4483 32.3467 95.5549 30.84H91.5149V29.52H97.2749V37H95.7349L95.5949 34.7C95.2616 35.2467 94.8749 35.7133 94.4349 36.1C94.0083 36.4733 93.5016 36.76 92.9149 36.96C92.3283 37.1467 91.6283 37.24 90.8149 37.24ZM104.351 37.24C103.418 37.24 102.578 37.0267 101.831 36.6C101.085 36.16 100.498 35.5467 100.071 34.76C99.6445 33.96 99.4312 33.0333 99.4312 31.98C99.4312 30.9 99.6445 29.9667 100.071 29.18C100.511 28.38 101.105 27.7667 101.851 27.34C102.611 26.9 103.458 26.68 104.391 26.68C105.351 26.68 106.198 26.9 106.931 27.34C107.678 27.7667 108.265 28.38 108.691 29.18C109.131 29.9667 109.351 30.8933 109.351 31.96C109.351 33.0267 109.131 33.96 108.691 34.76C108.251 35.5467 107.658 36.16 106.911 36.6C106.165 37.0267 105.311 37.24 104.351 37.24ZM104.371 35.8C104.945 35.8 105.478 35.66 105.971 35.38C106.465 35.0867 106.865 34.6533 107.171 34.08C107.478 33.5067 107.631 32.8 107.631 31.96C107.631 31.1067 107.478 30.4 107.171 29.84C106.878 29.2667 106.485 28.84 105.991 28.56C105.511 28.2667 104.978 28.12 104.391 28.12C103.831 28.12 103.298 28.2667 102.791 28.56C102.298 28.84 101.898 29.2667 101.591 29.84C101.298 30.4 101.151 31.1067 101.151 31.96C101.151 32.8 101.298 33.5067 101.591 34.08C101.898 34.6533 102.291 35.0867 102.771 35.38C103.265 35.66 103.798 35.8 104.371 35.8ZM116.207 37.24C115.273 37.24 114.433 37.0267 113.687 36.6C112.94 36.16 112.353 35.5467 111.927 34.76C111.5 33.96 111.287 33.0333 111.287 31.98C111.287 30.9 111.5 29.9667 111.927 29.18C112.367 28.38 112.96 27.7667 113.707 27.34C114.467 26.9 115.313 26.68 116.247 26.68C117.207 26.68 118.053 26.9 118.787 27.34C119.533 27.7667 120.12 28.38 120.547 29.18C120.987 29.9667 121.207 30.8933 121.207 31.96C121.207 33.0267 120.987 33.96 120.547 34.76C120.107 35.5467 119.513 36.16 118.767 36.6C118.02 37.0267 117.167 37.24 116.207 37.24ZM116.227 35.8C116.8 35.8 117.333 35.66 117.827 35.38C118.32 35.0867 118.72 34.6533 119.027 34.08C119.333 33.5067 119.487 32.8 119.487 31.96C119.487 31.1067 119.333 30.4 119.027 29.84C118.733 29.2667 118.34 28.84 117.847 28.56C117.367 28.2667 116.833 28.12 116.247 28.12C115.687 28.12 115.153 28.2667 114.647 28.56C114.153 28.84 113.753 29.2667 113.447 29.84C113.153 30.4 113.007 31.1067 113.007 31.96C113.007 32.8 113.153 33.5067 113.447 34.08C113.753 34.6533 114.147 35.0867 114.627 35.38C115.12 35.66 115.653 35.8 116.227 35.8ZM127.112 41.64C126.206 41.64 125.399 41.52 124.692 41.28C123.999 41.0533 123.459 40.7 123.072 40.22C122.686 39.74 122.492 39.1467 122.492 38.44C122.492 38.1333 122.552 37.8067 122.672 37.46C122.806 37.1133 123.026 36.7733 123.332 36.44C123.652 36.1067 124.099 35.8067 124.672 35.54L125.832 36.22C125.126 36.5133 124.666 36.8467 124.452 37.22C124.239 37.6067 124.132 37.96 124.132 38.28C124.132 38.72 124.259 39.0867 124.512 39.38C124.766 39.6733 125.119 39.8933 125.572 40.04C126.026 40.1867 126.539 40.26 127.112 40.26C127.686 40.26 128.179 40.1733 128.592 40C129.006 39.84 129.326 39.6133 129.552 39.32C129.779 39.04 129.892 38.7 129.892 38.3C129.892 37.8333 129.719 37.44 129.372 37.12C129.026 36.8133 128.366 36.6333 127.392 36.58C126.606 36.5267 125.946 36.4533 125.412 36.36C124.879 36.2667 124.439 36.16 124.092 36.04C123.746 35.9067 123.452 35.76 123.212 35.6C122.986 35.44 122.779 35.2733 122.592 35.1V34.64L124.532 32.72L125.992 33.24L123.992 35.04L124.252 34.34C124.399 34.4467 124.539 34.5467 124.672 34.64C124.806 34.7333 124.986 34.8133 125.212 34.88C125.439 34.9467 125.752 35.0067 126.152 35.06C126.566 35.1133 127.106 35.1667 127.772 35.22C128.692 35.2867 129.426 35.4467 129.972 35.7C130.532 35.9533 130.932 36.2933 131.172 36.72C131.426 37.1467 131.552 37.6533 131.552 38.24C131.552 38.8133 131.392 39.3533 131.072 39.86C130.766 40.38 130.286 40.8067 129.632 41.14C128.979 41.4733 128.139 41.64 127.112 41.64ZM127.092 33.84C126.252 33.84 125.532 33.68 124.932 33.36C124.346 33.04 123.899 32.6133 123.592 32.08C123.286 31.5333 123.132 30.9267 123.132 30.26C123.132 29.5933 123.286 28.9933 123.592 28.46C123.912 27.9267 124.366 27.5 124.952 27.18C125.539 26.8467 126.252 26.68 127.092 26.68C127.932 26.68 128.646 26.8467 129.232 27.18C129.819 27.5 130.266 27.9267 130.572 28.46C130.879 28.9933 131.032 29.5933 131.032 30.26C131.032 30.9267 130.879 31.5333 130.572 32.08C130.266 32.6133 129.819 33.04 129.232 33.36C128.646 33.68 127.932 33.84 127.092 33.84ZM127.092 32.46C127.812 32.46 128.379 32.2733 128.792 31.9C129.206 31.5267 129.412 30.98 129.412 30.26C129.412 29.5533 129.206 29.0133 128.792 28.64C128.379 28.2667 127.812 28.08 127.092 28.08C126.386 28.08 125.812 28.2667 125.372 28.64C124.946 29.0133 124.732 29.5533 124.732 30.26C124.732 30.98 124.946 31.5267 125.372 31.9C125.799 32.2733 126.372 32.46 127.092 32.46ZM128.732 28.34L128.232 26.92H132.352V28.18L128.732 28.34ZM134.285 37V22.6H135.965V37H134.285ZM143.158 37.24C142.225 37.24 141.391 37.02 140.658 36.58C139.925 36.14 139.351 35.5267 138.938 34.74C138.525 33.94 138.318 33.0133 138.318 31.96C138.318 30.8933 138.518 29.9667 138.918 29.18C139.331 28.3933 139.905 27.78 140.638 27.34C141.385 26.9 142.238 26.68 143.198 26.68C144.185 26.68 145.025 26.9 145.718 27.34C146.411 27.78 146.938 28.36 147.298 29.08C147.671 29.7867 147.858 30.5667 147.858 31.42C147.858 31.5533 147.858 31.6933 147.858 31.84C147.858 31.9867 147.851 32.1533 147.838 32.34H139.578V31.04H146.198C146.158 30.12 145.851 29.4 145.278 28.88C144.718 28.36 144.011 28.1 143.158 28.1C142.598 28.1 142.071 28.2333 141.578 28.5C141.085 28.7533 140.691 29.1333 140.398 29.64C140.105 30.1333 139.958 30.7533 139.958 31.5V32.06C139.958 32.8867 140.105 33.58 140.398 34.14C140.705 34.7 141.098 35.12 141.578 35.4C142.071 35.68 142.598 35.82 143.158 35.82C143.865 35.82 144.445 35.6667 144.898 35.36C145.365 35.04 145.705 34.6067 145.918 34.06H147.578C147.405 34.6733 147.118 35.22 146.718 35.7C146.318 36.1667 145.818 36.54 145.218 36.82C144.631 37.1 143.945 37.24 143.158 37.24Z" fill="#020617" fill-opacity="0.8"/>
</svg>
