<svg width="467" height="350" viewBox="0 0 467 350" fill="none" xmlns="http://www.w3.org/2000/svg">
<path d="M269.834 292.893H194.742L171.98 269.623L168.716 217.595H238.095V266.278L269.834 292.893Z" fill="#A414D5" stroke="#221B38" stroke-width="0.583333"/>
<path d="M379.286 243.862H89.7651C81.0133 243.862 72.5153 236.767 70.7852 228.016L39.7908 71.2633C38.0603 62.511 43.7523 55.4165 52.5041 55.4165H342.025C350.777 55.4165 359.274 62.511 361.005 71.2633L391.999 228.016C393.73 236.767 388.038 243.862 379.286 243.862Z" fill="#C4B6FF" stroke="#221B38" stroke-width="0.583333"/>
<path d="M342.676 287.644H105.12V294.116H342.676V287.644Z" fill="#C4B6FF" stroke="#221B38" stroke-width="0.583333"/>
<path d="M125.759 114.16H5.83301V121.563H125.759V114.16Z" stroke="#221B38" stroke-width="0.583333"/>
<path d="M129.908 130.428H9.98193V137.83H129.908V130.428Z" stroke="#221B38" stroke-width="0.583333"/>
<path d="M173.506 146.688H12.75V154.09H173.506V146.688Z" stroke="#221B38" stroke-width="0.583333"/>
<path d="M12.7505 73.4087H392.354" stroke="#221B38" stroke-width="0.583333" stroke-miterlimit="10"/>
<path d="M456.854 152.302L460.486 169.725C462.322 178.53 456.698 185.667 447.927 185.667H237.426C228.654 185.667 220.054 178.53 218.219 169.725L214.587 152.302C212.752 143.497 218.375 136.36 227.147 136.36H437.648C446.419 136.36 455.019 143.497 456.854 152.302Z" fill="#A414D5" stroke="#221B38" stroke-width="0.583333"/>
<path d="M246.373 168.269C241.011 168.269 235.755 163.907 234.634 158.526C233.512 153.144 236.949 148.782 242.31 148.782C247.672 148.782 252.928 153.144 254.049 158.526C255.171 163.907 251.734 168.269 246.373 168.269Z" fill="#C4B6FF" stroke="#221B38" stroke-width="0.583333"/>
<path d="M269.19 151.273H434.794" stroke="#221B38" stroke-width="0.583333" stroke-miterlimit="10" stroke-linecap="round"/>
<path d="M272.216 165.79H437.819" stroke="#221B38" stroke-width="0.583333" stroke-miterlimit="10" stroke-linecap="round"/>
<path d="M143.706 202.333H309.309" stroke="#221B38" stroke-width="0.583333" stroke-miterlimit="10" stroke-linecap="round"/>
<path d="M146.731 216.848H312.335" stroke="#221B38" stroke-width="0.583333" stroke-miterlimit="10" stroke-linecap="round"/>
<path d="M354.743 114.16H269.841" stroke="#221B38" stroke-width="0.583333" stroke-miterlimit="10"/>
<path d="M348.061 103.976H319.106" stroke="#221B38" stroke-width="0.583333" stroke-miterlimit="10"/>
<path d="M341.054 93.7778H217.748" stroke="#221B38" stroke-width="0.583333" stroke-miterlimit="10"/>
<path d="M62.7844 69.0034C64.3623 69.0034 65.6416 67.7241 65.6416 66.1462C65.6416 64.5683 64.3623 63.2891 62.7844 63.2891C61.2065 63.2891 59.9272 64.5683 59.9272 66.1462C59.9272 67.7241 61.2065 69.0034 62.7844 69.0034Z" stroke="#221B38" stroke-width="0.583333"/>
<path d="M74.7995 69.0034C76.3775 69.0034 77.6567 67.7241 77.6567 66.1462C77.6567 64.5683 76.3775 63.2891 74.7995 63.2891C73.2216 63.2891 71.9424 64.5683 71.9424 66.1462C71.9424 67.7241 73.2216 69.0034 74.7995 69.0034Z" fill="#A414D5" stroke="#221B38" stroke-width="0.583333"/>
<path d="M86.8132 69.0034C88.3911 69.0034 89.6704 67.7241 89.6704 66.1462C89.6704 64.5683 88.3911 63.2891 86.8132 63.2891C85.2353 63.2891 83.9561 64.5683 83.9561 66.1462C83.9561 67.7241 85.2353 69.0034 86.8132 69.0034Z" fill="#A414D5" stroke="#221B38" stroke-width="0.583333"/>
<path d="M5.83301 121.564H125.759" stroke="#221B38" stroke-width="0.583333" stroke-miterlimit="10" stroke-linecap="round"/>
<path d="M9.98047 137.834H129.907" stroke="#221B38" stroke-width="0.583333" stroke-miterlimit="10" stroke-linecap="round"/>
<path d="M12.75 154.099H173.507" stroke="#221B38" stroke-width="0.583333" stroke-miterlimit="10" stroke-linecap="round"/>
</svg>
