<svg width="467" height="350" viewBox="0 0 467 350" fill="none" xmlns="http://www.w3.org/2000/svg">
<path fill-rule="evenodd" clip-rule="evenodd" d="M142.106 66.8592C140.239 66.8592 138.784 68.3143 138.784 70.1811V155.228C138.784 157.094 140.239 158.55 142.106 158.55H227.153C228.998 158.55 230.475 156.95 230.475 155.228V70.1811C230.475 68.3143 229.02 66.8592 227.153 66.8592H142.106ZM137.123 70.1811C137.123 67.3974 139.322 65.1982 142.106 65.1982H227.153C229.937 65.1982 232.136 67.3974 232.136 70.1811V155.228C232.136 157.824 229.958 160.211 227.153 160.211H142.106C139.322 160.211 137.123 158.012 137.123 155.228V70.1811ZM145.429 73.5036H223.665V151.74H145.429V73.5036ZM147.09 75.1646V150.079H222.004V75.1646H147.09Z" stroke="#221B38" stroke-width="0.610869"/>
<path opacity="0.6" fill-rule="evenodd" clip-rule="evenodd" d="M185.125 298.412C201.933 298.412 212.2 286.5 212.2 275.655H250.404C250.404 310.987 219.477 336.616 185.125 336.616V298.412Z" fill="#C4B6FF"/>
<path d="M55.8967 209.046V144.929C55.8967 139.945 59.8833 135.792 65.0323 135.792H118.186V218.016H65.0323C60.0494 218.182 55.8967 214.029 55.8967 209.046Z" fill="#C4B6FF"/>
<path opacity="0.6588" d="M140.613 193.68C142.274 145.675 197.421 137.038 197.421 137.038C197.421 137.038 198.75 195.009 198.916 194.677C198.916 194.677 139.948 193.514 140.613 193.68Z" fill="#A414D5"/>
<path d="M118.185 218.182C140.936 218.182 159.379 199.738 159.379 176.987C159.379 154.236 140.936 135.792 118.185 135.792C95.4341 135.792 76.9907 154.236 76.9907 176.987C76.9907 199.738 95.4341 218.182 118.185 218.182Z" fill="#C4B6FF"/>
<path opacity="0.6" d="M346.085 223.83C343.925 285.622 273.164 296.585 273.164 296.585C273.164 296.585 271.503 222.003 271.171 222.668C271.171 222.668 346.916 223.997 346.085 223.83Z" fill="#C4B6FF"/>
<path d="M232.134 46.7603L188.947 114.033H275.488L232.134 46.7603Z" fill="#C4B6FF"/>
<path fill-rule="evenodd" clip-rule="evenodd" d="M156.058 233.796H163.2V235.457H157.719V240.938H156.058V233.796ZM188.449 235.457H175.825V233.796H188.449V235.457ZM207.385 235.457H201.073V233.796H207.385C209.656 233.796 211.894 233.943 214.088 234.229L213.874 235.876C211.75 235.6 209.585 235.457 207.385 235.457ZM237.626 245.711C234.208 243.085 230.438 240.894 226.399 239.221L227.035 237.687C231.21 239.416 235.106 241.68 238.638 244.394L237.626 245.711ZM157.719 253.562V266.187H156.058V253.562H157.719ZM253.287 266.108C251.613 262.069 249.423 258.3 246.797 254.881L248.114 253.87C250.827 257.402 253.092 261.298 254.821 265.473L253.287 266.108ZM257.051 285.123C257.051 282.923 256.908 280.757 256.632 278.634L258.279 278.419C258.564 280.614 258.712 282.851 258.712 285.123C258.712 287.394 258.564 289.632 258.279 291.826L256.632 291.612C256.908 289.488 257.051 287.323 257.051 285.123ZM157.719 278.811V285.123C157.719 287.319 157.863 289.482 158.142 291.603L156.495 291.819C156.207 289.627 156.058 287.392 156.058 285.123V278.811H157.719ZM161.509 304.106C163.189 308.132 165.387 311.892 168.021 315.305L166.706 316.319C163.985 312.794 161.713 308.907 159.976 304.746L161.509 304.106ZM246.797 315.364C249.423 311.946 251.613 308.176 253.287 304.138L254.821 304.773C253.092 308.947 250.827 312.844 248.114 316.376L246.797 315.364ZM177.195 324.453C180.61 327.074 184.375 329.266 188.407 330.947L187.768 332.481C183.601 330.743 179.712 328.479 176.184 325.771L177.195 324.453ZM226.399 331.024C230.438 329.351 234.208 327.161 237.626 324.534L238.638 325.851C235.106 328.565 231.21 330.829 227.035 332.559L226.399 331.024ZM200.91 334.335C203.03 334.621 205.192 334.775 207.388 334.789C209.587 334.789 211.752 334.646 213.874 334.369L214.088 336.016C211.894 336.302 209.656 336.449 207.385 336.449H207.38C205.112 336.436 202.878 336.277 200.687 335.98L200.91 334.335Z" stroke="#221B38" stroke-width="0.610869"/>
<path d="M348.575 183.3L382.793 207.717C394.587 216.023 410.865 207.717 410.865 193.266V144.431C410.865 129.979 394.587 121.674 382.793 129.979L348.575 154.397C338.775 161.54 338.775 176.323 348.575 183.3Z" fill="#C4B6FF"/>
<path opacity="0.6588" d="M137.62 272.996V222.5H188.116C216.022 222.5 238.612 245.09 238.612 272.996C238.612 300.902 216.022 323.492 188.116 323.492C160.21 323.492 137.62 300.902 137.62 272.996Z" fill="#A414D5"/>
<path opacity="0.8" fill-rule="evenodd" clip-rule="evenodd" d="M313.859 15.2001C290.896 15.2001 272.167 33.9305 272.167 56.8928C272.167 79.8486 290.891 98.4209 313.862 98.5852C336.823 98.584 355.551 79.8541 355.551 56.8928V15.2001H313.859ZM270.505 56.8928C270.505 33.0132 289.98 13.5391 313.859 13.5391H357.212V56.8928C357.212 80.7723 337.739 100.247 313.859 100.247H313.853C289.983 100.077 270.505 80.7778 270.505 56.8928Z" stroke="#221B38" stroke-width="0.610869"/>
<path opacity="0.8196" d="M276.318 60.7143C276.318 37.2932 295.42 18.1909 318.841 18.1909H361.364V60.7143C361.364 84.1351 342.262 103.238 318.841 103.238C295.254 103.238 276.318 84.3012 276.318 60.7143Z" fill="#A414D5"/>
<path opacity="0.8196" d="M244.667 186.623V148.917C244.667 141.276 250.299 135.13 257.3 135.13H372.82C379.821 135.13 385.452 141.276 385.452 148.917V186.623C385.452 194.264 379.821 200.41 372.82 200.41H257.3C250.299 200.41 244.667 194.264 244.667 186.623Z" fill="#A414D5"/>
<path fill-rule="evenodd" clip-rule="evenodd" d="M250.075 174.496C250.075 174.038 250.447 173.666 250.905 173.666H258.211C258.669 173.666 259.041 174.038 259.041 174.496C259.041 174.955 258.669 175.327 258.211 175.327H250.905C250.447 175.327 250.075 174.955 250.075 174.496Z" stroke="#221B38" stroke-width="0.610869"/>
<path fill-rule="evenodd" clip-rule="evenodd" d="M250.075 170.51C250.075 170.051 250.447 169.679 250.905 169.679H269.321C269.78 169.679 270.152 170.051 270.152 170.51C270.152 170.968 269.78 171.34 269.321 171.34H250.905C250.447 171.34 250.075 170.968 250.075 170.51Z" stroke="#221B38" stroke-width="0.610869"/>
<path fill-rule="evenodd" clip-rule="evenodd" d="M250.075 166.358C250.075 165.899 250.447 165.527 250.905 165.527H280.28C280.738 165.527 281.11 165.899 281.11 166.358C281.11 166.816 280.738 167.188 280.28 167.188H250.905C250.447 167.188 250.075 166.816 250.075 166.358Z" stroke="#221B38" stroke-width="0.610869"/>
<path fill-rule="evenodd" clip-rule="evenodd" d="M250.075 162.37C250.075 161.911 250.447 161.54 250.905 161.54H291.238C291.697 161.54 292.069 161.911 292.069 162.37C292.069 162.829 291.697 163.201 291.238 163.201H250.905C250.447 163.201 250.075 162.829 250.075 162.37Z" stroke="#221B38" stroke-width="0.610869"/>
<path fill-rule="evenodd" clip-rule="evenodd" d="M250.075 158.385C250.075 157.926 250.447 157.554 250.905 157.554H302.348C302.807 157.554 303.179 157.926 303.179 158.385C303.179 158.843 302.807 159.215 302.348 159.215H250.905C250.447 159.215 250.075 158.843 250.075 158.385Z" stroke="#221B38" stroke-width="0.610869"/>
<path fill-rule="evenodd" clip-rule="evenodd" d="M250.075 154.399C250.075 153.94 250.447 153.568 250.905 153.568H313.307C313.766 153.568 314.138 153.94 314.138 154.399C314.138 154.857 313.766 155.229 313.307 155.229H250.905C250.447 155.229 250.075 154.857 250.075 154.399Z" stroke="#221B38" stroke-width="0.610869"/>
<path fill-rule="evenodd" clip-rule="evenodd" d="M250.075 150.411C250.075 149.952 250.447 149.581 250.905 149.581H324.417C324.876 149.581 325.248 149.952 325.248 150.411C325.248 150.87 324.876 151.242 324.417 151.242H250.905C250.447 151.242 250.075 150.87 250.075 150.411Z" stroke="#221B38" stroke-width="0.610869"/>
<path fill-rule="evenodd" clip-rule="evenodd" d="M250.075 146.259C250.075 145.8 250.447 145.429 250.905 145.429H335.376C335.835 145.429 336.207 145.8 336.207 146.259C336.207 146.718 335.835 147.09 335.376 147.09H250.905C250.447 147.09 250.075 146.718 250.075 146.259Z" stroke="#221B38" stroke-width="0.610869"/>
<path fill-rule="evenodd" clip-rule="evenodd" d="M250.075 142.27C250.075 141.811 250.447 141.439 250.905 141.439H346.486C346.945 141.439 347.317 141.811 347.317 142.27C347.317 142.729 346.945 143.101 346.486 143.101H250.905C250.447 143.101 250.075 142.729 250.075 142.27Z" stroke="#221B38" stroke-width="0.610869"/>
<path opacity="0.77" d="M229.477 215.856C230.394 215.856 231.138 215.112 231.138 214.195C231.138 213.278 230.394 212.534 229.477 212.534C228.56 212.534 227.816 213.278 227.816 214.195C227.816 215.112 228.56 215.856 229.477 215.856Z" stroke="#221B38" stroke-width="0.610869"/>
<path opacity="0.77" d="M223.829 215.856C224.746 215.856 225.49 215.112 225.49 214.195C225.49 213.278 224.746 212.534 223.829 212.534C222.912 212.534 222.168 213.278 222.168 214.195C222.168 215.112 222.912 215.856 223.829 215.856Z" stroke="#221B38" stroke-width="0.610869"/>
<path opacity="0.77" d="M217.851 198.084C218.769 198.084 219.513 197.34 219.513 196.423C219.513 195.505 218.769 194.762 217.851 194.762C216.934 194.762 216.19 195.505 216.19 196.423C216.19 197.34 216.934 198.084 217.851 198.084Z" stroke="#221B38" stroke-width="0.610869"/>
<path opacity="0.77" d="M212.201 198.084C213.118 198.084 213.862 197.34 213.862 196.423C213.862 195.505 213.118 194.762 212.201 194.762C211.284 194.762 210.54 195.505 210.54 196.423C210.54 197.34 211.284 198.084 212.201 198.084Z" stroke="#221B38" stroke-width="0.610869"/>
<path opacity="0.77" d="M206.388 198.084C207.306 198.084 208.049 197.34 208.049 196.423C208.049 195.505 207.306 194.762 206.388 194.762C205.471 194.762 204.727 195.505 204.727 196.423C204.727 197.34 205.471 198.084 206.388 198.084Z" stroke="#221B38" stroke-width="0.610869"/>
<path opacity="0.77" d="M217.851 209.877C218.769 209.877 219.513 209.133 219.513 208.215C219.513 207.298 218.769 206.554 217.851 206.554C216.934 206.554 216.19 207.298 216.19 208.215C216.19 209.133 216.934 209.877 217.851 209.877Z" stroke="#221B38" stroke-width="0.610869"/>
<path opacity="0.77" d="M206.388 209.877C207.306 209.877 208.049 209.133 208.049 208.215C208.049 207.298 207.306 206.554 206.388 206.554C205.471 206.554 204.727 207.298 204.727 208.215C204.727 209.133 205.471 209.877 206.388 209.877Z" stroke="#221B38" stroke-width="0.610869"/>
<path opacity="0.77" d="M200.575 209.877C201.493 209.877 202.236 209.133 202.236 208.215C202.236 207.298 201.493 206.554 200.575 206.554C199.658 206.554 198.914 207.298 198.914 208.215C198.914 209.133 199.658 209.877 200.575 209.877Z" stroke="#221B38" stroke-width="0.610869"/>
<path opacity="0.77" d="M194.927 209.877C195.845 209.877 196.588 209.133 196.588 208.215C196.588 207.298 195.845 206.554 194.927 206.554C194.01 206.554 193.266 207.298 193.266 208.215C193.266 209.133 194.01 209.877 194.927 209.877Z" stroke="#221B38" stroke-width="0.610869"/>
<path opacity="0.77" d="M217.851 215.856C218.769 215.856 219.513 215.112 219.513 214.195C219.513 213.278 218.769 212.534 217.851 212.534C216.934 212.534 216.19 213.278 216.19 214.195C216.19 215.112 216.934 215.856 217.851 215.856Z" stroke="#221B38" stroke-width="0.610869"/>
<path opacity="0.77" d="M212.201 204.229C213.118 204.229 213.862 203.486 213.862 202.568C213.862 201.651 213.118 200.907 212.201 200.907C211.284 200.907 210.54 201.651 210.54 202.568C210.54 203.486 211.284 204.229 212.201 204.229Z" stroke="#221B38" stroke-width="0.610869"/>
<path opacity="0.77" d="M200.243 204.229C201.161 204.229 201.904 203.486 201.904 202.568C201.904 201.651 201.161 200.907 200.243 200.907C199.326 200.907 198.583 201.651 198.583 202.568C198.583 203.486 199.326 204.229 200.243 204.229Z" stroke="#221B38" stroke-width="0.610869"/>
<path opacity="0.77" d="M194.595 204.229C195.513 204.229 196.256 203.486 196.256 202.568C196.256 201.651 195.513 200.907 194.595 200.907C193.678 200.907 192.934 201.651 192.934 202.568C192.934 203.486 193.678 204.229 194.595 204.229Z" stroke="#221B38" stroke-width="0.610869"/>
<path opacity="0.77" d="M188.781 204.229C189.697 204.229 190.442 203.486 190.442 202.568C190.442 201.651 189.697 200.907 188.781 200.907C187.863 200.907 187.119 201.651 187.119 202.568C187.119 203.486 187.863 204.229 188.781 204.229Z" stroke="#221B38" stroke-width="0.610869"/>
</svg>
