<svg width="650" height="488" viewBox="0 0 650 488" fill="none" xmlns="http://www.w3.org/2000/svg">
<path d="M28.6455 128.811C28.6455 116.903 38.2988 107.25 50.2067 107.25H599.791C611.699 107.25 621.352 116.903 621.352 128.811V338.434C621.352 350.342 611.699 359.994 599.791 359.994H50.2068C38.2988 359.994 28.6455 350.342 28.6455 338.434V128.811Z" stroke="#221B38" stroke-width="0.8125"/>
<path d="M639.803 375.667C640.947 375.667 641.875 376.594 641.875 377.739C641.875 378.883 640.947 379.811 639.803 379.811H137.488C136.344 379.811 135.416 378.883 135.416 377.739C135.416 376.594 136.344 375.667 137.488 375.667H639.803Z" fill="#B5CDFB"/>
<path d="M99.3096 375.667C100.454 375.667 101.382 376.594 101.382 377.739C101.382 378.883 100.454 379.811 99.3096 379.811H10.1971C9.05274 379.811 8.125 378.883 8.125 377.739C8.125 376.594 9.05274 375.667 10.1971 375.667H99.3096Z" fill="#B5CDFB"/>
<path d="M144.484 274.893C146.946 252.804 145.845 230.586 141.375 208.886C136.646 186.021 130.678 171.381 118.565 150.781C115.521 145.599 118.565 138.927 124.525 137.891C124.589 137.891 124.654 137.891 124.719 137.826C128.346 137.179 131.909 138.927 133.723 142.102C146.16 164.449 151.869 181.292 155.561 206.424C158.735 228.06 158.605 250.343 155.043 272.367C154.071 278.456 143.836 280.659 144.484 274.893Z" fill="#C4B6FF"/>
<path d="M211.454 295.037H140.912C139.228 295.037 137.933 293.677 137.933 292.057V277.482C137.933 273.208 141.43 269.71 145.705 269.71H199.276C207.632 269.71 214.434 276.511 214.434 284.867V292.057C214.498 293.677 213.138 295.037 211.454 295.037Z" fill="#C4B6FF"/>
<path d="M200.542 311.827L130.455 301.657C128.641 301.657 127.151 300.297 127.151 298.677V284.102C127.151 279.828 130.973 276.33 135.702 276.33H198.34C207.603 276.33 215.052 283.131 215.052 291.488V298.677C214.988 300.297 202.357 311.827 200.542 311.827Z" fill="#C4B6FF"/>
<path d="M141.711 168.429C141.711 168.429 146.23 206.886 147.114 230.854C147.957 253.766 150.331 289.478 150.331 289.478L121.709 291.811L119.118 197.173L109.336 176.638L127.733 167.117L141.711 168.429Z" fill="#C4B6FF"/>
<path d="M92.1689 146.908C92.1689 146.908 120.36 126.105 132.234 137.004C140.021 144.15 143.004 159.559 146.617 169.146L116.136 177.806L94.436 151.507L92.1689 146.908Z" fill="#A414D5"/>
<path d="M116.98 291.681C119.442 269.592 118.34 247.374 113.871 225.674C109.142 202.809 100.657 180.59 88.5434 159.992C85.4992 154.809 88.5434 148.137 94.5032 147.101C94.5675 147.101 94.6328 147.101 94.6972 147.036C98.3245 146.388 101.887 148.137 103.701 151.311C116.138 173.659 124.365 198.079 128.057 223.213C131.231 244.848 131.101 267.131 127.539 289.154C126.567 295.244 116.332 297.446 116.98 291.681Z" fill="#A414D5"/>
<path d="M116.137 177.804L101.239 185.124C97.6103 176.509 93.3999 168.089 88.6073 159.926C85.5622 154.745 88.6073 148.072 94.5661 147.036C94.6314 147.036 94.6958 147.036 94.7611 147.036C98.3231 146.388 101.95 148.137 103.764 151.311C108.493 159.862 112.639 168.671 116.137 177.804Z" fill="#A414D5"/>
<path opacity="0.2" d="M116.137 177.804L101.239 185.124C97.6103 176.509 93.3999 168.089 88.6073 159.926C85.5622 154.745 88.6073 148.072 94.5661 147.036C94.6314 147.036 94.6958 147.036 94.7611 147.036C98.3231 146.388 101.95 148.137 103.764 151.311C108.493 159.862 112.639 168.671 116.137 177.804Z" fill="#C4B6FF"/>
<path d="M200.798 311.831H118.921C117.236 311.831 115.941 310.471 115.941 308.851V294.276C115.941 290.002 119.439 286.503 123.715 286.503H188.62C196.976 286.503 203.777 293.305 203.777 301.661V308.851C203.842 310.471 202.482 311.831 200.798 311.831Z" fill="#A414D5"/>
<path fill-rule="evenodd" clip-rule="evenodd" d="M173.088 311.679C173.313 311.937 173.288 312.329 173.029 312.556C171.481 313.911 165.403 319.447 165.403 327.634C165.403 328.104 165.42 330.422 166.064 332.92C166.523 334.703 167.28 336.492 168.509 337.792C170.288 336.58 172.315 335.907 174.167 336.288C175.116 336.471 176.046 336.939 176.721 337.47C177.059 337.736 177.358 338.037 177.563 338.354C177.757 338.654 177.932 339.069 177.822 339.51C177.745 339.816 177.546 340.047 177.346 340.21C177.141 340.377 176.891 340.512 176.623 340.621C176.087 340.842 175.4 340.994 174.653 341.062C173.164 341.2 171.309 341.016 169.754 340.24C169.271 340.004 168.83 339.721 168.428 339.402C166.651 340.854 165.17 342.932 164.536 345.104V345.106C163.598 348.282 164.508 351.374 165.973 354.004C167.428 356.618 169.388 358.697 170.463 359.836L170.475 359.849C170.505 359.879 170.546 359.92 170.595 359.972C170.841 360.222 171.318 360.707 171.893 361.242C172.376 360.906 173.006 360.757 173.563 360.737C174.364 360.71 175.328 360.94 175.89 361.642L175.896 361.649C176.224 362.07 176.367 362.618 176.367 363.099C176.367 363.551 176.235 364.144 175.766 364.479L175.749 364.493L175.729 364.504C175.404 364.703 175.042 364.705 174.742 364.649C174.442 364.592 174.136 364.463 173.846 364.31C173.362 364.054 172.842 363.681 172.346 363.282C172.362 363.366 172.385 363.456 172.413 363.553C172.579 364.125 172.911 364.788 173.313 365.449C174.113 366.766 175.107 367.95 175.294 368.169L175.301 368.177C176.776 369.96 180.283 373.242 187.38 374.635C187.716 374.702 187.935 375.028 187.869 375.365C187.803 375.701 187.476 375.921 187.14 375.854C179.731 374.399 175.983 370.948 174.348 368.973C174.138 368.728 173.098 367.49 172.251 366.094C171.827 365.395 171.43 364.624 171.22 363.901C171.068 363.379 170.985 362.784 171.15 362.247C170.498 361.645 169.957 361.094 169.704 360.837C169.654 360.786 169.615 360.747 169.59 360.721L169.583 360.714L169.543 360.671C168.466 359.529 166.419 357.359 164.887 354.608C163.34 351.83 162.274 348.379 163.344 344.755C164.041 342.366 165.625 340.13 167.513 338.546C166.129 337.032 165.328 335.043 164.861 333.23C164.177 330.579 164.161 328.136 164.161 327.634C164.161 318.85 170.651 312.987 172.211 311.62C172.47 311.395 172.862 311.422 173.088 311.679ZM172.883 362.117C173.431 362.575 173.972 362.97 174.428 363.212C174.662 363.336 174.844 363.403 174.974 363.428C175.013 363.436 175.041 363.438 175.06 363.438C175.085 363.393 175.125 363.289 175.125 363.099C175.125 362.838 175.042 362.576 174.918 362.416C174.702 362.148 174.21 361.958 173.606 361.98C173.32 361.989 173.076 362.043 172.883 362.117ZM175.098 363.436L175.097 363.436L175.098 363.436ZM169.481 338.638C169.738 338.82 170.011 338.983 170.301 339.125L170.307 339.128C171.601 339.774 173.211 339.948 174.539 339.826C175.201 339.764 175.76 339.634 176.151 339.473C176.347 339.392 176.48 339.313 176.56 339.248C176.582 339.23 176.598 339.215 176.608 339.204C176.6 339.174 176.579 339.118 176.521 339.03C176.413 338.862 176.222 338.658 175.953 338.446C175.414 338.023 174.662 337.648 173.928 337.507L173.919 337.506C172.591 337.231 171.009 337.665 169.481 338.638Z" fill="#C4B6FF"/>
<path fill-rule="evenodd" clip-rule="evenodd" d="M126.792 291.461C126.917 291.587 126.916 291.789 126.791 291.913L118.176 300.463C118.051 300.587 117.849 300.587 117.724 300.461C117.6 300.337 117.601 300.135 117.726 300.01L126.341 291.46C126.467 291.335 126.669 291.336 126.792 291.461Z" fill="#C4B6FF"/>
<path fill-rule="evenodd" clip-rule="evenodd" d="M187.487 304.54C187.612 304.664 187.612 304.866 187.488 304.991L178.937 313.607C178.813 313.732 178.611 313.733 178.486 313.609C178.361 313.484 178.36 313.282 178.485 313.157L187.035 304.541C187.159 304.417 187.361 304.416 187.487 304.54Z" fill="#C4B6FF"/>
<path fill-rule="evenodd" clip-rule="evenodd" d="M181.851 304.54C181.976 304.665 181.976 304.868 181.851 304.992L173.236 313.607C173.112 313.732 172.91 313.732 172.785 313.607C172.66 313.483 172.66 313.281 172.785 313.156L181.4 304.54C181.525 304.416 181.727 304.416 181.851 304.54Z" fill="#C4B6FF"/>
<path fill-rule="evenodd" clip-rule="evenodd" d="M170.511 304.54C170.637 304.664 170.637 304.866 170.513 304.991L161.963 313.607C161.839 313.732 161.637 313.733 161.511 313.609C161.386 313.484 161.385 313.282 161.51 313.157L170.06 304.541C170.184 304.417 170.386 304.416 170.511 304.54Z" fill="#C4B6FF"/>
<path fill-rule="evenodd" clip-rule="evenodd" d="M164.876 304.54C165.001 304.665 165.001 304.868 164.876 304.992L156.261 313.607C156.136 313.732 155.934 313.732 155.809 313.607C155.685 313.483 155.685 313.281 155.809 313.156L164.424 304.54C164.549 304.416 164.751 304.416 164.876 304.54Z" fill="#C4B6FF"/>
<path fill-rule="evenodd" clip-rule="evenodd" d="M159.243 304.54C159.367 304.665 159.367 304.868 159.243 304.992L150.627 313.607C150.503 313.732 150.301 313.732 150.176 313.607C150.052 313.483 150.052 313.281 150.176 313.156L158.792 304.54C158.917 304.416 159.118 304.416 159.243 304.54Z" fill="#C4B6FF"/>
<path fill-rule="evenodd" clip-rule="evenodd" d="M153.544 304.54C153.669 304.664 153.67 304.866 153.546 304.991L144.996 313.607C144.871 313.732 144.669 313.733 144.544 313.609C144.42 313.484 144.419 313.282 144.542 313.157L153.093 304.541C153.217 304.417 153.42 304.416 153.544 304.54Z" fill="#C4B6FF"/>
<path fill-rule="evenodd" clip-rule="evenodd" d="M147.909 304.54C148.033 304.665 148.033 304.868 147.909 304.992L139.293 313.607C139.169 313.732 138.967 313.732 138.842 313.607C138.718 313.483 138.718 313.281 138.842 313.156L147.458 304.54C147.583 304.416 147.784 304.416 147.909 304.54Z" fill="#C4B6FF"/>
<path fill-rule="evenodd" clip-rule="evenodd" d="M142.271 304.54C142.396 304.665 142.396 304.868 142.271 304.992L133.656 313.607C133.532 313.732 133.33 313.732 133.205 313.607C133.08 313.483 133.08 313.281 133.205 313.156L141.82 304.54C141.945 304.416 142.147 304.416 142.271 304.54Z" fill="#C4B6FF"/>
<path fill-rule="evenodd" clip-rule="evenodd" d="M136.571 304.54C136.696 304.665 136.696 304.868 136.571 304.992L127.955 313.607C127.832 313.732 127.629 313.732 127.504 313.607C127.38 313.483 127.38 313.281 127.504 313.156L136.12 304.54C136.245 304.416 136.447 304.416 136.571 304.54Z" fill="#C4B6FF"/>
<path fill-rule="evenodd" clip-rule="evenodd" d="M130.938 304.54C131.063 304.665 131.063 304.868 130.938 304.992L122.323 313.607C122.199 313.732 121.997 313.732 121.872 313.607C121.747 313.483 121.747 313.281 121.872 313.156L130.487 304.54C130.612 304.416 130.814 304.416 130.938 304.54Z" fill="#C4B6FF"/>
<path fill-rule="evenodd" clip-rule="evenodd" d="M127.697 294.63C127.821 294.756 127.821 294.958 127.695 295.082L119.08 303.632C118.955 303.756 118.753 303.756 118.629 303.63C118.505 303.505 118.505 303.304 118.631 303.179L127.246 294.629C127.37 294.504 127.573 294.505 127.697 294.63Z" fill="#C4B6FF"/>
<path fill-rule="evenodd" clip-rule="evenodd" d="M126.792 299.814C126.917 299.939 126.917 300.14 126.792 300.265L118.177 308.88C118.052 309.005 117.85 309.005 117.725 308.88C117.601 308.755 117.601 308.554 117.725 308.429L126.34 299.814C126.465 299.689 126.668 299.689 126.792 299.814Z" fill="#C4B6FF"/>
<path fill-rule="evenodd" clip-rule="evenodd" d="M127.696 302.987C127.821 303.112 127.821 303.314 127.696 303.439L119.081 312.054C118.956 312.178 118.755 312.178 118.63 312.054C118.505 311.929 118.505 311.727 118.63 311.602L127.245 302.987C127.369 302.862 127.571 302.862 127.696 302.987Z" fill="#C4B6FF"/>
<path fill-rule="evenodd" clip-rule="evenodd" d="M118.754 176.495C118.832 176.653 118.769 176.845 118.611 176.923L116.276 178.091L101.38 185.345L98.7277 186.703C98.5708 186.783 98.3777 186.722 98.2977 186.565C98.2178 186.408 98.2792 186.216 98.4362 186.135L101.098 184.772L115.994 177.519L115.997 177.517L118.325 176.353C118.483 176.274 118.675 176.338 118.754 176.495Z" fill="#C4B6FF"/>
<path fill-rule="evenodd" clip-rule="evenodd" d="M103.487 151.467C101.736 148.408 98.2416 146.727 94.8171 147.35L94.7888 147.355H94.5938C88.8739 148.368 85.9536 154.781 88.8817 159.764C88.9714 159.917 88.9207 160.112 88.7686 160.201C88.6165 160.29 88.4205 160.239 88.3318 160.087C85.1754 154.714 88.3308 147.796 94.5119 146.721L94.5382 146.716H94.7313C98.422 146.058 102.167 147.873 104.041 151.152L104.043 151.156C106.702 155.955 109.233 160.886 111.504 165.883C111.577 166.043 111.506 166.232 111.346 166.305C111.185 166.378 110.996 166.307 110.923 166.147C108.66 161.169 106.138 156.254 103.487 151.467Z" fill="#C4B6FF"/>
<path fill-rule="evenodd" clip-rule="evenodd" d="M176.216 304.544C176.34 304.669 176.34 304.871 176.216 304.996L167.601 313.611C167.476 313.735 167.273 313.735 167.149 313.611C167.024 313.487 167.024 313.285 167.149 313.16L175.764 304.544C175.889 304.42 176.091 304.42 176.216 304.544Z" fill="#C4B6FF"/>
<path d="M495.668 277.285C493.207 255.196 494.307 232.978 498.777 211.278C503.506 188.412 509.474 173.772 521.587 153.174C524.632 147.991 521.587 141.32 515.628 140.283C515.563 140.283 515.498 140.283 515.434 140.218C511.806 139.57 508.243 141.32 506.43 144.493C493.992 166.84 488.283 183.683 484.592 208.817C481.418 230.452 481.546 252.735 485.109 274.758C486.082 280.847 496.316 283.05 495.668 277.285Z" fill="#C4B6FF"/>
<path d="M428.699 297.429H499.24C500.925 297.429 502.22 296.069 502.22 294.449V279.874C502.22 275.6 498.723 272.102 494.448 272.102H440.877C432.521 272.102 425.719 278.903 425.719 287.26V294.449C425.655 296.069 427.015 297.429 428.699 297.429Z" fill="#C4B6FF"/>
<path d="M439.609 314.219L509.697 304.049C511.511 304.049 513.001 302.689 513.001 301.07V286.495C513.001 282.22 509.179 278.722 504.45 278.722H441.812C432.548 278.722 425.1 285.523 425.1 293.88V301.07C425.164 302.689 437.795 314.219 439.609 314.219Z" fill="#C4B6FF"/>
<path d="M498.442 170.821C498.442 170.821 493.923 209.277 493.039 233.246C492.196 256.157 489.821 291.87 489.821 291.87L518.444 294.202L521.035 199.564L530.816 179.03L512.42 169.508L498.442 170.821Z" fill="#C4B6FF"/>
<path d="M547.983 149.3C547.983 149.3 519.792 128.497 507.918 139.396C500.131 146.542 497.148 161.951 493.535 171.538L524.015 180.198L545.716 153.899L547.983 149.3Z" fill="#A414D5"/>
<path d="M523.172 294.073C520.71 271.984 521.811 249.766 526.281 228.066C531.01 205.2 539.495 182.982 551.609 162.383C554.653 157.201 551.609 150.529 545.649 149.493C545.585 149.493 545.52 149.493 545.455 149.428C541.828 148.78 538.265 150.529 536.451 153.703C524.014 176.051 515.787 200.471 512.096 225.605C508.922 247.24 509.05 269.523 512.613 291.547C513.585 297.636 523.82 299.838 523.172 294.073Z" fill="#A414D5"/>
<path d="M524.016 180.196L538.914 187.516C542.541 178.901 546.752 170.481 551.545 162.318C554.59 157.137 551.545 150.464 545.586 149.428C545.521 149.428 545.457 149.428 545.391 149.428C541.829 148.78 538.202 150.529 536.388 153.703C531.659 162.254 527.513 171.064 524.016 180.196Z" fill="#A414D5"/>
<path opacity="0.2" d="M524.016 180.196L538.914 187.516C542.541 178.901 546.752 170.481 551.545 162.318C554.59 157.137 551.545 150.464 545.586 149.428C545.521 149.428 545.457 149.428 545.391 149.428C541.829 148.78 538.202 150.529 536.388 153.703C531.659 162.254 527.513 171.064 524.016 180.196Z" fill="#C4B6FF"/>
<path d="M439.355 314.223H521.232C522.916 314.223 524.212 312.863 524.212 311.243V296.668C524.212 292.394 520.714 288.895 516.439 288.895H451.533C443.177 288.895 436.375 295.697 436.375 304.053V311.243C436.311 312.863 437.671 314.223 439.355 314.223Z" fill="#A414D5"/>
<path fill-rule="evenodd" clip-rule="evenodd" d="M467.065 314.071C466.838 314.329 466.865 314.722 467.123 314.947C468.672 316.303 474.749 321.839 474.749 330.026C474.749 330.496 474.733 332.814 474.088 335.313C473.629 337.095 472.872 338.884 471.644 340.184C469.864 338.972 467.836 338.299 465.985 338.68C465.036 338.863 464.106 339.331 463.431 339.862C463.093 340.128 462.795 340.429 462.589 340.746C462.395 341.046 462.22 341.461 462.331 341.902C462.408 342.209 462.607 342.439 462.806 342.602C463.011 342.769 463.262 342.904 463.529 343.013C464.065 343.234 464.753 343.386 465.5 343.454C466.989 343.592 468.843 343.408 470.398 342.632C470.881 342.396 471.322 342.113 471.725 341.795C473.501 343.245 474.982 345.324 475.616 347.496V347.498C476.554 350.674 475.644 353.766 474.18 356.395C472.724 359.011 470.764 361.089 469.69 362.228L469.678 362.241C469.648 362.271 469.607 362.312 469.557 362.364C469.311 362.614 468.834 363.099 468.259 363.634C467.776 363.299 467.146 363.149 466.59 363.13C465.788 363.102 464.824 363.332 464.262 364.034L464.256 364.041C463.929 364.463 463.785 365.01 463.785 365.491C463.785 365.943 463.917 366.536 464.386 366.872L464.404 366.884L464.423 366.896C464.749 367.095 465.111 367.097 465.41 367.04C465.71 366.984 466.016 366.855 466.306 366.702C466.79 366.446 467.31 366.073 467.807 365.674C467.79 365.758 467.768 365.848 467.739 365.945C467.574 366.517 467.241 367.18 466.839 367.841C466.04 369.158 465.045 370.342 464.858 370.561L464.851 370.569C463.375 372.353 459.869 375.634 452.773 377.027C452.436 377.094 452.217 377.42 452.283 377.757C452.35 378.093 452.676 378.312 453.013 378.246C460.421 376.791 464.17 373.34 465.805 371.365C466.014 371.12 467.054 369.882 467.901 368.486C468.325 367.787 468.721 367.016 468.932 366.293C469.084 365.771 469.167 365.176 469.002 364.639C469.654 364.037 470.195 363.486 470.447 363.229C470.498 363.178 470.536 363.139 470.562 363.113L470.569 363.106L470.609 363.063C471.686 361.921 473.733 359.751 475.265 357C476.813 354.222 477.878 350.771 476.808 347.147C476.111 344.758 474.527 342.522 472.639 340.938C474.024 339.424 474.824 337.435 475.291 335.623C475.975 332.972 475.992 330.529 475.992 330.026C475.992 321.242 469.501 315.378 467.941 314.013C467.683 313.787 467.291 313.813 467.065 314.071ZM467.269 364.509C466.72 364.966 466.18 365.363 465.724 365.604C465.49 365.729 465.308 365.795 465.179 365.821C465.14 365.827 465.111 365.83 465.091 365.83C465.068 365.785 465.028 365.681 465.028 365.491C465.028 365.23 465.111 364.969 465.234 364.808C465.451 364.54 465.942 364.35 466.547 364.372C466.833 364.381 467.076 364.435 467.269 364.509ZM470.671 341.031C470.414 341.212 470.141 341.375 469.851 341.517L469.846 341.52C468.551 342.166 466.942 342.34 465.614 342.218C464.952 342.156 464.392 342.026 464.001 341.865C463.805 341.784 463.672 341.705 463.592 341.639C463.57 341.622 463.554 341.607 463.545 341.597C463.552 341.567 463.574 341.511 463.631 341.422C463.74 341.254 463.931 341.051 464.2 340.838C464.738 340.415 465.491 340.04 466.224 339.899L466.233 339.898C467.561 339.623 469.143 340.057 470.671 341.031Z" fill="#C4B6FF"/>
<path fill-rule="evenodd" clip-rule="evenodd" d="M513.36 293.853C513.235 293.979 513.236 294.181 513.361 294.305L521.977 302.855C522.101 302.98 522.303 302.979 522.428 302.853C522.552 302.729 522.551 302.527 522.426 302.403L513.811 293.852C513.685 293.728 513.484 293.729 513.36 293.853Z" fill="#C4B6FF"/>
<path fill-rule="evenodd" clip-rule="evenodd" d="M452.665 306.932C452.541 307.056 452.54 307.258 452.664 307.383L461.214 315.998C461.339 316.123 461.541 316.124 461.665 316C461.791 315.875 461.791 315.674 461.667 315.549L453.117 306.933C452.993 306.808 452.791 306.807 452.665 306.932Z" fill="#C4B6FF"/>
<path fill-rule="evenodd" clip-rule="evenodd" d="M458.302 306.933C458.177 307.057 458.177 307.26 458.302 307.383L466.916 315.999C467.041 316.124 467.243 316.124 467.368 315.999C467.493 315.875 467.493 315.673 467.368 315.548L458.753 306.933C458.628 306.808 458.426 306.808 458.302 306.933Z" fill="#C4B6FF"/>
<path fill-rule="evenodd" clip-rule="evenodd" d="M469.641 306.932C469.516 307.056 469.515 307.258 469.64 307.383L478.191 315.998C478.314 316.123 478.516 316.124 478.642 316C478.767 315.875 478.768 315.674 478.643 315.549L470.092 306.933C469.969 306.808 469.767 306.807 469.641 306.932Z" fill="#C4B6FF"/>
<path fill-rule="evenodd" clip-rule="evenodd" d="M475.277 306.933C475.152 307.057 475.152 307.26 475.277 307.383L483.892 315.999C484.017 316.124 484.219 316.124 484.344 315.999C484.468 315.875 484.468 315.673 484.344 315.548L475.729 306.933C475.604 306.808 475.402 306.808 475.277 306.933Z" fill="#C4B6FF"/>
<path fill-rule="evenodd" clip-rule="evenodd" d="M480.909 306.933C480.784 307.057 480.784 307.26 480.909 307.383L489.525 315.999C489.649 316.124 489.852 316.124 489.975 315.999C490.1 315.875 490.1 315.673 489.975 315.548L481.36 306.933C481.236 306.808 481.034 306.808 480.909 306.933Z" fill="#C4B6FF"/>
<path fill-rule="evenodd" clip-rule="evenodd" d="M486.612 306.932C486.486 307.056 486.486 307.258 486.61 307.383L495.161 315.998C495.285 316.123 495.487 316.124 495.612 316C495.737 315.875 495.738 315.674 495.614 315.549L487.064 306.933C486.939 306.808 486.737 306.807 486.612 306.932Z" fill="#C4B6FF"/>
<path fill-rule="evenodd" clip-rule="evenodd" d="M492.243 306.933C492.118 307.057 492.118 307.26 492.243 307.383L500.859 315.999C500.983 316.124 501.186 316.124 501.31 315.999C501.434 315.875 501.434 315.673 501.31 315.548L492.694 306.933C492.57 306.808 492.368 306.808 492.243 306.933Z" fill="#C4B6FF"/>
<path fill-rule="evenodd" clip-rule="evenodd" d="M497.88 306.933C497.756 307.057 497.756 307.26 497.88 307.383L506.496 315.999C506.621 316.124 506.823 316.124 506.947 315.999C507.072 315.875 507.072 315.673 506.947 315.548L498.331 306.933C498.208 306.808 498.005 306.808 497.88 306.933Z" fill="#C4B6FF"/>
<path fill-rule="evenodd" clip-rule="evenodd" d="M503.582 306.933C503.457 307.057 503.457 307.26 503.582 307.383L512.198 315.999C512.322 316.124 512.524 316.124 512.648 315.999C512.773 315.875 512.773 315.673 512.648 315.548L504.033 306.933C503.909 306.808 503.707 306.808 503.582 306.933Z" fill="#C4B6FF"/>
<path fill-rule="evenodd" clip-rule="evenodd" d="M509.215 306.933C509.09 307.057 509.09 307.26 509.215 307.383L517.83 315.999C517.954 316.124 518.156 316.124 518.281 315.999C518.406 315.875 518.406 315.673 518.281 315.548L509.665 306.933C509.541 306.808 509.339 306.808 509.215 306.933Z" fill="#C4B6FF"/>
<path fill-rule="evenodd" clip-rule="evenodd" d="M512.456 297.022C512.332 297.148 512.332 297.35 512.458 297.474L521.073 306.024C521.198 306.149 521.4 306.148 521.524 306.022C521.648 305.898 521.647 305.696 521.522 305.572L512.907 297.021C512.782 296.897 512.58 296.898 512.456 297.022Z" fill="#C4B6FF"/>
<path fill-rule="evenodd" clip-rule="evenodd" d="M513.359 302.206C513.236 302.331 513.236 302.533 513.359 302.657L521.975 311.272C522.1 311.397 522.302 311.397 522.427 311.272C522.552 311.147 522.552 310.946 522.427 310.821L513.811 302.206C513.687 302.081 513.484 302.081 513.359 302.206Z" fill="#C4B6FF"/>
<path fill-rule="evenodd" clip-rule="evenodd" d="M512.457 305.379C512.332 305.504 512.332 305.705 512.457 305.83L521.072 314.445C521.197 314.57 521.398 314.57 521.523 314.445C521.648 314.32 521.648 314.118 521.523 313.994L512.908 305.379C512.783 305.254 512.582 305.254 512.457 305.379Z" fill="#C4B6FF"/>
<path fill-rule="evenodd" clip-rule="evenodd" d="M521.399 178.887C521.321 179.045 521.384 179.237 521.542 179.316L523.876 180.483L538.773 187.736L541.425 189.095C541.582 189.176 541.774 189.113 541.855 188.956C541.935 188.799 541.873 188.607 541.716 188.527L539.054 187.163L524.159 179.91L524.156 179.908L521.828 178.744C521.67 178.665 521.478 178.73 521.399 178.887Z" fill="#C4B6FF"/>
<path fill-rule="evenodd" clip-rule="evenodd" d="M536.667 153.859C538.416 150.8 541.912 149.119 545.335 149.742L545.363 149.746H545.558C551.279 150.76 554.199 157.173 551.271 162.156C551.182 162.309 551.232 162.504 551.385 162.593C551.537 162.682 551.733 162.631 551.821 162.479C554.978 157.106 551.822 150.188 545.641 149.113L545.615 149.109H545.422C541.73 148.45 537.985 150.265 536.112 153.544L536.11 153.548C533.451 158.348 530.92 163.278 528.648 168.275C528.576 168.435 528.647 168.624 528.807 168.697C528.968 168.77 529.157 168.699 529.23 168.539C531.493 163.561 534.014 158.646 536.667 153.859Z" fill="#C4B6FF"/>
<path fill-rule="evenodd" clip-rule="evenodd" d="M463.939 306.933C463.815 307.057 463.815 307.26 463.939 307.383L472.554 315.999C472.679 316.124 472.881 316.124 473.006 315.999C473.13 315.875 473.13 315.673 473.006 315.548L464.391 306.933C464.266 306.808 464.064 306.808 463.939 306.933Z" fill="#C4B6FF"/>
<path d="M237.978 366.848L247.016 366.815L246.378 346.06L236.353 346.099L237.978 366.848Z" fill="#915636"/>
<path d="M247.204 358.896C247.204 358.896 265.219 366.067 276.101 368.318C276.838 368.472 277.326 368.955 277.656 369.603C278.885 372.024 276.909 374.868 274.191 374.791L236.93 373.781C236.255 373.77 235.701 373.265 235.619 372.601C235.333 370.218 234.888 363.749 236.727 361.52C237.095 361.07 237.974 361.466 238.787 361.74C239.687 362.042 241.229 366.577 246.715 362.053C247.231 361.619 246.605 359.489 247.204 358.896Z" fill="#A414D5"/>
<path opacity="0.5" d="M247.204 358.896C247.204 358.896 265.219 366.067 276.101 368.318C276.838 368.472 277.326 368.955 277.656 369.603C278.885 372.024 276.909 374.868 274.191 374.791L236.93 373.781C236.255 373.77 235.701 373.265 235.619 372.601C235.333 370.218 234.888 363.749 236.727 361.52C237.095 361.07 237.974 361.466 238.787 361.74C239.687 362.042 241.229 366.577 246.715 362.053C247.231 361.619 246.605 359.489 247.204 358.896Z" fill="#C4B6FF"/>
<path d="M223.15 367.399L232.852 367.393V341.668L222.14 341.685L223.15 367.399Z" fill="#915636"/>
<path d="M232.241 361.433C232.241 361.433 250.235 368.658 261.112 370.937C261.842 371.091 262.336 371.579 262.66 372.228C263.879 374.655 261.897 377.487 259.184 377.406L221.924 376.285C221.254 376.269 220.694 375.769 220.617 375.099C220.342 372.71 219.914 366.248 221.759 364.019C222.133 363.568 223.005 363.964 223.819 364.244C224.719 364.551 226.246 369.087 231.747 364.579C232.263 364.15 231.643 362.02 232.241 361.433Z" fill="#A414D5"/>
<path d="M232.241 361.433C232.241 361.433 250.235 368.658 261.112 370.937C261.842 371.091 262.336 371.579 262.66 372.228C263.879 374.655 261.897 377.487 259.184 377.406L221.924 376.285C221.254 376.269 220.694 375.769 220.617 375.099C220.342 372.71 219.914 366.248 221.759 364.019C222.133 363.568 223.005 363.964 223.819 364.244C224.719 364.551 226.246 369.087 231.747 364.579C232.263 364.15 231.643 362.02 232.241 361.433Z" fill="#A414D5"/>
<path d="M234.889 356.809L250.246 355.739C250.246 355.739 254.414 277.292 244.954 265.07C235.492 252.848 211.772 258.679 211.772 258.679L234.889 356.809Z" fill="#A414D5"/>
<path opacity="0.5" d="M234.889 356.809L250.246 355.739C250.246 355.739 254.414 277.292 244.954 265.07C235.492 252.848 211.772 258.679 211.772 258.679L234.889 356.809Z" fill="#C4B6FF"/>
<path d="M238.872 358.25C238.872 358.25 236.066 305.841 236.066 280.457C236.066 255.073 222.177 248.869 195.025 250.658C195.025 250.658 195.19 242.84 192.458 241.202C189.726 239.563 153.003 237.596 146.478 241.202C131.801 260.328 143.481 280.067 158.657 280.457H207.558C209.183 280.457 210.501 281.775 210.501 283.401L219.188 357.031L238.872 358.25Z" fill="#A414D5"/>
<path d="M238.872 358.25C238.872 358.25 236.066 305.841 236.066 280.457C236.066 255.073 222.177 248.869 195.025 250.658C195.025 250.658 195.19 242.84 192.458 241.202C189.726 239.563 153.003 237.596 146.478 241.202C131.801 260.328 143.481 280.067 158.657 280.457H207.558C209.183 280.457 210.501 281.775 210.501 283.401L219.188 357.031L238.872 358.25Z" fill="#A414D5"/>
<path d="M187.869 132.843L189.34 158.055C189.705 159.498 188.424 160.827 186.967 160.508L170.58 154.497L171.99 145.815L187.869 132.843Z" fill="#242424"/>
<path d="M148.849 164.833C142.824 172.687 138.377 179.668 136.873 191.623C135.355 203.673 143.148 214.103 146.274 243.32C158.472 248.742 174.615 252.456 185.859 244.974C186.659 243.72 197.645 195.14 197.733 193.989C197.902 191.678 198.004 190.322 198.004 190.322C198.004 190.322 196.92 179.153 194.934 176.964C189.431 170.899 193.823 170.329 189.024 165.497C184.91 161.363 173.749 155.975 167.919 155.792C160.479 155.562 153.376 158.923 148.849 164.833Z" fill="#B5CDFB"/>
<path opacity="0.4" d="M148.849 164.833C142.824 172.687 138.377 179.668 136.873 191.623C135.355 203.673 143.148 214.103 146.274 243.32C158.472 248.742 174.615 252.456 185.859 244.974C186.659 243.72 197.645 195.14 197.733 193.989C197.902 191.678 198.004 190.322 198.004 190.322C198.004 190.322 196.92 179.153 194.934 176.964C189.431 170.899 193.823 170.329 189.024 165.497C184.91 161.363 173.749 155.975 167.919 155.792C160.479 155.562 153.376 158.923 148.849 164.833Z" fill="#C4B6FF"/>
<path d="M166.15 168.782C169.878 168.782 172.899 165.759 172.899 162.031V147.907H159.399V162.038C159.399 165.766 162.422 168.782 166.15 168.782Z" fill="#CC9370"/>
<path d="M172.9 150.948L160.586 151.076C160.586 151.076 170.969 159.236 172.9 157.915V150.948Z" fill="#242424"/>
<path d="M167.076 152.354H174.213C182.4 152.354 189.035 145.719 189.035 137.532V118.481C189.035 110.294 182.4 103.66 174.213 103.66H164.549C156.362 103.66 149.727 110.294 149.727 118.481V135.004C149.727 144.587 157.493 152.354 167.076 152.354Z" fill="#CC9370"/>
<path fill-rule="evenodd" clip-rule="evenodd" d="M184.164 122.512C184.2 122.14 184.532 121.868 184.904 121.904L191.6 122.554C191.973 122.59 192.246 122.922 192.21 123.294C192.173 123.667 191.842 123.94 191.47 123.904L184.774 123.252C184.401 123.216 184.128 122.886 184.164 122.512Z" fill="#242424"/>
<path fill-rule="evenodd" clip-rule="evenodd" d="M171.982 123.105C172.049 123.473 171.804 123.826 171.436 123.893L165.282 125.011C164.915 125.078 164.562 124.834 164.494 124.465C164.428 124.097 164.672 123.744 165.04 123.677L171.194 122.559C171.563 122.492 171.915 122.736 171.982 123.105Z" fill="#242424"/>
<path fill-rule="evenodd" clip-rule="evenodd" d="M180.108 124.947C180.336 124.886 180.57 125.02 180.632 125.248L182.909 133.651V133.652C183.165 134.581 182.746 135.568 181.905 136.036H181.903C181.211 136.417 180.368 136.668 179.689 136.814C179.347 136.888 179.036 136.937 178.795 136.961C178.675 136.973 178.566 136.98 178.475 136.98C178.43 136.98 178.383 136.979 178.337 136.973C178.304 136.969 178.221 136.958 178.138 136.915C177.928 136.806 177.846 136.548 177.956 136.339C178.051 136.155 178.261 136.07 178.452 136.124C178.459 136.124 178.467 136.124 178.476 136.124C178.527 136.124 178.605 136.121 178.708 136.11C178.913 136.089 179.193 136.045 179.51 135.978C180.148 135.841 180.9 135.612 181.489 135.287C181.989 135.01 182.234 134.425 182.084 133.878V133.876L179.806 125.472C179.745 125.244 179.879 125.009 180.108 124.947Z" fill="#242424"/>
<path d="M181.669 141.984C181.269 143.659 179.669 145.902 178.029 145.814C176.558 145.739 175.331 143.591 174.925 142.106L181.669 141.984Z" fill="white"/>
<path d="M186.457 129.13C187.235 129.13 187.866 128.499 187.866 127.721C187.866 126.942 187.235 126.311 186.457 126.311C185.678 126.311 185.047 126.942 185.047 127.721C185.047 128.499 185.678 129.13 186.457 129.13Z" fill="#242424"/>
<path d="M170.585 129.809C171.364 129.809 171.995 129.177 171.995 128.399C171.995 127.621 171.364 126.989 170.585 126.989C169.807 126.989 169.176 127.621 169.176 128.399C169.176 129.177 169.807 129.809 170.585 129.809Z" fill="#242424"/>
<path d="M189.327 220.432C188.325 220.779 165.817 229.792 148.42 238.305C145.729 239.619 186.793 230.422 187.03 230.334C189.856 229.358 191.978 219.518 189.327 220.432Z" fill="#CC9370"/>
<path d="M190.597 217.574C190.597 217.574 193.47 212.043 196.175 213.169C198.872 214.301 203.278 217.323 203.278 217.323L194.494 227.841L190.597 217.574Z" fill="#CC9370"/>
<path fill-rule="evenodd" clip-rule="evenodd" d="M157.362 180.542C162.05 179.42 164.973 174.729 163.899 170.016C162.818 165.273 158.094 162.303 153.35 163.385L155.255 171.737C153.35 163.385 153.347 163.386 153.345 163.386L153.327 163.391L153.3 163.397L153.239 163.411C153.194 163.422 153.143 163.434 153.085 163.448C152.968 163.477 152.824 163.516 152.654 163.562C152.315 163.656 151.873 163.787 151.345 163.961C150.292 164.309 148.879 164.841 147.256 165.616C144.036 167.154 139.817 169.736 135.995 173.914C135.994 173.915 135.993 173.916 135.992 173.917C131.815 178.481 129.175 184.442 127.472 190.374C125.739 196.405 124.793 203.045 124.404 209.552C123.635 222.425 124.981 235.979 127.691 244.993M157.362 180.542C157.355 180.544 157.345 180.547 157.333 180.55C157.262 180.57 157.107 180.615 156.882 180.689C156.429 180.839 155.715 181.103 154.851 181.516C153.098 182.353 150.911 183.714 148.994 185.81L148.991 185.813C147.361 187.592 145.717 190.679 144.407 195.239C143.126 199.699 142.329 204.996 141.994 210.604C141.571 217.668 141.906 224.746 142.695 230.668C143.221 230.38 143.766 230.082 144.33 229.774C144.825 229.502 145.334 229.223 145.858 228.937C149.312 227.05 153.307 224.902 156.859 223.388C158.625 222.635 160.606 221.896 162.565 221.46C164.151 221.107 167.464 220.523 170.811 221.959C175.283 223.877 177.353 229.057 175.435 233.529C173.816 237.303 169.873 239.367 165.993 238.765C165.507 238.909 164.775 239.169 163.768 239.598C161.12 240.726 157.846 242.467 154.305 244.401C153.838 244.656 153.361 244.918 152.88 245.181C149.96 246.782 146.866 248.479 144.386 249.63C143.036 250.257 141.185 251.055 139.341 251.439C138.508 251.614 136.687 251.93 134.584 251.438C131.89 250.808 128.833 248.79 127.692 244.996M166.632 238.621C166.629 238.624 166.567 238.637 166.454 238.647C166.578 238.622 166.635 238.617 166.632 238.621Z" fill="#B5CDFB"/>
<path d="M142.597 230.905C142.597 230.905 142.976 221.03 145.802 221.559C148.757 222.114 159.018 225.625 158.679 226.743C157.866 229.427 153.643 229.196 149.679 231.623C147.984 232.653 142.597 230.905 142.597 230.905Z" fill="#CC9370"/>
<path d="M150.874 226.229C146.381 225.124 147.837 227.036 147.75 227.679C147.369 230.647 156.695 235.602 159.663 235.981L201.425 242.867C204.393 243.246 205.992 239.465 206.373 236.496C206.752 233.528 204.651 230.81 201.683 230.431L161.812 227.347C159.488 227.049 151.883 224.25 150.874 226.229Z" fill="#CC9370"/>
<path fill-rule="evenodd" clip-rule="evenodd" d="M166.253 168.42C167.36 163.681 172.099 160.739 176.837 161.845L174.832 170.425C176.837 161.845 176.839 161.846 176.84 161.846L176.852 161.849L176.871 161.853L176.924 161.866C176.966 161.876 177.019 161.889 177.085 161.906C177.216 161.938 177.395 161.983 177.615 162.04C178.056 162.154 178.668 162.32 179.412 162.539C180.891 162.971 182.93 163.624 185.192 164.506C189.383 166.141 195.647 169.058 199.953 173.76L199.954 173.761C203.191 177.295 205.215 181.92 206.607 186.175C208.047 190.573 209.084 195.455 209.909 200.16C210.615 204.191 211.202 208.324 211.737 212.093C211.828 212.729 211.917 213.356 212.005 213.969C212.632 218.352 213.188 221.998 213.821 224.791C215.481 232.121 210.923 237.691 207.575 240.373C204.131 243.13 199.132 245.31 193.977 245.029L180.692 245.056C175.826 245.066 171.874 241.129 171.864 236.263C171.854 231.397 175.791 227.445 180.656 227.435L194.605 227.407L194.869 227.429C194.92 227.422 195.072 227.396 195.32 227.309C195.634 227.197 195.957 227.034 196.245 226.845C195.608 223.656 195.073 220.038 194.561 216.466C194.469 215.819 194.377 215.173 194.284 214.524C193.747 210.741 193.205 206.927 192.553 203.201C191.786 198.828 190.919 194.89 189.86 191.656C188.755 188.278 187.687 186.455 186.958 185.66M166.253 168.42C165.147 173.153 168.083 177.887 172.813 179.001L166.253 168.42Z" fill="#B5CDFB"/>
<path d="M202.004 230.326C204.241 229.756 210.4 228.008 210.889 223.636C211.201 220.871 213.023 215.029 210.936 213.247C209.154 211.729 203.685 213.782 201.122 216.602C195.287 223.02 192.746 214.535 191.201 216.873C190.713 217.611 184.559 223.935 177.45 226.618C175.119 227.5 201.604 230.427 202.004 230.326Z" fill="#CC9370"/>
<path d="M159.405 159.407C159.405 159.407 170.628 155.97 172.905 159.407C178.645 168.075 169.414 193.334 169.414 193.334C169.414 193.334 158.252 167.905 159.405 159.407Z" fill="#CC9370"/>
<path d="M162.377 119.628C162.377 119.628 178.351 119.682 182.559 117.689C186.775 115.703 185.542 113.237 185.542 113.237L187.27 118.041L190.089 119.024C190.089 119.024 191.729 107.463 187.867 103.131C181.665 96.1712 155.044 90.6484 150.876 102.149C150.876 102.149 143.319 103.383 141.841 110.038C140.364 116.693 139.707 159.572 139.707 159.572C139.707 159.572 162.655 166.973 164.105 162.528L162.377 119.628Z" fill="#242424"/>
<path d="M419.231 242.769L399.744 242.768L391.949 249.246C391.949 249.246 388.154 261.314 390.464 261.319C392.274 261.3 398.341 255.672 398.341 255.672C398.341 255.672 406.06 256.283 408.93 256.161C414.078 255.942 418.352 252.688 418.352 252.688C423.327 237.969 419.231 242.769 419.231 242.769Z" fill="#F5BE9F"/>
<path d="M456.161 252.541C458.028 252.541 461.632 253.164 463.437 252.541L473.907 193.869C479.757 191.939 472.226 188.64 470.297 182.79C468.368 176.94 479.57 165.427 473.72 167.355C473.72 167.355 473.738 166.209 466.563 167.355C448.297 170.273 450.623 239.781 450.623 239.781C450.623 239.781 418.706 237.875 415.847 239.781C412.989 241.686 411.4 245.029 413.777 252.541C419.083 269.304 439.852 252.541 456.161 252.541Z" fill="#404040"/>
<path d="M456.161 252.541C458.028 252.541 461.632 253.164 463.437 252.541L473.907 193.869C479.757 191.939 472.226 188.64 470.297 182.79C468.368 176.94 479.57 165.427 473.72 167.355C473.72 167.355 473.738 166.209 466.563 167.355C448.297 170.273 450.623 239.781 450.623 239.781C450.623 239.781 418.706 237.875 415.847 239.781C412.989 241.686 411.4 245.029 413.777 252.541C419.083 269.304 439.852 252.541 456.161 252.541Z" fill="#B5CDFB"/>
<path opacity="0.3" d="M456.161 252.541C458.028 252.541 461.632 253.164 463.437 252.541L473.907 193.869C479.757 191.939 472.226 188.64 470.297 182.79C468.368 176.94 479.57 165.427 473.72 167.355C473.72 167.355 473.738 166.209 466.563 167.355C448.297 170.273 450.623 239.781 450.623 239.781C450.623 239.781 418.706 237.875 415.847 239.781C412.989 241.686 411.4 245.029 413.777 252.541C419.083 269.304 439.852 252.541 456.161 252.541Z" fill="#C4B6FF"/>
<path d="M438.772 219.302C438.772 219.302 421.781 211.211 416.117 212.767C413.753 213.389 409.956 214.199 406.533 216.501C401.803 219.676 401.119 223.97 403.172 225.028C404.791 225.837 412.756 223.596 412.756 223.596C412.756 223.596 416.18 225.277 418.98 227.517C421.096 229.197 431.926 230.069 431.926 230.069C443.066 219.24 438.772 219.302 438.772 219.302Z" fill="#F5BE9F"/>
<path d="M447.987 112.687C447.054 112.127 440.581 106.65 441.327 104.659C441.826 103.289 444.813 103.788 445.311 102.231C445.684 101.112 444.315 99.9291 443.444 98.6215C440.768 94.8879 442.386 85.9873 445.995 84.9294C459.439 81.0085 469.397 97.6884 469.397 97.6884C468.152 95.2614 468.152 92.8344 469.397 91.6516C471.015 90.0954 474.313 91.4644 474.749 91.6516C480.599 94.0786 481.719 101.983 483.711 101.672C484.956 101.423 484.582 98.4353 486.449 97.6884C488.13 97.0039 490.993 98.3729 491.802 100.426C493.047 103.601 488.815 106.961 489.935 108.704C490.495 109.576 492.362 110.012 497.528 108.518C500.204 119.658 495.225 130.176 493.794 134.097C492.611 137.521 490.931 142.188 487.259 142.873C484.582 143.37 481.035 141.69 480.039 139.076C478.608 135.404 483.151 132.479 482.777 126.318C482.653 123.641 481.284 123.455 480.537 122.21C472.01 121.525 453.9 116.422 447.987 112.687Z" fill="#404040"/>
<path d="M487.32 165.092C487.32 165.092 480.66 143.371 480.411 135.467C480.411 135.467 489.436 138.268 488.626 132.667C487.817 127.003 480.411 128.372 480.411 128.372C480.722 125.634 480.1 122.958 478.544 120.343C478.544 120.343 465.411 119.784 450.039 113.685L446.865 136.464L450.599 137.21C450.599 137.21 453.586 152.583 455.205 153.142C456.823 153.703 466.532 153.889 466.532 153.889L467.341 177.54C467.403 177.54 484.457 174.304 487.32 165.092Z" fill="#F5BE9F"/>
<path d="M485.514 156.194C489.372 161.112 527.898 187.687 505.056 252.475H454.707C454.707 252.475 452.424 212.427 454.707 191.387C455.42 184.812 456.552 177.049 459.108 172.626C461.829 167.918 466.79 163.531 466.79 163.531L467.279 172.626C477.61 168.58 484.954 155.572 485.514 156.194Z" fill="#B5CDFB"/>
<path d="M475.119 248.119C475.368 248.119 475.617 248.119 475.866 248.119C478.916 247.994 484.517 246.563 487.318 238.348C487.878 236.605 488.5 234.302 489.123 231.377C490.056 226.958 491.176 220.858 492.359 213.265C494.35 200.569 495.907 188.122 495.969 187.624C496.716 181.524 492.421 175.924 486.322 175.177C480.222 174.43 474.622 178.724 473.875 184.823C472.256 197.768 469.518 216.378 467.775 225.9C460.12 222.415 448.233 218.93 438.649 214.137C433.109 211.398 423.213 231.377 428.752 234.115C465.348 252.351 472.132 248.119 475.119 248.119Z" fill="#404040"/>
<path d="M475.119 248.119C475.368 248.119 475.617 248.119 475.866 248.119C478.916 247.994 484.517 246.563 487.318 238.348C487.878 236.605 488.5 234.302 489.123 231.377C490.056 226.958 491.176 220.858 492.359 213.265C494.35 200.569 495.907 188.122 495.969 187.624C496.716 181.524 492.421 175.924 486.322 175.177C480.222 174.43 474.622 178.724 473.875 184.823C472.256 197.768 469.518 216.378 467.775 225.9C460.12 222.415 448.233 218.93 438.649 214.137C433.109 211.398 423.213 231.377 428.752 234.115C465.348 252.351 472.132 248.119 475.119 248.119Z" fill="#B5CDFB"/>
<path opacity="0.4" d="M475.123 248.119C475.372 248.119 475.621 248.119 475.87 248.119C478.92 247.994 484.521 246.563 487.321 238.348C487.882 236.605 488.504 234.302 489.126 231.377C490.06 226.958 491.18 220.858 492.363 213.265C494.354 200.569 495.911 188.122 495.972 187.624C496.719 181.524 492.425 175.924 486.325 175.177C480.226 174.43 474.625 178.724 473.878 184.823C472.26 197.768 469.522 216.378 467.779 225.9C460.124 222.415 448.237 218.93 438.652 214.137C433.113 211.398 423.217 231.377 428.756 234.115C465.351 252.351 472.136 248.119 475.123 248.119Z" fill="#C4B6FF"/>
<path d="M467.778 230.878C467.964 230.878 468.089 230.692 468.089 230.505C467.467 225.651 474.002 185.134 476.304 179.471C477.362 176.857 482.342 176.67 486.324 176.919C490.743 177.23 494.914 178.226 494.975 178.226C495.162 178.288 495.287 178.164 495.348 177.977C495.411 177.791 495.287 177.666 495.1 177.604C494.415 177.417 477.985 173.62 475.682 179.222C473.566 184.45 466.72 224.904 467.467 230.567C467.467 230.817 467.653 230.878 467.778 230.878Z" fill="#404040"/>
<path d="M471.635 228.761C471.759 228.761 471.821 228.7 471.883 228.637C471.946 228.513 471.946 228.326 471.759 228.201C471.696 228.139 462.298 222.538 443.254 215.505C443.068 215.442 442.943 215.505 442.88 215.692C442.819 215.878 442.88 216.003 443.068 216.066C462.05 223.098 471.323 228.7 471.448 228.761C471.51 228.7 471.572 228.761 471.635 228.761Z" fill="#404040"/>
<path d="M476.115 249.67C482.277 249.67 487.566 240.272 491.798 221.788C494.972 207.909 496.404 193.781 496.404 193.595C496.404 193.408 496.28 193.284 496.155 193.284C495.969 193.284 495.844 193.408 495.844 193.532C495.781 194.092 490.243 249.67 475.99 249.048C458.502 248.239 431.802 233.177 431.491 232.99C431.366 232.929 431.179 232.929 431.055 233.115C430.93 233.302 430.993 233.426 431.179 233.551C431.429 233.676 458.315 248.861 475.928 249.67C475.928 249.67 476.053 249.67 476.115 249.67Z" fill="#404040"/>
<path d="M458.381 203.741L459.003 202.372C459.439 201.439 460.123 199.945 460.745 199.883C461.057 199.883 461.368 200.256 461.742 200.941L462.115 201.75L462.301 200.878C462.612 199.447 462.55 198.015 462.55 196.646C462.55 196.273 462.55 195.899 462.55 195.526C462.55 195.34 462.426 195.215 462.239 195.215C462.053 195.215 461.928 195.34 461.928 195.526C461.928 195.899 461.928 196.273 461.928 196.646C461.928 197.767 461.928 198.887 461.803 199.945C461.43 199.509 461.119 199.26 460.684 199.323C459.874 199.323 459.252 200.318 458.754 201.314C458.629 200.692 458.381 200.256 458.07 200.007C457.509 199.572 456.762 199.82 456.077 200.007C455.144 200.318 454.584 200.443 454.21 199.759C454.149 199.634 453.962 199.572 453.775 199.634C453.65 199.696 453.588 199.883 453.65 200.07C454.273 201.252 455.393 200.878 456.265 200.63C456.824 200.443 457.385 200.256 457.759 200.505C458.07 200.754 458.256 201.376 458.318 202.434L458.381 203.741Z" fill="#404040"/>
<path d="M498.644 228.825C498.768 228.825 498.955 228.7 498.955 228.575C499.141 227.456 499.888 226.273 500.573 225.215C500.884 224.717 501.195 224.281 501.444 223.846C501.507 223.721 501.444 223.534 501.32 223.41C501.195 223.348 501.009 223.41 500.884 223.534C500.635 223.97 500.386 224.406 500.075 224.842C499.329 225.962 498.519 227.206 498.332 228.451C498.271 228.638 498.394 228.825 498.644 228.825C498.582 228.825 498.582 228.825 498.644 228.825Z" fill="#404040"/>
<path d="M494.785 226.896C494.91 226.896 495.096 226.772 495.096 226.648C495.283 224.968 496.216 223.286 497.71 221.794C497.835 221.669 497.835 221.482 497.71 221.358C497.586 221.233 497.399 221.233 497.274 221.358C495.719 222.913 494.724 224.78 494.474 226.585C494.412 226.71 494.536 226.896 494.785 226.896C494.724 226.896 494.724 226.896 494.785 226.896Z" fill="#404040"/>
<path d="M455.888 143.001C455.888 143.001 457.443 147.919 460.68 147.669C462.982 147.483 463.543 143.562 463.667 143.437L455.888 143.001Z" fill="white"/>
<path d="M462.298 132.233C461.61 132.233 461.053 131.675 461.053 130.987C461.053 130.3 461.61 129.743 462.298 129.743C462.985 129.743 463.542 130.3 463.542 130.987C463.542 131.675 462.985 132.233 462.298 132.233Z" fill="#404040"/>
<path d="M449.228 128.873C448.54 128.873 447.983 128.316 447.983 127.628C447.983 126.941 448.54 126.383 449.228 126.383C449.915 126.383 450.473 126.941 450.473 127.628C450.473 128.316 449.915 128.873 449.228 128.873Z" fill="#404040"/>
<path d="M466.904 129.493C467.091 129.493 467.277 129.431 467.402 129.244C467.651 128.995 467.588 128.559 467.34 128.373L460.929 122.958C460.681 122.709 460.245 122.772 460.058 123.02C459.809 123.269 459.871 123.705 460.12 123.891L466.53 129.306C466.593 129.431 466.717 129.493 466.904 129.493Z" fill="#404040"/>
<path d="M444.496 126.381C444.559 126.381 444.621 126.381 444.684 126.381L451.591 124.39C451.903 124.265 452.09 123.954 452.027 123.643C451.903 123.332 451.591 123.145 451.28 123.207L444.372 125.198C444.061 125.323 443.874 125.634 443.937 125.945C443.998 126.195 444.248 126.381 444.496 126.381Z" fill="#404040"/>
<path d="M468.087 126.754C468.398 126.754 468.709 126.505 468.709 126.193C468.709 125.82 468.461 125.571 468.149 125.509L461.116 125.074C460.805 125.074 460.494 125.322 460.432 125.633C460.432 126.007 460.68 126.256 460.992 126.318L468.087 126.754C468.025 126.754 468.025 126.754 468.087 126.754Z" fill="#404040"/>
<path d="M454.833 138.638C454.958 138.638 455.082 138.514 455.144 138.389C455.207 138.203 455.082 138.078 454.896 138.016L447.987 136.585C447.8 136.522 447.676 136.647 447.614 136.834C447.551 137.02 447.676 137.145 447.863 137.207L454.771 138.638C454.833 138.638 454.833 138.638 454.833 138.638Z" fill="#404040"/>
<path d="M484.267 133.349C484.328 133.349 484.391 133.349 484.453 133.287C484.578 133.162 484.639 132.976 484.515 132.851C484.453 132.789 483.52 131.544 481.341 131.979C481.154 132.042 481.092 132.166 481.092 132.353C481.154 132.54 481.279 132.602 481.465 132.602C483.208 132.229 483.955 133.162 483.955 133.224C484.079 133.349 484.204 133.349 484.267 133.349Z" fill="#404040"/>
<path d="M482.09 134.407C482.277 134.407 482.401 134.22 482.401 134.034C482.338 133.349 483.646 132.104 484.516 131.482C484.641 131.357 484.704 131.171 484.579 131.046C484.455 130.921 484.268 130.86 484.143 130.984C483.894 131.171 481.654 132.851 481.778 134.096C481.778 134.282 481.903 134.407 482.09 134.407Z" fill="#404040"/>
<path d="M473.626 118.038L476.053 130.735C476.053 130.735 481.78 128.433 484.269 128.245C488.314 125.507 480.534 116.172 480.534 116.172L473.626 118.038Z" fill="#404040"/>
<path d="M454.582 106.715L455.141 106.466C454.706 105.532 453.772 105.034 452.963 104.599C452.714 104.474 452.403 104.288 452.154 104.163C448.855 101.984 444.561 98.9353 440.951 95.0759C438.338 92.3379 436.097 89.4126 436.906 84.4338C437.03 83.7493 437.341 83.3759 437.964 83.1887C440.827 82.3803 448.17 86.7984 450.225 89.164L450.722 88.7905C448.544 86.2387 441.076 81.6948 437.839 82.629C436.968 82.8776 436.47 83.4997 436.283 84.3714C435.412 89.5998 437.777 92.6489 440.454 95.5118C444.126 99.4326 448.42 102.483 451.78 104.723C452.03 104.91 452.341 105.034 452.59 105.221C453.399 105.532 454.208 105.968 454.582 106.715Z" fill="#A414D5"/>
<path d="M403.92 218.12C404.543 217.934 405.476 217.622 406.596 217.25C408.961 216.378 412.259 215.195 413.816 215.195C413.94 215.195 414.064 215.071 414.064 214.946C414.064 214.822 413.94 214.698 413.816 214.698C412.135 214.698 408.961 215.817 406.409 216.751C405.351 217.125 404.418 217.498 403.857 217.622C403.733 217.684 403.671 217.809 403.671 217.934C403.733 218.058 403.796 218.12 403.92 218.12Z" fill="#404040"/>
<path d="M401.182 222.289C401.244 222.289 401.244 222.289 401.182 222.289C401.804 222.101 402.614 221.79 403.547 221.417C405.725 220.546 408.775 219.301 411.077 219.301C411.202 219.301 411.326 219.176 411.326 219.052C411.326 218.928 411.202 218.804 411.077 218.804C408.65 218.804 405.6 220.048 403.361 220.92C402.426 221.293 401.68 221.604 401.12 221.728C400.995 221.79 400.933 221.915 400.933 222.04C400.995 222.226 401.12 222.289 401.182 222.289Z" fill="#404040"/>
<path d="M450.663 253.72C450.663 253.72 396.019 250.235 393.094 256.957C390.169 263.678 390.151 341.132 390.151 341.132H408.035L412.387 267.848L450.663 253.72Z" fill="#A414D5"/>
<path d="M390.165 341.299C390.165 341.299 390.165 343.912 390.165 344.97C390.165 347.398 390.165 348.767 390.165 348.767L406.285 347.192L406.596 341.112L390.165 341.299Z" fill="#F5BE9F"/>
<path d="M365.707 374.163H416.244C417.302 374.163 418.11 373.354 418.11 372.296C418.11 371.238 417.302 370.43 416.244 370.43H365.707C364.649 370.43 363.84 371.238 363.84 372.296C363.84 373.354 364.712 374.163 365.707 374.163Z" fill="#C4B6FF"/>
<path opacity="0.7" d="M365.707 374.163H416.244C417.302 374.163 418.11 373.354 418.11 372.296C418.11 371.238 417.302 370.43 416.244 370.43H365.707C364.649 370.43 363.84 371.238 363.84 372.296C363.84 373.354 364.712 374.163 365.707 374.163Z" fill="#A414D5"/>
<path d="M505.056 252.471V265.354C505.056 272.822 498.957 283.901 491.489 283.901C484.95 283.901 429.975 282.068 429.975 284.092L427.418 346.037H406.161L407.158 271.142C407.282 263.051 413.505 256.392 421.534 255.645L454.707 252.533H505.056V252.471Z" fill="#A414D5"/>
<path opacity="0.5" d="M505.053 252.471V265.354C505.053 272.822 498.953 283.901 491.485 283.901C484.946 283.901 429.971 282.068 429.971 284.092L427.414 346.037H406.157L407.154 271.142C407.279 263.051 413.503 256.392 421.53 255.645L454.703 252.533H505.053V252.471Z" fill="#C4B6FF"/>
<path d="M409.105 346.041V366.89C409.105 368.944 407.687 370.562 405.886 370.562L365.533 371.369C364.169 371.369 363.227 368.57 364.317 367.637L389.793 352.326V346.041H409.105Z" fill="#A414D5"/>
<path d="M409.105 346.041V366.89C409.105 368.944 407.687 370.562 405.886 370.562L365.533 371.369C364.169 371.369 363.227 368.57 364.317 367.637L389.793 352.326V346.041H409.105Z" fill="#A414D5"/>
<path d="M406.1 346.216H427.82V349.825H406.1V346.216Z" fill="#F5BE9F"/>
<path d="M427.819 349.823V370.673C427.819 372.726 426.201 374.345 424.147 374.345H376.722C375.167 374.345 375.478 372.353 376.722 371.419L405.787 356.109V349.823H427.819Z" fill="#C4B6FF"/>
<path opacity="0.5" d="M427.819 349.823V370.673C427.819 372.726 426.201 374.345 424.147 374.345H376.722C375.167 374.345 375.478 372.353 376.722 371.419L405.787 356.109V349.823H427.819Z" fill="#A414D5"/>
<path d="M405.798 346.523H428.455C428.648 346.523 428.775 346.398 428.775 346.21C428.775 346.024 428.648 345.899 428.455 345.899H405.798C405.606 345.899 405.478 346.024 405.478 346.21C405.478 346.398 405.606 346.523 405.798 346.523Z" fill="#404040"/>
<path d="M405.789 350.445H427.821C428.007 350.445 428.132 350.321 428.132 350.134C428.132 349.947 428.007 349.823 427.821 349.823H405.789C405.601 349.823 405.478 349.947 405.478 350.134C405.478 350.321 405.601 350.445 405.789 350.445Z" fill="#404040"/>
<path d="M390.109 341.483H405.974C406.162 341.483 406.288 341.359 406.288 341.171C406.288 340.985 406.162 340.86 405.974 340.86H390.171C389.983 340.86 389.857 340.985 389.857 341.171C389.857 341.359 389.983 341.483 390.109 341.483Z" fill="#404040"/>
<path d="M390.104 346.525H405.788C405.975 346.525 406.099 346.402 406.099 346.214C406.099 346.028 405.975 345.903 405.788 345.903H390.167C389.98 345.903 389.855 346.028 389.855 346.214C389.855 346.402 389.98 346.525 390.104 346.525Z" fill="#404040"/>
<path d="M376.536 377.523H427.073C428.131 377.523 428.94 376.714 428.94 375.656C428.94 374.598 428.131 373.789 427.073 373.789H376.536C375.478 373.789 374.669 374.598 374.669 375.656C374.669 376.714 375.541 377.523 376.536 377.523Z" fill="#C4B6FF"/>
<path opacity="0.3" d="M376.536 377.523H427.073C428.131 377.523 428.94 376.714 428.94 375.656C428.94 374.598 428.131 373.789 427.073 373.789H376.536C375.478 373.789 374.669 374.598 374.669 375.656C374.669 376.714 375.541 377.523 376.536 377.523Z" fill="#A414D5"/>
<path d="M481.471 268.22C481.844 268.22 482.218 268.158 482.591 268.095C485.267 267.536 485.143 264.237 485.081 261.81C485.081 261.436 485.081 261.063 485.081 260.752C485.081 260.565 484.956 260.441 484.77 260.441C484.582 260.441 484.458 260.565 484.458 260.752C484.458 261.063 484.458 261.436 484.458 261.81C484.52 264.112 484.582 267.037 482.466 267.473C481.16 267.784 479.852 267.473 478.608 266.601C475.372 264.424 473.504 259.507 473.38 258.636C473.38 258.449 473.193 258.324 473.006 258.386C472.82 258.386 472.695 258.574 472.757 258.76C473.006 260.067 475.061 264.984 478.235 267.162C479.292 267.909 480.35 268.22 481.471 268.22Z" fill="#404040"/>
<path d="M418.293 322.055C418.481 322.055 418.605 321.93 418.605 321.744V277.991C418.605 273.198 422.464 269.34 427.256 269.34L474.245 267.971C474.432 267.971 474.556 267.846 474.556 267.66C474.556 267.472 474.37 267.349 474.245 267.349L427.256 268.718C422.153 268.718 417.982 272.887 417.982 277.991V321.744C417.982 321.868 418.107 322.055 418.293 322.055Z" fill="#404040"/>
<path fill-rule="evenodd" clip-rule="evenodd" d="M395.432 125.693C396.659 124.411 398.73 124.486 399.861 125.853L415.325 144.532C417.182 146.774 415.037 150.071 412.234 149.282L385.96 141.889C383.803 141.282 383.069 138.595 384.62 136.977L395.432 125.693ZM397.901 127.475C397.74 127.28 397.444 127.27 397.269 127.453L386.457 138.738C386.235 138.969 386.341 139.352 386.649 139.439L412.924 146.833C413.323 146.946 413.631 146.475 413.365 146.154L397.901 127.475Z" fill="#B5CDFB"/>
<path d="M386.977 114.953H300.529C291.561 114.953 284.292 122.222 284.292 131.189C284.292 140.157 291.561 147.426 300.529 147.426H386.977C395.945 147.426 403.214 140.157 403.214 131.189C403.214 122.222 395.945 114.953 386.977 114.953Z" fill="#C4B6FF"/>
<path fill-rule="evenodd" clip-rule="evenodd" d="M259.894 75.7393C258.468 74.6725 256.43 75.086 255.533 76.6266L243.285 97.6631C241.815 100.189 244.481 103.102 247.127 101.861L271.934 90.2242C273.97 89.2686 274.255 86.4877 272.454 85.1401L259.894 75.7393ZM257.74 77.9118C257.869 77.6914 258.159 77.6319 258.363 77.785L270.923 87.1848C271.181 87.3779 271.14 87.7748 270.849 87.9113L246.042 99.548C245.665 99.7254 245.283 99.3091 245.493 98.9483L257.74 77.9118Z" fill="#B5CDFB"/>
<path d="M264.986 59H351.434C360.402 59 367.671 66.2693 367.671 75.2362C367.671 84.204 360.402 91.4733 351.434 91.4733H264.986C256.019 91.4733 248.749 84.204 248.749 75.2362C248.749 66.2693 256.019 59 264.986 59Z" fill="#A414D5"/>
</svg>
