<svg width="534" height="400" viewBox="0 0 534 400" fill="none" xmlns="http://www.w3.org/2000/svg">
<path d="M148.421 337.932C158.323 325.195 162.776 283.239 101.369 217.311C93.2183 244.202 91.2183 305.971 148.421 337.932Z" fill="#A414D5"/>
<path d="M148.421 337.933C158.323 325.196 125.566 307.177 101.368 217.312C93.2185 244.202 91.2185 305.972 148.421 337.933Z" fill="#020202" fill-opacity="0.21"/>
<path d="M171.581 371.393C180.098 353.438 186.022 292.445 134.092 233.884C117.864 275.663 129.594 359.791 171.581 371.393Z" fill="#B5CDFB"/>
<path d="M171.581 371.393C153.377 327.11 146.127 299.833 134.092 233.884C117.863 275.663 129.595 359.791 171.581 371.393Z" fill="black" fill-opacity="0.21"/>
<path d="M171.44 371.998C175.354 344.605 159.977 278.081 67.165 231.123C69.467 269.564 93.5449 351.557 171.44 371.998Z" fill="#A414D5"/>
<path d="M171.44 371.998C151.651 345.066 126.446 335.743 67.165 231.123C69.467 269.564 93.5449 351.557 171.44 371.998Z" fill="black" fill-opacity="0.26"/>
<path d="M169.714 371.998C170.52 355.885 150.102 318.963 61.9863 300.18C70.7335 326.882 104.525 378.628 169.714 371.998Z" fill="#B5CDFB"/>
<path d="M169.716 371.998C170.521 355.885 133.353 359.914 61.9873 300.18C70.7345 326.882 104.526 378.628 169.716 371.998Z" fill="#020202" fill-opacity="0.21"/>
<path d="M526.663 219.384C526.663 305.196 457.099 374.761 371.286 374.761C285.474 374.761 215.909 305.196 215.909 219.384C215.909 133.572 285.474 64.0068 371.286 64.0068C457.099 64.0068 526.663 133.572 526.663 219.384Z" fill="#C4B6FF"/>
<path fill-rule="evenodd" clip-rule="evenodd" d="M369.214 143.42C369.214 142.658 369.832 142.04 370.595 142.04C371.358 142.04 371.976 142.658 371.976 143.42V223.008C375.358 223.694 378.022 226.359 378.709 229.741H427.221C427.984 229.741 428.602 230.36 428.602 231.122C428.602 231.885 427.984 232.503 427.221 232.503H378.82C378.308 236.782 374.666 240.1 370.25 240.1C365.482 240.1 361.618 236.235 361.618 231.468C361.618 227.05 364.935 223.408 369.214 222.897V143.42Z" fill="black" fill-opacity="0.62"/>
<path d="M452.773 117.526L255.271 279.464L262.867 291.893L463.821 128.23L452.773 117.526Z" fill="white" fill-opacity="0.13"/>
<path d="M469.69 133.753L267.355 298.453C272.764 306.529 278.576 311.288 290.143 322.622L485.574 154.125L469.69 133.753Z" fill="white" fill-opacity="0.06"/>
<path d="M287.382 149.981C294.142 139.841 310.861 128.573 310.861 128.573C310.861 128.573 339.865 116.143 348.843 128.573C364.67 150.489 326.054 159.649 316.386 185.2C308.354 206.428 315.695 235.919 297.741 241.481C267.73 250.776 258.378 193.486 287.382 149.981Z" fill="black" fill-opacity="0.14"/>
<path d="M476.594 208.505C473.332 196.763 463.128 183.3 463.128 183.3C463.128 183.3 435.505 156.367 426.527 168.798C410.7 190.713 450.697 204.32 450.697 231.639C450.697 257.535 404.429 296.515 422.384 302.077C452.395 311.373 490.405 258.226 476.594 208.505Z" fill="black" fill-opacity="0.06"/>
<path d="M461.405 310.538C254.581 394.442 211.42 172.425 312.242 103.713C226.612 150.326 235.245 239.41 254.581 281.189C319.148 383.738 426.992 346.908 461.405 310.538Z" fill="black" fill-opacity="0.1"/>
<path d="M526.663 219.384C526.663 305.196 457.099 374.761 371.286 374.761C285.474 374.761 215.909 305.196 215.909 219.384C215.909 133.572 285.474 64.0068 371.286 64.0068C457.099 64.0068 526.663 133.572 526.663 219.384ZM241.134 219.384C241.134 291.265 299.405 349.536 371.286 349.536C443.167 349.536 501.438 291.265 501.438 219.384C501.438 147.503 443.167 89.2321 371.286 89.2321C299.405 89.2321 241.134 147.503 241.134 219.384Z" fill="white" fill-opacity="0.17"/>
<path d="M226.816 162.191C215.505 190.764 212.92 222.05 219.389 252.092C225.858 282.134 241.091 309.583 263.161 330.968C285.23 352.353 313.145 366.713 343.376 372.233C373.607 377.753 404.796 374.184 432.999 361.978C461.201 349.772 449.664 327.279 422.979 338.828C399.355 349.052 373.23 352.042 347.907 347.418C322.584 342.794 299.201 330.765 280.714 312.852C262.228 294.939 249.468 271.946 244.05 246.782C238.63 221.617 240.795 195.411 250.27 171.476C263.161 138.914 238.128 133.618 226.816 162.191Z" fill="black" fill-opacity="0.1"/>
<path fill-rule="evenodd" clip-rule="evenodd" d="M368.868 104.058C370.203 104.058 371.285 102.976 371.285 101.641C371.285 100.306 370.203 99.2241 368.868 99.2241C367.533 99.2241 366.451 100.306 366.451 101.641C366.451 102.976 367.533 104.058 368.868 104.058ZM486.954 220.073C488.29 220.073 489.372 218.991 489.372 217.656C489.372 216.321 488.29 215.239 486.954 215.239C485.62 215.239 484.538 216.321 484.538 217.656C484.538 218.991 485.62 220.073 486.954 220.073ZM373.702 331.254C375.037 331.254 376.119 330.172 376.119 328.837C376.119 327.502 375.037 326.42 373.702 326.42C372.367 326.42 371.285 327.502 371.285 328.837C371.285 330.172 372.367 331.254 373.702 331.254ZM260.794 219.728C260.794 221.063 259.712 222.145 258.378 222.145C257.043 222.145 255.96 221.063 255.96 219.728C255.96 218.393 257.043 217.311 258.378 217.311C259.712 217.311 260.794 218.393 260.794 219.728Z" fill="black" fill-opacity="0.18"/>
<path fill-rule="evenodd" clip-rule="evenodd" d="M150.304 140.543V287.895C164.952 261.642 186.555 235.82 212.455 227.599V217.657V199.203C186.727 191.061 165.074 166.137 150.304 140.543ZM308.444 284.787V143.672C287.462 176.044 266.923 192.908 247.675 199.119V217.657V227.999C266.812 234.504 287.322 251.802 308.444 284.787ZM315.35 43.2892V355.424H317.421L324.672 373.38H315.35H308.444H136.493L144.089 358.75V43.2892H145.47L143.744 43.2892L134.422 25.3345H321.91H322.601L315.35 43.2892Z" fill="white" fill-opacity="0.57"/>
<path fill-rule="evenodd" clip-rule="evenodd" d="M164.461 154.125C171.252 165.289 200.37 194.085 213.836 195.558C217.565 195.966 220.05 197.015 222.361 197.99C228.394 200.536 233.241 202.582 255.96 191.415C287.381 175.971 305.681 151.018 289.798 151.018C284.51 151.018 276.842 152.158 268.392 153.414C251.465 155.932 231.406 158.916 221.087 154.125C206.564 147.382 197.495 149.015 190.661 150.246C188.397 150.654 186.377 151.018 184.487 151.018C178.41 151.018 166.648 153.089 164.461 154.125ZM179.093 341.595C184.11 339.533 190.21 337.025 197.608 331.945C213.114 321.299 217.296 317.479 221.487 317.468C223.549 317.463 225.613 318.38 229.029 319.86C232.311 321.283 236.622 319.628 241.169 317.883C248.102 315.222 255.582 312.351 260.794 319.858C260.794 319.858 274.547 326.739 282.893 331.945C295.637 339.896 313.623 355.078 313.623 355.078H163.08C166.465 346.788 171.559 344.694 179.093 341.595Z" fill="#A414D5"/>
<path d="M205.702 331.67C200.73 335.813 187.747 340.071 180.842 343.755C173.936 347.438 185.011 345.208 188.438 345.481C202.046 346.566 205.702 336.849 221.585 331.67C225.072 330.533 220.204 321.656 216.06 324.073C211.918 326.489 210.675 327.525 205.708 331.665L205.702 331.67Z" fill="black" fill-opacity="0.12"/>
<path d="M237.662 330.22C238.78 322.455 254.235 315.718 254.235 320.551C254.235 325.899 262.75 326.237 266.32 330.219C275.296 340.233 295.324 340.578 295.324 346.102C295.324 352.844 280.477 348.519 280.477 348.519C280.477 348.519 266.671 338.215 256.307 335.399C250.915 333.934 236.544 337.979 237.662 330.22Z" fill="black" fill-opacity="0.09"/>
<path d="M309.135 139.968C263.903 219.037 171.712 100.605 171.712 42.9429H309.135V139.968Z" fill="black" fill-opacity="0.05"/>
<path d="M222.814 201.084L212.801 199.357V228.016H218.325L222.814 201.084Z" fill="black" fill-opacity="0.12"/>
<path d="M149.614 140.313V49.5034C149.614 49.5034 169.02 182.688 223.849 201.083C209.693 201.083 180.344 189.343 149.614 140.313Z" fill="black" fill-opacity="0.09"/>
<path d="M210.383 355.425H150.305C148.233 277.045 186.904 239.87 212.801 228.015H218.325C178.825 287.128 194.961 336.089 210.383 355.425Z" fill="black" fill-opacity="0.03"/>
<path fill-rule="evenodd" clip-rule="evenodd" d="M134.422 25.3345L143.744 43.2892H315.35L322.601 25.3345H134.422ZM150.304 43.2892H144.089V358.75L136.493 373.38H308.444H315.35H324.672L317.421 355.424H315.35V43.2892L308.444 43.2892V355.424H150.304V43.2892Z" fill="#505050"/>
<path d="M149.269 41.2169L142.708 28.0962H218.325L225.922 41.2169H149.269Z" fill="black" fill-opacity="0.25"/>
<path d="M263.212 41.2169L255.96 28.0962H299.26L305.681 41.2169H263.212Z" fill="black" fill-opacity="0.25"/>
<path d="M156.865 371.307L150.304 358.187H225.921L233.517 371.307H156.865Z" fill="black" fill-opacity="0.25"/>
<path d="M270.808 371.307L263.557 358.187H306.856L313.277 371.307H270.808Z" fill="black" fill-opacity="0.25"/>
<path d="M146.161 48.1226L149.613 40.5264V340.232L146.161 331.6V48.1226Z" fill="black" fill-opacity="0.29"/>
<path d="M309.135 43.9785L312.587 36.3823V336.088L309.135 327.456V43.9785Z" fill="black" fill-opacity="0.29"/>
<path d="M330.32 340.003C320.417 327.266 315.965 285.31 377.372 219.382C385.522 246.272 387.522 308.042 330.32 340.003Z" fill="#A414D5"/>
<path d="M330.32 340.004C320.418 327.266 353.175 309.247 377.372 219.382C385.522 246.273 387.522 308.043 330.32 340.004Z" fill="#020202" fill-opacity="0.21"/>
<path d="M307.16 373.466C298.642 355.511 292.718 294.517 344.649 235.957C360.877 277.736 349.146 361.864 307.16 373.466Z" fill="#B5CDFB"/>
<path d="M307.158 373.466C325.362 329.183 332.613 301.906 344.647 235.957C360.876 277.736 349.145 361.864 307.158 373.466Z" fill="black" fill-opacity="0.21"/>
<path d="M307.3 374.068C303.387 346.676 318.763 280.152 411.575 233.193C409.273 271.635 385.195 353.628 307.3 374.068Z" fill="#A414D5"/>
<path d="M307.3 374.068C327.09 347.137 352.295 337.814 411.576 233.193C409.274 271.635 385.196 353.628 307.3 374.068Z" fill="black" fill-opacity="0.26"/>
<path d="M309.026 374.069C308.22 357.956 328.638 321.034 416.754 302.25C408.007 328.952 374.215 380.699 309.026 374.069Z" fill="#B5CDFB"/>
<path d="M309.026 374.069C308.22 357.956 345.388 361.984 416.754 302.25C408.006 328.952 374.214 380.699 309.026 374.069Z" fill="#020202" fill-opacity="0.21"/>
<path fill-rule="evenodd" clip-rule="evenodd" d="M471.762 375.105H6.6665V373.034H471.762V375.105Z" fill="#3C3C3C"/>
</svg>
