<svg width="534" height="400" viewBox="0 0 534 400" fill="none" xmlns="http://www.w3.org/2000/svg">
<path opacity="0.31" d="M65.6606 288.989C55.4393 289.704 48.6215 292.097 49.7783 294.871L94.146 322.916C95.5007 326.166 107.285 328.702 120.459 328.585L462.13 325.543C464.066 325.526 465.922 325.452 467.68 325.33C477.896 324.615 484.706 322.222 483.554 319.451L439.182 291.402C437.831 288.155 426.043 285.616 412.869 285.734L71.1968 288.776C69.2662 288.793 67.4142 288.866 65.6606 288.989Z" fill="black"/>
<path d="M214.421 242.093H176.74L177.803 245.775H210.825L220.64 279.774H225.299L214.421 242.093ZM345.458 242.093H307.777L308.839 245.775H341.862L351.677 279.774H356.335L345.458 242.093ZM410.981 242.093H373.3L374.363 245.775H407.385L417.2 279.774H421.859L410.981 242.093ZM180.983 126.259H143.302L144.364 129.941H177.387L187.202 163.94H191.86L180.983 126.259ZM246.506 126.259H208.825L209.888 129.941H242.9L252.714 163.94H257.384L246.506 126.259ZM377.543 126.259H339.862L340.925 129.941H373.947L383.762 163.94H388.42L377.543 126.259ZM247.82 285.866L236.247 245.775H276.338L287.912 285.866H247.82ZM176.598 245.775L175.187 240.888H215.279L226.852 280.98H220.988L222.399 285.866H182.307L170.734 245.775H176.598ZM307.634 245.775L306.223 240.888H346.315L357.888 280.98H352.024L353.435 285.866H313.343L301.77 245.775H307.634ZM373.158 245.775L371.747 240.888H411.839L423.412 280.98H417.548L418.959 285.866H378.856L367.283 245.775H373.158ZM165.59 227.955L154.016 187.863H194.107L205.681 227.955H165.59ZM231.103 227.955L219.529 187.863H259.62L271.194 227.955H231.103ZM296.626 227.955L285.052 187.863H325.144L336.718 227.955H296.626ZM362.138 227.955L350.565 187.863H390.668L402.242 227.955H362.138ZM279.905 170.032L268.332 129.941H308.423L319.997 170.032H279.905ZM143.159 129.941L141.748 125.054H181.84L193.414 165.146H187.55L188.96 170.032H148.868L137.295 129.941H143.159ZM208.683 129.941L207.272 125.054H247.364L258.937 165.146H253.062L254.473 170.032H214.381L202.808 129.941H208.683ZM339.719 129.941L338.309 125.054H378.4L389.974 165.146H384.11L385.52 170.032H345.418L333.845 129.941H339.719ZM391.131 100.491H107.945C96.8141 100.491 90.3795 109.537 93.5928 120.667L147.774 308.356C150.984 319.475 162.644 328.531 173.774 328.531H456.919C465.356 326.307 469.73 318.121 466.911 308.356L412.73 120.667C409.915 110.916 400.837 102.733 391.131 100.491ZM102.739 99.8828H88.4615C76.9835 99.8828 70.3743 109.189 73.6882 120.667L127.869 308.356C131.182 319.833 143.161 329.129 154.639 329.129H168.872C158.863 326.845 149.468 318.4 146.568 308.356L92.3875 120.667C89.4828 110.606 94.0208 102.149 102.739 99.8828Z" fill="#A414D5"/>
<path d="M143.157 129.941H137.293L148.867 170.033H188.959L187.548 165.146H153.32L143.157 129.941ZM177.385 129.941H144.363L154.178 163.941H187.2L177.385 129.941Z" fill="#C4B6FF"/>
<path d="M144.365 129.942L143.302 126.261H180.983L191.861 163.942H187.202H154.18L144.365 129.942ZM181.841 125.055H141.749L143.16 129.942L153.322 165.147H187.55H193.414L181.841 125.055Z" fill="black"/>
<path d="M208.681 129.941H202.806L214.379 170.033H254.471L253.06 165.146H218.843L208.681 129.941ZM242.898 129.941H209.886L219.701 163.941H252.713L242.898 129.941Z" fill="#C4B6FF"/>
<path d="M209.888 129.941L208.825 126.26H246.506L257.384 163.941H252.714H219.703L209.888 129.941ZM247.364 125.055H207.272L208.683 129.941L218.845 165.146H253.062H258.937L247.364 125.055Z" fill="black"/>
<path d="M308.423 129.941H268.332L279.905 170.033H319.997L308.423 129.941Z" fill="#C4B6FF"/>
<path d="M339.719 129.941H333.844L345.418 170.033H385.52L384.11 165.146H349.882L339.719 129.941ZM373.947 129.941H340.924L350.739 163.941H383.762L373.947 129.941Z" fill="#C4B6FF"/>
<path d="M340.924 129.942L339.861 126.261H377.542L388.42 163.942H383.761H350.738L340.924 129.942ZM378.4 125.055H338.308L339.719 129.942L349.881 165.147H384.109H389.973L378.4 125.055Z" fill="black"/>
<path d="M194.109 187.863H154.017L165.591 227.955H205.682L194.109 187.863Z" fill="#C4B6FF"/>
<path d="M259.619 187.863H219.527L231.101 227.955H271.192L259.619 187.863Z" fill="#C4B6FF"/>
<path d="M325.142 187.863H285.05L296.624 227.955H336.716L325.142 187.863Z" fill="#C4B6FF"/>
<path d="M390.666 187.863H350.563L362.136 227.955H402.239L390.666 187.863Z" fill="#C4B6FF"/>
<path d="M176.597 245.774H170.734L182.307 285.866H222.399L220.988 280.979H186.76L176.597 245.774ZM210.825 245.774H177.803L187.618 279.774H220.64L210.825 245.774Z" fill="#C4B6FF"/>
<path d="M177.802 245.776L176.74 242.094H214.421L225.298 279.776H220.64H187.618L177.802 245.776ZM215.278 240.889H175.186L176.597 245.776L186.76 280.981H220.988H226.851L215.278 240.889Z" fill="black"/>
<path d="M276.338 245.774H236.246L247.819 285.866H287.911L276.338 245.774Z" fill="#C4B6FF"/>
<path d="M307.633 245.774H301.769L313.342 285.866H353.434L352.024 280.98H317.795L307.633 245.774ZM341.861 245.774H308.838L318.653 279.774H351.676L341.861 245.774Z" fill="#C4B6FF"/>
<path d="M308.838 245.776L307.775 242.094H345.457L356.334 279.776H351.675H318.653L308.838 245.776ZM346.314 240.889H306.222L307.633 245.776L317.795 280.981H352.023H357.887L346.314 240.889Z" fill="black"/>
<path d="M373.156 245.774H367.282L378.855 285.866H418.957L417.547 280.98H383.319L373.156 245.774ZM407.384 245.774H374.362L384.177 279.774H417.199L407.384 245.774Z" fill="#C4B6FF"/>
<path d="M374.361 245.776L373.298 242.094H410.98L421.857 279.776H417.198H384.176L374.361 245.776ZM411.837 240.889H371.745L373.156 245.776L383.318 280.981H417.546H423.41L411.837 240.889Z" fill="black"/>
<path d="M391.132 100.491H405.43C416.561 100.491 428.217 109.537 431.431 120.667L485.612 308.356C488.822 319.475 482.39 328.532 471.26 328.532H456.921H173.776C162.645 328.532 150.984 319.475 147.775 308.356L93.5942 120.667C90.3809 109.537 96.8155 100.491 107.946 100.491H391.132ZM405.082 99.2861H107.598C105.866 99.2861 104.241 99.4928 102.74 99.8835C94.0222 102.15 89.4842 110.606 92.3888 120.667L146.57 308.356C149.469 318.4 158.864 326.846 168.873 329.129C170.615 329.527 172.375 329.737 174.123 329.737H471.608C483.4 329.737 490.221 320.149 486.817 308.356L432.636 120.667C429.231 108.875 416.875 99.2861 405.082 99.2861Z" fill="#333333"/>
<path d="M141.14 112.084C140.89 112.084 140.648 111.948 140.524 111.712C140.344 111.371 140.475 110.95 140.816 110.77C146.555 107.751 150.121 101.849 150.121 95.3686C150.121 85.778 142.318 77.976 132.728 77.976C123.138 77.976 115.335 85.778 115.335 95.3686C115.335 95.7532 115.023 96.0659 114.639 96.0659C114.254 96.0659 113.942 95.7532 113.942 95.3686C113.942 85.01 122.369 76.582 132.728 76.582C143.086 76.582 151.514 85.01 151.514 95.3686C151.514 102.368 147.663 108.742 141.464 112.004C141.361 112.058 141.25 112.084 141.14 112.084Z" fill="#4D4D4D"/>
<path d="M188 112.084C187.75 112.084 187.508 111.948 187.383 111.711C187.204 111.371 187.335 110.949 187.675 110.77C193.415 107.749 196.98 101.848 196.98 95.3681C196.98 85.7775 189.178 77.9755 179.587 77.9755C169.997 77.9755 162.194 85.7775 162.194 95.3681C162.194 95.7528 161.882 96.0654 161.498 96.0654C161.113 96.0654 160.801 95.7528 160.801 95.3681C160.801 85.0095 169.228 76.5815 179.587 76.5815C189.946 76.5815 198.373 85.0095 198.373 95.3681C198.373 102.367 194.523 108.741 188.324 112.003C188.22 112.058 188.11 112.084 188 112.084Z" fill="#4D4D4D"/>
<path d="M234.864 112.084C234.613 112.084 234.372 111.948 234.247 111.711C234.068 111.371 234.198 110.949 234.539 110.77C240.278 107.75 243.844 101.849 243.844 95.3681C243.844 85.7775 236.042 77.9755 226.451 77.9755C216.861 77.9755 209.059 85.7775 209.059 95.3681C209.059 95.7528 208.747 96.0654 208.362 96.0654C207.977 96.0654 207.665 95.7528 207.665 95.3681C207.665 85.0095 216.093 76.5815 226.451 76.5815C236.81 76.5815 245.237 85.0095 245.237 95.3681C245.237 102.367 241.386 108.741 235.188 112.003C235.084 112.058 234.973 112.084 234.864 112.084Z" fill="#4D4D4D"/>
<path d="M281.724 112.084C281.473 112.084 281.231 111.948 281.106 111.711C280.927 111.371 281.058 110.949 281.398 110.77C287.138 107.749 290.704 101.848 290.704 95.3681C290.704 85.7775 282.901 77.9755 273.31 77.9755C263.72 77.9755 255.918 85.7775 255.918 95.3681C255.918 95.7528 255.606 96.0654 255.221 96.0654C254.836 96.0654 254.524 95.7528 254.524 95.3681C254.524 85.0095 262.952 76.5815 273.31 76.5815C283.67 76.5815 292.097 85.0095 292.097 95.3681C292.097 102.367 288.246 108.741 282.047 112.003C281.944 112.058 281.833 112.084 281.724 112.084Z" fill="#4D4D4D"/>
<path d="M328.717 112.084C328.467 112.084 328.225 111.948 328.101 111.711C327.921 111.371 328.052 110.949 328.393 110.77C334.132 107.75 337.698 101.849 337.698 95.3681C337.698 85.7775 329.895 77.9755 320.305 77.9755C310.714 77.9755 302.912 85.7775 302.912 95.3681C302.912 95.7528 302.6 96.0654 302.215 96.0654C301.831 96.0654 301.519 95.7528 301.519 95.3681C301.519 85.0095 309.946 76.5815 320.305 76.5815C330.663 76.5815 339.091 85.0095 339.091 95.3681C339.091 102.367 335.24 108.741 329.041 112.003C328.938 112.058 328.827 112.084 328.717 112.084Z" fill="#4D4D4D"/>
<path d="M375.577 112.084C375.326 112.084 375.085 111.948 374.96 111.711C374.78 111.371 374.912 110.949 375.252 110.77C380.992 107.749 384.557 101.848 384.557 95.3681C384.557 85.7775 376.754 77.9755 367.164 77.9755C357.574 77.9755 349.771 85.7775 349.771 95.3681C349.771 95.7528 349.459 96.0654 349.075 96.0654C348.69 96.0654 348.378 95.7528 348.378 95.3681C348.378 85.0095 356.805 76.5815 367.164 76.5815C377.523 76.5815 385.95 85.0095 385.95 95.3681C385.95 102.367 382.1 108.741 375.901 112.003C375.797 112.058 375.686 112.084 375.577 112.084Z" fill="#4D4D4D"/>
<path d="M500.041 293.358H446.383C444.476 293.358 442.929 291.811 442.929 289.904V286.086C442.929 284.179 444.476 282.632 446.383 282.632H500.041C501.948 282.632 503.494 284.179 503.494 286.086V289.904C503.494 291.811 501.948 293.358 500.041 293.358Z" fill="#B5CDFB"/>
<path d="M94.8935 61.2014C97.1188 58.6701 96.1655 54.1952 92.7655 51.2066C89.3649 48.2179 84.8049 47.8473 82.5803 50.3786C80.3556 52.9099 81.3083 57.3847 84.7083 60.3734C88.1089 63.362 92.6689 63.7327 94.8935 61.2014Z" fill="#B5CDFB"/>
<path d="M116.847 61.0579C119.071 58.5266 118.119 54.0517 114.719 51.0631C111.318 48.0744 106.758 47.7037 104.533 50.235C102.308 52.7663 103.261 57.2412 106.661 60.2298C110.062 63.2185 114.622 63.5892 116.847 61.0579Z" fill="#C4B6FF"/>
<path d="M138.8 60.9123C141.024 58.381 140.072 53.9062 136.671 50.9175C133.271 47.9289 128.711 47.5582 126.486 50.0895C124.261 52.6208 125.214 57.0957 128.614 60.0843C132.014 63.073 136.574 63.4436 138.8 60.9123Z" fill="#A414D5"/>
</svg>
