<svg width="172" height="180" viewBox="0 0 172 180" fill="none" xmlns="http://www.w3.org/2000/svg">
<g opacity="0.04">
<path d="M11.4345 55.4508C2.3945 59.1633 -3.6455 41.9258 2.4945 42.9258C2.6651 42.9529 2.82742 43.035 2.9658 43.1641C3.10417 43.2933 3.21394 43.4652 3.2845 43.6633C5.5545 50.1383 8.21451 53.6882 13.3345 47.8632C37.4745 20.3966 61.6745 -6.99091 85.9345 -34.2992C89.3045 -38.0867 97.1045 -45.7618 89.3245 -51.0368C87.6978 -52.1451 86.1745 -51.9575 84.7545 -50.4742C83.5678 -49.2325 82.3578 -47.9241 81.1245 -46.5491C56.8578 -19.3908 32.1778 8.36752 7.0845 36.7259C6.9319 36.8979 6.74059 37.0069 6.53661 37.0382C6.33263 37.0695 6.12588 37.0215 5.9445 36.9007C3.2345 35.1007 4.8345 32.4382 6.4145 30.6632C32.2812 1.55489 58.0612 -27.6742 83.7545 -57.0242C93.0245 -67.5992 105.614 -49.1868 94.8845 -37.1618C68.8312 -7.97012 42.8312 21.2967 16.8845 50.6384C14.4845 53.3467 12.6678 54.9508 11.4345 55.4508Z" fill="#16192C"/>
<path d="M59.9143 53.6504C61.2543 63.3504 43.1643 57.5129 45.8443 42.1004C46.7343 36.9504 50.0343 33.5505 54.0743 29.038C70.3276 10.8547 86.5443 -7.37869 102.724 -25.662C104.334 -27.4745 106.534 -28.9245 107.304 -24.8495C107.344 -24.6293 107.336 -24.3999 107.282 -24.1847C107.227 -23.9694 107.128 -23.7761 106.994 -23.6245C89.9143 -4.55785 73.191 14.4796 56.8243 33.4879C49.7543 41.7004 52.5443 47.188 59.4743 52.813C59.5909 52.9077 59.6903 53.0312 59.7661 53.1754C59.8419 53.3196 59.8923 53.4814 59.9143 53.6504Z" fill="#16192C"/>
<path d="M123.794 -19.9245C130.874 -21.512 136.754 -11.287 134.134 -3.64949C133.348 -1.34949 131.178 1.81297 127.624 5.83797C101.504 35.4296 75.3478 64.9964 49.1545 94.5381C49.0386 94.667 48.9021 94.7619 48.755 94.8159C48.6079 94.87 48.454 94.8819 48.3045 94.8506C45.4145 94.2131 45.8345 91.6255 47.5845 89.638C72.9045 60.9714 98.3611 32.0463 123.954 2.86296C125.061 1.59629 126.084 0.233768 127.024 -1.22456C128.364 -3.32456 127.974 -6.74949 126.604 -8.79948C123.594 -13.2995 120.214 -10.9496 117.224 -7.63707C94.6245 17.3254 79.0545 35.8755 66.1245 49.1255C66.0171 49.2355 65.8933 49.3168 65.7608 49.3641C65.6283 49.4114 65.49 49.4238 65.3545 49.4004C63.7211 49.1088 63.0611 47.8713 63.3745 45.688C63.4135 45.413 63.5263 45.162 63.6945 44.9755C80.7678 25.9422 97.0611 7.59634 112.574 -10.062C115.724 -13.637 119.894 -19.0495 123.794 -19.9245Z" fill="#16192C"/>
<path d="M80.0845 103.326C71.4145 95.1007 75.1046 86.0757 81.5746 78.6882C93.1612 65.4716 104.821 52.3549 116.555 39.3383C120.705 34.7258 123.725 31.9632 128.855 34.5507C136.435 38.3757 136.575 49.8007 130.875 56.2882C119.975 68.6715 109.045 81.0424 98.0845 93.4008C96.6245 95.0424 95.4646 96.1757 94.6046 96.8007C94.4399 96.9207 94.2517 96.9797 94.0621 96.9709C93.8726 96.962 93.6895 96.8856 93.5346 96.7507C91.6879 95.134 91.8112 93.209 93.9046 90.9757C99.7312 84.7257 110.188 72.9007 125.275 55.5007C128.815 51.4132 129.305 43.7008 123.465 42.7883C120.545 42.3383 118.415 45.0757 116.315 47.4257C106.135 58.8174 95.9845 70.2508 85.8645 81.7258C79.0945 89.4133 82.8746 94.7633 88.8046 100.013C90.4979 101.513 90.4646 102.959 88.7046 104.351C85.9579 106.517 83.0845 106.176 80.0845 103.326Z" fill="#16192C"/>
<path d="M172.387 31.0805C172.752 30.6701 173.232 30.4575 173.722 30.4896C174.212 30.5218 174.671 30.7959 175 31.2517L175.227 31.5675C175.39 31.7932 175.515 32.0567 175.596 32.343C175.677 32.6293 175.713 32.9326 175.7 33.2359C175.687 33.5392 175.627 33.8365 175.522 34.1106C175.418 34.3847 175.271 34.6303 175.09 34.8335L79.5217 142.396C79.1571 142.807 78.677 143.019 78.187 142.987C77.697 142.955 77.2373 142.681 76.909 142.225L76.6815 141.909C76.519 141.683 76.3935 141.42 76.3124 141.134C76.2313 140.847 76.1961 140.544 76.2088 140.241C76.2215 139.938 76.2819 139.64 76.3865 139.366C76.4911 139.092 76.6379 138.846 76.8184 138.643L172.387 31.0805Z" fill="#16192C"/>
<path d="M180.058 48.6991C180.416 48.2947 180.888 48.0846 181.37 48.1152C181.852 48.1457 182.305 48.4143 182.628 48.8619L182.937 49.2886C183.26 49.7363 183.428 50.3263 183.404 50.9289C183.379 51.5315 183.164 52.0973 182.806 52.5018L80.191 168.402C79.8329 168.806 79.3608 169.016 78.8788 168.986C78.3967 168.955 77.9441 168.687 77.6205 168.239L77.3121 167.812C76.9885 167.365 76.8204 166.775 76.8449 166.172C76.8693 165.57 77.0842 165.004 77.4423 164.599L180.058 48.6991Z" fill="#16192C"/>
<path d="M188.459 64.5579C188.781 64.1927 189.206 64.0025 189.641 64.0291C190.075 64.0556 190.483 64.2968 190.775 64.6995L191.286 65.4033C191.578 65.806 191.73 66.3374 191.709 66.8805C191.688 67.4235 191.495 67.9337 191.173 68.2989L93.0902 179.469C92.768 179.834 92.3429 180.024 91.9085 179.998C91.4741 179.971 91.0659 179.73 90.7737 179.327L90.2632 178.623C89.971 178.221 89.8188 177.689 89.8401 177.146C89.8613 176.603 90.0543 176.093 90.3765 175.728L188.459 64.5579Z" fill="#16192C"/>
</g>
</svg>
