<svg width="50" height="51" viewBox="0 0 50 51" fill="none" xmlns="http://www.w3.org/2000/svg">
<path d="M10.1563 20.8125C9.38368 20.8125 8.62844 20.5834 7.98606 20.1542C7.34368 19.725 6.84301 19.1149 6.54735 18.4011C6.2517 17.6873 6.17434 16.9019 6.32507 16.1442C6.47579 15.3864 6.84783 14.6904 7.39412 14.1441C7.94042 13.5978 8.63645 13.2258 9.39419 13.0751C10.1519 12.9243 10.9373 13.0017 11.6511 13.2973C12.3649 13.593 12.975 14.0937 13.4042 14.7361C13.8334 15.3784 14.0625 16.1337 14.0625 16.9063C14.0613 17.9419 13.6493 18.9347 12.917 19.667C12.1847 20.3993 11.1919 20.8113 10.1563 20.8125ZM10.1563 14.5625C9.69271 14.5625 9.23957 14.7 8.85414 14.9575C8.46871 15.215 8.16831 15.5811 7.99092 16.0093C7.81352 16.4376 7.76711 16.9089 7.85754 17.3635C7.94798 17.8181 8.1712 18.2358 8.49898 18.5635C8.82676 18.8913 9.24437 19.1145 9.69902 19.205C10.1537 19.2954 10.6249 19.249 11.0532 19.0716C11.4814 18.8942 11.8475 18.5938 12.105 18.2084C12.3626 17.8229 12.5 17.3698 12.5 16.9063C12.5 16.2847 12.2531 15.6885 11.8135 15.249C11.374 14.8094 10.7779 14.5625 10.1563 14.5625ZM7.81251 37.2188H1.56251C1.35531 37.2188 1.1566 37.1364 1.01008 36.9899C0.86357 36.8434 0.78126 36.6447 0.78126 36.4375C0.778952 34.2736 1.19189 32.1294 1.99767 30.1211L4.55001 23.7391C4.89151 22.8856 5.52101 22.1786 6.32929 21.7408C7.13756 21.303 8.07361 21.162 8.97501 21.3422C9.50048 21.4481 9.99889 21.6598 10.4398 21.9646C10.8808 22.2693 11.2551 22.6607 11.5399 23.1148L14.5313 27.9031L18.2031 28.4273C18.8184 28.5144 19.3777 28.8316 19.7683 29.3148C20.1589 29.7981 20.3516 30.4115 20.3077 31.0313C20.2638 31.6511 19.9865 32.2312 19.5317 32.6546C19.0769 33.0779 18.4784 33.313 17.857 33.3125H11.7188C11.5736 33.3126 11.4313 33.2722 11.3077 33.1959C11.1842 33.1196 11.0844 33.0103 11.0195 32.8805L9.72423 30.2898L8.58048 36.5773C8.54775 36.7572 8.45298 36.9199 8.31265 37.0371C8.17232 37.1543 7.99534 37.2186 7.81251 37.2188ZM2.36329 35.6563H7.16017L8.60704 27.7039C8.63647 27.5427 8.71586 27.3948 8.83398 27.2812C8.9521 27.1675 9.10297 27.0939 9.26522 27.0708C9.42748 27.0476 9.59291 27.0761 9.73809 27.1521C9.88328 27.2282 10.0009 27.348 10.0742 27.4945L12.2016 31.75H17.857C18.0823 31.7496 18.2991 31.664 18.4639 31.5103C18.6286 31.3567 18.7292 31.1464 18.7453 30.9217C18.7614 30.697 18.6919 30.4745 18.5508 30.2989C18.4097 30.1233 18.2073 30.0076 17.9844 29.975L13.9516 29.3984C13.839 29.3823 13.7314 29.3418 13.6361 29.2797C13.5408 29.2176 13.4603 29.1355 13.4 29.0391L10.2149 23.943C9.9826 23.5715 9.65203 23.2717 9.25979 23.0767C8.86754 22.8816 8.42895 22.799 7.99263 22.838C7.55631 22.877 7.13932 23.0361 6.78788 23.2976C6.43643 23.5591 6.16427 23.9128 6.00157 24.3195L3.44845 30.7008C2.81469 32.2811 2.44797 33.9557 2.36329 35.6563ZM39.8438 20.8125C39.0712 20.8125 38.3159 20.5834 37.6736 20.1542C37.0312 19.725 36.5305 19.1149 36.2349 18.4011C35.9392 17.6873 35.8618 16.9019 36.0126 16.1442C36.1633 15.3864 36.5353 14.6904 37.0816 14.1441C37.6279 13.5978 38.3239 13.2258 39.0817 13.0751C39.8394 12.9243 40.6248 13.0017 41.3386 13.2973C42.0524 13.593 42.6625 14.0937 43.0917 14.7361C43.5209 15.3784 43.75 16.1337 43.75 16.9063C43.7488 17.9419 43.3368 18.9347 42.6045 19.667C41.8722 20.3993 40.8794 20.8113 39.8438 20.8125ZM39.8438 14.5625C39.3802 14.5625 38.9271 14.7 38.5416 14.9575C38.1562 15.215 37.8558 15.5811 37.6784 16.0093C37.501 16.4376 37.4546 16.9089 37.545 17.3635C37.6355 17.8181 37.8587 18.2358 38.1865 18.5635C38.5143 18.8913 38.9319 19.1145 39.3865 19.205C39.8412 19.2954 40.3124 19.249 40.7407 19.0716C41.1689 18.8942 41.535 18.5938 41.7925 18.2084C42.05 17.8229 42.1875 17.3698 42.1875 16.9063C42.1875 16.2847 41.9406 15.6885 41.501 15.249C41.0615 14.8094 40.4654 14.5625 39.8438 14.5625ZM48.4375 37.2188H42.1875C42.0047 37.2186 41.8277 37.1543 41.6874 37.0371C41.547 36.9199 41.4523 36.7572 41.4195 36.5773L40.2758 30.2898L38.9844 32.8805C38.9192 33.0109 38.8188 33.1205 38.6945 33.1969C38.5703 33.2733 38.4271 33.3133 38.2813 33.3125H32.143C31.5214 33.3136 30.9226 33.0789 30.4673 32.6558C30.012 32.2326 29.7342 31.6525 29.69 31.0325C29.6458 30.4125 29.8384 29.7988 30.229 29.3153C30.6196 28.8318 31.1791 28.5144 31.7945 28.4273L35.4664 27.9031L38.4594 23.1148C38.7442 22.6607 39.1184 22.2693 39.5594 21.9646C40.0004 21.6598 40.4988 21.4481 41.0242 21.3422C41.9257 21.1615 42.8619 21.3023 43.6703 21.7402C44.4787 22.1781 45.1081 22.8853 45.4492 23.7391L48.0016 30.1211C48.8076 32.1293 49.2208 34.2736 49.2188 36.4375C49.2188 36.6447 49.1364 36.8434 48.9899 36.9899C48.8434 37.1364 48.6447 37.2188 48.4375 37.2188ZM42.8399 35.6563H47.6367C47.552 33.9557 47.1853 32.2811 46.5516 30.7008L43.9984 24.3195C43.8359 23.9128 43.5638 23.559 43.2124 23.2975C42.8611 23.036 42.4441 22.8769 42.0078 22.8379C41.5715 22.7989 41.133 22.8815 40.7408 23.0765C40.3486 23.2716 40.0181 23.5715 39.7859 23.943L36.6 29.0391C36.5398 29.1355 36.4592 29.2176 36.3639 29.2797C36.2687 29.3418 36.161 29.3823 36.0484 29.3984L32.0156 29.975C31.7927 30.0076 31.5904 30.1233 31.4492 30.2989C31.3081 30.4745 31.2386 30.697 31.2547 30.9217C31.2708 31.1464 31.3714 31.3567 31.5361 31.5103C31.7009 31.664 31.9177 31.7496 32.143 31.75H37.7984L39.9258 27.4945C39.9991 27.348 40.1167 27.2282 40.2619 27.1521C40.4071 27.0761 40.5725 27.0476 40.7348 27.0708C40.897 27.0939 41.0479 27.1675 41.166 27.2812C41.2842 27.3948 41.3635 27.5427 41.393 27.7039L42.8399 35.6563Z" fill="black"/>
<path d="M34.8703 25.7844L33.8414 23.1563H16.1586L15.4359 25.0031L13.9844 24.4344L14.9008 22.0906C14.9578 21.9448 15.0573 21.8194 15.1865 21.7308C15.3156 21.6422 15.4684 21.5944 15.625 21.5938H34.375C34.5323 21.5937 34.6859 21.641 34.8158 21.7297C34.9457 21.8183 35.0459 21.9441 35.1031 22.0906L36.3258 25.2156L34.8703 25.7844ZM25 40.3438C23.7572 40.3425 22.5656 39.8483 21.6868 38.9694C20.808 38.0906 20.3137 36.8991 20.3125 35.6562V34.875C20.3125 33.6318 20.8064 32.4395 21.6854 31.5604C22.5645 30.6814 23.7568 30.1875 25 30.1875C26.2432 30.1875 27.4355 30.6814 28.3146 31.5604C29.1936 32.4395 29.6875 33.6318 29.6875 34.875V35.6562C29.6863 36.8991 29.192 38.0906 28.3132 38.9694C27.4344 39.8483 26.2428 40.3425 25 40.3438ZM25 31.75C24.1712 31.75 23.3763 32.0792 22.7903 32.6653C22.2042 33.2513 21.875 34.0462 21.875 34.875V35.6562C21.875 36.4851 22.2042 37.2799 22.7903 37.866C23.3763 38.452 24.1712 38.7812 25 38.7812C25.8288 38.7812 26.6237 38.452 27.2097 37.866C27.7958 37.2799 28.125 36.4851 28.125 35.6562V34.875C28.125 34.0462 27.7958 33.2513 27.2097 32.6653C26.6237 32.0792 25.8288 31.75 25 31.75ZM33.5938 48.9375H32.0313V45.0312C32.0313 44.4096 31.7843 43.8135 31.3448 43.374C30.9052 42.9344 30.3091 42.6875 29.6875 42.6875H20.3125C19.6909 42.6875 19.0948 42.9344 18.6552 43.374C18.2157 43.8135 17.9688 44.4096 17.9688 45.0312V48.9375H16.4063V45.0312C16.4075 43.9956 16.8194 43.0028 17.5517 42.2705C18.284 41.5382 19.2769 41.1262 20.3125 41.125H29.6875C30.7231 41.1262 31.716 41.5382 32.4483 42.2705C33.1806 43.0028 33.5925 43.9956 33.5938 45.0312V48.9375ZM41.4062 44.25H34.375V42.6875H40.625V40.4906L38.2328 34.3781L39.6883 33.8094L42.1344 40.0594C42.1696 40.15 42.1876 40.2465 42.1875 40.3438V43.4688C42.1875 43.676 42.1052 43.8747 41.9587 44.0212C41.8122 44.1677 41.6134 44.25 41.4062 44.25ZM15.625 44.25H8.59375C8.38655 44.25 8.18784 44.1677 8.04132 44.0212C7.89481 43.8747 7.8125 43.676 7.8125 43.4688V40.3438C7.81235 40.2465 7.83037 40.15 7.86563 40.0594L10.3117 33.8094L11.768 34.3781L9.375 40.4906V42.6875H15.625V44.25Z" fill="#A414D5"/>
<path d="M46.875 22.375H45.3125V2.84375H4.6875V22.375H3.125V2.0625C3.125 1.8553 3.20731 1.65659 3.35382 1.51007C3.50034 1.36356 3.69905 1.28125 3.90625 1.28125H46.0938C46.3009 1.28125 46.4997 1.36356 46.6462 1.51007C46.7927 1.65659 46.875 1.8553 46.875 2.0625V22.375Z" fill="black"/>
<path d="M16.9586 17.4587L15.8539 16.354L21.3226 10.8853C21.4691 10.7388 21.6678 10.6565 21.875 10.6565C22.0821 10.6565 22.2808 10.7388 22.4273 10.8853L26.5625 15.0204L36.1664 5.4165L37.2711 6.52119L27.1148 16.6774C26.9683 16.8239 26.7696 16.9062 26.5625 16.9062C26.3553 16.9062 26.1566 16.8239 26.0101 16.6774L21.875 12.5423L16.9586 17.4587Z" fill="#A414D5"/>
<path d="M37.5 10.6562H35.9375V6.75H32.0312V5.1875H36.7188C36.926 5.1875 37.1247 5.26981 37.2712 5.41632C37.4177 5.56284 37.5 5.76155 37.5 5.96875V10.6562ZM8.59375 5.1875H17.9688V6.75H8.59375V5.1875ZM8.59375 8.3125H14.0625V9.875H8.59375V8.3125Z" fill="#A414D5"/>
</svg>
