<svg width="50" height="51" viewBox="0 0 50 51" fill="none" xmlns="http://www.w3.org/2000/svg">
<path d="M43.5578 40.8704C44.1051 40.432 44.5469 39.8763 44.8506 39.2443C45.1543 38.6122 45.3121 37.9201 45.3125 37.2188C45.3125 34.6337 43.2101 32.5313 40.625 32.5313C38.0398 32.5313 35.9375 34.6337 35.9375 37.2188C35.9375 38.6938 36.6242 40.0103 37.6921 40.8704C36.0371 41.4745 34.6067 42.5711 33.5937 44.0126V43.4688C33.5937 39.761 31.2289 36.604 27.9328 35.4017C28.6605 34.8184 29.1979 34.0315 29.4765 33.1415C29.7945 33.2478 30.1273 33.3126 30.4687 33.3126C32.1921 33.3126 33.5937 31.911 33.5937 30.1876V28.3563L36.0109 30.7735C36.5039 31.2673 37.0898 31.5876 37.7039 31.6978C37.9 31.7329 38.0953 31.7509 38.289 31.7509C38.6985 31.7518 39.104 31.6714 39.4821 31.5142C39.8602 31.357 40.2033 31.1262 40.4914 30.8353C41.0804 30.2446 41.4062 29.4603 41.4062 28.6251C41.4062 27.7899 41.0804 27.0056 40.5367 26.4657L34.6312 19.4228C33.7715 18.3972 32.7616 17.5074 31.6359 16.7837L23.8382 11.7704C22.7228 11.0549 21.4575 10.606 20.1406 10.4587L16.5453 10.0595L17.5109 9.09385L10.9375 2.52041L0.457764 13.0001L7.0312 19.5735L7.59839 19.0063L8.45854 20.7259C9.50003 22.8114 11.0282 24.6156 12.914 25.986L19.9234 31.0837C20.0554 31.1798 20.1945 31.2618 20.3359 31.3376C20.3242 31.4743 20.3125 31.6118 20.3125 31.7501C20.3125 33.2251 20.9992 34.5415 22.0671 35.4017C18.771 36.604 16.4062 39.761 16.4062 43.4688V44.0118C15.3929 42.5705 13.9627 41.474 12.3078 40.8696C12.8551 40.4315 13.297 39.8759 13.6007 39.244C13.9044 38.6121 14.0622 37.92 14.0625 37.2188C14.0625 34.6337 11.9601 32.5313 9.37495 32.5313C6.78979 32.5313 4.68745 34.6337 4.68745 37.2188C4.68745 38.6938 5.37417 40.0103 6.44214 40.8704C3.14605 42.0728 0.781201 45.2298 0.781201 48.9376V49.7188H17.9687V48.9376C17.9692 47.272 17.4825 45.6426 16.5687 44.2501H33.432C32.5175 45.6424 32.0306 47.2719 32.0312 48.9376V49.7188H49.2187V48.9376C49.2187 45.2298 46.8539 42.0728 43.5578 40.8704ZM6.24995 37.2188C6.24995 35.4954 7.65151 34.0938 9.37495 34.0938C11.0984 34.0938 12.5 35.4954 12.5 37.2188C12.5 38.9423 11.0984 40.3438 9.37495 40.3438C7.65151 40.3438 6.24995 38.9423 6.24995 37.2188ZM11.5507 42.2579L9.37495 44.6509L7.19917 42.2579C7.88589 42.0337 8.61479 41.9063 9.37495 41.9063C10.1351 41.9063 10.864 42.0337 11.5507 42.2579ZM2.38667 48.1563C2.50712 47.0917 2.86895 46.0685 3.44461 45.1648C4.02027 44.2611 4.79457 43.5007 5.70855 42.9415L9.37495 46.9743L13.0406 42.9415C13.9547 43.5006 14.7291 44.2609 15.3047 45.1647C15.8804 46.0684 16.2422 47.0916 16.3625 48.1563H2.38667ZM25.5609 27.0993C25.373 26.555 25.0524 26.066 24.6281 25.6767L18.9085 20.529L24.9437 22.1751C25.6333 22.3629 26.2419 22.7724 26.6756 23.3404C27.1094 23.9084 27.3441 24.6034 27.3437 25.3181V27.697C26.7964 27.3783 26.1897 27.175 25.5609 27.0993ZM39.3859 27.5204C39.6812 27.8157 39.8437 28.2079 39.8437 28.6251C39.8437 29.0423 39.6812 29.4345 39.3859 29.7298C39.2048 29.911 38.9821 30.045 38.7372 30.12C38.4923 30.1951 38.2327 30.2089 37.9812 30.1603C37.6039 30.0923 37.3023 29.8556 37.1164 29.6688L33.5937 26.147V20.6165L39.3859 27.5204ZM2.66714 13.0001L10.9375 4.72979L15.3015 9.09385L7.0312 17.3642L2.66714 13.0001ZM13.8335 24.7228C12.1501 23.4996 10.7858 21.8891 9.8562 20.0274L8.76323 17.8423L15.1312 11.4743L19.9687 12.0126C21.0463 12.1334 22.0817 12.5007 22.9945 13.086L30.7921 18.0993C31.2273 18.379 31.639 18.6915 32.032 19.0251V30.1876C32.032 31.0493 31.3312 31.7501 30.4695 31.7501C30.1875 31.7501 29.9156 31.6728 29.6773 31.5321C29.64 30.6876 29.3737 29.869 28.907 29.1642V25.3173C28.9078 24.5237 28.7122 23.7423 28.3378 23.0426C27.9633 22.3429 27.4216 21.7467 26.7609 21.3071C26.33 21.0195 25.8553 20.8034 25.3554 20.6673L17.3945 18.4962C17.2785 18.465 17.1569 18.4608 17.0391 18.484C16.9213 18.5072 16.8103 18.5571 16.7148 18.63C16.6193 18.7028 16.5419 18.7966 16.4884 18.9041C16.4348 19.0116 16.4067 19.13 16.4062 19.2501V20.0313C16.4062 20.2532 16.5 20.4642 16.6648 20.6118L23.5828 26.8376C23.9867 27.2017 24.2187 27.722 24.2187 28.2665C24.2179 28.7758 24.0152 29.2639 23.6551 29.624C23.295 29.9841 22.8069 30.1868 22.2976 30.1876H21.9726C21.5666 30.1883 21.1709 30.0597 20.8429 29.8204L13.8335 24.7228ZM21.875 31.7501L21.8757 31.7423C21.9085 31.7431 21.9398 31.7501 21.9726 31.7501H22.2976C24.0625 31.7501 25.5093 30.4259 25.7359 28.722C27.1031 29.0548 28.125 30.2813 28.125 31.7501C28.125 33.4735 26.7234 34.8751 25 34.8751C23.2765 34.8751 21.875 33.4735 21.875 31.7501ZM27.1757 36.7892L25 39.1821L22.8242 36.7892C23.5109 36.5649 24.2398 36.4376 25 36.4376C25.7601 36.4376 26.489 36.5649 27.1757 36.7892ZM18.0117 42.6876C18.1321 41.6229 18.4939 40.5998 19.0696 39.6961C19.6453 38.7924 20.4196 38.032 21.3335 37.4728L25 41.5056L28.6656 37.4728C29.5797 38.0318 30.3541 38.7922 30.9297 39.6959C31.5054 40.5996 31.8672 41.6229 31.9875 42.6876H18.0117ZM37.5 37.2188C37.5 35.4954 38.9015 34.0938 40.625 34.0938C42.3484 34.0938 43.75 35.4954 43.75 37.2188C43.75 38.9423 42.3484 40.3438 40.625 40.3438C38.9015 40.3438 37.5 38.9423 37.5 37.2188ZM42.8007 42.2579L40.625 44.6509L38.4492 42.2579C39.1359 42.0337 39.8648 41.9063 40.625 41.9063C41.3851 41.9063 42.114 42.0337 42.8007 42.2579ZM33.6367 48.1563C33.7571 47.0917 34.1189 46.0685 34.6946 45.1648C35.2703 44.2611 36.0446 43.5007 36.9585 42.9415L40.625 46.9743L44.2906 42.9415C45.2047 43.5006 45.9791 44.2609 46.5547 45.1647C47.1304 46.0684 47.4922 47.0916 47.6125 48.1563H33.6367ZM48.9898 2.61494L47.8851 1.51025L42.1875 7.20791L41.1773 6.19775L40.0726 7.30244L42.1875 9.41728L48.9898 2.61494ZM42.1875 16.1251C43.4796 16.1251 44.5312 15.0735 44.5312 13.7813C44.5312 12.4892 43.4796 11.4376 42.1875 11.4376C40.8953 11.4376 39.8437 12.4892 39.8437 13.7813C39.8437 15.0735 40.8953 16.1251 42.1875 16.1251ZM42.1875 13.0001C42.6179 13.0001 42.9687 13.3509 42.9687 13.7813C42.9687 14.2118 42.6179 14.5626 42.1875 14.5626C41.757 14.5626 41.4062 14.2118 41.4062 13.7813C41.4062 13.3509 41.757 13.0001 42.1875 13.0001ZM28.9062 6.7501H38.2812V8.3126H28.9062V6.7501ZM28.9062 13.0001H35.1562V14.5626H28.9062V13.0001ZM36.7187 13.0001H38.2812V14.5626H36.7187V13.0001ZM28.9062 9.8751H38.2812V11.4376H28.9062V9.8751Z" fill="black"/>
<path d="M48.9898 2.61494L47.8852 1.51025L42.1875 7.20791L41.1773 6.19775L40.0727 7.30244L42.1875 9.41728L48.9898 2.61494ZM42.1875 16.1251C43.4797 16.1251 44.5312 15.0735 44.5312 13.7813C44.5312 12.4892 43.4797 11.4376 42.1875 11.4376C40.8953 11.4376 39.8438 12.4892 39.8438 13.7813C39.8438 15.0735 40.8953 16.1251 42.1875 16.1251ZM42.1875 13.0001C42.618 13.0001 42.9688 13.3509 42.9688 13.7813C42.9688 14.2118 42.618 14.5626 42.1875 14.5626C41.757 14.5626 41.4062 14.2118 41.4062 13.7813C41.4062 13.3509 41.757 13.0001 42.1875 13.0001ZM28.9062 6.7501H38.2812V8.3126H28.9062V6.7501ZM28.9062 13.0001H35.1562V14.5626H28.9062V13.0001ZM36.7188 13.0001H38.2812V14.5626H36.7188V13.0001ZM28.9062 9.8751H38.2812V11.4376H28.9062V9.8751Z" fill="#A414D5"/>
</svg>
