<svg width="130" height="45" viewBox="0 0 130 45" fill="none" xmlns="http://www.w3.org/2000/svg">
<rect x="0.392442" y="0.392442" width="128.985" height="44.2151" rx="6.93314" stroke="black" stroke-width="0.784884"/>
<path d="M28.1547 18.7129C28.0149 18.82 25.5465 20.1937 25.5465 23.2483C25.5465 26.7815 28.6875 28.0314 28.7815 28.0623C28.767 28.1385 28.2825 29.7741 27.1254 31.4407C26.0937 32.9073 25.0162 34.3715 23.377 34.3715C21.7378 34.3715 21.3159 33.4311 19.4236 33.4311C17.5795 33.4311 16.9239 34.4024 15.4245 34.4024C13.9251 34.4024 12.8789 33.0454 11.676 31.3788C10.2827 29.4218 9.15698 26.3815 9.15698 23.4959C9.15698 18.8676 12.204 16.413 15.2027 16.413C16.7961 16.413 18.1243 17.4463 19.1247 17.4463C20.0769 17.4463 21.5618 16.3511 23.3746 16.3511C24.0616 16.3511 26.53 16.413 28.1547 18.7129ZM22.514 14.3917C23.2637 13.5132 23.794 12.2942 23.794 11.0752C23.794 10.9062 23.7795 10.7348 23.7482 10.5967C22.5285 10.6419 21.0773 11.399 20.2022 12.4013C19.5152 13.1727 18.874 14.3917 18.874 15.6273C18.874 15.813 18.9054 15.9987 18.9198 16.0583C18.997 16.0726 19.1223 16.0892 19.2477 16.0892C20.3421 16.0892 21.7185 15.3654 22.514 14.3917Z" fill="black"/>
<path d="M36.2902 15.541C36.2269 15.541 36.1732 15.5189 36.1289 15.4746C36.0846 15.4303 36.0625 15.3765 36.0625 15.3133V9.13557C36.0625 9.06598 36.0846 9.00904 36.1289 8.96476C36.1732 8.92047 36.2269 8.89833 36.2902 8.89833H38.6057C39.2446 8.89833 39.7697 8.99639 40.1809 9.19251C40.5985 9.38862 40.9116 9.67964 41.1204 10.0655C41.3355 10.4515 41.4462 10.9228 41.4525 11.4795C41.4652 11.7578 41.4715 12.0046 41.4715 12.2197C41.4715 12.4348 41.4652 12.6783 41.4525 12.9504C41.4399 13.5387 41.3323 14.0259 41.1299 14.4118C40.9274 14.7913 40.6206 15.076 40.2094 15.2658C39.8045 15.4493 39.2857 15.541 38.6531 15.541H36.2902ZM37.3815 14.4497H38.6057C38.9599 14.4497 39.2478 14.3991 39.4692 14.2979C39.6906 14.1967 39.8519 14.0353 39.9532 13.8139C40.0607 13.5862 40.1177 13.2888 40.124 12.9219C40.1303 12.7321 40.1335 12.5676 40.1335 12.4284C40.1398 12.2829 40.1398 12.1406 40.1335 12.0014C40.1335 11.8559 40.1303 11.6914 40.124 11.508C40.1113 10.9892 39.9816 10.6064 39.7349 10.3597C39.4882 10.113 39.0959 9.98963 38.5582 9.98963H37.3815V14.4497ZM44.8035 15.6359C44.2974 15.6359 43.8704 15.5473 43.5224 15.3702C43.1808 15.1931 42.9183 14.9432 42.7348 14.6205C42.5577 14.2979 42.4564 13.9215 42.4311 13.4913C42.4248 13.3774 42.4216 13.2382 42.4216 13.0737C42.4216 12.9092 42.4248 12.7701 42.4311 12.6562C42.4564 12.2197 42.5608 11.8433 42.7443 11.5269C42.9341 11.2043 43.1998 10.9544 43.5414 10.7773C43.8894 10.6001 44.3101 10.5116 44.8035 10.5116C45.297 10.5116 45.7145 10.6001 46.0561 10.7773C46.4041 10.9544 46.6698 11.2043 46.8533 11.5269C47.043 11.8433 47.1506 12.2197 47.1759 12.6562C47.1822 12.7701 47.1854 12.9092 47.1854 13.0737C47.1854 13.2382 47.1822 13.3774 47.1759 13.4913C47.1506 13.9215 47.0462 14.2979 46.8627 14.6205C46.6856 14.9432 46.4231 15.1931 46.0751 15.3702C45.7335 15.5473 45.3096 15.6359 44.8035 15.6359ZM44.8035 14.6964C45.1388 14.6964 45.3982 14.5921 45.5817 14.3833C45.7651 14.1682 45.8663 13.855 45.8853 13.4438C45.8916 13.3489 45.8948 13.2256 45.8948 13.0737C45.8948 12.9219 45.8916 12.7985 45.8853 12.7036C45.8663 12.2988 45.7651 11.9888 45.5817 11.7737C45.3982 11.5586 45.1388 11.451 44.8035 11.451C44.4682 11.451 44.2088 11.5586 44.0254 11.7737C43.8419 11.9888 43.7407 12.2988 43.7217 12.7036C43.7154 12.7985 43.7122 12.9219 43.7122 13.0737C43.7122 13.2256 43.7154 13.3489 43.7217 13.4438C43.7407 13.855 43.8419 14.1682 44.0254 14.3833C44.2088 14.5921 44.4682 14.6964 44.8035 14.6964ZM49.4453 15.541C49.3567 15.541 49.2903 15.5189 49.246 15.4746C49.2017 15.4303 49.1638 15.3734 49.1322 15.3038L47.7752 10.9006C47.7688 10.869 47.7657 10.8405 47.7657 10.8152C47.7657 10.7583 47.7846 10.7108 47.8226 10.6729C47.8669 10.6286 47.9143 10.6064 47.9649 10.6064H48.6672C48.7431 10.6064 48.8032 10.6286 48.8475 10.6729C48.8918 10.7108 48.9171 10.7488 48.9234 10.7868L49.8534 13.9278L50.8403 10.8152C50.8529 10.7709 50.8814 10.7267 50.9257 10.6824C50.97 10.6318 51.0364 10.6064 51.125 10.6064H51.5994C51.688 10.6064 51.7544 10.6318 51.7987 10.6824C51.843 10.7267 51.8715 10.7709 51.8841 10.8152L52.871 13.9278L53.801 10.7868C53.8073 10.7488 53.8295 10.7108 53.8674 10.6729C53.9117 10.6286 53.9718 10.6064 54.0477 10.6064H54.75C54.8069 10.6064 54.8544 10.6286 54.8923 10.6729C54.9366 10.7108 54.9587 10.7583 54.9587 10.8152C54.9587 10.8405 54.9524 10.869 54.9398 10.9006L53.5828 15.3038C53.5638 15.3734 53.529 15.4303 53.4784 15.4746C53.4341 15.5189 53.3677 15.541 53.2791 15.541H52.6623C52.5737 15.541 52.5041 15.5189 52.4535 15.4746C52.4029 15.4303 52.3681 15.3734 52.3491 15.3038L51.3622 12.3051L50.3753 15.3038C50.35 15.3734 50.312 15.4303 50.2614 15.4746C50.2171 15.5189 50.1475 15.541 50.0526 15.541H49.4453ZM56.1099 15.541C56.0467 15.541 55.9929 15.5189 55.9486 15.4746C55.9043 15.4303 55.8822 15.3765 55.8822 15.3133V10.8342C55.8822 10.7709 55.9043 10.7172 55.9486 10.6729C55.9929 10.6286 56.0467 10.6064 56.1099 10.6064H56.8881C56.9513 10.6064 57.0051 10.6286 57.0494 10.6729C57.0937 10.7172 57.1158 10.7709 57.1158 10.8342V11.2233C57.2803 11.0208 57.4891 10.8532 57.7421 10.7203C58.0015 10.5811 58.321 10.5116 58.7006 10.5116C59.0865 10.5116 59.4218 10.6001 59.7065 10.7773C59.9912 10.9481 60.2094 11.1916 60.3613 11.508C60.5194 11.8243 60.5985 12.2039 60.5985 12.6467V15.3133C60.5985 15.3765 60.5764 15.4303 60.5321 15.4746C60.4878 15.5189 60.434 15.541 60.3708 15.541H59.5357C59.4724 15.541 59.4186 15.5189 59.3743 15.4746C59.3301 15.4303 59.3079 15.3765 59.3079 15.3133V12.7036C59.3079 12.3367 59.2162 12.0489 59.0327 11.8401C58.8556 11.6313 58.5962 11.5269 58.2546 11.5269C57.9256 11.5269 57.6631 11.6313 57.4669 11.8401C57.2708 12.0489 57.1728 12.3367 57.1728 12.7036V15.3133C57.1728 15.3765 57.1506 15.4303 57.1063 15.4746C57.0621 15.5189 57.0083 15.541 56.945 15.541H56.1099ZM62.0411 15.541C61.9779 15.541 61.9241 15.5189 61.8798 15.4746C61.8355 15.4303 61.8134 15.3765 61.8134 15.3133V9.03118C61.8134 8.96792 61.8355 8.91415 61.8798 8.86986C61.9241 8.82558 61.9779 8.80343 62.0411 8.80343H62.8288C62.892 8.80343 62.9458 8.82558 62.9901 8.86986C63.0344 8.91415 63.0565 8.96792 63.0565 9.03118V15.3133C63.0565 15.3765 63.0344 15.4303 62.9901 15.4746C62.9458 15.5189 62.892 15.541 62.8288 15.541H62.0411ZM66.4979 15.6359C65.9918 15.6359 65.5647 15.5473 65.2168 15.3702C64.8752 15.1931 64.6126 14.9432 64.4292 14.6205C64.252 14.2979 64.1508 13.9215 64.1255 13.4913C64.1192 13.3774 64.116 13.2382 64.116 13.0737C64.116 12.9092 64.1192 12.7701 64.1255 12.6562C64.1508 12.2197 64.2552 11.8433 64.4387 11.5269C64.6284 11.2043 64.8942 10.9544 65.2358 10.7773C65.5837 10.6001 66.0044 10.5116 66.4979 10.5116C66.9913 10.5116 67.4089 10.6001 67.7505 10.7773C68.0985 10.9544 68.3642 11.2043 68.5476 11.5269C68.7374 11.8433 68.845 12.2197 68.8703 12.6562C68.8766 12.7701 68.8798 12.9092 68.8798 13.0737C68.8798 13.2382 68.8766 13.3774 68.8703 13.4913C68.845 13.9215 68.7406 14.2979 68.5571 14.6205C68.38 14.9432 68.1174 15.1931 67.7695 15.3702C67.4279 15.5473 67.004 15.6359 66.4979 15.6359ZM66.4979 14.6964C66.8332 14.6964 67.0926 14.5921 67.276 14.3833C67.4595 14.1682 67.5607 13.855 67.5797 13.4438C67.586 13.3489 67.5892 13.2256 67.5892 13.0737C67.5892 12.9219 67.586 12.7985 67.5797 12.7036C67.5607 12.2988 67.4595 11.9888 67.276 11.7737C67.0926 11.5586 66.8332 11.451 66.4979 11.451C66.1626 11.451 65.9032 11.5586 65.7197 11.7737C65.5363 11.9888 65.4351 12.2988 65.4161 12.7036C65.4098 12.7985 65.4066 12.9219 65.4066 13.0737C65.4066 13.2256 65.4098 13.3489 65.4161 13.4438C65.4351 13.855 65.5363 14.1682 65.7197 14.3833C65.9032 14.5921 66.1626 14.6964 66.4979 14.6964ZM71.3641 15.6359C71.0351 15.6359 70.7378 15.5726 70.4721 15.4461C70.2064 15.3133 69.9944 15.1393 69.8363 14.9242C69.6844 14.7028 69.6085 14.456 69.6085 14.184C69.6085 13.7412 69.7857 13.3901 70.1399 13.1307C70.5006 12.865 70.975 12.6878 71.5634 12.5993L72.8634 12.4095V12.2102C72.8634 11.9445 72.797 11.7389 72.6642 11.5934C72.5313 11.4479 72.3036 11.3751 71.9809 11.3751C71.7532 11.3751 71.5665 11.4226 71.421 11.5174C71.2819 11.606 71.1775 11.7262 71.1079 11.878C71.0573 11.9603 70.9845 12.0014 70.8896 12.0014H70.1399C70.0704 12.0014 70.0166 11.9824 69.9786 11.9445C69.947 11.9065 69.9312 11.8559 69.9312 11.7926C69.9375 11.6914 69.9786 11.5681 70.0545 11.4226C70.1305 11.277 70.2507 11.1379 70.4151 11.005C70.5796 10.8658 70.7916 10.7488 71.0509 10.6539C71.3103 10.559 71.6235 10.5116 71.9904 10.5116C72.389 10.5116 72.7243 10.5622 72.9963 10.6634C73.2747 10.7583 73.4961 10.888 73.6606 11.0525C73.8251 11.2169 73.9453 11.4099 74.0212 11.6313C74.0971 11.8527 74.135 12.0868 74.135 12.3335V15.3133C74.135 15.3765 74.1129 15.4303 74.0686 15.4746C74.0243 15.5189 73.9706 15.541 73.9073 15.541H73.1386C73.0691 15.541 73.0121 15.5189 72.9678 15.4746C72.9299 15.4303 72.9109 15.3765 72.9109 15.3133V14.9432C72.8287 15.0634 72.7179 15.1772 72.5788 15.2848C72.4396 15.386 72.2688 15.4714 72.0663 15.541C71.8702 15.6043 71.6361 15.6359 71.3641 15.6359ZM71.6867 14.7344C71.9082 14.7344 72.1074 14.687 72.2846 14.5921C72.4681 14.4972 72.6104 14.3517 72.7116 14.1555C72.8192 13.9531 72.8729 13.7 72.8729 13.3964V13.1971L71.924 13.3489C71.5507 13.4059 71.2724 13.4976 71.0889 13.6241C70.9054 13.7507 70.8137 13.9056 70.8137 14.0891C70.8137 14.2283 70.8548 14.3485 70.9371 14.4497C71.0256 14.5446 71.1364 14.6174 71.2692 14.668C71.4021 14.7123 71.5412 14.7344 71.6867 14.7344ZM77.1839 15.6359C76.855 15.6359 76.564 15.5821 76.3109 15.4746C76.0642 15.3607 75.8586 15.2026 75.6941 15.0001C75.5296 14.7977 75.4031 14.5604 75.3145 14.2884C75.2259 14.01 75.1753 13.7064 75.1627 13.3774C75.1563 13.2635 75.1532 13.1623 75.1532 13.0737C75.1532 12.9788 75.1563 12.8745 75.1627 12.7606C75.1753 12.4443 75.2228 12.1501 75.305 11.878C75.3936 11.606 75.5201 11.3688 75.6846 11.1663C75.8554 10.9576 76.0642 10.7962 76.3109 10.6824C76.564 10.5685 76.855 10.5116 77.1839 10.5116C77.5256 10.5116 77.8134 10.5717 78.0475 10.6919C78.2879 10.8057 78.4872 10.9544 78.6453 11.1379V9.03118C78.6453 8.96792 78.6643 8.91415 78.7023 8.86986C78.7465 8.82558 78.8035 8.80343 78.8731 8.80343H79.6797C79.743 8.80343 79.7967 8.82558 79.841 8.86986C79.8853 8.91415 79.9074 8.96792 79.9074 9.03118V15.3133C79.9074 15.3765 79.8853 15.4303 79.841 15.4746C79.7967 15.5189 79.743 15.541 79.6797 15.541H78.93C78.8604 15.541 78.8035 15.5189 78.7592 15.4746C78.7212 15.4303 78.7023 15.3765 78.7023 15.3133V14.9622C78.5441 15.1583 78.3417 15.3196 78.0949 15.4461C77.8545 15.5726 77.5509 15.6359 77.1839 15.6359ZM77.535 14.6205C77.8008 14.6205 78.0127 14.5604 78.1708 14.4402C78.329 14.32 78.446 14.1682 78.522 13.9847C78.5979 13.7949 78.639 13.602 78.6453 13.4059C78.6517 13.292 78.6548 13.1718 78.6548 13.0453C78.6548 12.9124 78.6517 12.789 78.6453 12.6752C78.639 12.4854 78.5947 12.3051 78.5125 12.1343C78.4302 11.9571 78.31 11.8116 78.1519 11.6977C77.9937 11.5839 77.7881 11.5269 77.535 11.5269C77.2693 11.5269 77.0574 11.587 76.8993 11.7072C76.7474 11.8211 76.6367 11.9729 76.5671 12.1627C76.4975 12.3525 76.4564 12.5613 76.4438 12.789C76.4374 12.9788 76.4374 13.1686 76.4438 13.3584C76.4564 13.5862 76.4975 13.7949 76.5671 13.9847C76.6367 14.1745 76.7474 14.3295 76.8993 14.4497C77.0574 14.5636 77.2693 14.6205 77.535 14.6205ZM85.5233 15.6359C85.0172 15.6359 84.5902 15.5473 84.2422 15.3702C83.9006 15.1931 83.6381 14.9432 83.4546 14.6205C83.2775 14.2979 83.1762 13.9215 83.1509 13.4913C83.1446 13.3774 83.1414 13.2382 83.1414 13.0737C83.1414 12.9092 83.1446 12.7701 83.1509 12.6562C83.1762 12.2197 83.2806 11.8433 83.4641 11.5269C83.6539 11.2043 83.9196 10.9544 84.2612 10.7773C84.6092 10.6001 85.0299 10.5116 85.5233 10.5116C86.0168 10.5116 86.4343 10.6001 86.7759 10.7773C87.1239 10.9544 87.3896 11.2043 87.5731 11.5269C87.7629 11.8433 87.8704 12.2197 87.8957 12.6562C87.902 12.7701 87.9052 12.9092 87.9052 13.0737C87.9052 13.2382 87.902 13.3774 87.8957 13.4913C87.8704 13.9215 87.766 14.2979 87.5826 14.6205C87.4054 14.9432 87.1429 15.1931 86.7949 15.3702C86.4533 15.5473 86.0294 15.6359 85.5233 15.6359ZM85.5233 14.6964C85.8586 14.6964 86.118 14.5921 86.3015 14.3833C86.4849 14.1682 86.5862 13.855 86.6051 13.4438C86.6115 13.3489 86.6146 13.2256 86.6146 13.0737C86.6146 12.9219 86.6115 12.7985 86.6051 12.7036C86.5862 12.2988 86.4849 11.9888 86.3015 11.7737C86.118 11.5586 85.8586 11.451 85.5233 11.451C85.188 11.451 84.9286 11.5586 84.7452 11.7737C84.5617 11.9888 84.4605 12.2988 84.4415 12.7036C84.4352 12.7985 84.432 12.9219 84.432 13.0737C84.432 13.2256 84.4352 13.3489 84.4415 13.4438C84.4605 13.855 84.5617 14.1682 84.7452 14.3833C84.9286 14.5921 85.188 14.6964 85.5233 14.6964ZM89.1844 15.541C89.1211 15.541 89.0673 15.5189 89.023 15.4746C88.9788 15.4303 88.9566 15.3765 88.9566 15.3133V10.8342C88.9566 10.7709 88.9788 10.7172 89.023 10.6729C89.0673 10.6286 89.1211 10.6064 89.1844 10.6064H89.9625C90.0258 10.6064 90.0795 10.6286 90.1238 10.6729C90.1681 10.7172 90.1903 10.7709 90.1903 10.8342V11.2233C90.3547 11.0208 90.5635 10.8532 90.8166 10.7203C91.0759 10.5811 91.3954 10.5116 91.775 10.5116C92.1609 10.5116 92.4962 10.6001 92.7809 10.7773C93.0656 10.9481 93.2838 11.1916 93.4357 11.508C93.5938 11.8243 93.6729 12.2039 93.6729 12.6467V15.3133C93.6729 15.3765 93.6508 15.4303 93.6065 15.4746C93.5622 15.5189 93.5084 15.541 93.4452 15.541H92.6101C92.5468 15.541 92.4931 15.5189 92.4488 15.4746C92.4045 15.4303 92.3823 15.3765 92.3823 15.3133V12.7036C92.3823 12.3367 92.2906 12.0489 92.1071 11.8401C91.93 11.6313 91.6706 11.5269 91.329 11.5269C91 11.5269 90.7375 11.6313 90.5414 11.8401C90.3453 12.0489 90.2472 12.3367 90.2472 12.7036V15.3133C90.2472 15.3765 90.2251 15.4303 90.1808 15.4746C90.1365 15.5189 90.0827 15.541 90.0194 15.541H89.1844ZM99.0823 15.541C98.7027 15.541 98.3832 15.4746 98.1238 15.3417C97.8644 15.2089 97.6715 15.0128 97.545 14.7534C97.4184 14.4877 97.3552 14.1587 97.3552 13.7665V11.6123H96.6055C96.5422 11.6123 96.4885 11.5902 96.4442 11.5459C96.3999 11.5016 96.3777 11.4479 96.3777 11.3846V10.8342C96.3777 10.7709 96.3999 10.7172 96.4442 10.6729C96.4885 10.6286 96.5422 10.6064 96.6055 10.6064H97.3552V9.03118C97.3552 8.96792 97.3741 8.91415 97.4121 8.86986C97.4564 8.82558 97.5133 8.80343 97.5829 8.80343H98.3516C98.4148 8.80343 98.4686 8.82558 98.5129 8.86986C98.5572 8.91415 98.5793 8.96792 98.5793 9.03118V10.6064H99.7655C99.8288 10.6064 99.8825 10.6286 99.9268 10.6729C99.9711 10.7172 99.9933 10.7709 99.9933 10.8342V11.3846C99.9933 11.4479 99.9711 11.5016 99.9268 11.5459C99.8825 11.5902 99.8288 11.6123 99.7655 11.6123H98.5793V13.6716C98.5793 13.931 98.6236 14.1334 98.7122 14.2789C98.8071 14.4244 98.9684 14.4972 99.1961 14.4972H99.8509C99.9142 14.4972 99.968 14.5193 100.012 14.5636C100.057 14.6079 100.079 14.6617 100.079 14.7249V15.3133C100.079 15.3765 100.057 15.4303 100.012 15.4746C99.968 15.5189 99.9142 15.541 99.8509 15.541H99.0823ZM101.158 15.541C101.094 15.541 101.041 15.5189 100.996 15.4746C100.952 15.4303 100.93 15.3765 100.93 15.3133V9.03118C100.93 8.96792 100.952 8.91415 100.996 8.86986C101.041 8.82558 101.094 8.80343 101.158 8.80343H102.002C102.072 8.80343 102.126 8.82558 102.164 8.86986C102.208 8.91415 102.23 8.96792 102.23 9.03118V11.1948C102.401 10.9924 102.61 10.8279 102.856 10.7013C103.103 10.5748 103.407 10.5116 103.767 10.5116C104.153 10.5116 104.489 10.6001 104.773 10.7773C105.064 10.9481 105.289 11.1916 105.447 11.508C105.605 11.8243 105.684 12.2039 105.684 12.6467V15.3133C105.684 15.3765 105.662 15.4303 105.618 15.4746C105.574 15.5189 105.52 15.541 105.456 15.541H104.602C104.539 15.541 104.485 15.5189 104.441 15.4746C104.397 15.4303 104.375 15.3765 104.375 15.3133V12.7036C104.375 12.3367 104.283 12.0489 104.099 11.8401C103.922 11.6313 103.663 11.5269 103.321 11.5269C102.992 11.5269 102.727 11.6313 102.524 11.8401C102.328 12.0489 102.23 12.3367 102.23 12.7036V15.3133C102.23 15.3765 102.208 15.4303 102.164 15.4746C102.126 15.5189 102.072 15.541 102.002 15.541H101.158ZM109.014 15.6359C108.312 15.6359 107.755 15.4335 107.344 15.0286C106.933 14.6237 106.711 14.048 106.68 13.3015C106.673 13.2382 106.67 13.1591 106.67 13.0642C106.67 12.963 106.673 12.8839 106.68 12.827C106.705 12.3525 106.813 11.9413 107.002 11.5934C107.199 11.2454 107.467 10.9797 107.809 10.7962C108.151 10.6064 108.552 10.5116 109.014 10.5116C109.527 10.5116 109.957 10.6191 110.305 10.8342C110.653 11.043 110.915 11.3371 111.092 11.7167C111.27 12.09 111.358 12.5233 111.358 13.0168V13.2161C111.358 13.2793 111.336 13.3331 111.292 13.3774C111.247 13.4217 111.19 13.4438 111.121 13.4438H107.97C107.97 13.4438 107.97 13.4533 107.97 13.4723C107.97 13.4913 107.97 13.5071 107.97 13.5197C107.977 13.7412 108.018 13.9468 108.094 14.1366C108.176 14.32 108.293 14.4687 108.445 14.5826C108.603 14.6964 108.79 14.7534 109.005 14.7534C109.182 14.7534 109.331 14.7281 109.451 14.6775C109.571 14.6205 109.669 14.5573 109.745 14.4877C109.821 14.4181 109.875 14.3611 109.906 14.3169C109.963 14.2409 110.007 14.1967 110.039 14.184C110.077 14.165 110.131 14.1555 110.2 14.1555H111.016C111.08 14.1555 111.13 14.1745 111.168 14.2125C111.213 14.2504 111.232 14.2979 111.225 14.3548C111.219 14.456 111.165 14.5794 111.064 14.7249C110.969 14.8704 110.83 15.0128 110.646 15.1519C110.463 15.2911 110.232 15.4082 109.954 15.5031C109.682 15.5916 109.368 15.6359 109.014 15.6359ZM107.97 12.6467H110.068V12.6182C110.068 12.3715 110.026 12.1564 109.944 11.9729C109.862 11.7895 109.742 11.644 109.584 11.5364C109.425 11.4289 109.236 11.3751 109.014 11.3751C108.793 11.3751 108.603 11.4289 108.445 11.5364C108.287 11.644 108.166 11.7895 108.084 11.9729C108.008 12.1564 107.97 12.3715 107.97 12.6182V12.6467Z" fill="black"/>
<path d="M36.0262 33.6514C35.9189 33.6514 35.8184 33.6111 35.7245 33.5307C35.6441 33.4502 35.6038 33.3497 35.6038 33.229C35.6038 33.1754 35.6172 33.115 35.6441 33.048L40.4912 20.0755C40.5314 19.9414 40.6051 19.8274 40.7124 19.7336C40.8331 19.6263 40.994 19.5727 41.1951 19.5727H43.3874C43.5885 19.5727 43.7427 19.6263 43.8499 19.7336C43.9572 19.8274 44.0377 19.9414 44.0913 20.0755L48.9384 33.048C48.9518 33.115 48.9585 33.1754 48.9585 33.229C48.9585 33.3497 48.9183 33.4502 48.8378 33.5307C48.7574 33.6111 48.6635 33.6514 48.5562 33.6514H46.8065C46.6187 33.6514 46.478 33.6111 46.3841 33.5307C46.3037 33.4368 46.25 33.3497 46.2232 33.2692L45.2779 30.8155H39.3045L38.3592 33.2692C38.3324 33.3497 38.2721 33.4368 38.1782 33.5307C38.0978 33.6111 37.9637 33.6514 37.776 33.6514H36.0262ZM40.0085 28.5026H44.574L42.2812 22.2878L40.0085 28.5026ZM49.6898 37.4727C49.5557 37.4727 49.4417 37.4258 49.3479 37.3319C49.254 37.2381 49.2071 37.1241 49.2071 36.99V23.6756C49.2071 23.5415 49.254 23.4275 49.3479 23.3337C49.4417 23.2398 49.5557 23.1929 49.6898 23.1929H51.2787C51.4261 23.1929 51.5401 23.2398 51.6206 23.3337C51.7144 23.4275 51.7614 23.5415 51.7614 23.6756V24.4801C52.0832 24.051 52.5055 23.6957 53.0284 23.4141C53.5514 23.1326 54.2017 22.9918 54.9793 22.9918C55.69 22.9918 56.3068 23.1057 56.8297 23.3337C57.3526 23.5616 57.7884 23.8901 58.137 24.3192C58.4856 24.7349 58.7538 25.231 58.9415 25.8075C59.1292 26.3841 59.2365 27.021 59.2633 27.7182C59.2767 27.9461 59.2834 28.1808 59.2834 28.4221C59.2834 28.6635 59.2767 28.9048 59.2633 29.1462C59.2499 29.8166 59.1493 30.4401 58.9616 31.0166C58.7739 31.5798 58.499 32.0759 58.137 32.505C57.7884 32.9206 57.3526 33.2491 56.8297 33.4905C56.3068 33.7318 55.69 33.8525 54.9793 33.8525C54.2553 33.8525 53.6385 33.7251 53.129 33.4704C52.6195 33.2022 52.2038 32.8536 51.882 32.4245V36.99C51.882 37.1241 51.8351 37.2381 51.7412 37.3319C51.6608 37.4258 51.5468 37.4727 51.3993 37.4727H49.6898ZM54.2352 31.7005C54.8117 31.7005 55.2609 31.5798 55.5827 31.3384C55.9045 31.0837 56.1325 30.7552 56.2665 30.3529C56.414 29.9507 56.5012 29.5082 56.528 29.0255C56.5548 28.6233 56.5548 28.221 56.528 27.8188C56.5012 27.3361 56.414 26.8936 56.2665 26.4913C56.1325 26.0891 55.9045 25.7673 55.5827 25.5259C55.2609 25.2712 54.8117 25.1438 54.2352 25.1438C53.6854 25.1438 53.2363 25.2712 52.8876 25.5259C52.5524 25.7807 52.3044 26.1092 52.1435 26.5115C51.996 26.9003 51.9088 27.3025 51.882 27.7182C51.8686 27.9595 51.8619 28.2143 51.8619 28.4825C51.8619 28.7506 51.8686 29.0121 51.882 29.2669C51.8954 29.6691 51.9893 30.0579 52.1636 30.4334C52.3379 30.7954 52.5927 31.0971 52.9279 31.3384C53.2631 31.5798 53.6988 31.7005 54.2352 31.7005ZM60.6361 37.4727C60.502 37.4727 60.3881 37.4258 60.2942 37.3319C60.2003 37.2381 60.1534 37.1241 60.1534 36.99V23.6756C60.1534 23.5415 60.2003 23.4275 60.2942 23.3337C60.3881 23.2398 60.502 23.1929 60.6361 23.1929H62.225C62.3725 23.1929 62.4865 23.2398 62.5669 23.3337C62.6608 23.4275 62.7077 23.5415 62.7077 23.6756V24.4801C63.0295 24.051 63.4519 23.6957 63.9748 23.4141C64.4977 23.1326 65.148 22.9918 65.9257 22.9918C66.6363 22.9918 67.2531 23.1057 67.776 23.3337C68.299 23.5616 68.7347 23.8901 69.0833 24.3192C69.432 24.7349 69.7001 25.231 69.8878 25.8075C70.0756 26.3841 70.1828 27.021 70.2096 27.7182C70.223 27.9461 70.2297 28.1808 70.2297 28.4221C70.2297 28.6635 70.223 28.9048 70.2096 29.1462C70.1962 29.8166 70.0957 30.4401 69.908 31.0166C69.7202 31.5798 69.4454 32.0759 69.0833 32.505C68.7347 32.9206 68.299 33.2491 67.776 33.4905C67.2531 33.7318 66.6363 33.8525 65.9257 33.8525C65.2016 33.8525 64.5849 33.7251 64.0753 33.4704C63.5658 33.2022 63.1502 32.8536 62.8284 32.4245V36.99C62.8284 37.1241 62.7814 37.2381 62.6876 37.3319C62.6071 37.4258 62.4932 37.4727 62.3457 37.4727H60.6361ZM65.1815 31.7005C65.7581 31.7005 66.2073 31.5798 66.5291 31.3384C66.8509 31.0837 67.0788 30.7552 67.2129 30.3529C67.3604 29.9507 67.4475 29.5082 67.4743 29.0255C67.5012 28.6233 67.5012 28.221 67.4743 27.8188C67.4475 27.3361 67.3604 26.8936 67.2129 26.4913C67.0788 26.0891 66.8509 25.7673 66.5291 25.5259C66.2073 25.2712 65.7581 25.1438 65.1815 25.1438C64.6318 25.1438 64.1826 25.2712 63.834 25.5259C63.4988 25.7807 63.2507 26.1092 63.0898 26.5115C62.9423 26.9003 62.8552 27.3025 62.8284 27.7182C62.815 27.9595 62.8083 28.2143 62.8083 28.4825C62.8083 28.7506 62.815 29.0121 62.8284 29.2669C62.8418 29.6691 62.9356 30.0579 63.1099 30.4334C63.2843 30.7954 63.539 31.0971 63.8742 31.3384C64.2094 31.5798 64.6452 31.7005 65.1815 31.7005ZM79.3965 33.8525C78.1495 33.8525 77.1036 33.6715 76.2589 33.3095C75.4276 32.934 74.7907 32.4513 74.3482 31.8614C73.9192 31.258 73.6912 30.6278 73.6644 29.9708C73.6644 29.8501 73.7046 29.7496 73.7851 29.6691C73.8655 29.5887 73.9661 29.5484 74.0868 29.5484H75.8768C76.0511 29.5484 76.1785 29.5887 76.2589 29.6691C76.3528 29.7361 76.4332 29.8233 76.5003 29.9306C76.5807 30.1853 76.7349 30.4401 76.9629 30.6948C77.1908 30.9362 77.4992 31.1373 77.888 31.2982C78.2903 31.4591 78.7931 31.5396 79.3965 31.5396C80.3619 31.5396 81.0792 31.3787 81.5485 31.0569C82.0312 30.7351 82.2725 30.2993 82.2725 29.7496C82.2725 29.3607 82.1452 29.0523 81.8904 28.8244C81.6356 28.583 81.2401 28.3685 80.7038 28.1808C80.1808 27.9797 79.4836 27.7718 78.6121 27.5573C77.6065 27.316 76.7617 27.0277 76.0779 26.6925C75.4075 26.3438 74.898 25.9081 74.5494 25.3852C74.2142 24.8622 74.0466 24.1985 74.0466 23.394C74.0466 22.6163 74.2544 21.9258 74.67 21.3224C75.0991 20.7191 75.7025 20.2431 76.4802 19.8945C77.2712 19.5458 78.2098 19.3715 79.2959 19.3715C80.1674 19.3715 80.9384 19.4922 81.6088 19.7336C82.2792 19.9615 82.8357 20.2699 83.2782 20.6587C83.7206 21.0342 84.0558 21.4431 84.2838 21.8856C84.5251 22.3147 84.6525 22.737 84.6659 23.1527C84.6659 23.2599 84.6257 23.3605 84.5452 23.4544C84.4782 23.5348 84.3776 23.575 84.2436 23.575H82.3731C82.2658 23.575 82.1586 23.5482 82.0513 23.4946C81.944 23.441 81.8569 23.3404 81.7898 23.1929C81.7094 22.7772 81.4479 22.4219 81.0055 22.1269C80.563 21.832 79.9931 21.6845 79.2959 21.6845C78.5719 21.6845 77.9886 21.8186 77.5461 22.0867C77.1036 22.3549 76.8824 22.7705 76.8824 23.3337C76.8824 23.7091 76.9897 24.0242 77.2042 24.279C77.4321 24.5203 77.7875 24.7349 78.2702 24.9226C78.7663 25.1103 79.4166 25.3114 80.2211 25.5259C81.3608 25.7807 82.2927 26.0757 83.0167 26.4109C83.7407 26.7461 84.2704 27.1752 84.6056 27.6981C84.9408 28.2076 85.1084 28.8579 85.1084 29.649C85.1084 30.5339 84.867 31.2915 84.3843 31.9217C83.9151 32.5385 83.2513 33.0145 82.3932 33.3497C81.5351 33.6849 80.5362 33.8525 79.3965 33.8525ZM90.4905 33.6514C89.686 33.6514 89.0089 33.5106 88.4592 33.229C87.9094 32.9474 87.5005 32.5318 87.2323 31.982C86.9641 31.4189 86.83 30.7217 86.83 29.8903V25.3248H85.2412C85.1071 25.3248 84.9931 25.2779 84.8993 25.184C84.8054 25.0902 84.7585 24.9762 84.7585 24.8421V23.6756C84.7585 23.5415 84.8054 23.4275 84.8993 23.3337C84.9931 23.2398 85.1071 23.1929 85.2412 23.1929H86.83V19.8542C86.83 19.7202 86.8703 19.6062 86.9507 19.5123C87.0446 19.4185 87.1653 19.3715 87.3127 19.3715H88.9419C89.0759 19.3715 89.1899 19.4185 89.2838 19.5123C89.3776 19.6062 89.4246 19.7202 89.4246 19.8542V23.1929H91.9386C92.0727 23.1929 92.1867 23.2398 92.2805 23.3337C92.3744 23.4275 92.4213 23.5415 92.4213 23.6756V24.8421C92.4213 24.9762 92.3744 25.0902 92.2805 25.184C92.1867 25.2779 92.0727 25.3248 91.9386 25.3248H89.4246V29.6892C89.4246 30.239 89.5184 30.668 89.7061 30.9764C89.9073 31.2848 90.2492 31.439 90.7319 31.439H92.1196C92.2537 31.439 92.3677 31.4859 92.4615 31.5798C92.5554 31.6736 92.6023 31.7876 92.6023 31.9217V33.1687C92.6023 33.3028 92.5554 33.4167 92.4615 33.5106C92.3677 33.6044 92.2537 33.6514 92.1196 33.6514H90.4905ZM97.6045 33.8525C96.5318 33.8525 95.6268 33.6648 94.8893 33.2893C94.1653 32.9139 93.6088 32.3843 93.22 31.7005C92.8446 31.0166 92.63 30.2188 92.5764 29.3071C92.563 29.0657 92.5563 28.7707 92.5563 28.4221C92.5563 28.0735 92.563 27.7785 92.5764 27.5372C92.63 26.612 92.8513 25.8142 93.2401 25.1438C93.6423 24.46 94.2055 23.9304 94.9295 23.5549C95.667 23.1795 96.5587 22.9918 97.6045 22.9918C98.6503 22.9918 99.5353 23.1795 100.259 23.5549C100.997 23.9304 101.56 24.46 101.949 25.1438C102.351 25.8142 102.579 26.612 102.633 27.5372C102.646 27.7785 102.653 28.0735 102.653 28.4221C102.653 28.7707 102.646 29.0657 102.633 29.3071C102.579 30.2188 102.358 31.0166 101.969 31.7005C101.593 32.3843 101.037 32.9139 100.3 33.2893C99.5755 33.6648 98.6772 33.8525 97.6045 33.8525ZM97.6045 31.8614C98.3151 31.8614 98.8649 31.6401 99.2537 31.1977C99.6426 30.7418 99.8571 30.0781 99.8973 29.2065C99.9107 29.0054 99.9174 28.7439 99.9174 28.4221C99.9174 28.1003 99.9107 27.8389 99.8973 27.6377C99.8571 26.7796 99.6426 26.1226 99.2537 25.6667C98.8649 25.2108 98.3151 24.9829 97.6045 24.9829C96.8939 24.9829 96.3441 25.2108 95.9553 25.6667C95.5664 26.1226 95.3519 26.7796 95.3117 27.6377C95.2983 27.8389 95.2916 28.1003 95.2916 28.4221C95.2916 28.7439 95.2983 29.0054 95.3117 29.2065C95.3519 30.0781 95.5664 30.7418 95.9553 31.1977C96.3441 31.6401 96.8939 31.8614 97.6045 31.8614ZM103.956 33.6514C103.822 33.6514 103.708 33.6044 103.614 33.5106C103.52 33.4167 103.473 33.3028 103.473 33.1687V23.6957C103.473 23.5482 103.52 23.4275 103.614 23.3337C103.708 23.2398 103.822 23.1929 103.956 23.1929H105.585C105.719 23.1929 105.833 23.2398 105.927 23.3337C106.034 23.4275 106.088 23.5482 106.088 23.6957V24.5203C106.396 24.0913 106.792 23.7628 107.274 23.5348C107.771 23.3069 108.34 23.1929 108.984 23.1929H109.809C109.956 23.1929 110.07 23.2398 110.151 23.3337C110.244 23.4275 110.291 23.5415 110.291 23.6756V25.1237C110.291 25.2578 110.244 25.3717 110.151 25.4656C110.07 25.5595 109.956 25.6064 109.809 25.6064H108.24C107.596 25.6064 107.093 25.7874 106.731 26.1494C106.383 26.5115 106.209 27.0076 106.209 27.6377V33.1687C106.209 33.3028 106.162 33.4167 106.068 33.5106C105.974 33.6044 105.853 33.6514 105.706 33.6514H103.956ZM114.82 33.8525C113.331 33.8525 112.152 33.4234 111.28 32.5653C110.408 31.7072 109.939 30.487 109.872 28.9048C109.859 28.7708 109.852 28.6031 109.852 28.402C109.852 28.1875 109.859 28.0199 109.872 27.8992C109.926 26.8936 110.154 26.0221 110.556 25.2846C110.972 24.5471 111.541 23.984 112.266 23.5952C112.99 23.1929 113.841 22.9918 114.82 22.9918C115.906 22.9918 116.818 23.2197 117.555 23.6756C118.293 24.1181 118.849 24.7416 119.224 25.5461C119.6 26.3371 119.788 27.2556 119.788 28.3015V28.7238C119.788 28.8579 119.741 28.9719 119.647 29.0657C119.553 29.1596 119.432 29.2065 119.285 29.2065H112.607C112.607 29.2065 112.607 29.2266 112.607 29.2669C112.607 29.3071 112.607 29.3406 112.607 29.3674C112.621 29.8367 112.708 30.2725 112.869 30.6747C113.043 31.0636 113.291 31.3787 113.613 31.62C113.948 31.8614 114.344 31.982 114.8 31.982C115.175 31.982 115.49 31.9284 115.745 31.8211C116 31.7005 116.208 31.5664 116.368 31.4189C116.529 31.2714 116.643 31.1507 116.71 31.0569C116.831 30.896 116.925 30.8021 116.992 30.7753C117.072 30.7351 117.186 30.715 117.334 30.715H119.064C119.198 30.715 119.305 30.7552 119.385 30.8356C119.479 30.9161 119.519 31.0166 119.506 31.1373C119.493 31.3518 119.379 31.6133 119.164 31.9217C118.963 32.2301 118.668 32.5318 118.279 32.8268C117.89 33.1217 117.401 33.3698 116.811 33.5709C116.234 33.7586 115.571 33.8525 114.82 33.8525ZM112.607 27.5171H117.052V27.4567C117.052 26.9338 116.965 26.4779 116.791 26.0891C116.617 25.7003 116.362 25.3919 116.027 25.1639C115.691 24.936 115.289 24.822 114.82 24.822C114.351 24.822 113.948 24.936 113.613 25.1639C113.278 25.3919 113.023 25.7003 112.849 26.0891C112.688 26.4779 112.607 26.9338 112.607 27.4567V27.5171Z" fill="black"/>
</svg>
