<svg width="135" height="45" viewBox="0 0 135 45" fill="none" xmlns="http://www.w3.org/2000/svg">
<rect x="0.562364" y="0.392442" width="133.176" height="44.2151" rx="6.93314" stroke="black" stroke-width="0.784884"/>
<path d="M26.8925 26.4902C29.9054 24.8062 32.2095 23.5232 32.4064 23.423C33.0365 23.0822 33.6864 22.18 32.4064 21.4784C31.9928 21.2579 29.7676 20.0149 26.8925 18.4111L22.9343 22.4607L26.8925 26.4902Z" fill="#FFD400"/>
<path d="M22.9343 22.46L10.2917 35.4306C10.5871 35.4707 10.9219 35.3905 11.3158 35.17C12.1428 34.7089 20.9257 29.8173 26.8925 26.4895L22.9343 22.46Z" fill="#FF3333"/>
<path d="M22.9344 22.4605L26.8926 18.411C26.8926 18.411 12.2021 10.2517 11.3159 9.77057C10.9811 9.5701 10.607 9.50996 10.2722 9.5701L22.9344 22.4605Z" fill="#48FF48"/>
<path d="M22.9344 22.4608L10.2721 9.57031C9.76014 9.6906 9.3269 10.1517 9.3269 11.0939C9.3269 12.5975 9.3269 32.6448 9.3269 33.9078C9.3269 34.7698 9.66168 35.3913 10.2918 35.4514L22.9344 22.4608Z" fill="#3BCCFF"/>
<path d="M40.651 15.541C40.5878 15.541 40.534 15.5189 40.4897 15.4746C40.4454 15.4303 40.4233 15.3765 40.4233 15.3133V9.13557C40.4233 9.06598 40.4454 9.00904 40.4897 8.96476C40.534 8.92047 40.5878 8.89833 40.651 8.89833H42.9665C43.6055 8.89833 44.1305 8.99639 44.5418 9.19251C44.9593 9.38862 45.2725 9.67964 45.4812 10.0655C45.6963 10.4515 45.807 10.9228 45.8134 11.4795C45.826 11.7578 45.8323 12.0046 45.8323 12.2197C45.8323 12.4348 45.826 12.6783 45.8134 12.9504C45.8007 13.5387 45.6932 14.0259 45.4907 14.4118C45.2883 14.7913 44.9814 15.076 44.5702 15.2658C44.1653 15.4493 43.6466 15.541 43.0139 15.541H40.651ZM41.7423 14.4497H42.9665C43.3208 14.4497 43.6086 14.3991 43.83 14.2979C44.0515 14.1967 44.2128 14.0353 44.314 13.8139C44.4216 13.5862 44.4785 13.2888 44.4848 12.9219C44.4911 12.7321 44.4943 12.5676 44.4943 12.4284C44.5006 12.2829 44.5006 12.1406 44.4943 12.0014C44.4943 11.8559 44.4911 11.6914 44.4848 11.508C44.4722 10.9892 44.3425 10.6064 44.0957 10.3597C43.849 10.113 43.4568 9.98963 42.919 9.98963H41.7423V14.4497ZM49.1644 15.6359C48.6582 15.6359 48.2312 15.5473 47.8833 15.3702C47.5416 15.1931 47.2791 14.9432 47.0956 14.6205C46.9185 14.2979 46.8173 13.9215 46.792 13.4913C46.7856 13.3774 46.7825 13.2382 46.7825 13.0737C46.7825 12.9092 46.7856 12.7701 46.792 12.6562C46.8173 12.2197 46.9217 11.8433 47.1051 11.5269C47.2949 11.2043 47.5606 10.9544 47.9022 10.7773C48.2502 10.6001 48.6709 10.5116 49.1644 10.5116C49.6578 10.5116 50.0753 10.6001 50.417 10.7773C50.7649 10.9544 51.0306 11.2043 51.2141 11.5269C51.4039 11.8433 51.5114 12.2197 51.5367 12.6562C51.5431 12.7701 51.5462 12.9092 51.5462 13.0737C51.5462 13.2382 51.5431 13.3774 51.5367 13.4913C51.5114 13.9215 51.4071 14.2979 51.2236 14.6205C51.0464 14.9432 50.7839 15.1931 50.436 15.3702C50.0943 15.5473 49.6705 15.6359 49.1644 15.6359ZM49.1644 14.6964C49.4997 14.6964 49.759 14.5921 49.9425 14.3833C50.126 14.1682 50.2272 13.855 50.2462 13.4438C50.2525 13.3489 50.2557 13.2256 50.2557 13.0737C50.2557 12.9219 50.2525 12.7985 50.2462 12.7036C50.2272 12.2988 50.126 11.9888 49.9425 11.7737C49.759 11.5586 49.4997 11.451 49.1644 11.451C48.8291 11.451 48.5697 11.5586 48.3862 11.7737C48.2027 11.9888 48.1015 12.2988 48.0825 12.7036C48.0762 12.7985 48.0731 12.9219 48.0731 13.0737C48.0731 13.2256 48.0762 13.3489 48.0825 13.4438C48.1015 13.855 48.2027 14.1682 48.3862 14.3833C48.5697 14.5921 48.8291 14.6964 49.1644 14.6964ZM53.8062 15.541C53.7176 15.541 53.6512 15.5189 53.6069 15.4746C53.5626 15.4303 53.5246 15.3734 53.493 15.3038L52.136 10.9006C52.1297 10.869 52.1265 10.8405 52.1265 10.8152C52.1265 10.7583 52.1455 10.7108 52.1834 10.6729C52.2277 10.6286 52.2752 10.6064 52.3258 10.6064H53.028C53.1039 10.6064 53.164 10.6286 53.2083 10.6729C53.2526 10.7108 53.2779 10.7488 53.2842 10.7868L54.2142 13.9278L55.2011 10.8152C55.2138 10.7709 55.2422 10.7267 55.2865 10.6824C55.3308 10.6318 55.3972 10.6064 55.4858 10.6064H55.9603C56.0488 10.6064 56.1153 10.6318 56.1596 10.6824C56.2038 10.7267 56.2323 10.7709 56.245 10.8152L57.2319 13.9278L58.1619 10.7868C58.1682 10.7488 58.1903 10.7108 58.2283 10.6729C58.2726 10.6286 58.3327 10.6064 58.4086 10.6064H59.1108C59.1677 10.6064 59.2152 10.6286 59.2532 10.6729C59.2974 10.7108 59.3196 10.7583 59.3196 10.8152C59.3196 10.8405 59.3133 10.869 59.3006 10.9006L57.9436 15.3038C57.9246 15.3734 57.8898 15.4303 57.8392 15.4746C57.7949 15.5189 57.7285 15.541 57.6399 15.541H57.0231C56.9345 15.541 56.865 15.5189 56.8143 15.4746C56.7637 15.4303 56.7289 15.3734 56.71 15.3038L55.723 12.3051L54.7361 15.3038C54.7108 15.3734 54.6729 15.4303 54.6223 15.4746C54.578 15.5189 54.5084 15.541 54.4135 15.541H53.8062ZM60.4708 15.541C60.4075 15.541 60.3537 15.5189 60.3095 15.4746C60.2652 15.4303 60.243 15.3765 60.243 15.3133V10.8342C60.243 10.7709 60.2652 10.7172 60.3095 10.6729C60.3537 10.6286 60.4075 10.6064 60.4708 10.6064H61.2489C61.3122 10.6064 61.366 10.6286 61.4102 10.6729C61.4545 10.7172 61.4767 10.7709 61.4767 10.8342V11.2233C61.6412 11.0208 61.8499 10.8532 62.103 10.7203C62.3624 10.5811 62.6818 10.5116 63.0614 10.5116C63.4473 10.5116 63.7826 10.6001 64.0673 10.7773C64.352 10.9481 64.5703 11.1916 64.7221 11.508C64.8803 11.8243 64.9593 12.2039 64.9593 12.6467V15.3133C64.9593 15.3765 64.9372 15.4303 64.8929 15.4746C64.8486 15.5189 64.7949 15.541 64.7316 15.541H63.8965C63.8332 15.541 63.7795 15.5189 63.7352 15.4746C63.6909 15.4303 63.6688 15.3765 63.6688 15.3133V12.7036C63.6688 12.3367 63.577 12.0489 63.3936 11.8401C63.2164 11.6313 62.957 11.5269 62.6154 11.5269C62.2864 11.5269 62.0239 11.6313 61.8278 11.8401C61.6317 12.0489 61.5336 12.3367 61.5336 12.7036V15.3133C61.5336 15.3765 61.5115 15.4303 61.4672 15.4746C61.4229 15.5189 61.3691 15.541 61.3059 15.541H60.4708ZM66.402 15.541C66.3387 15.541 66.2849 15.5189 66.2407 15.4746C66.1964 15.4303 66.1742 15.3765 66.1742 15.3133V9.03118C66.1742 8.96792 66.1964 8.91415 66.2407 8.86986C66.2849 8.82558 66.3387 8.80343 66.402 8.80343H67.1896C67.2529 8.80343 67.3066 8.82558 67.3509 8.86986C67.3952 8.91415 67.4174 8.96792 67.4174 9.03118V15.3133C67.4174 15.3765 67.3952 15.4303 67.3509 15.4746C67.3066 15.5189 67.2529 15.541 67.1896 15.541H66.402ZM70.8587 15.6359C70.3526 15.6359 69.9256 15.5473 69.5776 15.3702C69.236 15.1931 68.9735 14.9432 68.79 14.6205C68.6129 14.2979 68.5116 13.9215 68.4863 13.4913C68.48 13.3774 68.4768 13.2382 68.4768 13.0737C68.4768 12.9092 68.48 12.7701 68.4863 12.6562C68.5116 12.2197 68.616 11.8433 68.7995 11.5269C68.9893 11.2043 69.255 10.9544 69.5966 10.7773C69.9446 10.6001 70.3653 10.5116 70.8587 10.5116C71.3522 10.5116 71.7697 10.6001 72.1113 10.7773C72.4593 10.9544 72.725 11.2043 72.9085 11.5269C73.0983 11.8433 73.2058 12.2197 73.2311 12.6562C73.2374 12.7701 73.2406 12.9092 73.2406 13.0737C73.2406 13.2382 73.2374 13.3774 73.2311 13.4913C73.2058 13.9215 73.1014 14.2979 72.918 14.6205C72.7408 14.9432 72.4783 15.1931 72.1303 15.3702C71.7887 15.5473 71.3648 15.6359 70.8587 15.6359ZM70.8587 14.6964C71.194 14.6964 71.4534 14.5921 71.6369 14.3833C71.8203 14.1682 71.9216 13.855 71.9405 13.4438C71.9469 13.3489 71.95 13.2256 71.95 13.0737C71.95 12.9219 71.9469 12.7985 71.9405 12.7036C71.9216 12.2988 71.8203 11.9888 71.6369 11.7737C71.4534 11.5586 71.194 11.451 70.8587 11.451C70.5234 11.451 70.264 11.5586 70.0806 11.7737C69.8971 11.9888 69.7959 12.2988 69.7769 12.7036C69.7706 12.7985 69.7674 12.9219 69.7674 13.0737C69.7674 13.2256 69.7706 13.3489 69.7769 13.4438C69.7959 13.855 69.8971 14.1682 70.0806 14.3833C70.264 14.5921 70.5234 14.6964 70.8587 14.6964ZM75.7249 15.6359C75.396 15.6359 75.0986 15.5726 74.8329 15.4461C74.5672 15.3133 74.3553 15.1393 74.1971 14.9242C74.0453 14.7028 73.9694 14.456 73.9694 14.184C73.9694 13.7412 74.1465 13.3901 74.5008 13.1307C74.8614 12.865 75.3359 12.6878 75.9242 12.5993L77.2243 12.4095V12.2102C77.2243 11.9445 77.1579 11.7389 77.025 11.5934C76.8922 11.4479 76.6644 11.3751 76.3418 11.3751C76.114 11.3751 75.9274 11.4226 75.7819 11.5174C75.6427 11.606 75.5383 11.7262 75.4687 11.878C75.4181 11.9603 75.3454 12.0014 75.2505 12.0014H74.5008C74.4312 12.0014 74.3774 11.9824 74.3395 11.9445C74.3078 11.9065 74.292 11.8559 74.292 11.7926C74.2983 11.6914 74.3395 11.5681 74.4154 11.4226C74.4913 11.277 74.6115 11.1379 74.776 11.005C74.9405 10.8658 75.1524 10.7488 75.4118 10.6539C75.6712 10.559 75.9843 10.5116 76.3512 10.5116C76.7498 10.5116 77.0851 10.5622 77.3571 10.6634C77.6355 10.7583 77.8569 10.888 78.0214 11.0525C78.1859 11.2169 78.3061 11.4099 78.382 11.6313C78.4579 11.8527 78.4959 12.0868 78.4959 12.3335V15.3133C78.4959 15.3765 78.4737 15.4303 78.4295 15.4746C78.3852 15.5189 78.3314 15.541 78.2681 15.541H77.4995C77.4299 15.541 77.373 15.5189 77.3287 15.4746C77.2907 15.4303 77.2717 15.3765 77.2717 15.3133V14.9432C77.1895 15.0634 77.0788 15.1772 76.9396 15.2848C76.8004 15.386 76.6296 15.4714 76.4272 15.541C76.231 15.6043 75.997 15.6359 75.7249 15.6359ZM76.0476 14.7344C76.269 14.7344 76.4683 14.687 76.6454 14.5921C76.8289 14.4972 76.9712 14.3517 77.0725 14.1555C77.18 13.9531 77.2338 13.7 77.2338 13.3964V13.1971L76.2848 13.3489C75.9116 13.4059 75.6332 13.4976 75.4497 13.6241C75.2663 13.7507 75.1745 13.9056 75.1745 14.0891C75.1745 14.2283 75.2157 14.3485 75.2979 14.4497C75.3865 14.5446 75.4972 14.6174 75.63 14.668C75.7629 14.7123 75.9021 14.7344 76.0476 14.7344ZM81.5448 15.6359C81.2158 15.6359 80.9248 15.5821 80.6717 15.4746C80.425 15.3607 80.2194 15.2026 80.0549 15.0001C79.8904 14.7977 79.7639 14.5604 79.6753 14.2884C79.5868 14.01 79.5362 13.7064 79.5235 13.3774C79.5172 13.2635 79.514 13.1623 79.514 13.0737C79.514 12.9788 79.5172 12.8745 79.5235 12.7606C79.5362 12.4443 79.5836 12.1501 79.6658 11.878C79.7544 11.606 79.8809 11.3688 80.0454 11.1663C80.2162 10.9576 80.425 10.7962 80.6717 10.6824C80.9248 10.5685 81.2158 10.5116 81.5448 10.5116C81.8864 10.5116 82.1743 10.5717 82.4083 10.6919C82.6487 10.8057 82.848 10.9544 83.0062 11.1379V9.03118C83.0062 8.96792 83.0251 8.91415 83.0631 8.86986C83.1074 8.82558 83.1643 8.80343 83.2339 8.80343H84.0405C84.1038 8.80343 84.1576 8.82558 84.2019 8.86986C84.2461 8.91415 84.2683 8.96792 84.2683 9.03118V15.3133C84.2683 15.3765 84.2461 15.4303 84.2019 15.4746C84.1576 15.5189 84.1038 15.541 84.0405 15.541H83.2909C83.2213 15.541 83.1643 15.5189 83.12 15.4746C83.0821 15.4303 83.0631 15.3765 83.0631 15.3133V14.9622C82.9049 15.1583 82.7025 15.3196 82.4558 15.4461C82.2154 15.5726 81.9117 15.6359 81.5448 15.6359ZM81.8959 14.6205C82.1616 14.6205 82.3735 14.5604 82.5317 14.4402C82.6898 14.32 82.8069 14.1682 82.8828 13.9847C82.9587 13.7949 82.9998 13.602 83.0062 13.4059C83.0125 13.292 83.0157 13.1718 83.0157 13.0453C83.0157 12.9124 83.0125 12.789 83.0062 12.6752C82.9998 12.4854 82.9556 12.3051 82.8733 12.1343C82.7911 11.9571 82.6709 11.8116 82.5127 11.6977C82.3546 11.5839 82.1489 11.5269 81.8959 11.5269C81.6302 11.5269 81.4182 11.587 81.2601 11.7072C81.1083 11.8211 80.9975 11.9729 80.928 12.1627C80.8584 12.3525 80.8172 12.5613 80.8046 12.789C80.7983 12.9788 80.7983 13.1686 80.8046 13.3584C80.8172 13.5862 80.8584 13.7949 80.928 13.9847C80.9975 14.1745 81.1083 14.3295 81.2601 14.4497C81.4182 14.5636 81.6302 14.6205 81.8959 14.6205ZM89.8842 15.6359C89.3781 15.6359 88.951 15.5473 88.6031 15.3702C88.2615 15.1931 87.9989 14.9432 87.8154 14.6205C87.6383 14.2979 87.5371 13.9215 87.5118 13.4913C87.5054 13.3774 87.5023 13.2382 87.5023 13.0737C87.5023 12.9092 87.5054 12.7701 87.5118 12.6562C87.5371 12.2197 87.6415 11.8433 87.8249 11.5269C88.0147 11.2043 88.2804 10.9544 88.6221 10.7773C88.97 10.6001 89.3907 10.5116 89.8842 10.5116C90.3776 10.5116 90.7952 10.6001 91.1368 10.7773C91.4847 10.9544 91.7504 11.2043 91.9339 11.5269C92.1237 11.8433 92.2312 12.2197 92.2566 12.6562C92.2629 12.7701 92.266 12.9092 92.266 13.0737C92.266 13.2382 92.2629 13.3774 92.2566 13.4913C92.2312 13.9215 92.1269 14.2979 91.9434 14.6205C91.7663 14.9432 91.5037 15.1931 91.1558 15.3702C90.8141 15.5473 90.3903 15.6359 89.8842 15.6359ZM89.8842 14.6964C90.2195 14.6964 90.4788 14.5921 90.6623 14.3833C90.8458 14.1682 90.947 13.855 90.966 13.4438C90.9723 13.3489 90.9755 13.2256 90.9755 13.0737C90.9755 12.9219 90.9723 12.7985 90.966 12.7036C90.947 12.2988 90.8458 11.9888 90.6623 11.7737C90.4788 11.5586 90.2195 11.451 89.8842 11.451C89.5489 11.451 89.2895 11.5586 89.106 11.7737C88.9226 11.9888 88.8213 12.2988 88.8024 12.7036C88.796 12.7985 88.7929 12.9219 88.7929 13.0737C88.7929 13.2256 88.796 13.3489 88.8024 13.4438C88.8213 13.855 88.9226 14.1682 89.106 14.3833C89.2895 14.5921 89.5489 14.6964 89.8842 14.6964ZM93.5452 15.541C93.4819 15.541 93.4282 15.5189 93.3839 15.4746C93.3396 15.4303 93.3175 15.3765 93.3175 15.3133V10.8342C93.3175 10.7709 93.3396 10.7172 93.3839 10.6729C93.4282 10.6286 93.4819 10.6064 93.5452 10.6064H94.3233C94.3866 10.6064 94.4404 10.6286 94.4847 10.6729C94.529 10.7172 94.5511 10.7709 94.5511 10.8342V11.2233C94.7156 11.0208 94.9244 10.8532 95.1774 10.7203C95.4368 10.5811 95.7563 10.5116 96.1358 10.5116C96.5218 10.5116 96.8571 10.6001 97.1417 10.7773C97.4264 10.9481 97.6447 11.1916 97.7965 11.508C97.9547 11.8243 98.0338 12.2039 98.0338 12.6467V15.3133C98.0338 15.3765 98.0116 15.4303 97.9673 15.4746C97.923 15.5189 97.8693 15.541 97.806 15.541H96.9709C96.9077 15.541 96.8539 15.5189 96.8096 15.4746C96.7653 15.4303 96.7432 15.3765 96.7432 15.3133V12.7036C96.7432 12.3367 96.6514 12.0489 96.468 11.8401C96.2908 11.6313 96.0315 11.5269 95.6898 11.5269C95.3609 11.5269 95.0983 11.6313 94.9022 11.8401C94.7061 12.0489 94.608 12.3367 94.608 12.7036V15.3133C94.608 15.3765 94.5859 15.4303 94.5416 15.4746C94.4973 15.5189 94.4435 15.541 94.3803 15.541H93.5452ZM103.443 15.541C103.064 15.541 102.744 15.4746 102.485 15.3417C102.225 15.2089 102.032 15.0128 101.906 14.7534C101.779 14.4877 101.716 14.1587 101.716 13.7665V11.6123H100.966C100.903 11.6123 100.849 11.5902 100.805 11.5459C100.761 11.5016 100.739 11.4479 100.739 11.3846V10.8342C100.739 10.7709 100.761 10.7172 100.805 10.6729C100.849 10.6286 100.903 10.6064 100.966 10.6064H101.716V9.03118C101.716 8.96792 101.735 8.91415 101.773 8.86986C101.817 8.82558 101.874 8.80343 101.944 8.80343H102.712C102.776 8.80343 102.829 8.82558 102.874 8.86986C102.918 8.91415 102.94 8.96792 102.94 9.03118V10.6064H104.126C104.19 10.6064 104.243 10.6286 104.288 10.6729C104.332 10.7172 104.354 10.7709 104.354 10.8342V11.3846C104.354 11.4479 104.332 11.5016 104.288 11.5459C104.243 11.5902 104.19 11.6123 104.126 11.6123H102.94V13.6716C102.94 13.931 102.984 14.1334 103.073 14.2789C103.168 14.4244 103.329 14.4972 103.557 14.4972H104.212C104.275 14.4972 104.329 14.5193 104.373 14.5636C104.417 14.6079 104.44 14.6617 104.44 14.7249V15.3133C104.44 15.3765 104.417 15.4303 104.373 15.4746C104.329 15.5189 104.275 15.541 104.212 15.541H103.443ZM105.519 15.541C105.455 15.541 105.402 15.5189 105.357 15.4746C105.313 15.4303 105.291 15.3765 105.291 15.3133V9.03118C105.291 8.96792 105.313 8.91415 105.357 8.86986C105.402 8.82558 105.455 8.80343 105.519 8.80343H106.363C106.433 8.80343 106.487 8.82558 106.524 8.86986C106.569 8.91415 106.591 8.96792 106.591 9.03118V11.1948C106.762 10.9924 106.97 10.8279 107.217 10.7013C107.464 10.5748 107.768 10.5116 108.128 10.5116C108.514 10.5116 108.849 10.6001 109.134 10.7773C109.425 10.9481 109.65 11.1916 109.808 11.508C109.966 11.8243 110.045 12.2039 110.045 12.6467V15.3133C110.045 15.3765 110.023 15.4303 109.979 15.4746C109.934 15.5189 109.881 15.541 109.817 15.541H108.963C108.9 15.541 108.846 15.5189 108.802 15.4746C108.758 15.4303 108.736 15.3765 108.736 15.3133V12.7036C108.736 12.3367 108.644 12.0489 108.46 11.8401C108.283 11.6313 108.024 11.5269 107.682 11.5269C107.353 11.5269 107.088 11.6313 106.885 11.8401C106.689 12.0489 106.591 12.3367 106.591 12.7036V15.3133C106.591 15.3765 106.569 15.4303 106.524 15.4746C106.487 15.5189 106.433 15.541 106.363 15.541H105.519ZM113.375 15.6359C112.673 15.6359 112.116 15.4335 111.705 15.0286C111.294 14.6237 111.072 14.048 111.041 13.3015C111.034 13.2382 111.031 13.1591 111.031 13.0642C111.031 12.963 111.034 12.8839 111.041 12.827C111.066 12.3525 111.173 11.9413 111.363 11.5934C111.559 11.2454 111.828 10.9797 112.17 10.7962C112.511 10.6064 112.913 10.5116 113.375 10.5116C113.887 10.5116 114.318 10.6191 114.666 10.8342C115.014 11.043 115.276 11.3371 115.453 11.7167C115.63 12.09 115.719 12.5233 115.719 13.0168V13.2161C115.719 13.2793 115.697 13.3331 115.653 13.3774C115.608 13.4217 115.551 13.4438 115.482 13.4438H112.331C112.331 13.4438 112.331 13.4533 112.331 13.4723C112.331 13.4913 112.331 13.5071 112.331 13.5197C112.338 13.7412 112.379 13.9468 112.455 14.1366C112.537 14.32 112.654 14.4687 112.806 14.5826C112.964 14.6964 113.15 14.7534 113.366 14.7534C113.543 14.7534 113.691 14.7281 113.812 14.6775C113.932 14.6205 114.03 14.5573 114.106 14.4877C114.182 14.4181 114.235 14.3611 114.267 14.3169C114.324 14.2409 114.368 14.1967 114.4 14.184C114.438 14.165 114.492 14.1555 114.561 14.1555H115.377C115.441 14.1555 115.491 14.1745 115.529 14.2125C115.573 14.2504 115.592 14.2979 115.586 14.3548C115.58 14.456 115.526 14.5794 115.425 14.7249C115.33 14.8704 115.191 15.0128 115.007 15.1519C114.824 15.2911 114.593 15.4082 114.314 15.5031C114.042 15.5916 113.729 15.6359 113.375 15.6359ZM112.331 12.6467H114.428V12.6182C114.428 12.3715 114.387 12.1564 114.305 11.9729C114.223 11.7895 114.103 11.644 113.944 11.5364C113.786 11.4289 113.596 11.3751 113.375 11.3751C113.154 11.3751 112.964 11.4289 112.806 11.5364C112.647 11.644 112.527 11.7895 112.445 11.9729C112.369 12.1564 112.331 12.3715 112.331 12.6182V12.6467Z" fill="black"/>
<path d="M40.387 33.6514C40.2798 33.6514 40.1792 33.6111 40.0854 33.5307C40.0049 33.4502 39.9647 33.3497 39.9647 33.229C39.9647 33.1754 39.9781 33.115 40.0049 33.048L44.852 20.0755C44.8922 19.9414 44.966 19.8274 45.0732 19.7336C45.1939 19.6263 45.3548 19.5727 45.5559 19.5727H47.7482C47.9493 19.5727 48.1035 19.6263 48.2108 19.7336C48.318 19.8274 48.3985 19.9414 48.4521 20.0755L53.2992 33.048C53.3126 33.115 53.3193 33.1754 53.3193 33.229C53.3193 33.3497 53.2791 33.4502 53.1987 33.5307C53.1182 33.6111 53.0244 33.6514 52.9171 33.6514H51.1673C50.9796 33.6514 50.8388 33.6111 50.7449 33.5307C50.6645 33.4368 50.6109 33.3497 50.584 33.2692L49.6388 30.8155H43.6654L42.7201 33.2692C42.6933 33.3497 42.6329 33.4368 42.5391 33.5307C42.4586 33.6111 42.3245 33.6514 42.1368 33.6514H40.387ZM44.3693 28.5026H48.9348L46.642 22.2878L44.3693 28.5026ZM54.0506 37.4727C53.9165 37.4727 53.8026 37.4258 53.7087 37.3319C53.6148 37.2381 53.5679 37.1241 53.5679 36.99V23.6756C53.5679 23.5415 53.6148 23.4275 53.7087 23.3337C53.8026 23.2398 53.9165 23.1929 54.0506 23.1929H55.6395C55.787 23.1929 55.901 23.2398 55.9814 23.3337C56.0753 23.4275 56.1222 23.5415 56.1222 23.6756V24.4801C56.444 24.051 56.8664 23.6957 57.3893 23.4141C57.9122 23.1326 58.5625 22.9918 59.3402 22.9918C60.0508 22.9918 60.6676 23.1057 61.1905 23.3337C61.7134 23.5616 62.1492 23.8901 62.4978 24.3192C62.8464 24.7349 63.1146 25.231 63.3023 25.8075C63.49 26.3841 63.5973 27.021 63.6241 27.7182C63.6375 27.9461 63.6442 28.1808 63.6442 28.4221C63.6442 28.6635 63.6375 28.9048 63.6241 29.1462C63.6107 29.8166 63.5102 30.4401 63.3224 31.0166C63.1347 31.5798 62.8599 32.0759 62.4978 32.505C62.1492 32.9206 61.7134 33.2491 61.1905 33.4905C60.6676 33.7318 60.0508 33.8525 59.3402 33.8525C58.6161 33.8525 57.9994 33.7251 57.4898 33.4704C56.9803 33.2022 56.5647 32.8536 56.2429 32.4245V36.99C56.2429 37.1241 56.1959 37.2381 56.1021 37.3319C56.0216 37.4258 55.9077 37.4727 55.7602 37.4727H54.0506ZM58.596 31.7005C59.1726 31.7005 59.6218 31.5798 59.9436 31.3384C60.2654 31.0837 60.4933 30.7552 60.6274 30.3529C60.7749 29.9507 60.862 29.5082 60.8888 29.0255C60.9157 28.6233 60.9157 28.221 60.8888 27.8188C60.862 27.3361 60.7749 26.8936 60.6274 26.4913C60.4933 26.0891 60.2654 25.7673 59.9436 25.5259C59.6218 25.2712 59.1726 25.1438 58.596 25.1438C58.0463 25.1438 57.5971 25.2712 57.2485 25.5259C56.9133 25.7807 56.6652 26.1092 56.5043 26.5115C56.3568 26.9003 56.2697 27.3025 56.2429 27.7182C56.2295 27.9595 56.2228 28.2143 56.2228 28.4825C56.2228 28.7506 56.2295 29.0121 56.2429 29.2669C56.2563 29.6691 56.3501 30.0579 56.5244 30.4334C56.6987 30.7954 56.9535 31.0971 57.2887 31.3384C57.6239 31.5798 58.0597 31.7005 58.596 31.7005ZM64.997 37.4727C64.8629 37.4727 64.7489 37.4258 64.655 37.3319C64.5612 37.2381 64.5143 37.1241 64.5143 36.99V23.6756C64.5143 23.5415 64.5612 23.4275 64.655 23.3337C64.7489 23.2398 64.8629 23.1929 64.997 23.1929H66.5858C66.7333 23.1929 66.8473 23.2398 66.9278 23.3337C67.0216 23.4275 67.0685 23.5415 67.0685 23.6756V24.4801C67.3903 24.051 67.8127 23.6957 68.3356 23.4141C68.8585 23.1326 69.5088 22.9918 70.2865 22.9918C70.9972 22.9918 71.6139 23.1057 72.1369 23.3337C72.6598 23.5616 73.0956 23.8901 73.4442 24.3192C73.7928 24.7349 74.061 25.231 74.2487 25.8075C74.4364 26.3841 74.5437 27.021 74.5705 27.7182C74.5839 27.9461 74.5906 28.1808 74.5906 28.4221C74.5906 28.6635 74.5839 28.9048 74.5705 29.1462C74.5571 29.8166 74.4565 30.4401 74.2688 31.0166C74.0811 31.5798 73.8062 32.0759 73.4442 32.505C73.0956 32.9206 72.6598 33.2491 72.1369 33.4905C71.6139 33.7318 70.9972 33.8525 70.2865 33.8525C69.5625 33.8525 68.9457 33.7251 68.4362 33.4704C67.9267 33.2022 67.511 32.8536 67.1892 32.4245V36.99C67.1892 37.1241 67.1423 37.2381 67.0484 37.3319C66.968 37.4258 66.854 37.4727 66.7065 37.4727H64.997ZM69.5424 31.7005C70.1189 31.7005 70.5681 31.5798 70.8899 31.3384C71.2117 31.0837 71.4396 30.7552 71.5737 30.3529C71.7212 29.9507 71.8084 29.5082 71.8352 29.0255C71.862 28.6233 71.862 28.221 71.8352 27.8188C71.8084 27.3361 71.7212 26.8936 71.5737 26.4913C71.4396 26.0891 71.2117 25.7673 70.8899 25.5259C70.5681 25.2712 70.1189 25.1438 69.5424 25.1438C68.9926 25.1438 68.5435 25.2712 68.1948 25.5259C67.8596 25.7807 67.6116 26.1092 67.4507 26.5115C67.3032 26.9003 67.216 27.3025 67.1892 27.7182C67.1758 27.9595 67.1691 28.2143 67.1691 28.4825C67.1691 28.7506 67.1758 29.0121 67.1892 29.2669C67.2026 29.6691 67.2965 30.0579 67.4708 30.4334C67.6451 30.7954 67.8999 31.0971 68.2351 31.3384C68.5703 31.5798 69.006 31.7005 69.5424 31.7005ZM83.7573 33.8525C82.5103 33.8525 81.4645 33.6715 80.6198 33.3095C79.7884 32.934 79.1516 32.4513 78.7091 31.8614C78.28 31.258 78.0521 30.6278 78.0253 29.9708C78.0253 29.8501 78.0655 29.7496 78.1459 29.6691C78.2264 29.5887 78.3269 29.5484 78.4476 29.5484H80.2376C80.4119 29.5484 80.5393 29.5887 80.6198 29.6691C80.7136 29.7361 80.7941 29.8233 80.8611 29.9306C80.9416 30.1853 81.0958 30.4401 81.3237 30.6948C81.5516 30.9362 81.86 31.1373 82.2489 31.2982C82.6511 31.4591 83.1539 31.5396 83.7573 31.5396C84.7227 31.5396 85.44 31.3787 85.9093 31.0569C86.392 30.7351 86.6334 30.2993 86.6334 29.7496C86.6334 29.3607 86.506 29.0523 86.2512 28.8244C85.9965 28.583 85.6009 28.3685 85.0646 28.1808C84.5417 27.9797 83.8445 27.7718 82.9729 27.5573C81.9673 27.316 81.1226 27.0277 80.4387 26.6925C79.7683 26.3438 79.2588 25.9081 78.9102 25.3852C78.575 24.8622 78.4074 24.1985 78.4074 23.394C78.4074 22.6163 78.6152 21.9258 79.0309 21.3224C79.4599 20.7191 80.0633 20.2431 80.841 19.8945C81.6321 19.5458 82.5707 19.3715 83.6567 19.3715C84.5283 19.3715 85.2993 19.4922 85.9697 19.7336C86.6401 19.9615 87.1965 20.2699 87.639 20.6587C88.0815 21.0342 88.4167 21.4431 88.6446 21.8856C88.886 22.3147 89.0133 22.737 89.0268 23.1527C89.0268 23.2599 88.9865 23.3605 88.9061 23.4544C88.839 23.5348 88.7385 23.575 88.6044 23.575H86.7339C86.6267 23.575 86.5194 23.5482 86.4121 23.4946C86.3049 23.441 86.2177 23.3404 86.1507 23.1929C86.0702 22.7772 85.8088 22.4219 85.3663 22.1269C84.9238 21.832 84.354 21.6845 83.6567 21.6845C82.9327 21.6845 82.3494 21.8186 81.907 22.0867C81.4645 22.3549 81.2432 22.7705 81.2432 23.3337C81.2432 23.7091 81.3505 24.0242 81.565 24.279C81.793 24.5203 82.1483 24.7349 82.631 24.9226C83.1271 25.1103 83.7774 25.3114 84.5819 25.5259C85.7216 25.7807 86.6535 26.0757 87.3775 26.4109C88.1016 26.7461 88.6312 27.1752 88.9664 27.6981C89.3016 28.2076 89.4692 28.8579 89.4692 29.649C89.4692 30.5339 89.2279 31.2915 88.7452 31.9217C88.2759 32.5385 87.6122 33.0145 86.7541 33.3497C85.8959 33.6849 84.897 33.8525 83.7573 33.8525ZM94.8514 33.6514C94.0469 33.6514 93.3697 33.5106 92.82 33.229C92.2703 32.9474 91.8613 32.5318 91.5931 31.982C91.325 31.4189 91.1909 30.7217 91.1909 29.8903V25.3248H89.602C89.4679 25.3248 89.354 25.2779 89.2601 25.184C89.1662 25.0902 89.1193 24.9762 89.1193 24.8421V23.6756C89.1193 23.5415 89.1662 23.4275 89.2601 23.3337C89.354 23.2398 89.4679 23.1929 89.602 23.1929H91.1909V19.8542C91.1909 19.7202 91.2311 19.6062 91.3116 19.5123C91.4054 19.4185 91.5261 19.3715 91.6736 19.3715H93.3027C93.4368 19.3715 93.5507 19.4185 93.6446 19.5123C93.7385 19.6062 93.7854 19.7202 93.7854 19.8542V23.1929H96.2994C96.4335 23.1929 96.5475 23.2398 96.6414 23.3337C96.7352 23.4275 96.7821 23.5415 96.7821 23.6756V24.8421C96.7821 24.9762 96.7352 25.0902 96.6414 25.184C96.5475 25.2779 96.4335 25.3248 96.2994 25.3248H93.7854V29.6892C93.7854 30.239 93.8792 30.668 94.067 30.9764C94.2681 31.2848 94.61 31.439 95.0927 31.439H96.4805C96.6145 31.439 96.7285 31.4859 96.8224 31.5798C96.9162 31.6736 96.9632 31.7876 96.9632 31.9217V33.1687C96.9632 33.3028 96.9162 33.4167 96.8224 33.5106C96.7285 33.6044 96.6145 33.6514 96.4805 33.6514H94.8514ZM101.965 33.8525C100.893 33.8525 99.9876 33.6648 99.2502 33.2893C98.5261 32.9139 97.9697 32.3843 97.5808 31.7005C97.2054 31.0166 96.9909 30.2188 96.9372 29.3071C96.9238 29.0657 96.9171 28.7707 96.9171 28.4221C96.9171 28.0735 96.9238 27.7785 96.9372 27.5372C96.9909 26.612 97.2121 25.8142 97.6009 25.1438C98.0032 24.46 98.5663 23.9304 99.2904 23.5549C100.028 23.1795 100.919 22.9918 101.965 22.9918C103.011 22.9918 103.896 23.1795 104.62 23.5549C105.358 23.9304 105.921 24.46 106.31 25.1438C106.712 25.8142 106.94 26.612 106.993 27.5372C107.007 27.7785 107.014 28.0735 107.014 28.4221C107.014 28.7707 107.007 29.0657 106.993 29.3071C106.94 30.2188 106.719 31.0166 106.33 31.7005C105.954 32.3843 105.398 32.9139 104.66 33.2893C103.936 33.6648 103.038 33.8525 101.965 33.8525ZM101.965 31.8614C102.676 31.8614 103.226 31.6401 103.615 31.1977C104.003 30.7418 104.218 30.0781 104.258 29.2065C104.272 29.0054 104.278 28.7439 104.278 28.4221C104.278 28.1003 104.272 27.8389 104.258 27.6377C104.218 26.7796 104.003 26.1226 103.615 25.6667C103.226 25.2108 102.676 24.9829 101.965 24.9829C101.255 24.9829 100.705 25.2108 100.316 25.6667C99.9273 26.1226 99.7127 26.7796 99.6725 27.6377C99.6591 27.8389 99.6524 28.1003 99.6524 28.4221C99.6524 28.7439 99.6591 29.0054 99.6725 29.2065C99.7127 30.0781 99.9273 30.7418 100.316 31.1977C100.705 31.6401 101.255 31.8614 101.965 31.8614ZM108.317 33.6514C108.183 33.6514 108.069 33.6044 107.975 33.5106C107.881 33.4167 107.834 33.3028 107.834 33.1687V23.6957C107.834 23.5482 107.881 23.4275 107.975 23.3337C108.069 23.2398 108.183 23.1929 108.317 23.1929H109.946C110.08 23.1929 110.194 23.2398 110.288 23.3337C110.395 23.4275 110.449 23.5482 110.449 23.6957V24.5203C110.757 24.0913 111.153 23.7628 111.635 23.5348C112.131 23.3069 112.701 23.1929 113.345 23.1929H114.169C114.317 23.1929 114.431 23.2398 114.511 23.3337C114.605 23.4275 114.652 23.5415 114.652 23.6756V25.1237C114.652 25.2578 114.605 25.3717 114.511 25.4656C114.431 25.5595 114.317 25.6064 114.169 25.6064H112.601C111.957 25.6064 111.454 25.7874 111.092 26.1494C110.744 26.5115 110.569 27.0076 110.569 27.6377V33.1687C110.569 33.3028 110.522 33.4167 110.429 33.5106C110.335 33.6044 110.214 33.6514 110.067 33.6514H108.317ZM119.181 33.8525C117.692 33.8525 116.512 33.4234 115.641 32.5653C114.769 31.7072 114.3 30.487 114.233 28.9048C114.22 28.7708 114.213 28.6031 114.213 28.402C114.213 28.1875 114.22 28.0199 114.233 27.8992C114.287 26.8936 114.515 26.0221 114.917 25.2846C115.332 24.5471 115.902 23.984 116.626 23.5952C117.35 23.1929 118.202 22.9918 119.181 22.9918C120.267 22.9918 121.178 23.2197 121.916 23.6756C122.653 24.1181 123.21 24.7416 123.585 25.5461C123.961 26.3371 124.148 27.2556 124.148 28.3015V28.7238C124.148 28.8579 124.101 28.9719 124.008 29.0657C123.914 29.1596 123.793 29.2065 123.646 29.2065H116.968C116.968 29.2065 116.968 29.2266 116.968 29.2669C116.968 29.3071 116.968 29.3406 116.968 29.3674C116.982 29.8367 117.069 30.2725 117.23 30.6747C117.404 31.0636 117.652 31.3787 117.974 31.62C118.309 31.8614 118.705 31.982 119.161 31.982C119.536 31.982 119.851 31.9284 120.106 31.8211C120.361 31.7005 120.568 31.5664 120.729 31.4189C120.89 31.2714 121.004 31.1507 121.071 31.0569C121.192 30.896 121.286 30.8021 121.353 30.7753C121.433 30.7351 121.547 30.715 121.695 30.715H123.424C123.558 30.715 123.666 30.7552 123.746 30.8356C123.84 30.9161 123.88 31.0166 123.867 31.1373C123.853 31.3518 123.739 31.6133 123.525 31.9217C123.324 32.2301 123.029 32.5318 122.64 32.8268C122.251 33.1217 121.762 33.3698 121.172 33.5709C120.595 33.7586 119.932 33.8525 119.181 33.8525ZM116.968 27.5171H121.413V27.4567C121.413 26.9338 121.326 26.4779 121.152 26.0891C120.977 25.7003 120.723 25.3919 120.387 25.1639C120.052 24.936 119.65 24.822 119.181 24.822C118.711 24.822 118.309 24.936 117.974 25.1639C117.639 25.3919 117.384 25.7003 117.21 26.0891C117.049 26.4779 116.968 26.9338 116.968 27.4567V27.5171Z" fill="black"/>
</svg>
